%TF.GenerationSoftware,KiCad,Pcbnew,8.0.7*%
%TF.CreationDate,2024-12-27T12:49:26-06:00*%
%TF.ProjectId,left,6c656674-2e6b-4696-9361-645f70636258,v1.0.0*%
%TF.SameCoordinates,Original*%
%TF.FileFunction,Copper,L2,Bot*%
%TF.FilePolarity,Positive*%
%FSLAX46Y46*%
G04 Gerber Fmt 4.6, Leading zero omitted, Abs format (unit mm)*
G04 Created by KiCad (PCBNEW 8.0.7) date 2024-12-27 12:49:26*
%MOMM*%
%LPD*%
G01*
G04 APERTURE LIST*
G04 Aperture macros list*
%AMRotRect*
0 Rectangle, with rotation*
0 The origin of the aperture is its center*
0 $1 length*
0 $2 width*
0 $3 Rotation angle, in degrees counterclockwise*
0 Add horizontal line*
21,1,$1,$2,0,0,$3*%
G04 Aperture macros list end*
%TA.AperFunction,SMDPad,CuDef*%
%ADD10RotRect,0.900000X0.900000X316.000000*%
%TD*%
%TA.AperFunction,WasherPad*%
%ADD11C,1.000000*%
%TD*%
%TA.AperFunction,SMDPad,CuDef*%
%ADD12RotRect,0.900000X1.250000X316.000000*%
%TD*%
%TA.AperFunction,ComponentPad*%
%ADD13R,1.778000X1.778000*%
%TD*%
%TA.AperFunction,SMDPad,CuDef*%
%ADD14R,1.200000X0.900000*%
%TD*%
%TA.AperFunction,ComponentPad*%
%ADD15C,1.905000*%
%TD*%
%TA.AperFunction,SMDPad,CuDef*%
%ADD16R,2.600000X2.600000*%
%TD*%
%TA.AperFunction,ComponentPad*%
%ADD17C,1.752600*%
%TD*%
%TA.AperFunction,ComponentPad*%
%ADD18RotRect,1.778000X1.778000X42.000000*%
%TD*%
%TA.AperFunction,SMDPad,CuDef*%
%ADD19RotRect,0.900000X1.200000X42.000000*%
%TD*%
%TA.AperFunction,SMDPad,CuDef*%
%ADD20RotRect,1.550000X1.000000X316.000000*%
%TD*%
%TA.AperFunction,SMDPad,CuDef*%
%ADD21RotRect,2.600000X2.600000X160.000000*%
%TD*%
%TA.AperFunction,ComponentPad*%
%ADD22R,1.700000X1.200000*%
%TD*%
%TA.AperFunction,ComponentPad*%
%ADD23O,1.700000X1.200000*%
%TD*%
%TA.AperFunction,SMDPad,CuDef*%
%ADD24RotRect,2.600000X2.600000X132.000000*%
%TD*%
%TA.AperFunction,ComponentPad*%
%ADD25RotRect,1.778000X1.778000X70.000000*%
%TD*%
%TA.AperFunction,SMDPad,CuDef*%
%ADD26RotRect,0.900000X1.200000X70.000000*%
%TD*%
%TA.AperFunction,ViaPad*%
%ADD27C,0.800000*%
%TD*%
%TA.AperFunction,Conductor*%
%ADD28C,0.250000*%
%TD*%
G04 APERTURE END LIST*
D10*
%TO.P,T1,*%
%TO.N,*%
X214859089Y-169124410D03*
X213330841Y-170706958D03*
D11*
X215677512Y-171443932D03*
X217835532Y-173527908D03*
D10*
X220182203Y-174264882D03*
X218653955Y-175847430D03*
D12*
%TO.P,T1,1*%
%TO.N,pos*%
X213696591Y-172415569D03*
%TO.P,T1,2*%
%TO.N,RAW*%
X215854611Y-174499544D03*
%TO.P,T1,3*%
%TO.N,N/C*%
X216933620Y-175541531D03*
%TD*%
D13*
%TO.P,D13,1*%
%TO.N,P115*%
X182800000Y-133560000D03*
D14*
X182800000Y-131400000D03*
%TO.P,D13,2*%
%TO.N,fifth_bottom*%
X182800000Y-128100000D03*
D15*
X182800000Y-125940000D03*
%TD*%
D16*
%TO.P,S19,1*%
%TO.N,P011*%
X178275000Y-114450000D03*
%TO.P,S19,2*%
%TO.N,fifth_home*%
X166725000Y-112250000D03*
%TD*%
D13*
%TO.P,D14,1*%
%TO.N,P002*%
X182800000Y-115810000D03*
D14*
X182800000Y-113650000D03*
%TO.P,D14,2*%
%TO.N,fifth_home*%
X182800000Y-110350000D03*
D15*
X182800000Y-108190000D03*
%TD*%
D16*
%TO.P,S13,1*%
%TO.N,P100*%
X159525000Y-143950000D03*
%TO.P,S13,2*%
%TO.N,fourth_mod*%
X147975000Y-141750000D03*
%TD*%
D13*
%TO.P,D25,1*%
%TO.N,P002*%
X145300000Y-107810000D03*
D14*
X145300000Y-105650000D03*
%TO.P,D25,2*%
%TO.N,third_home*%
X145300000Y-102350000D03*
D15*
X145300000Y-100190000D03*
%TD*%
D16*
%TO.P,S18,1*%
%TO.N,P011*%
X178275000Y-132200000D03*
%TO.P,S18,2*%
%TO.N,fifth_bottom*%
X166725000Y-130000000D03*
%TD*%
D17*
%TO.P,MCU1,1*%
%TO.N,P006*%
X198720000Y-87630000D03*
%TO.P,MCU1,2*%
%TO.N,P008*%
X196180000Y-87630000D03*
%TO.P,MCU1,3*%
%TO.N,GND*%
X193640000Y-87630000D03*
%TO.P,MCU1,4*%
X191100000Y-87630000D03*
%TO.P,MCU1,5*%
%TO.N,P017*%
X188560000Y-87630000D03*
%TO.P,MCU1,6*%
%TO.N,P020*%
X186020000Y-87630000D03*
%TO.P,MCU1,7*%
%TO.N,P022*%
X183480000Y-87630000D03*
%TO.P,MCU1,8*%
%TO.N,P024*%
X180940000Y-87630000D03*
%TO.P,MCU1,9*%
%TO.N,P100*%
X178400000Y-87630000D03*
%TO.P,MCU1,10*%
%TO.N,P011*%
X175860000Y-87630000D03*
%TO.P,MCU1,11*%
%TO.N,P104*%
X173320000Y-87630000D03*
%TO.P,MCU1,12*%
%TO.N,P106*%
X170780000Y-87630000D03*
%TO.P,MCU1,13*%
%TO.N,P009*%
X170780000Y-102870000D03*
%TO.P,MCU1,14*%
%TO.N,P010*%
X173320000Y-102870000D03*
%TO.P,MCU1,15*%
%TO.N,P111*%
X175860000Y-102870000D03*
%TO.P,MCU1,16*%
%TO.N,P113*%
X178400000Y-102870000D03*
%TO.P,MCU1,17*%
%TO.N,P115*%
X180940000Y-102870000D03*
%TO.P,MCU1,18*%
%TO.N,P002*%
X183480000Y-102870000D03*
%TO.P,MCU1,19*%
%TO.N,P029*%
X186020000Y-102870000D03*
%TO.P,MCU1,20*%
%TO.N,P031*%
X188560000Y-102870000D03*
%TO.P,MCU1,21*%
%TO.N,VCC*%
X191100000Y-102870000D03*
%TO.P,MCU1,22*%
%TO.N,RST*%
X193640000Y-102870000D03*
%TO.P,MCU1,23*%
%TO.N,GND*%
X196180000Y-102870000D03*
%TO.P,MCU1,24*%
%TO.N,RAW*%
X198720000Y-102870000D03*
%TD*%
D16*
%TO.P,S1,1*%
%TO.N,P020*%
X103275000Y-155950000D03*
%TO.P,S1,2*%
%TO.N,first_mod*%
X91725000Y-153750000D03*
%TD*%
%TO.P,S9,1*%
%TO.N,P024*%
X140775000Y-148950000D03*
%TO.P,S9,2*%
%TO.N,third_mod*%
X129225000Y-146750000D03*
%TD*%
D13*
%TO.P,D27,1*%
%TO.N,P029*%
X164050000Y-93060000D03*
D14*
X164050000Y-90900000D03*
%TO.P,D27,2*%
%TO.N,fourth_top*%
X164050000Y-87600000D03*
D15*
X164050000Y-85440000D03*
%TD*%
D16*
%TO.P,S10,1*%
%TO.N,P024*%
X140775000Y-131200000D03*
%TO.P,S10,2*%
%TO.N,third_bottom*%
X129225000Y-129000000D03*
%TD*%
%TO.P,S14,1*%
%TO.N,P100*%
X159525000Y-126200000D03*
%TO.P,S14,2*%
%TO.N,fourth_bottom*%
X147975000Y-124000000D03*
%TD*%
D13*
%TO.P,D1,1*%
%TO.N,P113*%
X107800000Y-157310000D03*
D14*
X107800000Y-155150000D03*
%TO.P,D1,2*%
%TO.N,first_mod*%
X107800000Y-151850000D03*
D15*
X107800000Y-149690000D03*
%TD*%
D16*
%TO.P,S12,1*%
%TO.N,P024*%
X140775000Y-95700000D03*
%TO.P,S12,2*%
%TO.N,third_top*%
X129225000Y-93500000D03*
%TD*%
%TO.P,S20,1*%
%TO.N,P011*%
X178275000Y-96700000D03*
%TO.P,S20,2*%
%TO.N,fifth_top*%
X166725000Y-94500000D03*
%TD*%
%TO.P,S8,1*%
%TO.N,P022*%
X122025000Y-102700000D03*
%TO.P,S8,2*%
%TO.N,second_top*%
X110475000Y-100500000D03*
%TD*%
%TO.P,S24,1*%
%TO.N,P017*%
X197025000Y-99700000D03*
%TO.P,S24,2*%
%TO.N,sixth_top*%
X185475000Y-97500000D03*
%TD*%
D13*
%TO.P,D12,1*%
%TO.N,P113*%
X182800000Y-151310000D03*
D14*
X182800000Y-149150000D03*
%TO.P,D12,2*%
%TO.N,fifth_mod*%
X182800000Y-145850000D03*
D15*
X182800000Y-143690000D03*
%TD*%
D16*
%TO.P,S23,1*%
%TO.N,P017*%
X197025000Y-117450000D03*
%TO.P,S23,2*%
%TO.N,sixth_home*%
X185475000Y-115250000D03*
%TD*%
D13*
%TO.P,D11,1*%
%TO.N,P002*%
X164050000Y-109810000D03*
D14*
X164050000Y-107650000D03*
%TO.P,D11,2*%
%TO.N,fourth_home*%
X164050000Y-104350000D03*
D15*
X164050000Y-102190000D03*
%TD*%
D13*
%TO.P,D15,1*%
%TO.N,P029*%
X182800000Y-98060000D03*
D14*
X182800000Y-95900000D03*
%TO.P,D15,2*%
%TO.N,fifth_top*%
X182800000Y-92600000D03*
D15*
X182800000Y-90440000D03*
%TD*%
D18*
%TO.P,D20,1*%
%TO.N,P031*%
X214315419Y-191907998D03*
D19*
X215920612Y-190462676D03*
%TO.P,D20,2*%
%TO.N,far_thumb*%
X218372990Y-188254544D03*
D15*
X219978183Y-186809222D03*
%TD*%
D13*
%TO.P,D22,1*%
%TO.N,P002*%
X201550000Y-124810000D03*
D14*
X201550000Y-122650000D03*
%TO.P,D22,2*%
%TO.N,sixth_home*%
X201550000Y-119350000D03*
D15*
X201550000Y-117190000D03*
%TD*%
D16*
%TO.P,S21,1*%
%TO.N,P017*%
X197025000Y-152950000D03*
%TO.P,S21,2*%
%TO.N,sixth_mod*%
X185475000Y-150750000D03*
%TD*%
D13*
%TO.P,D18,1*%
%TO.N,P031*%
X182550000Y-171310000D03*
D14*
X182550000Y-169150000D03*
%TO.P,D18,2*%
%TO.N,near_thumb*%
X182550000Y-165850000D03*
D15*
X182550000Y-163690000D03*
%TD*%
D16*
%TO.P,S5,1*%
%TO.N,P022*%
X122025000Y-155950000D03*
%TO.P,S5,2*%
%TO.N,second_mod*%
X110475000Y-153750000D03*
%TD*%
%TO.P,S15,1*%
%TO.N,P100*%
X159525000Y-108450000D03*
%TO.P,S15,2*%
%TO.N,fourth_home*%
X147975000Y-106250000D03*
%TD*%
%TO.P,S22,1*%
%TO.N,P017*%
X197025000Y-135200000D03*
%TO.P,S22,2*%
%TO.N,sixth_bottom*%
X185475000Y-133000000D03*
%TD*%
%TO.P,S7,1*%
%TO.N,P022*%
X122025000Y-120450000D03*
%TO.P,S7,2*%
%TO.N,second_home*%
X110475000Y-118250000D03*
%TD*%
%TO.P,S6,1*%
%TO.N,P022*%
X122025000Y-138200000D03*
%TO.P,S6,2*%
%TO.N,second_bottom*%
X110475000Y-136000000D03*
%TD*%
D13*
%TO.P,D24,1*%
%TO.N,P029*%
X107800000Y-97060000D03*
D14*
X107800000Y-94900000D03*
%TO.P,D24,2*%
%TO.N,first_top*%
X107800000Y-91600000D03*
D15*
X107800000Y-89440000D03*
%TD*%
D13*
%TO.P,D9,1*%
%TO.N,P029*%
X145300000Y-97060000D03*
D14*
X145300000Y-94900000D03*
%TO.P,D9,2*%
%TO.N,third_top*%
X145300000Y-91600000D03*
D15*
X145300000Y-89440000D03*
%TD*%
D20*
%TO.P,B1,1*%
%TO.N,GND*%
X222001092Y-176270915D03*
X225777626Y-179917871D03*
%TO.P,B1,2*%
%TO.N,RST*%
X220820172Y-177493793D03*
X224596706Y-181140749D03*
%TD*%
D13*
%TO.P,D4,1*%
%TO.N,P115*%
X126550000Y-139560000D03*
D14*
X126550000Y-137400000D03*
%TO.P,D4,2*%
%TO.N,second_bottom*%
X126550000Y-134100000D03*
D15*
X126550000Y-131940000D03*
%TD*%
D16*
%TO.P,S2,1*%
%TO.N,P020*%
X103275000Y-138200000D03*
%TO.P,S2,2*%
%TO.N,first_bottom*%
X91725000Y-136000000D03*
%TD*%
D13*
%TO.P,D3,1*%
%TO.N,P113*%
X126550000Y-157310000D03*
D14*
X126550000Y-155150000D03*
%TO.P,D3,2*%
%TO.N,second_mod*%
X126550000Y-151850000D03*
D15*
X126550000Y-149690000D03*
%TD*%
D16*
%TO.P,S25,1*%
%TO.N,P010*%
X178025000Y-169950000D03*
%TO.P,S25,2*%
%TO.N,near_thumb*%
X166475000Y-167750000D03*
%TD*%
D13*
%TO.P,D16,1*%
%TO.N,P113*%
X201550000Y-154310000D03*
D14*
X201550000Y-152150000D03*
%TO.P,D16,2*%
%TO.N,sixth_mod*%
X201550000Y-148850000D03*
D15*
X201550000Y-146690000D03*
%TD*%
D13*
%TO.P,D17,1*%
%TO.N,P115*%
X201550000Y-136560000D03*
D14*
X201550000Y-134400000D03*
%TO.P,D17,2*%
%TO.N,sixth_bottom*%
X201550000Y-131100000D03*
D15*
X201550000Y-128940000D03*
%TD*%
D21*
%TO.P,S26,1*%
%TO.N,P111*%
X196912043Y-175272790D03*
%TO.P,S26,2*%
%TO.N,home_thumb*%
X186811038Y-169255134D03*
%TD*%
D16*
%TO.P,S3,1*%
%TO.N,P020*%
X103275000Y-120450000D03*
%TO.P,S3,2*%
%TO.N,first_home*%
X91725000Y-118250000D03*
%TD*%
D13*
%TO.P,D26,1*%
%TO.N,P113*%
X164050000Y-146310000D03*
D14*
X164050000Y-144150000D03*
%TO.P,D26,2*%
%TO.N,fourth_mod*%
X164050000Y-140850000D03*
D15*
X164050000Y-138690000D03*
%TD*%
D22*
%TO.P,JST1,1*%
%TO.N,pos*%
X149550000Y-118000000D03*
D23*
%TO.P,JST1,2*%
%TO.N,GND*%
X149550000Y-116000000D03*
%TD*%
D13*
%TO.P,D23,1*%
%TO.N,P115*%
X107800000Y-132560000D03*
D14*
X107800000Y-130400000D03*
%TO.P,D23,2*%
%TO.N,first_bottom*%
X107800000Y-127100000D03*
D15*
X107800000Y-124940000D03*
%TD*%
D16*
%TO.P,S17,1*%
%TO.N,P011*%
X178275000Y-149950000D03*
%TO.P,S17,2*%
%TO.N,fifth_mod*%
X166725000Y-147750000D03*
%TD*%
D13*
%TO.P,D21,1*%
%TO.N,P029*%
X201550000Y-113560000D03*
D14*
X201550000Y-111400000D03*
%TO.P,D21,2*%
%TO.N,sixth_top*%
X201550000Y-108100000D03*
D15*
X201550000Y-105940000D03*
%TD*%
D13*
%TO.P,D8,1*%
%TO.N,P115*%
X145300000Y-132560000D03*
D14*
X145300000Y-130400000D03*
%TO.P,D8,2*%
%TO.N,third_bottom*%
X145300000Y-127100000D03*
D15*
X145300000Y-124940000D03*
%TD*%
D13*
%TO.P,D7,1*%
%TO.N,P113*%
X145300000Y-150310000D03*
D14*
X145300000Y-148150000D03*
%TO.P,D7,2*%
%TO.N,third_mod*%
X145300000Y-144850000D03*
D15*
X145300000Y-142690000D03*
%TD*%
D24*
%TO.P,S27,1*%
%TO.N,P009*%
X212298280Y-187635249D03*
%TO.P,S27,2*%
%TO.N,far_thumb*%
X206204740Y-177579839D03*
%TD*%
D13*
%TO.P,D10,1*%
%TO.N,P115*%
X164050000Y-127560000D03*
D14*
X164050000Y-125400000D03*
%TO.P,D10,2*%
%TO.N,fourth_bottom*%
X164050000Y-122100000D03*
D15*
X164050000Y-119940000D03*
%TD*%
D16*
%TO.P,S11,1*%
%TO.N,P024*%
X140775000Y-113450000D03*
%TO.P,S11,2*%
%TO.N,third_home*%
X129225000Y-111250000D03*
%TD*%
D13*
%TO.P,D5,1*%
%TO.N,P002*%
X126550000Y-121810000D03*
D14*
X126550000Y-119650000D03*
%TO.P,D5,2*%
%TO.N,second_home*%
X126550000Y-116350000D03*
D15*
X126550000Y-114190000D03*
%TD*%
D16*
%TO.P,S4,1*%
%TO.N,P020*%
X103275000Y-102700000D03*
%TO.P,S4,2*%
%TO.N,first_top*%
X91725000Y-100500000D03*
%TD*%
D25*
%TO.P,D19,1*%
%TO.N,P031*%
X200699005Y-178098413D03*
D26*
X201437769Y-176068677D03*
%TO.P,D19,2*%
%TO.N,home_thumb*%
X202566435Y-172967691D03*
D15*
X203305199Y-170937955D03*
%TD*%
D13*
%TO.P,D6,1*%
%TO.N,P029*%
X126550000Y-104060000D03*
D14*
X126550000Y-101900000D03*
%TO.P,D6,2*%
%TO.N,second_top*%
X126550000Y-98600000D03*
D15*
X126550000Y-96440000D03*
%TD*%
D16*
%TO.P,S16,1*%
%TO.N,P100*%
X159525000Y-90700000D03*
%TO.P,S16,2*%
%TO.N,fourth_top*%
X147975000Y-88500000D03*
%TD*%
D13*
%TO.P,D2,1*%
%TO.N,P002*%
X107800000Y-121810000D03*
D14*
X107800000Y-119650000D03*
%TO.P,D2,2*%
%TO.N,first_home*%
X107800000Y-116350000D03*
D15*
X107800000Y-114190000D03*
%TD*%
D27*
%TO.N,P020*%
X116000000Y-102500000D03*
X103500000Y-105500000D03*
X103000000Y-141000000D03*
X103500000Y-153500000D03*
X103500000Y-118000000D03*
X103500000Y-123000000D03*
X103500000Y-135500000D03*
X116500000Y-87500000D03*
%TO.N,P022*%
X124500000Y-137500000D03*
X167000000Y-99000000D03*
X167000000Y-85500000D03*
X124500000Y-155500000D03*
X122000000Y-105500000D03*
X124500000Y-120500000D03*
X122000000Y-118000000D03*
%TO.N,P024*%
X143000000Y-131500000D03*
X143000000Y-94500000D03*
X143000000Y-95500000D03*
X143000000Y-113000000D03*
X141500000Y-81500000D03*
X143500000Y-149000000D03*
X180500000Y-82500000D03*
%TO.N,P100*%
X162000000Y-90500000D03*
X161500000Y-144000000D03*
X168000000Y-89000000D03*
X162000000Y-108000000D03*
X162000000Y-126500000D03*
X178500000Y-84000000D03*
X168000000Y-84000000D03*
%TO.N,P011*%
X177198700Y-116275000D03*
X180500000Y-97000000D03*
X176000000Y-94500000D03*
X177000000Y-147500000D03*
X177198700Y-135000000D03*
%TO.N,P017*%
X192500000Y-137500000D03*
X192500000Y-114500000D03*
X199500000Y-108000000D03*
X191500000Y-108000000D03*
X199500000Y-100000000D03*
X195000000Y-150500000D03*
X197500000Y-91000000D03*
%TO.N,P010*%
X173000000Y-105000000D03*
X180000000Y-169500000D03*
X171000000Y-137500000D03*
X179000000Y-139000000D03*
%TO.N,P111*%
X192500000Y-171000000D03*
%TO.N,P009*%
X170500000Y-106000000D03*
X193000000Y-106500000D03*
X214500000Y-185500000D03*
%TO.N,P113*%
X167000000Y-144000000D03*
X178000000Y-111500000D03*
X173000000Y-111500000D03*
%TO.N,P002*%
X164000000Y-111500000D03*
X144000000Y-119500000D03*
X144000000Y-110000000D03*
X164000000Y-117000000D03*
X184500000Y-113000000D03*
%TO.N,P115*%
X179500000Y-123500000D03*
X180500000Y-131500000D03*
%TO.N,P029*%
X186000000Y-105500000D03*
X186000000Y-113349998D03*
X121500000Y-100000000D03*
X121500000Y-94500000D03*
%TO.N,P031*%
X185000000Y-166500000D03*
%TO.N,RAW*%
X212000000Y-175000000D03*
%TO.N,GND*%
X220000000Y-176000000D03*
%TO.N,RST*%
X197500000Y-96500000D03*
X213500000Y-177500000D03*
X194512653Y-96487347D03*
%TO.N,pos*%
X173000000Y-176000000D03*
X153500000Y-141500000D03*
X173000000Y-142000000D03*
%TD*%
D28*
%TO.N,P020*%
X183000000Y-81500000D02*
X186020000Y-84520000D01*
X146000000Y-78500000D02*
X166000000Y-78500000D01*
X115800000Y-102700000D02*
X116000000Y-102500000D01*
X103275000Y-140725000D02*
X103000000Y-141000000D01*
X166000000Y-78500000D02*
X169000000Y-81500000D01*
X103275000Y-118225000D02*
X103275000Y-120450000D01*
X103275000Y-138200000D02*
X103275000Y-140725000D01*
X103500000Y-135500000D02*
X103500000Y-137975000D01*
X103275000Y-102700000D02*
X103275000Y-105275000D01*
X186020000Y-84520000D02*
X186020000Y-87630000D01*
X133000000Y-80500000D02*
X144000000Y-80500000D01*
X169000000Y-81500000D02*
X183000000Y-81500000D01*
X117125000Y-86875000D02*
X126625000Y-86875000D01*
X103500000Y-153500000D02*
X103275000Y-153725000D01*
X126625000Y-86875000D02*
X133000000Y-80500000D01*
X103275000Y-102700000D02*
X115800000Y-102700000D01*
X103275000Y-105275000D02*
X103500000Y-105500000D01*
X144000000Y-80500000D02*
X146000000Y-78500000D01*
X103500000Y-118000000D02*
X103275000Y-118225000D01*
X103500000Y-137975000D02*
X103275000Y-138200000D01*
X116500000Y-87500000D02*
X117125000Y-86875000D01*
X103275000Y-122775000D02*
X103500000Y-123000000D01*
X103275000Y-120450000D02*
X103275000Y-122775000D01*
X103275000Y-153725000D02*
X103275000Y-155950000D01*
%TO.N,first_mod*%
X107560500Y-152089500D02*
X107800000Y-151850000D01*
X98875000Y-151875000D02*
X99089500Y-152089500D01*
X91725000Y-153775000D02*
X93625000Y-151875000D01*
X93625000Y-151875000D02*
X98875000Y-151875000D01*
X107800000Y-151850000D02*
X107800000Y-149690000D01*
X91725000Y-153750000D02*
X91725000Y-153775000D01*
X99089500Y-152089500D02*
X107560500Y-152089500D01*
%TO.N,first_bottom*%
X97916316Y-127100000D02*
X107800000Y-127100000D01*
X91725000Y-133291316D02*
X97916316Y-127100000D01*
X91725000Y-136000000D02*
X91725000Y-133291316D01*
X107800000Y-127100000D02*
X107800000Y-124940000D01*
%TO.N,first_home*%
X98920001Y-116375000D02*
X99545001Y-117000000D01*
X93600000Y-116375000D02*
X98920001Y-116375000D01*
X99545001Y-117000000D02*
X107150000Y-117000000D01*
X107150000Y-117000000D02*
X107800000Y-116350000D01*
X91725000Y-118250000D02*
X93600000Y-116375000D01*
X107800000Y-114190000D02*
X107800000Y-116350000D01*
%TO.N,first_top*%
X91725000Y-97791316D02*
X97916316Y-91600000D01*
X107800000Y-91600000D02*
X107800000Y-89440000D01*
X97916316Y-91600000D02*
X107800000Y-91600000D01*
X91725000Y-100500000D02*
X91725000Y-97791316D01*
%TO.N,P022*%
X122025000Y-102700000D02*
X124599000Y-105274000D01*
X122025000Y-120450000D02*
X124450000Y-120450000D01*
X138409342Y-105274000D02*
X144770842Y-98912500D01*
X124450000Y-120450000D02*
X124500000Y-120500000D01*
X122000000Y-120425000D02*
X122025000Y-120450000D01*
X145916658Y-99000000D02*
X167000000Y-99000000D01*
X145829158Y-98912500D02*
X145916658Y-99000000D01*
X124500000Y-137500000D02*
X123500000Y-137500000D01*
X124599000Y-105274000D02*
X138409342Y-105274000D01*
X144770842Y-98912500D02*
X145829158Y-98912500D01*
X122800000Y-138200000D02*
X122025000Y-138200000D01*
X122025000Y-105475000D02*
X122000000Y-105500000D01*
X167000000Y-85500000D02*
X181350000Y-85500000D01*
X123500000Y-137500000D02*
X122800000Y-138200000D01*
X181350000Y-85500000D02*
X183480000Y-87630000D01*
X124500000Y-155500000D02*
X124050000Y-155950000D01*
X122025000Y-102700000D02*
X122025000Y-105475000D01*
X122000000Y-118000000D02*
X122000000Y-120425000D01*
X124050000Y-155950000D02*
X122025000Y-155950000D01*
%TO.N,second_mod*%
X126310500Y-152089500D02*
X126550000Y-151850000D01*
X117589500Y-152089500D02*
X126310500Y-152089500D01*
X126550000Y-151850000D02*
X126550000Y-149690000D01*
X117375000Y-151875000D02*
X117589500Y-152089500D01*
X112350000Y-151875000D02*
X117375000Y-151875000D01*
X110475000Y-153750000D02*
X112350000Y-151875000D01*
%TO.N,second_bottom*%
X117339500Y-134339500D02*
X126310500Y-134339500D01*
X126550000Y-134100000D02*
X126550000Y-131940000D01*
X126310500Y-134339500D02*
X126550000Y-134100000D01*
X112350000Y-134125000D02*
X117125000Y-134125000D01*
X117125000Y-134125000D02*
X117339500Y-134339500D01*
X110475000Y-136000000D02*
X112350000Y-134125000D01*
%TO.N,second_home*%
X117589500Y-116589500D02*
X126310500Y-116589500D01*
X110475000Y-118250000D02*
X112350000Y-116375000D01*
X126310500Y-116589500D02*
X126550000Y-116350000D01*
X112350000Y-116375000D02*
X117375000Y-116375000D01*
X117375000Y-116375000D02*
X117589500Y-116589500D01*
X126550000Y-116350000D02*
X126550000Y-114190000D01*
%TO.N,second_top*%
X112350000Y-98625000D02*
X117625000Y-98625000D01*
X117625000Y-98625000D02*
X117839500Y-98839500D01*
X126310500Y-98839500D02*
X126550000Y-98600000D01*
X110475000Y-100500000D02*
X112350000Y-98625000D01*
X126550000Y-98600000D02*
X126550000Y-96440000D01*
X117839500Y-98839500D02*
X126310500Y-98839500D01*
%TO.N,P024*%
X140775000Y-148950000D02*
X143450000Y-148950000D01*
X142800000Y-95700000D02*
X143000000Y-95500000D01*
X143450000Y-148950000D02*
X143500000Y-149000000D01*
X142700000Y-131200000D02*
X143000000Y-131500000D01*
X140775000Y-95700000D02*
X142800000Y-95700000D01*
X142550000Y-113450000D02*
X143000000Y-113000000D01*
X179950000Y-81950000D02*
X180500000Y-82500000D01*
X141950000Y-81950000D02*
X179950000Y-81950000D01*
X141500000Y-81500000D02*
X141950000Y-81950000D01*
X143000000Y-95500000D02*
X143000000Y-94500000D01*
X140775000Y-131200000D02*
X142700000Y-131200000D01*
X140775000Y-113450000D02*
X142550000Y-113450000D01*
%TO.N,third_mod*%
X145300000Y-144850000D02*
X145300000Y-142690000D01*
X145060500Y-145089500D02*
X145300000Y-144850000D01*
X131100000Y-144875000D02*
X136375000Y-144875000D01*
X129225000Y-146750000D02*
X131100000Y-144875000D01*
X136375000Y-144875000D02*
X136589500Y-145089500D01*
X136589500Y-145089500D02*
X145060500Y-145089500D01*
%TO.N,third_bottom*%
X136500000Y-127500000D02*
X144900000Y-127500000D01*
X145300000Y-127100000D02*
X145300000Y-124940000D01*
X131100000Y-127125000D02*
X136125000Y-127125000D01*
X129225000Y-129000000D02*
X131100000Y-127125000D01*
X144900000Y-127500000D02*
X145300000Y-127100000D01*
X136125000Y-127125000D02*
X136500000Y-127500000D01*
%TO.N,third_home*%
X136375000Y-109375000D02*
X136589500Y-109589500D01*
X145300000Y-102350000D02*
X145300000Y-100190000D01*
X129225000Y-111250000D02*
X131100000Y-109375000D01*
X138365499Y-109589500D02*
X145300000Y-102654999D01*
X136589500Y-109589500D02*
X138365499Y-109589500D01*
X131100000Y-109375000D02*
X136375000Y-109375000D01*
X145300000Y-102654999D02*
X145300000Y-102350000D01*
%TO.N,third_top*%
X145300000Y-91600000D02*
X145300000Y-89440000D01*
X129225000Y-93500000D02*
X131100000Y-91625000D01*
X131100000Y-91625000D02*
X136125000Y-91625000D01*
X136125000Y-91625000D02*
X136339500Y-91839500D01*
X136339500Y-91839500D02*
X145060500Y-91839500D01*
X145060500Y-91839500D02*
X145300000Y-91600000D01*
%TO.N,P100*%
X159525000Y-108450000D02*
X161550000Y-108450000D01*
X161550000Y-108450000D02*
X162000000Y-108000000D01*
X159525000Y-126200000D02*
X161700000Y-126200000D01*
X161800000Y-90700000D02*
X162000000Y-90500000D01*
X168000000Y-84000000D02*
X178500000Y-84000000D01*
X159525000Y-143950000D02*
X161450000Y-143950000D01*
X163500000Y-89000000D02*
X168000000Y-89000000D01*
X161450000Y-143950000D02*
X161500000Y-144000000D01*
X161700000Y-126200000D02*
X162000000Y-126500000D01*
X159525000Y-90700000D02*
X161800000Y-90700000D01*
X162000000Y-90500000D02*
X163500000Y-89000000D01*
%TO.N,fourth_mod*%
X155170001Y-139875000D02*
X156145001Y-140850000D01*
X149850000Y-139875000D02*
X155170001Y-139875000D01*
X147975000Y-141750000D02*
X149850000Y-139875000D01*
X156145001Y-140850000D02*
X164050000Y-140850000D01*
X164050000Y-140850000D02*
X164050000Y-138690000D01*
%TO.N,fourth_bottom*%
X156000000Y-123000000D02*
X163150000Y-123000000D01*
X149850000Y-122125000D02*
X155125000Y-122125000D01*
X155125000Y-122125000D02*
X156000000Y-123000000D01*
X147975000Y-124000000D02*
X149850000Y-122125000D01*
X163150000Y-123000000D02*
X164050000Y-122100000D01*
X164050000Y-122100000D02*
X164050000Y-119940000D01*
%TO.N,fourth_home*%
X154875000Y-104375000D02*
X155500000Y-105000000D01*
X155500000Y-105000000D02*
X163400000Y-105000000D01*
X147975000Y-106250000D02*
X149850000Y-104375000D01*
X164050000Y-104350000D02*
X164050000Y-102190000D01*
X149850000Y-104375000D02*
X154875000Y-104375000D01*
X163400000Y-105000000D02*
X164050000Y-104350000D01*
%TO.N,fourth_top*%
X156698350Y-87600000D02*
X164050000Y-87600000D01*
X153923350Y-90375000D02*
X156698350Y-87600000D01*
X147975000Y-88500000D02*
X149850000Y-90375000D01*
X164050000Y-87600000D02*
X164050000Y-85440000D01*
X149850000Y-90375000D02*
X153923350Y-90375000D01*
%TO.N,P011*%
X178275000Y-96700000D02*
X178200000Y-96700000D01*
X178275000Y-133923700D02*
X177198700Y-135000000D01*
X177000000Y-147500000D02*
X177000000Y-148675000D01*
X178275000Y-114450000D02*
X178275000Y-116000000D01*
X180200000Y-96700000D02*
X180500000Y-97000000D01*
X178275000Y-116000000D02*
X178000000Y-116275000D01*
X178200000Y-96700000D02*
X176000000Y-94500000D01*
X178275000Y-132200000D02*
X178275000Y-133923700D01*
X177000000Y-148675000D02*
X178275000Y-149950000D01*
X178275000Y-96700000D02*
X180200000Y-96700000D01*
X178000000Y-116275000D02*
X177198700Y-116275000D01*
%TO.N,fifth_mod*%
X182800000Y-145850000D02*
X182800000Y-143690000D01*
X174545001Y-146500000D02*
X182150000Y-146500000D01*
X173920001Y-145875000D02*
X174545001Y-146500000D01*
X166725000Y-147750000D02*
X168600000Y-145875000D01*
X168600000Y-145875000D02*
X173920001Y-145875000D01*
X182150000Y-146500000D02*
X182800000Y-145850000D01*
%TO.N,fifth_bottom*%
X174000000Y-128500000D02*
X182400000Y-128500000D01*
X166725000Y-130000000D02*
X168600000Y-128125000D01*
X182800000Y-128100000D02*
X182800000Y-125940000D01*
X182400000Y-128500000D02*
X182800000Y-128100000D01*
X168600000Y-128125000D02*
X173625000Y-128125000D01*
X173625000Y-128125000D02*
X174000000Y-128500000D01*
%TO.N,fifth_home*%
X182800000Y-110350000D02*
X182800000Y-108190000D01*
X182560500Y-110589500D02*
X182800000Y-110350000D01*
X173875000Y-110375000D02*
X174089500Y-110589500D01*
X174089500Y-110589500D02*
X182560500Y-110589500D01*
X166725000Y-112250000D02*
X168600000Y-110375000D01*
X168600000Y-110375000D02*
X173875000Y-110375000D01*
%TO.N,fifth_top*%
X174000000Y-93000000D02*
X182400000Y-93000000D01*
X182400000Y-93000000D02*
X182800000Y-92600000D01*
X166725000Y-94500000D02*
X168600000Y-92625000D01*
X168600000Y-92625000D02*
X173625000Y-92625000D01*
X182800000Y-92600000D02*
X182800000Y-90440000D01*
X173625000Y-92625000D02*
X174000000Y-93000000D01*
%TO.N,P017*%
X195000000Y-150500000D02*
X195000000Y-150925000D01*
X197025000Y-135200000D02*
X194725000Y-137500000D01*
X199200000Y-99700000D02*
X199500000Y-100000000D01*
X199500000Y-108000000D02*
X191500000Y-108000000D01*
X195000000Y-150925000D02*
X197025000Y-152950000D01*
X197025000Y-99700000D02*
X199200000Y-99700000D01*
X194075000Y-114500000D02*
X192500000Y-114500000D01*
X191930000Y-91000000D02*
X188560000Y-87630000D01*
X194725000Y-137500000D02*
X192500000Y-137500000D01*
X197500000Y-91000000D02*
X191930000Y-91000000D01*
X197025000Y-117450000D02*
X194075000Y-114500000D01*
%TO.N,sixth_mod*%
X191375000Y-152625000D02*
X195150000Y-148850000D01*
X195150000Y-148850000D02*
X201550000Y-148850000D01*
X185475000Y-150750000D02*
X187350000Y-152625000D01*
X187350000Y-152625000D02*
X191375000Y-152625000D01*
X201550000Y-148850000D02*
X201550000Y-146690000D01*
%TO.N,sixth_bottom*%
X187350000Y-131125000D02*
X192625000Y-131125000D01*
X192625000Y-131125000D02*
X193000000Y-131500000D01*
X201550000Y-131100000D02*
X201550000Y-128940000D01*
X193000000Y-131500000D02*
X201150000Y-131500000D01*
X201150000Y-131500000D02*
X201550000Y-131100000D01*
X185475000Y-133000000D02*
X187350000Y-131125000D01*
%TO.N,sixth_home*%
X199415000Y-119325000D02*
X201550000Y-117190000D01*
X185475000Y-115250000D02*
X186098350Y-115250000D01*
X201550000Y-117190000D02*
X201550000Y-119350000D01*
X186098350Y-115250000D02*
X190173350Y-119325000D01*
X190173350Y-119325000D02*
X199415000Y-119325000D01*
%TO.N,sixth_top*%
X187350000Y-95625000D02*
X192625000Y-95625000D01*
X192625000Y-95625000D02*
X195000000Y-98000000D01*
X201550000Y-105940000D02*
X201550000Y-108100000D01*
X201550000Y-100975000D02*
X201550000Y-105940000D01*
X185475000Y-97500000D02*
X187350000Y-95625000D01*
X195000000Y-98000000D02*
X198575000Y-98000000D01*
X198575000Y-98000000D02*
X201550000Y-100975000D01*
%TO.N,P010*%
X171000000Y-137500000D02*
X177500000Y-137500000D01*
X173320000Y-102870000D02*
X173320000Y-104680000D01*
X177500000Y-137500000D02*
X179000000Y-139000000D01*
X173320000Y-104680000D02*
X173000000Y-105000000D01*
X178475000Y-169500000D02*
X178025000Y-169950000D01*
X180000000Y-169500000D02*
X178475000Y-169500000D01*
%TO.N,near_thumb*%
X173375000Y-165875000D02*
X173589500Y-166089500D01*
X166475000Y-167750000D02*
X168350000Y-165875000D01*
X168350000Y-165875000D02*
X173375000Y-165875000D01*
X182310500Y-166089500D02*
X182550000Y-165850000D01*
X182550000Y-165850000D02*
X182550000Y-163690000D01*
X173589500Y-166089500D02*
X182310500Y-166089500D01*
%TO.N,P111*%
X194022684Y-171000000D02*
X192500000Y-171000000D01*
X196912043Y-173889359D02*
X194022684Y-171000000D01*
X196912043Y-175272790D02*
X196912043Y-173889359D01*
%TO.N,home_thumb*%
X203305199Y-170937955D02*
X203305199Y-172228927D01*
X192593934Y-168240866D02*
X197320759Y-172967691D01*
X186811038Y-169255134D02*
X187825306Y-168240866D01*
X203305199Y-172228927D02*
X202566435Y-172967691D01*
X197320759Y-172967691D02*
X202566435Y-172967691D01*
X187825306Y-168240866D02*
X192593934Y-168240866D01*
%TO.N,P009*%
X214433529Y-185500000D02*
X214500000Y-185500000D01*
X170910500Y-106410500D02*
X170500000Y-106000000D01*
X193000000Y-106500000D02*
X192910500Y-106410500D01*
X212298280Y-187635249D02*
X214433529Y-185500000D01*
X192910500Y-106410500D02*
X170910500Y-106410500D01*
%TO.N,far_thumb*%
X219978183Y-183714718D02*
X219978183Y-186809222D01*
X219978183Y-186809222D02*
X219818312Y-186809222D01*
X215263465Y-179000000D02*
X219978183Y-183714718D01*
X219818312Y-186809222D02*
X218372990Y-188254544D01*
X209561700Y-177579839D02*
X210981861Y-179000000D01*
X210981861Y-179000000D02*
X215263465Y-179000000D01*
X206204740Y-177579839D02*
X209561700Y-177579839D01*
%TO.N,P113*%
X108315000Y-157825000D02*
X126035000Y-157825000D01*
X167550000Y-151825000D02*
X182285000Y-151825000D01*
X107800000Y-155150000D02*
X107800000Y-157310000D01*
X145300000Y-148150000D02*
X162210000Y-148150000D01*
X164050000Y-146310000D02*
X164050000Y-144150000D01*
X201550000Y-154310000D02*
X201550000Y-152150000D01*
X144785000Y-150825000D02*
X145300000Y-150310000D01*
X186315000Y-154825000D02*
X201035000Y-154825000D01*
X201035000Y-154825000D02*
X201550000Y-154310000D01*
X166850000Y-144150000D02*
X167000000Y-144000000D01*
X130875000Y-150825000D02*
X144785000Y-150825000D01*
X164050000Y-144150000D02*
X166850000Y-144150000D01*
X164050000Y-146310000D02*
X164050000Y-148325000D01*
X126550000Y-157310000D02*
X126550000Y-155150000D01*
X182285000Y-151825000D02*
X182800000Y-151310000D01*
X182800000Y-151310000D02*
X186315000Y-154825000D01*
X145300000Y-150310000D02*
X145300000Y-148150000D01*
X164050000Y-148325000D02*
X167550000Y-151825000D01*
X173000000Y-111500000D02*
X178000000Y-111500000D01*
X126550000Y-155150000D02*
X130875000Y-150825000D01*
X126035000Y-157825000D02*
X126550000Y-157310000D01*
X162210000Y-148150000D02*
X164050000Y-146310000D01*
X182800000Y-151310000D02*
X182800000Y-149150000D01*
X107800000Y-157310000D02*
X108315000Y-157825000D01*
%TO.N,P002*%
X144500000Y-108610000D02*
X145300000Y-107810000D01*
X126035000Y-122325000D02*
X126550000Y-121810000D01*
X144000000Y-110000000D02*
X144500000Y-109500000D01*
X163535000Y-110325000D02*
X164050000Y-109810000D01*
X108315000Y-122325000D02*
X126035000Y-122325000D01*
X126550000Y-121810000D02*
X126550000Y-119650000D01*
X189640000Y-122650000D02*
X201550000Y-122650000D01*
X152325000Y-110325000D02*
X163535000Y-110325000D01*
X164050000Y-109810000D02*
X164050000Y-107650000D01*
X182800000Y-115810000D02*
X182800000Y-113650000D01*
X164050000Y-109810000D02*
X164050000Y-111450000D01*
X145300000Y-107810000D02*
X145365000Y-107875000D01*
X144500000Y-109500000D02*
X144500000Y-108610000D01*
X143850000Y-119650000D02*
X144000000Y-119500000D01*
X149875000Y-107875000D02*
X152325000Y-110325000D01*
X182800000Y-115810000D02*
X189640000Y-122650000D01*
X145365000Y-107875000D02*
X149875000Y-107875000D01*
X126550000Y-119650000D02*
X143850000Y-119650000D01*
X107800000Y-121810000D02*
X108315000Y-122325000D01*
X181610000Y-117000000D02*
X182800000Y-115810000D01*
X164050000Y-111450000D02*
X164000000Y-111500000D01*
X201550000Y-122650000D02*
X201550000Y-124810000D01*
X107800000Y-119650000D02*
X107800000Y-121810000D01*
X164000000Y-117000000D02*
X181610000Y-117000000D01*
X145300000Y-107810000D02*
X145300000Y-105650000D01*
X182800000Y-113650000D02*
X183850000Y-113650000D01*
X183850000Y-113650000D02*
X184500000Y-113000000D01*
%TO.N,P115*%
X164050000Y-125400000D02*
X165950000Y-123500000D01*
X107800000Y-132560000D02*
X107800000Y-136575000D01*
X115500000Y-138000000D02*
X117575000Y-140075000D01*
X191423350Y-134875000D02*
X192973350Y-133325000D01*
X117575000Y-140075000D02*
X126035000Y-140075000D01*
X165950000Y-123500000D02*
X179500000Y-123500000D01*
X182800000Y-133575000D02*
X184100000Y-134875000D01*
X126035000Y-140075000D02*
X126550000Y-139560000D01*
X182800000Y-133560000D02*
X182800000Y-133575000D01*
X147325000Y-128375000D02*
X163235000Y-128375000D01*
X201550000Y-134400000D02*
X201550000Y-136560000D01*
X107800000Y-136575000D02*
X109225000Y-138000000D01*
X192973350Y-133325000D02*
X200475000Y-133325000D01*
X164050000Y-127560000D02*
X164050000Y-125400000D01*
X180500000Y-131500000D02*
X182700000Y-131500000D01*
X200475000Y-133325000D02*
X201550000Y-134400000D01*
X109225000Y-138000000D02*
X115500000Y-138000000D01*
X107800000Y-130400000D02*
X107800000Y-132560000D01*
X145300000Y-132560000D02*
X145300000Y-130400000D01*
X184100000Y-134875000D02*
X191423350Y-134875000D01*
X126550000Y-139560000D02*
X126550000Y-137400000D01*
X182700000Y-131500000D02*
X182800000Y-131400000D01*
X140460000Y-137400000D02*
X145300000Y-132560000D01*
X126550000Y-137400000D02*
X140460000Y-137400000D01*
X145300000Y-130400000D02*
X147325000Y-128375000D01*
X182800000Y-131400000D02*
X182800000Y-133560000D01*
X163235000Y-128375000D02*
X164050000Y-127560000D01*
%TO.N,P029*%
X173813604Y-93450000D02*
X180350000Y-93450000D01*
X124650000Y-100000000D02*
X126550000Y-101900000D01*
X164050000Y-93060000D02*
X164050000Y-95075000D01*
X164050000Y-93060000D02*
X164050000Y-90900000D01*
X201520500Y-113589500D02*
X201550000Y-113560000D01*
X186020000Y-105480000D02*
X186000000Y-105500000D01*
X192644999Y-113349998D02*
X192884501Y-113589500D01*
X182800000Y-95900000D02*
X182800000Y-98060000D01*
X126550000Y-101900000D02*
X126550000Y-104060000D01*
X162210000Y-94900000D02*
X164050000Y-93060000D01*
X186000000Y-113349998D02*
X192644999Y-113349998D01*
X110360000Y-94500000D02*
X121500000Y-94500000D01*
X182800000Y-98060000D02*
X182800000Y-99650000D01*
X107800000Y-97060000D02*
X110360000Y-94500000D01*
X192884501Y-113589500D02*
X201520500Y-113589500D01*
X107800000Y-94900000D02*
X107800000Y-97060000D01*
X201550000Y-113560000D02*
X201550000Y-111400000D01*
X126550000Y-101900000D02*
X140460000Y-101900000D01*
X182800000Y-99650000D02*
X186020000Y-102870000D01*
X121500000Y-100000000D02*
X124650000Y-100000000D01*
X164050000Y-95075000D02*
X165350000Y-96375000D01*
X170888604Y-96375000D02*
X173813604Y-93450000D01*
X140460000Y-101900000D02*
X145300000Y-97060000D01*
X165350000Y-96375000D02*
X170888604Y-96375000D01*
X186020000Y-102870000D02*
X186020000Y-105480000D01*
X145300000Y-94900000D02*
X162210000Y-94900000D01*
X145300000Y-97060000D02*
X145300000Y-94900000D01*
X180350000Y-93450000D02*
X182800000Y-95900000D01*
%TO.N,P031*%
X200699005Y-178098413D02*
X200699005Y-176807441D01*
X213562536Y-191907998D02*
X214315419Y-191907998D01*
X200699005Y-179044467D02*
X213562536Y-191907998D01*
X182550000Y-168950000D02*
X185000000Y-166500000D01*
X182550000Y-169150000D02*
X182550000Y-171310000D01*
X214315419Y-191907998D02*
X214475290Y-191907998D01*
X200699005Y-176807441D02*
X201437769Y-176068677D01*
X200699005Y-178098413D02*
X200699005Y-179044467D01*
X182550000Y-169150000D02*
X182550000Y-168950000D01*
X214475290Y-191907998D02*
X215920612Y-190462676D01*
%TO.N,RAW*%
X215854611Y-174499544D02*
X212500456Y-174499544D01*
X212500456Y-174499544D02*
X212000000Y-175000000D01*
%TO.N,GND*%
X225777626Y-179917871D02*
X225057847Y-179917871D01*
X222001092Y-176861116D02*
X222001092Y-176270915D01*
X191100000Y-87630000D02*
X193640000Y-87630000D01*
X225057847Y-179917871D02*
X222001092Y-176861116D01*
X221730177Y-176000000D02*
X222001092Y-176270915D01*
X220000000Y-176000000D02*
X221730177Y-176000000D01*
%TO.N,RST*%
X220820172Y-177493793D02*
X220820172Y-179232012D01*
X197500000Y-96500000D02*
X194525306Y-96500000D01*
X213506207Y-177493793D02*
X213500000Y-177500000D01*
X220820172Y-177493793D02*
X213506207Y-177493793D01*
X194525306Y-96500000D02*
X194512653Y-96487347D01*
X222728909Y-181140749D02*
X224596706Y-181140749D01*
X220820172Y-179232012D02*
X222728909Y-181140749D01*
%TO.N,pos*%
X154000000Y-142000000D02*
X173000000Y-142000000D01*
X202008845Y-174000000D02*
X212112160Y-174000000D01*
X174264017Y-177264017D02*
X198744828Y-177264017D01*
X153500000Y-141500000D02*
X154000000Y-142000000D01*
X173000000Y-176000000D02*
X174264017Y-177264017D01*
X198744828Y-177264017D02*
X202008845Y-174000000D01*
X212112160Y-174000000D02*
X213696591Y-172415569D01*
%TD*%
M02*
