%TF.GenerationSoftware,KiCad,Pcbnew,8.0.7*%
%TF.CreationDate,2024-12-27T12:49:26-06:00*%
%TF.ProjectId,left,6c656674-2e6b-4696-9361-645f70636258,v1.0.0*%
%TF.SameCoordinates,Original*%
%TF.FileFunction,Profile,NP*%
%FSLAX46Y46*%
G04 Gerber Fmt 4.6, Leading zero omitted, Abs format (unit mm)*
G04 Created by KiCad (PCBNEW 8.0.7) date 2024-12-27 12:49:26*
%MOMM*%
%LPD*%
G01*
G04 APERTURE LIST*
%TA.AperFunction,Profile*%
%ADD10C,0.150000*%
%TD*%
G04 APERTURE END LIST*
D10*
X164926424Y-175012315D02*
G75*
G02*
X163725312Y-173217101I798576J1833715D01*
G01*
X146972375Y-74250000D02*
X165484436Y-74250000D01*
X169765564Y-80249999D02*
G75*
G02*
X167781045Y-78498065I36J1999999D01*
G01*
X148755498Y-151796681D02*
G75*
G02*
X146777625Y-153500025I-1977898J296681D01*
G01*
X91000000Y-160500000D02*
G75*
G02*
X89000000Y-158500000I0J2000000D01*
G01*
X228197390Y-180878575D02*
G75*
G02*
X228123550Y-183781191I-1412090J-1416325D01*
G01*
X212905816Y-195906633D02*
X164926424Y-175012315D01*
X204750000Y-85250000D02*
X204750000Y-156669851D01*
X146777625Y-153500000D02*
X132297161Y-153500000D01*
X130308543Y-155286934D02*
G75*
G02*
X132297161Y-153499962I1988657J-213066D01*
G01*
X89000000Y-88250000D02*
G75*
G02*
X91000000Y-86250000I2000000J0D01*
G01*
X130308543Y-155286934D02*
X129941457Y-158713066D01*
X128297161Y-79250000D02*
X142777625Y-79250000D01*
X165484436Y-74250001D02*
G75*
G02*
X167468955Y-76001935I-36J-1999999D01*
G01*
X202750000Y-83250000D02*
G75*
G02*
X204750000Y-85250000I0J-2000000D01*
G01*
X126308543Y-81036934D02*
G75*
G02*
X128297161Y-79249962I1988657J-213066D01*
G01*
X91000000Y-86250000D02*
X123952839Y-86250000D01*
X167468991Y-76001931D02*
X167781009Y-78498069D01*
X169765564Y-80250000D02*
X184438498Y-80250000D01*
X148994502Y-150203319D02*
X148755498Y-151796681D01*
X186378767Y-81764868D02*
X186750100Y-83250000D01*
X89000000Y-158500000D02*
X89000000Y-88250000D01*
X163725329Y-173217101D02*
X163287722Y-150461546D01*
X184438498Y-80250001D02*
G75*
G02*
X186378769Y-81764868I2J-1999999D01*
G01*
X205337866Y-158086141D02*
X228197390Y-180878575D01*
X228123517Y-183781155D02*
X215042613Y-195559254D01*
X161288092Y-148500000D02*
X150972375Y-148500000D01*
X148994502Y-150203319D02*
G75*
G02*
X150972375Y-148499975I1977898J-296681D01*
G01*
X129941457Y-158713066D02*
G75*
G02*
X127952839Y-160500038I-1988657J213066D01*
G01*
X144994502Y-75953319D02*
G75*
G02*
X146972375Y-74249975I1977898J-296681D01*
G01*
X186750100Y-83250000D02*
X202750000Y-83250000D01*
X91000000Y-160500000D02*
X127952839Y-160500000D01*
X125941457Y-84463066D02*
G75*
G02*
X123952839Y-86250038I-1988657J213066D01*
G01*
X215042614Y-195559253D02*
G75*
G02*
X212905835Y-195906592I-1338214J1486253D01*
G01*
X144755498Y-77546681D02*
G75*
G02*
X142777625Y-79250025I-1977898J296681D01*
G01*
X205337866Y-158086141D02*
G75*
G02*
X204749964Y-156669851I1412134J1416341D01*
G01*
X161288092Y-148500000D02*
G75*
G02*
X163287730Y-150461546I8J-2000000D01*
G01*
X125941457Y-84463066D02*
X126308543Y-81036934D01*
X144755498Y-77546681D02*
X144994502Y-75953319D01*
M02*
