%TF.GenerationSoftware,KiCad,Pcbnew,8.0.7*%
%TF.CreationDate,2024-12-27T12:51:14-06:00*%
%TF.ProjectId,left,6c656674-2e6b-4696-9361-645f70636258,v1.0.0*%
%TF.SameCoordinates,Original*%
%TF.FileFunction,Drillmap*%
%TF.FilePolarity,Positive*%
%FSLAX45Y45*%
G04 Gerber Fmt 4.5, Leading zero omitted, Abs format (unit mm)*
G04 Created by KiCad (PCBNEW 8.0.7) date 2024-12-27 12:51:14*
%MOMM*%
%LPD*%
G01*
G04 APERTURE LIST*
%ADD10C,0.150000*%
%ADD11C,0.200000*%
%ADD12C,0.100000*%
%ADD13C,0.170180*%
%ADD14C,0.300000*%
%ADD15C,0.342900*%
%ADD16C,0.400000*%
G04 APERTURE END LIST*
D10*
X16492642Y-17501232D02*
G75*
G02*
X16372531Y-17321710I79858J183372D01*
G01*
X14697237Y-7425000D02*
X16548444Y-7425000D01*
X16976556Y-8025000D02*
G75*
G02*
X16778105Y-7849806I4J200000D01*
G01*
X14875550Y-15179668D02*
G75*
G02*
X14677762Y-15350002I-197790J29668D01*
G01*
X9100000Y-16050000D02*
G75*
G02*
X8900000Y-15850000I0J200000D01*
G01*
X22819739Y-18087858D02*
G75*
G02*
X22812355Y-18378119I-141209J-141633D01*
G01*
X21290582Y-19590663D02*
X16492642Y-17501232D01*
X20475000Y-8525000D02*
X20475000Y-15666985D01*
X14677762Y-15350000D02*
X13229716Y-15350000D01*
X13030854Y-15528693D02*
G75*
G02*
X13229716Y-15349996I198866J-21307D01*
G01*
X8900000Y-8825000D02*
G75*
G02*
X9100000Y-8625000I200000J0D01*
G01*
X13030854Y-15528693D02*
X12994146Y-15871307D01*
X12829716Y-7925000D02*
X14277762Y-7925000D01*
X16548444Y-7425000D02*
G75*
G02*
X16746895Y-7600193I-4J-200000D01*
G01*
X20275000Y-8325000D02*
G75*
G02*
X20475000Y-8525000I0J-200000D01*
G01*
X12630854Y-8103693D02*
G75*
G02*
X12829716Y-7924996I198866J-21307D01*
G01*
X9100000Y-8625000D02*
X12395284Y-8625000D01*
X16746899Y-7600193D02*
X16778101Y-7849807D01*
X16976556Y-8025000D02*
X18443850Y-8025000D01*
X14899450Y-15020332D02*
X14875550Y-15179668D01*
X18637877Y-8176487D02*
X18675010Y-8325000D01*
X8900000Y-15850000D02*
X8900000Y-8825000D01*
X16372533Y-17321710D02*
X16328772Y-15046155D01*
X18443850Y-8025000D02*
G75*
G02*
X18637877Y-8176487I0J-200000D01*
G01*
X20533787Y-15808614D02*
X22819739Y-18087858D01*
X22812352Y-18378116D02*
X21504261Y-19555925D01*
X16128809Y-14850000D02*
X15097237Y-14850000D01*
X14899450Y-15020332D02*
G75*
G02*
X15097237Y-14849997I197790J-29668D01*
G01*
X12994146Y-15871307D02*
G75*
G02*
X12795284Y-16050004I-198866J21307D01*
G01*
X14499450Y-7595332D02*
G75*
G02*
X14697237Y-7424997I197790J-29668D01*
G01*
X18675010Y-8325000D02*
X20275000Y-8325000D01*
X9100000Y-16050000D02*
X12795284Y-16050000D01*
X12594146Y-8446307D02*
G75*
G02*
X12395284Y-8625004I-198866J21307D01*
G01*
X21504261Y-19555925D02*
G75*
G02*
X21290584Y-19590659I-133821J148625D01*
G01*
X14475550Y-7754668D02*
G75*
G02*
X14277762Y-7925002I-197790J29668D01*
G01*
X20533787Y-15808614D02*
G75*
G02*
X20474996Y-15666985I141213J141634D01*
G01*
X16128809Y-14850000D02*
G75*
G02*
X16328773Y-15046155I1J-200000D01*
G01*
X12594146Y-8446307D02*
X12630854Y-8103693D01*
X14475550Y-7754668D02*
X14499450Y-7595332D01*
D11*
D12*
X22196874Y-17931992D02*
X22271874Y-18006992D01*
X22271874Y-17931992D02*
X22196874Y-18006992D01*
X22387905Y-17734174D02*
X22462905Y-17809174D01*
X22462905Y-17734174D02*
X22387905Y-17809174D01*
X21612751Y-17144393D02*
G75*
G02*
X21522751Y-17144393I-45000J0D01*
G01*
X21522751Y-17144393D02*
G75*
G02*
X21612751Y-17144393I45000J0D01*
G01*
X21828553Y-17352791D02*
G75*
G02*
X21738553Y-17352791I-45000J0D01*
G01*
X21738553Y-17352791D02*
G75*
G02*
X21828553Y-17352791I45000J0D01*
G01*
D13*
X9450000Y-9589910D02*
X9450000Y-9760090D01*
X9364910Y-9675000D02*
X9535090Y-9675000D01*
X9450000Y-11364910D02*
X9450000Y-11535090D01*
X9364910Y-11450000D02*
X9535090Y-11450000D01*
X9450000Y-13139910D02*
X9450000Y-13310090D01*
X9364910Y-13225000D02*
X9535090Y-13225000D01*
X9450000Y-14914910D02*
X9450000Y-15085090D01*
X9364910Y-15000000D02*
X9535090Y-15000000D01*
X10550000Y-9589910D02*
X10550000Y-9760090D01*
X10464910Y-9675000D02*
X10635090Y-9675000D01*
X10550000Y-11364910D02*
X10550000Y-11535090D01*
X10464910Y-11450000D02*
X10635090Y-11450000D01*
X10550000Y-13139910D02*
X10550000Y-13310090D01*
X10464910Y-13225000D02*
X10635090Y-13225000D01*
X10550000Y-14914910D02*
X10550000Y-15085090D01*
X10464910Y-15000000D02*
X10635090Y-15000000D01*
X11325000Y-9589910D02*
X11325000Y-9760090D01*
X11239910Y-9675000D02*
X11410090Y-9675000D01*
X11325000Y-11364910D02*
X11325000Y-11535090D01*
X11239910Y-11450000D02*
X11410090Y-11450000D01*
X11325000Y-13139910D02*
X11325000Y-13310090D01*
X11239910Y-13225000D02*
X11410090Y-13225000D01*
X11325000Y-14914910D02*
X11325000Y-15085090D01*
X11239910Y-15000000D02*
X11410090Y-15000000D01*
X12425000Y-9589910D02*
X12425000Y-9760090D01*
X12339910Y-9675000D02*
X12510090Y-9675000D01*
X12425000Y-11364910D02*
X12425000Y-11535090D01*
X12339910Y-11450000D02*
X12510090Y-11450000D01*
X12425000Y-13139910D02*
X12425000Y-13310090D01*
X12339910Y-13225000D02*
X12510090Y-13225000D01*
X12425000Y-14914910D02*
X12425000Y-15085090D01*
X12339910Y-15000000D02*
X12510090Y-15000000D01*
X13200000Y-8889910D02*
X13200000Y-9060090D01*
X13114910Y-8975000D02*
X13285090Y-8975000D01*
X13200000Y-10664910D02*
X13200000Y-10835090D01*
X13114910Y-10750000D02*
X13285090Y-10750000D01*
X13200000Y-12439910D02*
X13200000Y-12610090D01*
X13114910Y-12525000D02*
X13285090Y-12525000D01*
X13200000Y-14214910D02*
X13200000Y-14385090D01*
X13114910Y-14300000D02*
X13285090Y-14300000D01*
X14300000Y-8889910D02*
X14300000Y-9060090D01*
X14214910Y-8975000D02*
X14385090Y-8975000D01*
X14300000Y-10664910D02*
X14300000Y-10835090D01*
X14214910Y-10750000D02*
X14385090Y-10750000D01*
X14300000Y-12439910D02*
X14300000Y-12610090D01*
X14214910Y-12525000D02*
X14385090Y-12525000D01*
X14300000Y-14214910D02*
X14300000Y-14385090D01*
X14214910Y-14300000D02*
X14385090Y-14300000D01*
X15075000Y-8389910D02*
X15075000Y-8560090D01*
X14989910Y-8475000D02*
X15160090Y-8475000D01*
X15075000Y-10164910D02*
X15075000Y-10335090D01*
X14989910Y-10250000D02*
X15160090Y-10250000D01*
X15075000Y-11939910D02*
X15075000Y-12110090D01*
X14989910Y-12025000D02*
X15160090Y-12025000D01*
X15075000Y-13714910D02*
X15075000Y-13885090D01*
X14989910Y-13800000D02*
X15160090Y-13800000D01*
X16175000Y-8389910D02*
X16175000Y-8560090D01*
X16089910Y-8475000D02*
X16260090Y-8475000D01*
X16175000Y-10164910D02*
X16175000Y-10335090D01*
X16089910Y-10250000D02*
X16260090Y-10250000D01*
X16175000Y-11939910D02*
X16175000Y-12110090D01*
X16089910Y-12025000D02*
X16260090Y-12025000D01*
X16175000Y-13714910D02*
X16175000Y-13885090D01*
X16089910Y-13800000D02*
X16260090Y-13800000D01*
X16925000Y-16314910D02*
X16925000Y-16485090D01*
X16839910Y-16400000D02*
X17010090Y-16400000D01*
X16950000Y-8989910D02*
X16950000Y-9160090D01*
X16864910Y-9075000D02*
X17035090Y-9075000D01*
X16950000Y-10764910D02*
X16950000Y-10935090D01*
X16864910Y-10850000D02*
X17035090Y-10850000D01*
X16950000Y-12539910D02*
X16950000Y-12710090D01*
X16864910Y-12625000D02*
X17035090Y-12625000D01*
X16950000Y-14314910D02*
X16950000Y-14485090D01*
X16864910Y-14400000D02*
X17035090Y-14400000D01*
X18025000Y-16314910D02*
X18025000Y-16485090D01*
X17939910Y-16400000D02*
X18110090Y-16400000D01*
X18050000Y-8989910D02*
X18050000Y-9160090D01*
X17964910Y-9075000D02*
X18135090Y-9075000D01*
X18050000Y-10764910D02*
X18050000Y-10935090D01*
X17964910Y-10850000D02*
X18135090Y-10850000D01*
X18050000Y-12539910D02*
X18050000Y-12710090D01*
X17964910Y-12625000D02*
X18135090Y-12625000D01*
X18050000Y-14314910D02*
X18050000Y-14485090D01*
X17964910Y-14400000D02*
X18135090Y-14400000D01*
X18825000Y-9289910D02*
X18825000Y-9460090D01*
X18739910Y-9375000D02*
X18910090Y-9375000D01*
X18825000Y-11064910D02*
X18825000Y-11235090D01*
X18739910Y-11150000D02*
X18910090Y-11150000D01*
X18825000Y-12839910D02*
X18825000Y-13010090D01*
X18739910Y-12925000D02*
X18910090Y-12925000D01*
X18825000Y-14614910D02*
X18825000Y-14785090D01*
X18739910Y-14700000D02*
X18910090Y-14700000D01*
X19070126Y-16582949D02*
X19070126Y-16753129D01*
X18985036Y-16668039D02*
X19155216Y-16668039D01*
X19925000Y-9289910D02*
X19925000Y-9460090D01*
X19839910Y-9375000D02*
X20010090Y-9375000D01*
X19925000Y-11064910D02*
X19925000Y-11235090D01*
X19839910Y-11150000D02*
X20010090Y-11150000D01*
X19925000Y-12839910D02*
X19925000Y-13010090D01*
X19839910Y-12925000D02*
X20010090Y-12925000D01*
X19925000Y-14614910D02*
X19925000Y-14785090D01*
X19839910Y-14700000D02*
X20010090Y-14700000D01*
X20103788Y-16959171D02*
X20103788Y-17129351D01*
X20018698Y-17044261D02*
X20188878Y-17044261D01*
X21084837Y-17628193D02*
X21084837Y-17798373D01*
X20999747Y-17713283D02*
X21169927Y-17713283D01*
X21820881Y-18445652D02*
X21820881Y-18615832D01*
X21735791Y-18530742D02*
X21905971Y-18530742D01*
D14*
X9606067Y-10156067D02*
X9606067Y-9943933D01*
X9393933Y-9943933D01*
X9393933Y-10156067D01*
X9606067Y-10156067D01*
X9606067Y-11931067D02*
X9606067Y-11718933D01*
X9393933Y-11718933D01*
X9393933Y-11931067D01*
X9606067Y-11931067D01*
X9606067Y-13706067D02*
X9606067Y-13493933D01*
X9393933Y-13493933D01*
X9393933Y-13706067D01*
X9606067Y-13706067D01*
X9606067Y-15481067D02*
X9606067Y-15268933D01*
X9393933Y-15268933D01*
X9393933Y-15481067D01*
X9606067Y-15481067D01*
X10106067Y-10376067D02*
X10106067Y-10163933D01*
X9893933Y-10163933D01*
X9893933Y-10376067D01*
X10106067Y-10376067D01*
X10106067Y-12151067D02*
X10106067Y-11938933D01*
X9893933Y-11938933D01*
X9893933Y-12151067D01*
X10106067Y-12151067D01*
X10106067Y-13926067D02*
X10106067Y-13713933D01*
X9893933Y-13713933D01*
X9893933Y-13926067D01*
X10106067Y-13926067D01*
X10106067Y-15701067D02*
X10106067Y-15488933D01*
X9893933Y-15488933D01*
X9893933Y-15701067D01*
X10106067Y-15701067D01*
X11481067Y-10156067D02*
X11481067Y-9943933D01*
X11268933Y-9943933D01*
X11268933Y-10156067D01*
X11481067Y-10156067D01*
X11481067Y-11931067D02*
X11481067Y-11718933D01*
X11268933Y-11718933D01*
X11268933Y-11931067D01*
X11481067Y-11931067D01*
X11481067Y-13706067D02*
X11481067Y-13493933D01*
X11268933Y-13493933D01*
X11268933Y-13706067D01*
X11481067Y-13706067D01*
X11481067Y-15481067D02*
X11481067Y-15268933D01*
X11268933Y-15268933D01*
X11268933Y-15481067D01*
X11481067Y-15481067D01*
X11981067Y-10376067D02*
X11981067Y-10163933D01*
X11768933Y-10163933D01*
X11768933Y-10376067D01*
X11981067Y-10376067D01*
X11981067Y-12151067D02*
X11981067Y-11938933D01*
X11768933Y-11938933D01*
X11768933Y-12151067D01*
X11981067Y-12151067D01*
X11981067Y-13926067D02*
X11981067Y-13713933D01*
X11768933Y-13713933D01*
X11768933Y-13926067D01*
X11981067Y-13926067D01*
X11981067Y-15701067D02*
X11981067Y-15488933D01*
X11768933Y-15488933D01*
X11768933Y-15701067D01*
X11981067Y-15701067D01*
X13356067Y-9456067D02*
X13356067Y-9243933D01*
X13143933Y-9243933D01*
X13143933Y-9456067D01*
X13356067Y-9456067D01*
X13356067Y-11231067D02*
X13356067Y-11018933D01*
X13143933Y-11018933D01*
X13143933Y-11231067D01*
X13356067Y-11231067D01*
X13356067Y-13006067D02*
X13356067Y-12793933D01*
X13143933Y-12793933D01*
X13143933Y-13006067D01*
X13356067Y-13006067D01*
X13356067Y-14781067D02*
X13356067Y-14568933D01*
X13143933Y-14568933D01*
X13143933Y-14781067D01*
X13356067Y-14781067D01*
X13856067Y-9676067D02*
X13856067Y-9463933D01*
X13643933Y-9463933D01*
X13643933Y-9676067D01*
X13856067Y-9676067D01*
X13856067Y-11451067D02*
X13856067Y-11238933D01*
X13643933Y-11238933D01*
X13643933Y-11451067D01*
X13856067Y-11451067D01*
X13856067Y-13226067D02*
X13856067Y-13013933D01*
X13643933Y-13013933D01*
X13643933Y-13226067D01*
X13856067Y-13226067D01*
X13856067Y-15001067D02*
X13856067Y-14788933D01*
X13643933Y-14788933D01*
X13643933Y-15001067D01*
X13856067Y-15001067D01*
X15231067Y-8956067D02*
X15231067Y-8743933D01*
X15018933Y-8743933D01*
X15018933Y-8956067D01*
X15231067Y-8956067D01*
X15231067Y-10731067D02*
X15231067Y-10518933D01*
X15018933Y-10518933D01*
X15018933Y-10731067D01*
X15231067Y-10731067D01*
X15231067Y-12506067D02*
X15231067Y-12293933D01*
X15018933Y-12293933D01*
X15018933Y-12506067D01*
X15231067Y-12506067D01*
X15231067Y-14281067D02*
X15231067Y-14068933D01*
X15018933Y-14068933D01*
X15018933Y-14281067D01*
X15231067Y-14281067D01*
X15731067Y-9176067D02*
X15731067Y-8963933D01*
X15518933Y-8963933D01*
X15518933Y-9176067D01*
X15731067Y-9176067D01*
X15731067Y-10951067D02*
X15731067Y-10738933D01*
X15518933Y-10738933D01*
X15518933Y-10951067D01*
X15731067Y-10951067D01*
X15731067Y-12726067D02*
X15731067Y-12513933D01*
X15518933Y-12513933D01*
X15518933Y-12726067D01*
X15731067Y-12726067D01*
X15731067Y-14501067D02*
X15731067Y-14288933D01*
X15518933Y-14288933D01*
X15518933Y-14501067D01*
X15731067Y-14501067D01*
X17081067Y-16881067D02*
X17081067Y-16668933D01*
X16868933Y-16668933D01*
X16868933Y-16881067D01*
X17081067Y-16881067D01*
X17106067Y-9556067D02*
X17106067Y-9343933D01*
X16893933Y-9343933D01*
X16893933Y-9556067D01*
X17106067Y-9556067D01*
X17106067Y-11331067D02*
X17106067Y-11118933D01*
X16893933Y-11118933D01*
X16893933Y-11331067D01*
X17106067Y-11331067D01*
X17106067Y-13106067D02*
X17106067Y-12893933D01*
X16893933Y-12893933D01*
X16893933Y-13106067D01*
X17106067Y-13106067D01*
X17106067Y-14881067D02*
X17106067Y-14668933D01*
X16893933Y-14668933D01*
X16893933Y-14881067D01*
X17106067Y-14881067D01*
X17581067Y-17101067D02*
X17581067Y-16888933D01*
X17368933Y-16888933D01*
X17368933Y-17101067D01*
X17581067Y-17101067D01*
X17606067Y-9776067D02*
X17606067Y-9563933D01*
X17393933Y-9563933D01*
X17393933Y-9776067D01*
X17606067Y-9776067D01*
X17606067Y-11551067D02*
X17606067Y-11338933D01*
X17393933Y-11338933D01*
X17393933Y-11551067D01*
X17606067Y-11551067D01*
X17606067Y-13326067D02*
X17606067Y-13113933D01*
X17393933Y-13113933D01*
X17393933Y-13326067D01*
X17606067Y-13326067D01*
X17606067Y-15101067D02*
X17606067Y-14888933D01*
X17393933Y-14888933D01*
X17393933Y-15101067D01*
X17606067Y-15101067D01*
X18981067Y-9856067D02*
X18981067Y-9643933D01*
X18768933Y-9643933D01*
X18768933Y-9856067D01*
X18981067Y-9856067D01*
X18981067Y-11631067D02*
X18981067Y-11418933D01*
X18768933Y-11418933D01*
X18768933Y-11631067D01*
X18981067Y-11631067D01*
X18981067Y-13406067D02*
X18981067Y-13193933D01*
X18768933Y-13193933D01*
X18768933Y-13406067D01*
X18981067Y-13406067D01*
X18981067Y-15181067D02*
X18981067Y-14968933D01*
X18768933Y-14968933D01*
X18768933Y-15181067D01*
X18981067Y-15181067D01*
X19094920Y-17143592D02*
X19094920Y-16931458D01*
X18882786Y-16931458D01*
X18882786Y-17143592D01*
X19094920Y-17143592D01*
X19481067Y-10076067D02*
X19481067Y-9863933D01*
X19268933Y-9863933D01*
X19268933Y-10076067D01*
X19481067Y-10076067D01*
X19481067Y-11851067D02*
X19481067Y-11638933D01*
X19268933Y-11638933D01*
X19268933Y-11851067D01*
X19481067Y-11851067D01*
X19481067Y-13626067D02*
X19481067Y-13413933D01*
X19268933Y-13413933D01*
X19268933Y-13626067D01*
X19481067Y-13626067D01*
X19481067Y-15401067D02*
X19481067Y-15188933D01*
X19268933Y-15188933D01*
X19268933Y-15401067D01*
X19481067Y-15401067D01*
X19489522Y-17521334D02*
X19489522Y-17309200D01*
X19277388Y-17309200D01*
X19277388Y-17521334D01*
X19489522Y-17521334D01*
X20945681Y-18107431D02*
X20945681Y-17895297D01*
X20733547Y-17895297D01*
X20733547Y-18107431D01*
X20945681Y-18107431D01*
X21116755Y-18626212D02*
X21116755Y-18414078D01*
X20904621Y-18414078D01*
X20904621Y-18626212D01*
X21116755Y-18626212D01*
D15*
X10000000Y-9846450D02*
X10171450Y-9675000D01*
X10000000Y-9503550D01*
X9828550Y-9675000D01*
X10000000Y-9846450D01*
X10000000Y-11621450D02*
X10171450Y-11450000D01*
X10000000Y-11278550D01*
X9828550Y-11450000D01*
X10000000Y-11621450D01*
X10000000Y-13396450D02*
X10171450Y-13225000D01*
X10000000Y-13053550D01*
X9828550Y-13225000D01*
X10000000Y-13396450D01*
X10000000Y-15171450D02*
X10171450Y-15000000D01*
X10000000Y-14828550D01*
X9828550Y-15000000D01*
X10000000Y-15171450D01*
X11875000Y-9846450D02*
X12046450Y-9675000D01*
X11875000Y-9503550D01*
X11703550Y-9675000D01*
X11875000Y-9846450D01*
X11875000Y-11621450D02*
X12046450Y-11450000D01*
X11875000Y-11278550D01*
X11703550Y-11450000D01*
X11875000Y-11621450D01*
X11875000Y-13396450D02*
X12046450Y-13225000D01*
X11875000Y-13053550D01*
X11703550Y-13225000D01*
X11875000Y-13396450D01*
X11875000Y-15171450D02*
X12046450Y-15000000D01*
X11875000Y-14828550D01*
X11703550Y-15000000D01*
X11875000Y-15171450D01*
X13750000Y-9146450D02*
X13921450Y-8975000D01*
X13750000Y-8803550D01*
X13578550Y-8975000D01*
X13750000Y-9146450D01*
X13750000Y-10921450D02*
X13921450Y-10750000D01*
X13750000Y-10578550D01*
X13578550Y-10750000D01*
X13750000Y-10921450D01*
X13750000Y-12696450D02*
X13921450Y-12525000D01*
X13750000Y-12353550D01*
X13578550Y-12525000D01*
X13750000Y-12696450D01*
X13750000Y-14471450D02*
X13921450Y-14300000D01*
X13750000Y-14128550D01*
X13578550Y-14300000D01*
X13750000Y-14471450D01*
X15625000Y-8646450D02*
X15796450Y-8475000D01*
X15625000Y-8303550D01*
X15453550Y-8475000D01*
X15625000Y-8646450D01*
X15625000Y-10421450D02*
X15796450Y-10250000D01*
X15625000Y-10078550D01*
X15453550Y-10250000D01*
X15625000Y-10421450D01*
X15625000Y-12196450D02*
X15796450Y-12025000D01*
X15625000Y-11853550D01*
X15453550Y-12025000D01*
X15625000Y-12196450D01*
X15625000Y-13971450D02*
X15796450Y-13800000D01*
X15625000Y-13628550D01*
X15453550Y-13800000D01*
X15625000Y-13971450D01*
X17475000Y-16571450D02*
X17646450Y-16400000D01*
X17475000Y-16228550D01*
X17303550Y-16400000D01*
X17475000Y-16571450D01*
X17500000Y-9246450D02*
X17671450Y-9075000D01*
X17500000Y-8903550D01*
X17328550Y-9075000D01*
X17500000Y-9246450D01*
X17500000Y-11021450D02*
X17671450Y-10850000D01*
X17500000Y-10678550D01*
X17328550Y-10850000D01*
X17500000Y-11021450D01*
X17500000Y-12796450D02*
X17671450Y-12625000D01*
X17500000Y-12453550D01*
X17328550Y-12625000D01*
X17500000Y-12796450D01*
X17500000Y-14571450D02*
X17671450Y-14400000D01*
X17500000Y-14228550D01*
X17328550Y-14400000D01*
X17500000Y-14571450D01*
X19375000Y-9546450D02*
X19546450Y-9375000D01*
X19375000Y-9203550D01*
X19203550Y-9375000D01*
X19375000Y-9546450D01*
X19375000Y-11321450D02*
X19546450Y-11150000D01*
X19375000Y-10978550D01*
X19203550Y-11150000D01*
X19375000Y-11321450D01*
X19375000Y-13096450D02*
X19546450Y-12925000D01*
X19375000Y-12753550D01*
X19203550Y-12925000D01*
X19375000Y-13096450D01*
X19375000Y-14871450D02*
X19546450Y-14700000D01*
X19375000Y-14528550D01*
X19203550Y-14700000D01*
X19375000Y-14871450D01*
X19586957Y-17027600D02*
X19758407Y-16856150D01*
X19586957Y-16684700D01*
X19415507Y-16856150D01*
X19586957Y-17027600D01*
X21452859Y-18293462D02*
X21624309Y-18122012D01*
X21452859Y-17950562D01*
X21281409Y-18122012D01*
X21452859Y-18293462D01*
D16*
X10700000Y-13875000D02*
X11100000Y-14275000D01*
X11100000Y-13875000D02*
X10700000Y-14275000D01*
X11100000Y-14075000D02*
G75*
G02*
X10700000Y-14075000I-200000J0D01*
G01*
X10700000Y-14075000D02*
G75*
G02*
X11100000Y-14075000I200000J0D01*
G01*
X10775000Y-10325000D02*
X11175000Y-10725000D01*
X11175000Y-10325000D02*
X10775000Y-10725000D01*
X11175000Y-10525000D02*
G75*
G02*
X10775000Y-10525000I-200000J0D01*
G01*
X10775000Y-10525000D02*
G75*
G02*
X11175000Y-10525000I200000J0D01*
G01*
X14525000Y-10975000D02*
X14925000Y-11375000D01*
X14925000Y-10975000D02*
X14525000Y-11375000D01*
X14925000Y-11175000D02*
G75*
G02*
X14525000Y-11175000I-200000J0D01*
G01*
X14525000Y-11175000D02*
G75*
G02*
X14925000Y-11175000I200000J0D01*
G01*
X16400000Y-13350000D02*
X16800000Y-13750000D01*
X16800000Y-13350000D02*
X16400000Y-13750000D01*
X16800000Y-13550000D02*
G75*
G02*
X16400000Y-13550000I-200000J0D01*
G01*
X16400000Y-13550000D02*
G75*
G02*
X16800000Y-13550000I200000J0D01*
G01*
X18481639Y-15634926D02*
X18881639Y-16034926D01*
X18881639Y-15634926D02*
X18481639Y-16034926D01*
X18881639Y-15834926D02*
G75*
G02*
X18481639Y-15834926I-200000J0D01*
G01*
X18481639Y-15834926D02*
G75*
G02*
X18881639Y-15834926I200000J0D01*
G01*
D11*
X9153277Y-19926278D02*
X9153277Y-19726278D01*
X9153277Y-19726278D02*
X9200896Y-19726278D01*
X9200896Y-19726278D02*
X9229467Y-19735802D01*
X9229467Y-19735802D02*
X9248515Y-19754849D01*
X9248515Y-19754849D02*
X9258039Y-19773897D01*
X9258039Y-19773897D02*
X9267563Y-19811992D01*
X9267563Y-19811992D02*
X9267563Y-19840564D01*
X9267563Y-19840564D02*
X9258039Y-19878659D01*
X9258039Y-19878659D02*
X9248515Y-19897706D01*
X9248515Y-19897706D02*
X9229467Y-19916754D01*
X9229467Y-19916754D02*
X9200896Y-19926278D01*
X9200896Y-19926278D02*
X9153277Y-19926278D01*
X9353277Y-19926278D02*
X9353277Y-19792945D01*
X9353277Y-19831040D02*
X9362801Y-19811992D01*
X9362801Y-19811992D02*
X9372324Y-19802468D01*
X9372324Y-19802468D02*
X9391372Y-19792945D01*
X9391372Y-19792945D02*
X9410420Y-19792945D01*
X9477086Y-19926278D02*
X9477086Y-19792945D01*
X9477086Y-19726278D02*
X9467563Y-19735802D01*
X9467563Y-19735802D02*
X9477086Y-19745326D01*
X9477086Y-19745326D02*
X9486610Y-19735802D01*
X9486610Y-19735802D02*
X9477086Y-19726278D01*
X9477086Y-19726278D02*
X9477086Y-19745326D01*
X9600896Y-19926278D02*
X9581848Y-19916754D01*
X9581848Y-19916754D02*
X9572324Y-19897706D01*
X9572324Y-19897706D02*
X9572324Y-19726278D01*
X9705658Y-19926278D02*
X9686610Y-19916754D01*
X9686610Y-19916754D02*
X9677086Y-19897706D01*
X9677086Y-19897706D02*
X9677086Y-19726278D01*
X9934229Y-19926278D02*
X9934229Y-19726278D01*
X9934229Y-19726278D02*
X10000896Y-19869135D01*
X10000896Y-19869135D02*
X10067563Y-19726278D01*
X10067563Y-19726278D02*
X10067563Y-19926278D01*
X10248515Y-19926278D02*
X10248515Y-19821516D01*
X10248515Y-19821516D02*
X10238991Y-19802468D01*
X10238991Y-19802468D02*
X10219944Y-19792945D01*
X10219944Y-19792945D02*
X10181848Y-19792945D01*
X10181848Y-19792945D02*
X10162801Y-19802468D01*
X10248515Y-19916754D02*
X10229467Y-19926278D01*
X10229467Y-19926278D02*
X10181848Y-19926278D01*
X10181848Y-19926278D02*
X10162801Y-19916754D01*
X10162801Y-19916754D02*
X10153277Y-19897706D01*
X10153277Y-19897706D02*
X10153277Y-19878659D01*
X10153277Y-19878659D02*
X10162801Y-19859611D01*
X10162801Y-19859611D02*
X10181848Y-19850087D01*
X10181848Y-19850087D02*
X10229467Y-19850087D01*
X10229467Y-19850087D02*
X10248515Y-19840564D01*
X10343753Y-19792945D02*
X10343753Y-19992945D01*
X10343753Y-19802468D02*
X10362801Y-19792945D01*
X10362801Y-19792945D02*
X10400896Y-19792945D01*
X10400896Y-19792945D02*
X10419944Y-19802468D01*
X10419944Y-19802468D02*
X10429467Y-19811992D01*
X10429467Y-19811992D02*
X10438991Y-19831040D01*
X10438991Y-19831040D02*
X10438991Y-19888183D01*
X10438991Y-19888183D02*
X10429467Y-19907230D01*
X10429467Y-19907230D02*
X10419944Y-19916754D01*
X10419944Y-19916754D02*
X10400896Y-19926278D01*
X10400896Y-19926278D02*
X10362801Y-19926278D01*
X10362801Y-19926278D02*
X10343753Y-19916754D01*
X10524705Y-19907230D02*
X10534229Y-19916754D01*
X10534229Y-19916754D02*
X10524705Y-19926278D01*
X10524705Y-19926278D02*
X10515182Y-19916754D01*
X10515182Y-19916754D02*
X10524705Y-19907230D01*
X10524705Y-19907230D02*
X10524705Y-19926278D01*
X10524705Y-19802468D02*
X10534229Y-19811992D01*
X10534229Y-19811992D02*
X10524705Y-19821516D01*
X10524705Y-19821516D02*
X10515182Y-19811992D01*
X10515182Y-19811992D02*
X10524705Y-19802468D01*
X10524705Y-19802468D02*
X10524705Y-19821516D01*
D12*
X8817500Y-20217294D02*
X8892500Y-20292294D01*
X8892500Y-20217294D02*
X8817500Y-20292294D01*
D11*
X9191372Y-20146278D02*
X9210420Y-20146278D01*
X9210420Y-20146278D02*
X9229467Y-20155802D01*
X9229467Y-20155802D02*
X9238991Y-20165326D01*
X9238991Y-20165326D02*
X9248515Y-20184373D01*
X9248515Y-20184373D02*
X9258039Y-20222468D01*
X9258039Y-20222468D02*
X9258039Y-20270087D01*
X9258039Y-20270087D02*
X9248515Y-20308183D01*
X9248515Y-20308183D02*
X9238991Y-20327230D01*
X9238991Y-20327230D02*
X9229467Y-20336754D01*
X9229467Y-20336754D02*
X9210420Y-20346278D01*
X9210420Y-20346278D02*
X9191372Y-20346278D01*
X9191372Y-20346278D02*
X9172324Y-20336754D01*
X9172324Y-20336754D02*
X9162801Y-20327230D01*
X9162801Y-20327230D02*
X9153277Y-20308183D01*
X9153277Y-20308183D02*
X9143753Y-20270087D01*
X9143753Y-20270087D02*
X9143753Y-20222468D01*
X9143753Y-20222468D02*
X9153277Y-20184373D01*
X9153277Y-20184373D02*
X9162801Y-20165326D01*
X9162801Y-20165326D02*
X9172324Y-20155802D01*
X9172324Y-20155802D02*
X9191372Y-20146278D01*
X9343753Y-20327230D02*
X9353277Y-20336754D01*
X9353277Y-20336754D02*
X9343753Y-20346278D01*
X9343753Y-20346278D02*
X9334229Y-20336754D01*
X9334229Y-20336754D02*
X9343753Y-20327230D01*
X9343753Y-20327230D02*
X9343753Y-20346278D01*
X9419944Y-20146278D02*
X9553277Y-20146278D01*
X9553277Y-20146278D02*
X9467563Y-20346278D01*
X9724705Y-20146278D02*
X9629467Y-20146278D01*
X9629467Y-20146278D02*
X9619944Y-20241516D01*
X9619944Y-20241516D02*
X9629467Y-20231992D01*
X9629467Y-20231992D02*
X9648515Y-20222468D01*
X9648515Y-20222468D02*
X9696134Y-20222468D01*
X9696134Y-20222468D02*
X9715182Y-20231992D01*
X9715182Y-20231992D02*
X9724705Y-20241516D01*
X9724705Y-20241516D02*
X9734229Y-20260564D01*
X9734229Y-20260564D02*
X9734229Y-20308183D01*
X9734229Y-20308183D02*
X9724705Y-20327230D01*
X9724705Y-20327230D02*
X9715182Y-20336754D01*
X9715182Y-20336754D02*
X9696134Y-20346278D01*
X9696134Y-20346278D02*
X9648515Y-20346278D01*
X9648515Y-20346278D02*
X9629467Y-20336754D01*
X9629467Y-20336754D02*
X9619944Y-20327230D01*
X9858039Y-20146278D02*
X9877086Y-20146278D01*
X9877086Y-20146278D02*
X9896134Y-20155802D01*
X9896134Y-20155802D02*
X9905658Y-20165326D01*
X9905658Y-20165326D02*
X9915182Y-20184373D01*
X9915182Y-20184373D02*
X9924705Y-20222468D01*
X9924705Y-20222468D02*
X9924705Y-20270087D01*
X9924705Y-20270087D02*
X9915182Y-20308183D01*
X9915182Y-20308183D02*
X9905658Y-20327230D01*
X9905658Y-20327230D02*
X9896134Y-20336754D01*
X9896134Y-20336754D02*
X9877086Y-20346278D01*
X9877086Y-20346278D02*
X9858039Y-20346278D01*
X9858039Y-20346278D02*
X9838991Y-20336754D01*
X9838991Y-20336754D02*
X9829467Y-20327230D01*
X9829467Y-20327230D02*
X9819944Y-20308183D01*
X9819944Y-20308183D02*
X9810420Y-20270087D01*
X9810420Y-20270087D02*
X9810420Y-20222468D01*
X9810420Y-20222468D02*
X9819944Y-20184373D01*
X9819944Y-20184373D02*
X9829467Y-20165326D01*
X9829467Y-20165326D02*
X9838991Y-20155802D01*
X9838991Y-20155802D02*
X9858039Y-20146278D01*
X10010420Y-20346278D02*
X10010420Y-20212945D01*
X10010420Y-20231992D02*
X10019944Y-20222468D01*
X10019944Y-20222468D02*
X10038991Y-20212945D01*
X10038991Y-20212945D02*
X10067563Y-20212945D01*
X10067563Y-20212945D02*
X10086610Y-20222468D01*
X10086610Y-20222468D02*
X10096134Y-20241516D01*
X10096134Y-20241516D02*
X10096134Y-20346278D01*
X10096134Y-20241516D02*
X10105658Y-20222468D01*
X10105658Y-20222468D02*
X10124705Y-20212945D01*
X10124705Y-20212945D02*
X10153277Y-20212945D01*
X10153277Y-20212945D02*
X10172325Y-20222468D01*
X10172325Y-20222468D02*
X10181848Y-20241516D01*
X10181848Y-20241516D02*
X10181848Y-20346278D01*
X10277086Y-20346278D02*
X10277086Y-20212945D01*
X10277086Y-20231992D02*
X10286610Y-20222468D01*
X10286610Y-20222468D02*
X10305658Y-20212945D01*
X10305658Y-20212945D02*
X10334229Y-20212945D01*
X10334229Y-20212945D02*
X10353277Y-20222468D01*
X10353277Y-20222468D02*
X10362801Y-20241516D01*
X10362801Y-20241516D02*
X10362801Y-20346278D01*
X10362801Y-20241516D02*
X10372325Y-20222468D01*
X10372325Y-20222468D02*
X10391372Y-20212945D01*
X10391372Y-20212945D02*
X10419944Y-20212945D01*
X10419944Y-20212945D02*
X10438991Y-20222468D01*
X10438991Y-20222468D02*
X10448515Y-20241516D01*
X10448515Y-20241516D02*
X10448515Y-20346278D01*
X10838991Y-20136754D02*
X10667563Y-20393897D01*
X11096134Y-20146278D02*
X11115182Y-20146278D01*
X11115182Y-20146278D02*
X11134229Y-20155802D01*
X11134229Y-20155802D02*
X11143753Y-20165326D01*
X11143753Y-20165326D02*
X11153277Y-20184373D01*
X11153277Y-20184373D02*
X11162801Y-20222468D01*
X11162801Y-20222468D02*
X11162801Y-20270087D01*
X11162801Y-20270087D02*
X11153277Y-20308183D01*
X11153277Y-20308183D02*
X11143753Y-20327230D01*
X11143753Y-20327230D02*
X11134229Y-20336754D01*
X11134229Y-20336754D02*
X11115182Y-20346278D01*
X11115182Y-20346278D02*
X11096134Y-20346278D01*
X11096134Y-20346278D02*
X11077087Y-20336754D01*
X11077087Y-20336754D02*
X11067563Y-20327230D01*
X11067563Y-20327230D02*
X11058039Y-20308183D01*
X11058039Y-20308183D02*
X11048515Y-20270087D01*
X11048515Y-20270087D02*
X11048515Y-20222468D01*
X11048515Y-20222468D02*
X11058039Y-20184373D01*
X11058039Y-20184373D02*
X11067563Y-20165326D01*
X11067563Y-20165326D02*
X11077087Y-20155802D01*
X11077087Y-20155802D02*
X11096134Y-20146278D01*
X11248515Y-20327230D02*
X11258039Y-20336754D01*
X11258039Y-20336754D02*
X11248515Y-20346278D01*
X11248515Y-20346278D02*
X11238991Y-20336754D01*
X11238991Y-20336754D02*
X11248515Y-20327230D01*
X11248515Y-20327230D02*
X11248515Y-20346278D01*
X11381848Y-20146278D02*
X11400896Y-20146278D01*
X11400896Y-20146278D02*
X11419944Y-20155802D01*
X11419944Y-20155802D02*
X11429467Y-20165326D01*
X11429467Y-20165326D02*
X11438991Y-20184373D01*
X11438991Y-20184373D02*
X11448515Y-20222468D01*
X11448515Y-20222468D02*
X11448515Y-20270087D01*
X11448515Y-20270087D02*
X11438991Y-20308183D01*
X11438991Y-20308183D02*
X11429467Y-20327230D01*
X11429467Y-20327230D02*
X11419944Y-20336754D01*
X11419944Y-20336754D02*
X11400896Y-20346278D01*
X11400896Y-20346278D02*
X11381848Y-20346278D01*
X11381848Y-20346278D02*
X11362801Y-20336754D01*
X11362801Y-20336754D02*
X11353277Y-20327230D01*
X11353277Y-20327230D02*
X11343753Y-20308183D01*
X11343753Y-20308183D02*
X11334229Y-20270087D01*
X11334229Y-20270087D02*
X11334229Y-20222468D01*
X11334229Y-20222468D02*
X11343753Y-20184373D01*
X11343753Y-20184373D02*
X11353277Y-20165326D01*
X11353277Y-20165326D02*
X11362801Y-20155802D01*
X11362801Y-20155802D02*
X11381848Y-20146278D01*
X11524706Y-20165326D02*
X11534229Y-20155802D01*
X11534229Y-20155802D02*
X11553277Y-20146278D01*
X11553277Y-20146278D02*
X11600896Y-20146278D01*
X11600896Y-20146278D02*
X11619944Y-20155802D01*
X11619944Y-20155802D02*
X11629467Y-20165326D01*
X11629467Y-20165326D02*
X11638991Y-20184373D01*
X11638991Y-20184373D02*
X11638991Y-20203421D01*
X11638991Y-20203421D02*
X11629467Y-20231992D01*
X11629467Y-20231992D02*
X11515182Y-20346278D01*
X11515182Y-20346278D02*
X11638991Y-20346278D01*
X11734229Y-20346278D02*
X11772325Y-20346278D01*
X11772325Y-20346278D02*
X11791372Y-20336754D01*
X11791372Y-20336754D02*
X11800896Y-20327230D01*
X11800896Y-20327230D02*
X11819944Y-20298659D01*
X11819944Y-20298659D02*
X11829467Y-20260564D01*
X11829467Y-20260564D02*
X11829467Y-20184373D01*
X11829467Y-20184373D02*
X11819944Y-20165326D01*
X11819944Y-20165326D02*
X11810420Y-20155802D01*
X11810420Y-20155802D02*
X11791372Y-20146278D01*
X11791372Y-20146278D02*
X11753277Y-20146278D01*
X11753277Y-20146278D02*
X11734229Y-20155802D01*
X11734229Y-20155802D02*
X11724706Y-20165326D01*
X11724706Y-20165326D02*
X11715182Y-20184373D01*
X11715182Y-20184373D02*
X11715182Y-20231992D01*
X11715182Y-20231992D02*
X11724706Y-20251040D01*
X11724706Y-20251040D02*
X11734229Y-20260564D01*
X11734229Y-20260564D02*
X11753277Y-20270087D01*
X11753277Y-20270087D02*
X11791372Y-20270087D01*
X11791372Y-20270087D02*
X11810420Y-20260564D01*
X11810420Y-20260564D02*
X11819944Y-20251040D01*
X11819944Y-20251040D02*
X11829467Y-20231992D01*
X12010420Y-20146278D02*
X11915182Y-20146278D01*
X11915182Y-20146278D02*
X11905658Y-20241516D01*
X11905658Y-20241516D02*
X11915182Y-20231992D01*
X11915182Y-20231992D02*
X11934229Y-20222468D01*
X11934229Y-20222468D02*
X11981848Y-20222468D01*
X11981848Y-20222468D02*
X12000896Y-20231992D01*
X12000896Y-20231992D02*
X12010420Y-20241516D01*
X12010420Y-20241516D02*
X12019944Y-20260564D01*
X12019944Y-20260564D02*
X12019944Y-20308183D01*
X12019944Y-20308183D02*
X12010420Y-20327230D01*
X12010420Y-20327230D02*
X12000896Y-20336754D01*
X12000896Y-20336754D02*
X11981848Y-20346278D01*
X11981848Y-20346278D02*
X11934229Y-20346278D01*
X11934229Y-20346278D02*
X11915182Y-20336754D01*
X11915182Y-20336754D02*
X11905658Y-20327230D01*
X12096134Y-20146278D02*
X12096134Y-20184373D01*
X12172325Y-20146278D02*
X12172325Y-20184373D01*
X12467563Y-20422468D02*
X12458039Y-20412945D01*
X12458039Y-20412945D02*
X12438991Y-20384373D01*
X12438991Y-20384373D02*
X12429468Y-20365326D01*
X12429468Y-20365326D02*
X12419944Y-20336754D01*
X12419944Y-20336754D02*
X12410420Y-20289135D01*
X12410420Y-20289135D02*
X12410420Y-20251040D01*
X12410420Y-20251040D02*
X12419944Y-20203421D01*
X12419944Y-20203421D02*
X12429468Y-20174849D01*
X12429468Y-20174849D02*
X12438991Y-20155802D01*
X12438991Y-20155802D02*
X12458039Y-20127230D01*
X12458039Y-20127230D02*
X12467563Y-20117706D01*
X12534229Y-20165326D02*
X12543753Y-20155802D01*
X12543753Y-20155802D02*
X12562801Y-20146278D01*
X12562801Y-20146278D02*
X12610420Y-20146278D01*
X12610420Y-20146278D02*
X12629468Y-20155802D01*
X12629468Y-20155802D02*
X12638991Y-20165326D01*
X12638991Y-20165326D02*
X12648515Y-20184373D01*
X12648515Y-20184373D02*
X12648515Y-20203421D01*
X12648515Y-20203421D02*
X12638991Y-20231992D01*
X12638991Y-20231992D02*
X12524706Y-20346278D01*
X12524706Y-20346278D02*
X12648515Y-20346278D01*
X12886610Y-20346278D02*
X12886610Y-20146278D01*
X12972325Y-20346278D02*
X12972325Y-20241516D01*
X12972325Y-20241516D02*
X12962801Y-20222468D01*
X12962801Y-20222468D02*
X12943753Y-20212945D01*
X12943753Y-20212945D02*
X12915182Y-20212945D01*
X12915182Y-20212945D02*
X12896134Y-20222468D01*
X12896134Y-20222468D02*
X12886610Y-20231992D01*
X13096134Y-20346278D02*
X13077087Y-20336754D01*
X13077087Y-20336754D02*
X13067563Y-20327230D01*
X13067563Y-20327230D02*
X13058039Y-20308183D01*
X13058039Y-20308183D02*
X13058039Y-20251040D01*
X13058039Y-20251040D02*
X13067563Y-20231992D01*
X13067563Y-20231992D02*
X13077087Y-20222468D01*
X13077087Y-20222468D02*
X13096134Y-20212945D01*
X13096134Y-20212945D02*
X13124706Y-20212945D01*
X13124706Y-20212945D02*
X13143753Y-20222468D01*
X13143753Y-20222468D02*
X13153277Y-20231992D01*
X13153277Y-20231992D02*
X13162801Y-20251040D01*
X13162801Y-20251040D02*
X13162801Y-20308183D01*
X13162801Y-20308183D02*
X13153277Y-20327230D01*
X13153277Y-20327230D02*
X13143753Y-20336754D01*
X13143753Y-20336754D02*
X13124706Y-20346278D01*
X13124706Y-20346278D02*
X13096134Y-20346278D01*
X13277087Y-20346278D02*
X13258039Y-20336754D01*
X13258039Y-20336754D02*
X13248515Y-20317706D01*
X13248515Y-20317706D02*
X13248515Y-20146278D01*
X13429468Y-20336754D02*
X13410420Y-20346278D01*
X13410420Y-20346278D02*
X13372325Y-20346278D01*
X13372325Y-20346278D02*
X13353277Y-20336754D01*
X13353277Y-20336754D02*
X13343753Y-20317706D01*
X13343753Y-20317706D02*
X13343753Y-20241516D01*
X13343753Y-20241516D02*
X13353277Y-20222468D01*
X13353277Y-20222468D02*
X13372325Y-20212945D01*
X13372325Y-20212945D02*
X13410420Y-20212945D01*
X13410420Y-20212945D02*
X13429468Y-20222468D01*
X13429468Y-20222468D02*
X13438991Y-20241516D01*
X13438991Y-20241516D02*
X13438991Y-20260564D01*
X13438991Y-20260564D02*
X13343753Y-20279611D01*
X13515182Y-20336754D02*
X13534230Y-20346278D01*
X13534230Y-20346278D02*
X13572325Y-20346278D01*
X13572325Y-20346278D02*
X13591372Y-20336754D01*
X13591372Y-20336754D02*
X13600896Y-20317706D01*
X13600896Y-20317706D02*
X13600896Y-20308183D01*
X13600896Y-20308183D02*
X13591372Y-20289135D01*
X13591372Y-20289135D02*
X13572325Y-20279611D01*
X13572325Y-20279611D02*
X13543753Y-20279611D01*
X13543753Y-20279611D02*
X13524706Y-20270087D01*
X13524706Y-20270087D02*
X13515182Y-20251040D01*
X13515182Y-20251040D02*
X13515182Y-20241516D01*
X13515182Y-20241516D02*
X13524706Y-20222468D01*
X13524706Y-20222468D02*
X13543753Y-20212945D01*
X13543753Y-20212945D02*
X13572325Y-20212945D01*
X13572325Y-20212945D02*
X13591372Y-20222468D01*
X13667563Y-20422468D02*
X13677087Y-20412945D01*
X13677087Y-20412945D02*
X13696134Y-20384373D01*
X13696134Y-20384373D02*
X13705658Y-20365326D01*
X13705658Y-20365326D02*
X13715182Y-20336754D01*
X13715182Y-20336754D02*
X13724706Y-20289135D01*
X13724706Y-20289135D02*
X13724706Y-20251040D01*
X13724706Y-20251040D02*
X13715182Y-20203421D01*
X13715182Y-20203421D02*
X13705658Y-20174849D01*
X13705658Y-20174849D02*
X13696134Y-20155802D01*
X13696134Y-20155802D02*
X13677087Y-20127230D01*
X13677087Y-20127230D02*
X13667563Y-20117706D01*
X14029468Y-20422468D02*
X14019944Y-20412945D01*
X14019944Y-20412945D02*
X14000896Y-20384373D01*
X14000896Y-20384373D02*
X13991372Y-20365326D01*
X13991372Y-20365326D02*
X13981849Y-20336754D01*
X13981849Y-20336754D02*
X13972325Y-20289135D01*
X13972325Y-20289135D02*
X13972325Y-20251040D01*
X13972325Y-20251040D02*
X13981849Y-20203421D01*
X13981849Y-20203421D02*
X13991372Y-20174849D01*
X13991372Y-20174849D02*
X14000896Y-20155802D01*
X14000896Y-20155802D02*
X14019944Y-20127230D01*
X14019944Y-20127230D02*
X14029468Y-20117706D01*
X14105658Y-20212945D02*
X14105658Y-20346278D01*
X14105658Y-20231992D02*
X14115182Y-20222468D01*
X14115182Y-20222468D02*
X14134230Y-20212945D01*
X14134230Y-20212945D02*
X14162801Y-20212945D01*
X14162801Y-20212945D02*
X14181849Y-20222468D01*
X14181849Y-20222468D02*
X14191372Y-20241516D01*
X14191372Y-20241516D02*
X14191372Y-20346278D01*
X14315182Y-20346278D02*
X14296134Y-20336754D01*
X14296134Y-20336754D02*
X14286611Y-20327230D01*
X14286611Y-20327230D02*
X14277087Y-20308183D01*
X14277087Y-20308183D02*
X14277087Y-20251040D01*
X14277087Y-20251040D02*
X14286611Y-20231992D01*
X14286611Y-20231992D02*
X14296134Y-20222468D01*
X14296134Y-20222468D02*
X14315182Y-20212945D01*
X14315182Y-20212945D02*
X14343753Y-20212945D01*
X14343753Y-20212945D02*
X14362801Y-20222468D01*
X14362801Y-20222468D02*
X14372325Y-20231992D01*
X14372325Y-20231992D02*
X14381849Y-20251040D01*
X14381849Y-20251040D02*
X14381849Y-20308183D01*
X14381849Y-20308183D02*
X14372325Y-20327230D01*
X14372325Y-20327230D02*
X14362801Y-20336754D01*
X14362801Y-20336754D02*
X14343753Y-20346278D01*
X14343753Y-20346278D02*
X14315182Y-20346278D01*
X14438992Y-20212945D02*
X14515182Y-20212945D01*
X14467563Y-20146278D02*
X14467563Y-20317706D01*
X14467563Y-20317706D02*
X14477087Y-20336754D01*
X14477087Y-20336754D02*
X14496134Y-20346278D01*
X14496134Y-20346278D02*
X14515182Y-20346278D01*
X14734230Y-20212945D02*
X14734230Y-20412945D01*
X14734230Y-20222468D02*
X14753277Y-20212945D01*
X14753277Y-20212945D02*
X14791373Y-20212945D01*
X14791373Y-20212945D02*
X14810420Y-20222468D01*
X14810420Y-20222468D02*
X14819944Y-20231992D01*
X14819944Y-20231992D02*
X14829468Y-20251040D01*
X14829468Y-20251040D02*
X14829468Y-20308183D01*
X14829468Y-20308183D02*
X14819944Y-20327230D01*
X14819944Y-20327230D02*
X14810420Y-20336754D01*
X14810420Y-20336754D02*
X14791373Y-20346278D01*
X14791373Y-20346278D02*
X14753277Y-20346278D01*
X14753277Y-20346278D02*
X14734230Y-20336754D01*
X14943753Y-20346278D02*
X14924706Y-20336754D01*
X14924706Y-20336754D02*
X14915182Y-20317706D01*
X14915182Y-20317706D02*
X14915182Y-20146278D01*
X15105658Y-20346278D02*
X15105658Y-20241516D01*
X15105658Y-20241516D02*
X15096134Y-20222468D01*
X15096134Y-20222468D02*
X15077087Y-20212945D01*
X15077087Y-20212945D02*
X15038992Y-20212945D01*
X15038992Y-20212945D02*
X15019944Y-20222468D01*
X15105658Y-20336754D02*
X15086611Y-20346278D01*
X15086611Y-20346278D02*
X15038992Y-20346278D01*
X15038992Y-20346278D02*
X15019944Y-20336754D01*
X15019944Y-20336754D02*
X15010420Y-20317706D01*
X15010420Y-20317706D02*
X15010420Y-20298659D01*
X15010420Y-20298659D02*
X15019944Y-20279611D01*
X15019944Y-20279611D02*
X15038992Y-20270087D01*
X15038992Y-20270087D02*
X15086611Y-20270087D01*
X15086611Y-20270087D02*
X15105658Y-20260564D01*
X15172325Y-20212945D02*
X15248515Y-20212945D01*
X15200896Y-20146278D02*
X15200896Y-20317706D01*
X15200896Y-20317706D02*
X15210420Y-20336754D01*
X15210420Y-20336754D02*
X15229468Y-20346278D01*
X15229468Y-20346278D02*
X15248515Y-20346278D01*
X15391373Y-20336754D02*
X15372325Y-20346278D01*
X15372325Y-20346278D02*
X15334230Y-20346278D01*
X15334230Y-20346278D02*
X15315182Y-20336754D01*
X15315182Y-20336754D02*
X15305658Y-20317706D01*
X15305658Y-20317706D02*
X15305658Y-20241516D01*
X15305658Y-20241516D02*
X15315182Y-20222468D01*
X15315182Y-20222468D02*
X15334230Y-20212945D01*
X15334230Y-20212945D02*
X15372325Y-20212945D01*
X15372325Y-20212945D02*
X15391373Y-20222468D01*
X15391373Y-20222468D02*
X15400896Y-20241516D01*
X15400896Y-20241516D02*
X15400896Y-20260564D01*
X15400896Y-20260564D02*
X15305658Y-20279611D01*
X15572325Y-20346278D02*
X15572325Y-20146278D01*
X15572325Y-20336754D02*
X15553277Y-20346278D01*
X15553277Y-20346278D02*
X15515182Y-20346278D01*
X15515182Y-20346278D02*
X15496134Y-20336754D01*
X15496134Y-20336754D02*
X15486611Y-20327230D01*
X15486611Y-20327230D02*
X15477087Y-20308183D01*
X15477087Y-20308183D02*
X15477087Y-20251040D01*
X15477087Y-20251040D02*
X15486611Y-20231992D01*
X15486611Y-20231992D02*
X15496134Y-20222468D01*
X15496134Y-20222468D02*
X15515182Y-20212945D01*
X15515182Y-20212945D02*
X15553277Y-20212945D01*
X15553277Y-20212945D02*
X15572325Y-20222468D01*
X15648515Y-20422468D02*
X15658039Y-20412945D01*
X15658039Y-20412945D02*
X15677087Y-20384373D01*
X15677087Y-20384373D02*
X15686611Y-20365326D01*
X15686611Y-20365326D02*
X15696134Y-20336754D01*
X15696134Y-20336754D02*
X15705658Y-20289135D01*
X15705658Y-20289135D02*
X15705658Y-20251040D01*
X15705658Y-20251040D02*
X15696134Y-20203421D01*
X15696134Y-20203421D02*
X15686611Y-20174849D01*
X15686611Y-20174849D02*
X15677087Y-20155802D01*
X15677087Y-20155802D02*
X15658039Y-20127230D01*
X15658039Y-20127230D02*
X15648515Y-20117706D01*
D12*
X8892500Y-20518794D02*
G75*
G02*
X8802500Y-20518794I-45000J0D01*
G01*
X8802500Y-20518794D02*
G75*
G02*
X8892500Y-20518794I45000J0D01*
G01*
D11*
X9191372Y-20410278D02*
X9210420Y-20410278D01*
X9210420Y-20410278D02*
X9229467Y-20419802D01*
X9229467Y-20419802D02*
X9238991Y-20429326D01*
X9238991Y-20429326D02*
X9248515Y-20448373D01*
X9248515Y-20448373D02*
X9258039Y-20486468D01*
X9258039Y-20486468D02*
X9258039Y-20534087D01*
X9258039Y-20534087D02*
X9248515Y-20572183D01*
X9248515Y-20572183D02*
X9238991Y-20591230D01*
X9238991Y-20591230D02*
X9229467Y-20600754D01*
X9229467Y-20600754D02*
X9210420Y-20610278D01*
X9210420Y-20610278D02*
X9191372Y-20610278D01*
X9191372Y-20610278D02*
X9172324Y-20600754D01*
X9172324Y-20600754D02*
X9162801Y-20591230D01*
X9162801Y-20591230D02*
X9153277Y-20572183D01*
X9153277Y-20572183D02*
X9143753Y-20534087D01*
X9143753Y-20534087D02*
X9143753Y-20486468D01*
X9143753Y-20486468D02*
X9153277Y-20448373D01*
X9153277Y-20448373D02*
X9162801Y-20429326D01*
X9162801Y-20429326D02*
X9172324Y-20419802D01*
X9172324Y-20419802D02*
X9191372Y-20410278D01*
X9343753Y-20591230D02*
X9353277Y-20600754D01*
X9353277Y-20600754D02*
X9343753Y-20610278D01*
X9343753Y-20610278D02*
X9334229Y-20600754D01*
X9334229Y-20600754D02*
X9343753Y-20591230D01*
X9343753Y-20591230D02*
X9343753Y-20610278D01*
X9448515Y-20610278D02*
X9486610Y-20610278D01*
X9486610Y-20610278D02*
X9505658Y-20600754D01*
X9505658Y-20600754D02*
X9515182Y-20591230D01*
X9515182Y-20591230D02*
X9534229Y-20562659D01*
X9534229Y-20562659D02*
X9543753Y-20524564D01*
X9543753Y-20524564D02*
X9543753Y-20448373D01*
X9543753Y-20448373D02*
X9534229Y-20429326D01*
X9534229Y-20429326D02*
X9524705Y-20419802D01*
X9524705Y-20419802D02*
X9505658Y-20410278D01*
X9505658Y-20410278D02*
X9467563Y-20410278D01*
X9467563Y-20410278D02*
X9448515Y-20419802D01*
X9448515Y-20419802D02*
X9438991Y-20429326D01*
X9438991Y-20429326D02*
X9429467Y-20448373D01*
X9429467Y-20448373D02*
X9429467Y-20495992D01*
X9429467Y-20495992D02*
X9438991Y-20515040D01*
X9438991Y-20515040D02*
X9448515Y-20524564D01*
X9448515Y-20524564D02*
X9467563Y-20534087D01*
X9467563Y-20534087D02*
X9505658Y-20534087D01*
X9505658Y-20534087D02*
X9524705Y-20524564D01*
X9524705Y-20524564D02*
X9534229Y-20515040D01*
X9534229Y-20515040D02*
X9543753Y-20495992D01*
X9667563Y-20410278D02*
X9686610Y-20410278D01*
X9686610Y-20410278D02*
X9705658Y-20419802D01*
X9705658Y-20419802D02*
X9715182Y-20429326D01*
X9715182Y-20429326D02*
X9724705Y-20448373D01*
X9724705Y-20448373D02*
X9734229Y-20486468D01*
X9734229Y-20486468D02*
X9734229Y-20534087D01*
X9734229Y-20534087D02*
X9724705Y-20572183D01*
X9724705Y-20572183D02*
X9715182Y-20591230D01*
X9715182Y-20591230D02*
X9705658Y-20600754D01*
X9705658Y-20600754D02*
X9686610Y-20610278D01*
X9686610Y-20610278D02*
X9667563Y-20610278D01*
X9667563Y-20610278D02*
X9648515Y-20600754D01*
X9648515Y-20600754D02*
X9638991Y-20591230D01*
X9638991Y-20591230D02*
X9629467Y-20572183D01*
X9629467Y-20572183D02*
X9619944Y-20534087D01*
X9619944Y-20534087D02*
X9619944Y-20486468D01*
X9619944Y-20486468D02*
X9629467Y-20448373D01*
X9629467Y-20448373D02*
X9638991Y-20429326D01*
X9638991Y-20429326D02*
X9648515Y-20419802D01*
X9648515Y-20419802D02*
X9667563Y-20410278D01*
X9858039Y-20410278D02*
X9877086Y-20410278D01*
X9877086Y-20410278D02*
X9896134Y-20419802D01*
X9896134Y-20419802D02*
X9905658Y-20429326D01*
X9905658Y-20429326D02*
X9915182Y-20448373D01*
X9915182Y-20448373D02*
X9924705Y-20486468D01*
X9924705Y-20486468D02*
X9924705Y-20534087D01*
X9924705Y-20534087D02*
X9915182Y-20572183D01*
X9915182Y-20572183D02*
X9905658Y-20591230D01*
X9905658Y-20591230D02*
X9896134Y-20600754D01*
X9896134Y-20600754D02*
X9877086Y-20610278D01*
X9877086Y-20610278D02*
X9858039Y-20610278D01*
X9858039Y-20610278D02*
X9838991Y-20600754D01*
X9838991Y-20600754D02*
X9829467Y-20591230D01*
X9829467Y-20591230D02*
X9819944Y-20572183D01*
X9819944Y-20572183D02*
X9810420Y-20534087D01*
X9810420Y-20534087D02*
X9810420Y-20486468D01*
X9810420Y-20486468D02*
X9819944Y-20448373D01*
X9819944Y-20448373D02*
X9829467Y-20429326D01*
X9829467Y-20429326D02*
X9838991Y-20419802D01*
X9838991Y-20419802D02*
X9858039Y-20410278D01*
X10010420Y-20610278D02*
X10010420Y-20476945D01*
X10010420Y-20495992D02*
X10019944Y-20486468D01*
X10019944Y-20486468D02*
X10038991Y-20476945D01*
X10038991Y-20476945D02*
X10067563Y-20476945D01*
X10067563Y-20476945D02*
X10086610Y-20486468D01*
X10086610Y-20486468D02*
X10096134Y-20505516D01*
X10096134Y-20505516D02*
X10096134Y-20610278D01*
X10096134Y-20505516D02*
X10105658Y-20486468D01*
X10105658Y-20486468D02*
X10124705Y-20476945D01*
X10124705Y-20476945D02*
X10153277Y-20476945D01*
X10153277Y-20476945D02*
X10172325Y-20486468D01*
X10172325Y-20486468D02*
X10181848Y-20505516D01*
X10181848Y-20505516D02*
X10181848Y-20610278D01*
X10277086Y-20610278D02*
X10277086Y-20476945D01*
X10277086Y-20495992D02*
X10286610Y-20486468D01*
X10286610Y-20486468D02*
X10305658Y-20476945D01*
X10305658Y-20476945D02*
X10334229Y-20476945D01*
X10334229Y-20476945D02*
X10353277Y-20486468D01*
X10353277Y-20486468D02*
X10362801Y-20505516D01*
X10362801Y-20505516D02*
X10362801Y-20610278D01*
X10362801Y-20505516D02*
X10372325Y-20486468D01*
X10372325Y-20486468D02*
X10391372Y-20476945D01*
X10391372Y-20476945D02*
X10419944Y-20476945D01*
X10419944Y-20476945D02*
X10438991Y-20486468D01*
X10438991Y-20486468D02*
X10448515Y-20505516D01*
X10448515Y-20505516D02*
X10448515Y-20610278D01*
X10838991Y-20400754D02*
X10667563Y-20657897D01*
X11096134Y-20410278D02*
X11115182Y-20410278D01*
X11115182Y-20410278D02*
X11134229Y-20419802D01*
X11134229Y-20419802D02*
X11143753Y-20429326D01*
X11143753Y-20429326D02*
X11153277Y-20448373D01*
X11153277Y-20448373D02*
X11162801Y-20486468D01*
X11162801Y-20486468D02*
X11162801Y-20534087D01*
X11162801Y-20534087D02*
X11153277Y-20572183D01*
X11153277Y-20572183D02*
X11143753Y-20591230D01*
X11143753Y-20591230D02*
X11134229Y-20600754D01*
X11134229Y-20600754D02*
X11115182Y-20610278D01*
X11115182Y-20610278D02*
X11096134Y-20610278D01*
X11096134Y-20610278D02*
X11077087Y-20600754D01*
X11077087Y-20600754D02*
X11067563Y-20591230D01*
X11067563Y-20591230D02*
X11058039Y-20572183D01*
X11058039Y-20572183D02*
X11048515Y-20534087D01*
X11048515Y-20534087D02*
X11048515Y-20486468D01*
X11048515Y-20486468D02*
X11058039Y-20448373D01*
X11058039Y-20448373D02*
X11067563Y-20429326D01*
X11067563Y-20429326D02*
X11077087Y-20419802D01*
X11077087Y-20419802D02*
X11096134Y-20410278D01*
X11248515Y-20591230D02*
X11258039Y-20600754D01*
X11258039Y-20600754D02*
X11248515Y-20610278D01*
X11248515Y-20610278D02*
X11238991Y-20600754D01*
X11238991Y-20600754D02*
X11248515Y-20591230D01*
X11248515Y-20591230D02*
X11248515Y-20610278D01*
X11381848Y-20410278D02*
X11400896Y-20410278D01*
X11400896Y-20410278D02*
X11419944Y-20419802D01*
X11419944Y-20419802D02*
X11429467Y-20429326D01*
X11429467Y-20429326D02*
X11438991Y-20448373D01*
X11438991Y-20448373D02*
X11448515Y-20486468D01*
X11448515Y-20486468D02*
X11448515Y-20534087D01*
X11448515Y-20534087D02*
X11438991Y-20572183D01*
X11438991Y-20572183D02*
X11429467Y-20591230D01*
X11429467Y-20591230D02*
X11419944Y-20600754D01*
X11419944Y-20600754D02*
X11400896Y-20610278D01*
X11400896Y-20610278D02*
X11381848Y-20610278D01*
X11381848Y-20610278D02*
X11362801Y-20600754D01*
X11362801Y-20600754D02*
X11353277Y-20591230D01*
X11353277Y-20591230D02*
X11343753Y-20572183D01*
X11343753Y-20572183D02*
X11334229Y-20534087D01*
X11334229Y-20534087D02*
X11334229Y-20486468D01*
X11334229Y-20486468D02*
X11343753Y-20448373D01*
X11343753Y-20448373D02*
X11353277Y-20429326D01*
X11353277Y-20429326D02*
X11362801Y-20419802D01*
X11362801Y-20419802D02*
X11381848Y-20410278D01*
X11515182Y-20410278D02*
X11638991Y-20410278D01*
X11638991Y-20410278D02*
X11572325Y-20486468D01*
X11572325Y-20486468D02*
X11600896Y-20486468D01*
X11600896Y-20486468D02*
X11619944Y-20495992D01*
X11619944Y-20495992D02*
X11629467Y-20505516D01*
X11629467Y-20505516D02*
X11638991Y-20524564D01*
X11638991Y-20524564D02*
X11638991Y-20572183D01*
X11638991Y-20572183D02*
X11629467Y-20591230D01*
X11629467Y-20591230D02*
X11619944Y-20600754D01*
X11619944Y-20600754D02*
X11600896Y-20610278D01*
X11600896Y-20610278D02*
X11543753Y-20610278D01*
X11543753Y-20610278D02*
X11524706Y-20600754D01*
X11524706Y-20600754D02*
X11515182Y-20591230D01*
X11819944Y-20410278D02*
X11724706Y-20410278D01*
X11724706Y-20410278D02*
X11715182Y-20505516D01*
X11715182Y-20505516D02*
X11724706Y-20495992D01*
X11724706Y-20495992D02*
X11743753Y-20486468D01*
X11743753Y-20486468D02*
X11791372Y-20486468D01*
X11791372Y-20486468D02*
X11810420Y-20495992D01*
X11810420Y-20495992D02*
X11819944Y-20505516D01*
X11819944Y-20505516D02*
X11829467Y-20524564D01*
X11829467Y-20524564D02*
X11829467Y-20572183D01*
X11829467Y-20572183D02*
X11819944Y-20591230D01*
X11819944Y-20591230D02*
X11810420Y-20600754D01*
X11810420Y-20600754D02*
X11791372Y-20610278D01*
X11791372Y-20610278D02*
X11743753Y-20610278D01*
X11743753Y-20610278D02*
X11724706Y-20600754D01*
X11724706Y-20600754D02*
X11715182Y-20591230D01*
X12000896Y-20476945D02*
X12000896Y-20610278D01*
X11953277Y-20400754D02*
X11905658Y-20543611D01*
X11905658Y-20543611D02*
X12029467Y-20543611D01*
X12096134Y-20410278D02*
X12096134Y-20448373D01*
X12172325Y-20410278D02*
X12172325Y-20448373D01*
X12467563Y-20686468D02*
X12458039Y-20676945D01*
X12458039Y-20676945D02*
X12438991Y-20648373D01*
X12438991Y-20648373D02*
X12429468Y-20629326D01*
X12429468Y-20629326D02*
X12419944Y-20600754D01*
X12419944Y-20600754D02*
X12410420Y-20553135D01*
X12410420Y-20553135D02*
X12410420Y-20515040D01*
X12410420Y-20515040D02*
X12419944Y-20467421D01*
X12419944Y-20467421D02*
X12429468Y-20438849D01*
X12429468Y-20438849D02*
X12438991Y-20419802D01*
X12438991Y-20419802D02*
X12458039Y-20391230D01*
X12458039Y-20391230D02*
X12467563Y-20381706D01*
X12534229Y-20429326D02*
X12543753Y-20419802D01*
X12543753Y-20419802D02*
X12562801Y-20410278D01*
X12562801Y-20410278D02*
X12610420Y-20410278D01*
X12610420Y-20410278D02*
X12629468Y-20419802D01*
X12629468Y-20419802D02*
X12638991Y-20429326D01*
X12638991Y-20429326D02*
X12648515Y-20448373D01*
X12648515Y-20448373D02*
X12648515Y-20467421D01*
X12648515Y-20467421D02*
X12638991Y-20495992D01*
X12638991Y-20495992D02*
X12524706Y-20610278D01*
X12524706Y-20610278D02*
X12648515Y-20610278D01*
X12886610Y-20610278D02*
X12886610Y-20410278D01*
X12972325Y-20610278D02*
X12972325Y-20505516D01*
X12972325Y-20505516D02*
X12962801Y-20486468D01*
X12962801Y-20486468D02*
X12943753Y-20476945D01*
X12943753Y-20476945D02*
X12915182Y-20476945D01*
X12915182Y-20476945D02*
X12896134Y-20486468D01*
X12896134Y-20486468D02*
X12886610Y-20495992D01*
X13096134Y-20610278D02*
X13077087Y-20600754D01*
X13077087Y-20600754D02*
X13067563Y-20591230D01*
X13067563Y-20591230D02*
X13058039Y-20572183D01*
X13058039Y-20572183D02*
X13058039Y-20515040D01*
X13058039Y-20515040D02*
X13067563Y-20495992D01*
X13067563Y-20495992D02*
X13077087Y-20486468D01*
X13077087Y-20486468D02*
X13096134Y-20476945D01*
X13096134Y-20476945D02*
X13124706Y-20476945D01*
X13124706Y-20476945D02*
X13143753Y-20486468D01*
X13143753Y-20486468D02*
X13153277Y-20495992D01*
X13153277Y-20495992D02*
X13162801Y-20515040D01*
X13162801Y-20515040D02*
X13162801Y-20572183D01*
X13162801Y-20572183D02*
X13153277Y-20591230D01*
X13153277Y-20591230D02*
X13143753Y-20600754D01*
X13143753Y-20600754D02*
X13124706Y-20610278D01*
X13124706Y-20610278D02*
X13096134Y-20610278D01*
X13277087Y-20610278D02*
X13258039Y-20600754D01*
X13258039Y-20600754D02*
X13248515Y-20581706D01*
X13248515Y-20581706D02*
X13248515Y-20410278D01*
X13429468Y-20600754D02*
X13410420Y-20610278D01*
X13410420Y-20610278D02*
X13372325Y-20610278D01*
X13372325Y-20610278D02*
X13353277Y-20600754D01*
X13353277Y-20600754D02*
X13343753Y-20581706D01*
X13343753Y-20581706D02*
X13343753Y-20505516D01*
X13343753Y-20505516D02*
X13353277Y-20486468D01*
X13353277Y-20486468D02*
X13372325Y-20476945D01*
X13372325Y-20476945D02*
X13410420Y-20476945D01*
X13410420Y-20476945D02*
X13429468Y-20486468D01*
X13429468Y-20486468D02*
X13438991Y-20505516D01*
X13438991Y-20505516D02*
X13438991Y-20524564D01*
X13438991Y-20524564D02*
X13343753Y-20543611D01*
X13515182Y-20600754D02*
X13534230Y-20610278D01*
X13534230Y-20610278D02*
X13572325Y-20610278D01*
X13572325Y-20610278D02*
X13591372Y-20600754D01*
X13591372Y-20600754D02*
X13600896Y-20581706D01*
X13600896Y-20581706D02*
X13600896Y-20572183D01*
X13600896Y-20572183D02*
X13591372Y-20553135D01*
X13591372Y-20553135D02*
X13572325Y-20543611D01*
X13572325Y-20543611D02*
X13543753Y-20543611D01*
X13543753Y-20543611D02*
X13524706Y-20534087D01*
X13524706Y-20534087D02*
X13515182Y-20515040D01*
X13515182Y-20515040D02*
X13515182Y-20505516D01*
X13515182Y-20505516D02*
X13524706Y-20486468D01*
X13524706Y-20486468D02*
X13543753Y-20476945D01*
X13543753Y-20476945D02*
X13572325Y-20476945D01*
X13572325Y-20476945D02*
X13591372Y-20486468D01*
X13667563Y-20686468D02*
X13677087Y-20676945D01*
X13677087Y-20676945D02*
X13696134Y-20648373D01*
X13696134Y-20648373D02*
X13705658Y-20629326D01*
X13705658Y-20629326D02*
X13715182Y-20600754D01*
X13715182Y-20600754D02*
X13724706Y-20553135D01*
X13724706Y-20553135D02*
X13724706Y-20515040D01*
X13724706Y-20515040D02*
X13715182Y-20467421D01*
X13715182Y-20467421D02*
X13705658Y-20438849D01*
X13705658Y-20438849D02*
X13696134Y-20419802D01*
X13696134Y-20419802D02*
X13677087Y-20391230D01*
X13677087Y-20391230D02*
X13667563Y-20381706D01*
X14029468Y-20686468D02*
X14019944Y-20676945D01*
X14019944Y-20676945D02*
X14000896Y-20648373D01*
X14000896Y-20648373D02*
X13991372Y-20629326D01*
X13991372Y-20629326D02*
X13981849Y-20600754D01*
X13981849Y-20600754D02*
X13972325Y-20553135D01*
X13972325Y-20553135D02*
X13972325Y-20515040D01*
X13972325Y-20515040D02*
X13981849Y-20467421D01*
X13981849Y-20467421D02*
X13991372Y-20438849D01*
X13991372Y-20438849D02*
X14000896Y-20419802D01*
X14000896Y-20419802D02*
X14019944Y-20391230D01*
X14019944Y-20391230D02*
X14029468Y-20381706D01*
X14105658Y-20476945D02*
X14105658Y-20610278D01*
X14105658Y-20495992D02*
X14115182Y-20486468D01*
X14115182Y-20486468D02*
X14134230Y-20476945D01*
X14134230Y-20476945D02*
X14162801Y-20476945D01*
X14162801Y-20476945D02*
X14181849Y-20486468D01*
X14181849Y-20486468D02*
X14191372Y-20505516D01*
X14191372Y-20505516D02*
X14191372Y-20610278D01*
X14315182Y-20610278D02*
X14296134Y-20600754D01*
X14296134Y-20600754D02*
X14286611Y-20591230D01*
X14286611Y-20591230D02*
X14277087Y-20572183D01*
X14277087Y-20572183D02*
X14277087Y-20515040D01*
X14277087Y-20515040D02*
X14286611Y-20495992D01*
X14286611Y-20495992D02*
X14296134Y-20486468D01*
X14296134Y-20486468D02*
X14315182Y-20476945D01*
X14315182Y-20476945D02*
X14343753Y-20476945D01*
X14343753Y-20476945D02*
X14362801Y-20486468D01*
X14362801Y-20486468D02*
X14372325Y-20495992D01*
X14372325Y-20495992D02*
X14381849Y-20515040D01*
X14381849Y-20515040D02*
X14381849Y-20572183D01*
X14381849Y-20572183D02*
X14372325Y-20591230D01*
X14372325Y-20591230D02*
X14362801Y-20600754D01*
X14362801Y-20600754D02*
X14343753Y-20610278D01*
X14343753Y-20610278D02*
X14315182Y-20610278D01*
X14438992Y-20476945D02*
X14515182Y-20476945D01*
X14467563Y-20410278D02*
X14467563Y-20581706D01*
X14467563Y-20581706D02*
X14477087Y-20600754D01*
X14477087Y-20600754D02*
X14496134Y-20610278D01*
X14496134Y-20610278D02*
X14515182Y-20610278D01*
X14734230Y-20476945D02*
X14734230Y-20676945D01*
X14734230Y-20486468D02*
X14753277Y-20476945D01*
X14753277Y-20476945D02*
X14791373Y-20476945D01*
X14791373Y-20476945D02*
X14810420Y-20486468D01*
X14810420Y-20486468D02*
X14819944Y-20495992D01*
X14819944Y-20495992D02*
X14829468Y-20515040D01*
X14829468Y-20515040D02*
X14829468Y-20572183D01*
X14829468Y-20572183D02*
X14819944Y-20591230D01*
X14819944Y-20591230D02*
X14810420Y-20600754D01*
X14810420Y-20600754D02*
X14791373Y-20610278D01*
X14791373Y-20610278D02*
X14753277Y-20610278D01*
X14753277Y-20610278D02*
X14734230Y-20600754D01*
X14943753Y-20610278D02*
X14924706Y-20600754D01*
X14924706Y-20600754D02*
X14915182Y-20581706D01*
X14915182Y-20581706D02*
X14915182Y-20410278D01*
X15105658Y-20610278D02*
X15105658Y-20505516D01*
X15105658Y-20505516D02*
X15096134Y-20486468D01*
X15096134Y-20486468D02*
X15077087Y-20476945D01*
X15077087Y-20476945D02*
X15038992Y-20476945D01*
X15038992Y-20476945D02*
X15019944Y-20486468D01*
X15105658Y-20600754D02*
X15086611Y-20610278D01*
X15086611Y-20610278D02*
X15038992Y-20610278D01*
X15038992Y-20610278D02*
X15019944Y-20600754D01*
X15019944Y-20600754D02*
X15010420Y-20581706D01*
X15010420Y-20581706D02*
X15010420Y-20562659D01*
X15010420Y-20562659D02*
X15019944Y-20543611D01*
X15019944Y-20543611D02*
X15038992Y-20534087D01*
X15038992Y-20534087D02*
X15086611Y-20534087D01*
X15086611Y-20534087D02*
X15105658Y-20524564D01*
X15172325Y-20476945D02*
X15248515Y-20476945D01*
X15200896Y-20410278D02*
X15200896Y-20581706D01*
X15200896Y-20581706D02*
X15210420Y-20600754D01*
X15210420Y-20600754D02*
X15229468Y-20610278D01*
X15229468Y-20610278D02*
X15248515Y-20610278D01*
X15391373Y-20600754D02*
X15372325Y-20610278D01*
X15372325Y-20610278D02*
X15334230Y-20610278D01*
X15334230Y-20610278D02*
X15315182Y-20600754D01*
X15315182Y-20600754D02*
X15305658Y-20581706D01*
X15305658Y-20581706D02*
X15305658Y-20505516D01*
X15305658Y-20505516D02*
X15315182Y-20486468D01*
X15315182Y-20486468D02*
X15334230Y-20476945D01*
X15334230Y-20476945D02*
X15372325Y-20476945D01*
X15372325Y-20476945D02*
X15391373Y-20486468D01*
X15391373Y-20486468D02*
X15400896Y-20505516D01*
X15400896Y-20505516D02*
X15400896Y-20524564D01*
X15400896Y-20524564D02*
X15305658Y-20543611D01*
X15572325Y-20610278D02*
X15572325Y-20410278D01*
X15572325Y-20600754D02*
X15553277Y-20610278D01*
X15553277Y-20610278D02*
X15515182Y-20610278D01*
X15515182Y-20610278D02*
X15496134Y-20600754D01*
X15496134Y-20600754D02*
X15486611Y-20591230D01*
X15486611Y-20591230D02*
X15477087Y-20572183D01*
X15477087Y-20572183D02*
X15477087Y-20515040D01*
X15477087Y-20515040D02*
X15486611Y-20495992D01*
X15486611Y-20495992D02*
X15496134Y-20486468D01*
X15496134Y-20486468D02*
X15515182Y-20476945D01*
X15515182Y-20476945D02*
X15553277Y-20476945D01*
X15553277Y-20476945D02*
X15572325Y-20486468D01*
X15648515Y-20686468D02*
X15658039Y-20676945D01*
X15658039Y-20676945D02*
X15677087Y-20648373D01*
X15677087Y-20648373D02*
X15686611Y-20629326D01*
X15686611Y-20629326D02*
X15696134Y-20600754D01*
X15696134Y-20600754D02*
X15705658Y-20553135D01*
X15705658Y-20553135D02*
X15705658Y-20515040D01*
X15705658Y-20515040D02*
X15696134Y-20467421D01*
X15696134Y-20467421D02*
X15686611Y-20438849D01*
X15686611Y-20438849D02*
X15677087Y-20419802D01*
X15677087Y-20419802D02*
X15658039Y-20391230D01*
X15658039Y-20391230D02*
X15648515Y-20381706D01*
D13*
X8807410Y-20697704D02*
X8807410Y-20867884D01*
X8722320Y-20782794D02*
X8892500Y-20782794D01*
D11*
X9258039Y-20874278D02*
X9143753Y-20874278D01*
X9200896Y-20874278D02*
X9200896Y-20674278D01*
X9200896Y-20674278D02*
X9181848Y-20702849D01*
X9181848Y-20702849D02*
X9162801Y-20721897D01*
X9162801Y-20721897D02*
X9143753Y-20731421D01*
X9343753Y-20855230D02*
X9353277Y-20864754D01*
X9353277Y-20864754D02*
X9343753Y-20874278D01*
X9343753Y-20874278D02*
X9334229Y-20864754D01*
X9334229Y-20864754D02*
X9343753Y-20855230D01*
X9343753Y-20855230D02*
X9343753Y-20874278D01*
X9419944Y-20674278D02*
X9553277Y-20674278D01*
X9553277Y-20674278D02*
X9467563Y-20874278D01*
X9667563Y-20674278D02*
X9686610Y-20674278D01*
X9686610Y-20674278D02*
X9705658Y-20683802D01*
X9705658Y-20683802D02*
X9715182Y-20693326D01*
X9715182Y-20693326D02*
X9724705Y-20712373D01*
X9724705Y-20712373D02*
X9734229Y-20750468D01*
X9734229Y-20750468D02*
X9734229Y-20798087D01*
X9734229Y-20798087D02*
X9724705Y-20836183D01*
X9724705Y-20836183D02*
X9715182Y-20855230D01*
X9715182Y-20855230D02*
X9705658Y-20864754D01*
X9705658Y-20864754D02*
X9686610Y-20874278D01*
X9686610Y-20874278D02*
X9667563Y-20874278D01*
X9667563Y-20874278D02*
X9648515Y-20864754D01*
X9648515Y-20864754D02*
X9638991Y-20855230D01*
X9638991Y-20855230D02*
X9629467Y-20836183D01*
X9629467Y-20836183D02*
X9619944Y-20798087D01*
X9619944Y-20798087D02*
X9619944Y-20750468D01*
X9619944Y-20750468D02*
X9629467Y-20712373D01*
X9629467Y-20712373D02*
X9638991Y-20693326D01*
X9638991Y-20693326D02*
X9648515Y-20683802D01*
X9648515Y-20683802D02*
X9667563Y-20674278D01*
X9810420Y-20693326D02*
X9819944Y-20683802D01*
X9819944Y-20683802D02*
X9838991Y-20674278D01*
X9838991Y-20674278D02*
X9886610Y-20674278D01*
X9886610Y-20674278D02*
X9905658Y-20683802D01*
X9905658Y-20683802D02*
X9915182Y-20693326D01*
X9915182Y-20693326D02*
X9924705Y-20712373D01*
X9924705Y-20712373D02*
X9924705Y-20731421D01*
X9924705Y-20731421D02*
X9915182Y-20759992D01*
X9915182Y-20759992D02*
X9800896Y-20874278D01*
X9800896Y-20874278D02*
X9924705Y-20874278D01*
X10010420Y-20874278D02*
X10010420Y-20740945D01*
X10010420Y-20759992D02*
X10019944Y-20750468D01*
X10019944Y-20750468D02*
X10038991Y-20740945D01*
X10038991Y-20740945D02*
X10067563Y-20740945D01*
X10067563Y-20740945D02*
X10086610Y-20750468D01*
X10086610Y-20750468D02*
X10096134Y-20769516D01*
X10096134Y-20769516D02*
X10096134Y-20874278D01*
X10096134Y-20769516D02*
X10105658Y-20750468D01*
X10105658Y-20750468D02*
X10124705Y-20740945D01*
X10124705Y-20740945D02*
X10153277Y-20740945D01*
X10153277Y-20740945D02*
X10172325Y-20750468D01*
X10172325Y-20750468D02*
X10181848Y-20769516D01*
X10181848Y-20769516D02*
X10181848Y-20874278D01*
X10277086Y-20874278D02*
X10277086Y-20740945D01*
X10277086Y-20759992D02*
X10286610Y-20750468D01*
X10286610Y-20750468D02*
X10305658Y-20740945D01*
X10305658Y-20740945D02*
X10334229Y-20740945D01*
X10334229Y-20740945D02*
X10353277Y-20750468D01*
X10353277Y-20750468D02*
X10362801Y-20769516D01*
X10362801Y-20769516D02*
X10362801Y-20874278D01*
X10362801Y-20769516D02*
X10372325Y-20750468D01*
X10372325Y-20750468D02*
X10391372Y-20740945D01*
X10391372Y-20740945D02*
X10419944Y-20740945D01*
X10419944Y-20740945D02*
X10438991Y-20750468D01*
X10438991Y-20750468D02*
X10448515Y-20769516D01*
X10448515Y-20769516D02*
X10448515Y-20874278D01*
X10838991Y-20664754D02*
X10667563Y-20921897D01*
X11096134Y-20674278D02*
X11115182Y-20674278D01*
X11115182Y-20674278D02*
X11134229Y-20683802D01*
X11134229Y-20683802D02*
X11143753Y-20693326D01*
X11143753Y-20693326D02*
X11153277Y-20712373D01*
X11153277Y-20712373D02*
X11162801Y-20750468D01*
X11162801Y-20750468D02*
X11162801Y-20798087D01*
X11162801Y-20798087D02*
X11153277Y-20836183D01*
X11153277Y-20836183D02*
X11143753Y-20855230D01*
X11143753Y-20855230D02*
X11134229Y-20864754D01*
X11134229Y-20864754D02*
X11115182Y-20874278D01*
X11115182Y-20874278D02*
X11096134Y-20874278D01*
X11096134Y-20874278D02*
X11077087Y-20864754D01*
X11077087Y-20864754D02*
X11067563Y-20855230D01*
X11067563Y-20855230D02*
X11058039Y-20836183D01*
X11058039Y-20836183D02*
X11048515Y-20798087D01*
X11048515Y-20798087D02*
X11048515Y-20750468D01*
X11048515Y-20750468D02*
X11058039Y-20712373D01*
X11058039Y-20712373D02*
X11067563Y-20693326D01*
X11067563Y-20693326D02*
X11077087Y-20683802D01*
X11077087Y-20683802D02*
X11096134Y-20674278D01*
X11248515Y-20855230D02*
X11258039Y-20864754D01*
X11258039Y-20864754D02*
X11248515Y-20874278D01*
X11248515Y-20874278D02*
X11238991Y-20864754D01*
X11238991Y-20864754D02*
X11248515Y-20855230D01*
X11248515Y-20855230D02*
X11248515Y-20874278D01*
X11381848Y-20674278D02*
X11400896Y-20674278D01*
X11400896Y-20674278D02*
X11419944Y-20683802D01*
X11419944Y-20683802D02*
X11429467Y-20693326D01*
X11429467Y-20693326D02*
X11438991Y-20712373D01*
X11438991Y-20712373D02*
X11448515Y-20750468D01*
X11448515Y-20750468D02*
X11448515Y-20798087D01*
X11448515Y-20798087D02*
X11438991Y-20836183D01*
X11438991Y-20836183D02*
X11429467Y-20855230D01*
X11429467Y-20855230D02*
X11419944Y-20864754D01*
X11419944Y-20864754D02*
X11400896Y-20874278D01*
X11400896Y-20874278D02*
X11381848Y-20874278D01*
X11381848Y-20874278D02*
X11362801Y-20864754D01*
X11362801Y-20864754D02*
X11353277Y-20855230D01*
X11353277Y-20855230D02*
X11343753Y-20836183D01*
X11343753Y-20836183D02*
X11334229Y-20798087D01*
X11334229Y-20798087D02*
X11334229Y-20750468D01*
X11334229Y-20750468D02*
X11343753Y-20712373D01*
X11343753Y-20712373D02*
X11353277Y-20693326D01*
X11353277Y-20693326D02*
X11362801Y-20683802D01*
X11362801Y-20683802D02*
X11381848Y-20674278D01*
X11619944Y-20674278D02*
X11581848Y-20674278D01*
X11581848Y-20674278D02*
X11562801Y-20683802D01*
X11562801Y-20683802D02*
X11553277Y-20693326D01*
X11553277Y-20693326D02*
X11534229Y-20721897D01*
X11534229Y-20721897D02*
X11524706Y-20759992D01*
X11524706Y-20759992D02*
X11524706Y-20836183D01*
X11524706Y-20836183D02*
X11534229Y-20855230D01*
X11534229Y-20855230D02*
X11543753Y-20864754D01*
X11543753Y-20864754D02*
X11562801Y-20874278D01*
X11562801Y-20874278D02*
X11600896Y-20874278D01*
X11600896Y-20874278D02*
X11619944Y-20864754D01*
X11619944Y-20864754D02*
X11629467Y-20855230D01*
X11629467Y-20855230D02*
X11638991Y-20836183D01*
X11638991Y-20836183D02*
X11638991Y-20788564D01*
X11638991Y-20788564D02*
X11629467Y-20769516D01*
X11629467Y-20769516D02*
X11619944Y-20759992D01*
X11619944Y-20759992D02*
X11600896Y-20750468D01*
X11600896Y-20750468D02*
X11562801Y-20750468D01*
X11562801Y-20750468D02*
X11543753Y-20759992D01*
X11543753Y-20759992D02*
X11534229Y-20769516D01*
X11534229Y-20769516D02*
X11524706Y-20788564D01*
X11705658Y-20674278D02*
X11838991Y-20674278D01*
X11838991Y-20674278D02*
X11753277Y-20874278D01*
X11953277Y-20674278D02*
X11972325Y-20674278D01*
X11972325Y-20674278D02*
X11991372Y-20683802D01*
X11991372Y-20683802D02*
X12000896Y-20693326D01*
X12000896Y-20693326D02*
X12010420Y-20712373D01*
X12010420Y-20712373D02*
X12019944Y-20750468D01*
X12019944Y-20750468D02*
X12019944Y-20798087D01*
X12019944Y-20798087D02*
X12010420Y-20836183D01*
X12010420Y-20836183D02*
X12000896Y-20855230D01*
X12000896Y-20855230D02*
X11991372Y-20864754D01*
X11991372Y-20864754D02*
X11972325Y-20874278D01*
X11972325Y-20874278D02*
X11953277Y-20874278D01*
X11953277Y-20874278D02*
X11934229Y-20864754D01*
X11934229Y-20864754D02*
X11924706Y-20855230D01*
X11924706Y-20855230D02*
X11915182Y-20836183D01*
X11915182Y-20836183D02*
X11905658Y-20798087D01*
X11905658Y-20798087D02*
X11905658Y-20750468D01*
X11905658Y-20750468D02*
X11915182Y-20712373D01*
X11915182Y-20712373D02*
X11924706Y-20693326D01*
X11924706Y-20693326D02*
X11934229Y-20683802D01*
X11934229Y-20683802D02*
X11953277Y-20674278D01*
X12096134Y-20674278D02*
X12096134Y-20712373D01*
X12172325Y-20674278D02*
X12172325Y-20712373D01*
X12467563Y-20950468D02*
X12458039Y-20940945D01*
X12458039Y-20940945D02*
X12438991Y-20912373D01*
X12438991Y-20912373D02*
X12429468Y-20893326D01*
X12429468Y-20893326D02*
X12419944Y-20864754D01*
X12419944Y-20864754D02*
X12410420Y-20817135D01*
X12410420Y-20817135D02*
X12410420Y-20779040D01*
X12410420Y-20779040D02*
X12419944Y-20731421D01*
X12419944Y-20731421D02*
X12429468Y-20702849D01*
X12429468Y-20702849D02*
X12438991Y-20683802D01*
X12438991Y-20683802D02*
X12458039Y-20655230D01*
X12458039Y-20655230D02*
X12467563Y-20645706D01*
X12638991Y-20674278D02*
X12543753Y-20674278D01*
X12543753Y-20674278D02*
X12534229Y-20769516D01*
X12534229Y-20769516D02*
X12543753Y-20759992D01*
X12543753Y-20759992D02*
X12562801Y-20750468D01*
X12562801Y-20750468D02*
X12610420Y-20750468D01*
X12610420Y-20750468D02*
X12629468Y-20759992D01*
X12629468Y-20759992D02*
X12638991Y-20769516D01*
X12638991Y-20769516D02*
X12648515Y-20788564D01*
X12648515Y-20788564D02*
X12648515Y-20836183D01*
X12648515Y-20836183D02*
X12638991Y-20855230D01*
X12638991Y-20855230D02*
X12629468Y-20864754D01*
X12629468Y-20864754D02*
X12610420Y-20874278D01*
X12610420Y-20874278D02*
X12562801Y-20874278D01*
X12562801Y-20874278D02*
X12543753Y-20864754D01*
X12543753Y-20864754D02*
X12534229Y-20855230D01*
X12819944Y-20740945D02*
X12819944Y-20874278D01*
X12772325Y-20664754D02*
X12724706Y-20807611D01*
X12724706Y-20807611D02*
X12848515Y-20807611D01*
X13077087Y-20874278D02*
X13077087Y-20674278D01*
X13162801Y-20874278D02*
X13162801Y-20769516D01*
X13162801Y-20769516D02*
X13153277Y-20750468D01*
X13153277Y-20750468D02*
X13134230Y-20740945D01*
X13134230Y-20740945D02*
X13105658Y-20740945D01*
X13105658Y-20740945D02*
X13086610Y-20750468D01*
X13086610Y-20750468D02*
X13077087Y-20759992D01*
X13286610Y-20874278D02*
X13267563Y-20864754D01*
X13267563Y-20864754D02*
X13258039Y-20855230D01*
X13258039Y-20855230D02*
X13248515Y-20836183D01*
X13248515Y-20836183D02*
X13248515Y-20779040D01*
X13248515Y-20779040D02*
X13258039Y-20759992D01*
X13258039Y-20759992D02*
X13267563Y-20750468D01*
X13267563Y-20750468D02*
X13286610Y-20740945D01*
X13286610Y-20740945D02*
X13315182Y-20740945D01*
X13315182Y-20740945D02*
X13334230Y-20750468D01*
X13334230Y-20750468D02*
X13343753Y-20759992D01*
X13343753Y-20759992D02*
X13353277Y-20779040D01*
X13353277Y-20779040D02*
X13353277Y-20836183D01*
X13353277Y-20836183D02*
X13343753Y-20855230D01*
X13343753Y-20855230D02*
X13334230Y-20864754D01*
X13334230Y-20864754D02*
X13315182Y-20874278D01*
X13315182Y-20874278D02*
X13286610Y-20874278D01*
X13467563Y-20874278D02*
X13448515Y-20864754D01*
X13448515Y-20864754D02*
X13438991Y-20845706D01*
X13438991Y-20845706D02*
X13438991Y-20674278D01*
X13619944Y-20864754D02*
X13600896Y-20874278D01*
X13600896Y-20874278D02*
X13562801Y-20874278D01*
X13562801Y-20874278D02*
X13543753Y-20864754D01*
X13543753Y-20864754D02*
X13534230Y-20845706D01*
X13534230Y-20845706D02*
X13534230Y-20769516D01*
X13534230Y-20769516D02*
X13543753Y-20750468D01*
X13543753Y-20750468D02*
X13562801Y-20740945D01*
X13562801Y-20740945D02*
X13600896Y-20740945D01*
X13600896Y-20740945D02*
X13619944Y-20750468D01*
X13619944Y-20750468D02*
X13629468Y-20769516D01*
X13629468Y-20769516D02*
X13629468Y-20788564D01*
X13629468Y-20788564D02*
X13534230Y-20807611D01*
X13705658Y-20864754D02*
X13724706Y-20874278D01*
X13724706Y-20874278D02*
X13762801Y-20874278D01*
X13762801Y-20874278D02*
X13781849Y-20864754D01*
X13781849Y-20864754D02*
X13791372Y-20845706D01*
X13791372Y-20845706D02*
X13791372Y-20836183D01*
X13791372Y-20836183D02*
X13781849Y-20817135D01*
X13781849Y-20817135D02*
X13762801Y-20807611D01*
X13762801Y-20807611D02*
X13734230Y-20807611D01*
X13734230Y-20807611D02*
X13715182Y-20798087D01*
X13715182Y-20798087D02*
X13705658Y-20779040D01*
X13705658Y-20779040D02*
X13705658Y-20769516D01*
X13705658Y-20769516D02*
X13715182Y-20750468D01*
X13715182Y-20750468D02*
X13734230Y-20740945D01*
X13734230Y-20740945D02*
X13762801Y-20740945D01*
X13762801Y-20740945D02*
X13781849Y-20750468D01*
X13858039Y-20950468D02*
X13867563Y-20940945D01*
X13867563Y-20940945D02*
X13886611Y-20912373D01*
X13886611Y-20912373D02*
X13896134Y-20893326D01*
X13896134Y-20893326D02*
X13905658Y-20864754D01*
X13905658Y-20864754D02*
X13915182Y-20817135D01*
X13915182Y-20817135D02*
X13915182Y-20779040D01*
X13915182Y-20779040D02*
X13905658Y-20731421D01*
X13905658Y-20731421D02*
X13896134Y-20702849D01*
X13896134Y-20702849D02*
X13886611Y-20683802D01*
X13886611Y-20683802D02*
X13867563Y-20655230D01*
X13867563Y-20655230D02*
X13858039Y-20645706D01*
X14219944Y-20950468D02*
X14210420Y-20940945D01*
X14210420Y-20940945D02*
X14191372Y-20912373D01*
X14191372Y-20912373D02*
X14181849Y-20893326D01*
X14181849Y-20893326D02*
X14172325Y-20864754D01*
X14172325Y-20864754D02*
X14162801Y-20817135D01*
X14162801Y-20817135D02*
X14162801Y-20779040D01*
X14162801Y-20779040D02*
X14172325Y-20731421D01*
X14172325Y-20731421D02*
X14181849Y-20702849D01*
X14181849Y-20702849D02*
X14191372Y-20683802D01*
X14191372Y-20683802D02*
X14210420Y-20655230D01*
X14210420Y-20655230D02*
X14219944Y-20645706D01*
X14296134Y-20740945D02*
X14296134Y-20874278D01*
X14296134Y-20759992D02*
X14305658Y-20750468D01*
X14305658Y-20750468D02*
X14324706Y-20740945D01*
X14324706Y-20740945D02*
X14353277Y-20740945D01*
X14353277Y-20740945D02*
X14372325Y-20750468D01*
X14372325Y-20750468D02*
X14381849Y-20769516D01*
X14381849Y-20769516D02*
X14381849Y-20874278D01*
X14505658Y-20874278D02*
X14486611Y-20864754D01*
X14486611Y-20864754D02*
X14477087Y-20855230D01*
X14477087Y-20855230D02*
X14467563Y-20836183D01*
X14467563Y-20836183D02*
X14467563Y-20779040D01*
X14467563Y-20779040D02*
X14477087Y-20759992D01*
X14477087Y-20759992D02*
X14486611Y-20750468D01*
X14486611Y-20750468D02*
X14505658Y-20740945D01*
X14505658Y-20740945D02*
X14534230Y-20740945D01*
X14534230Y-20740945D02*
X14553277Y-20750468D01*
X14553277Y-20750468D02*
X14562801Y-20759992D01*
X14562801Y-20759992D02*
X14572325Y-20779040D01*
X14572325Y-20779040D02*
X14572325Y-20836183D01*
X14572325Y-20836183D02*
X14562801Y-20855230D01*
X14562801Y-20855230D02*
X14553277Y-20864754D01*
X14553277Y-20864754D02*
X14534230Y-20874278D01*
X14534230Y-20874278D02*
X14505658Y-20874278D01*
X14629468Y-20740945D02*
X14705658Y-20740945D01*
X14658039Y-20674278D02*
X14658039Y-20845706D01*
X14658039Y-20845706D02*
X14667563Y-20864754D01*
X14667563Y-20864754D02*
X14686611Y-20874278D01*
X14686611Y-20874278D02*
X14705658Y-20874278D01*
X14924706Y-20740945D02*
X14924706Y-20940945D01*
X14924706Y-20750468D02*
X14943753Y-20740945D01*
X14943753Y-20740945D02*
X14981849Y-20740945D01*
X14981849Y-20740945D02*
X15000896Y-20750468D01*
X15000896Y-20750468D02*
X15010420Y-20759992D01*
X15010420Y-20759992D02*
X15019944Y-20779040D01*
X15019944Y-20779040D02*
X15019944Y-20836183D01*
X15019944Y-20836183D02*
X15010420Y-20855230D01*
X15010420Y-20855230D02*
X15000896Y-20864754D01*
X15000896Y-20864754D02*
X14981849Y-20874278D01*
X14981849Y-20874278D02*
X14943753Y-20874278D01*
X14943753Y-20874278D02*
X14924706Y-20864754D01*
X15134230Y-20874278D02*
X15115182Y-20864754D01*
X15115182Y-20864754D02*
X15105658Y-20845706D01*
X15105658Y-20845706D02*
X15105658Y-20674278D01*
X15296134Y-20874278D02*
X15296134Y-20769516D01*
X15296134Y-20769516D02*
X15286611Y-20750468D01*
X15286611Y-20750468D02*
X15267563Y-20740945D01*
X15267563Y-20740945D02*
X15229468Y-20740945D01*
X15229468Y-20740945D02*
X15210420Y-20750468D01*
X15296134Y-20864754D02*
X15277087Y-20874278D01*
X15277087Y-20874278D02*
X15229468Y-20874278D01*
X15229468Y-20874278D02*
X15210420Y-20864754D01*
X15210420Y-20864754D02*
X15200896Y-20845706D01*
X15200896Y-20845706D02*
X15200896Y-20826659D01*
X15200896Y-20826659D02*
X15210420Y-20807611D01*
X15210420Y-20807611D02*
X15229468Y-20798087D01*
X15229468Y-20798087D02*
X15277087Y-20798087D01*
X15277087Y-20798087D02*
X15296134Y-20788564D01*
X15362801Y-20740945D02*
X15438992Y-20740945D01*
X15391373Y-20674278D02*
X15391373Y-20845706D01*
X15391373Y-20845706D02*
X15400896Y-20864754D01*
X15400896Y-20864754D02*
X15419944Y-20874278D01*
X15419944Y-20874278D02*
X15438992Y-20874278D01*
X15581849Y-20864754D02*
X15562801Y-20874278D01*
X15562801Y-20874278D02*
X15524706Y-20874278D01*
X15524706Y-20874278D02*
X15505658Y-20864754D01*
X15505658Y-20864754D02*
X15496134Y-20845706D01*
X15496134Y-20845706D02*
X15496134Y-20769516D01*
X15496134Y-20769516D02*
X15505658Y-20750468D01*
X15505658Y-20750468D02*
X15524706Y-20740945D01*
X15524706Y-20740945D02*
X15562801Y-20740945D01*
X15562801Y-20740945D02*
X15581849Y-20750468D01*
X15581849Y-20750468D02*
X15591373Y-20769516D01*
X15591373Y-20769516D02*
X15591373Y-20788564D01*
X15591373Y-20788564D02*
X15496134Y-20807611D01*
X15762801Y-20874278D02*
X15762801Y-20674278D01*
X15762801Y-20864754D02*
X15743754Y-20874278D01*
X15743754Y-20874278D02*
X15705658Y-20874278D01*
X15705658Y-20874278D02*
X15686611Y-20864754D01*
X15686611Y-20864754D02*
X15677087Y-20855230D01*
X15677087Y-20855230D02*
X15667563Y-20836183D01*
X15667563Y-20836183D02*
X15667563Y-20779040D01*
X15667563Y-20779040D02*
X15677087Y-20759992D01*
X15677087Y-20759992D02*
X15686611Y-20750468D01*
X15686611Y-20750468D02*
X15705658Y-20740945D01*
X15705658Y-20740945D02*
X15743754Y-20740945D01*
X15743754Y-20740945D02*
X15762801Y-20750468D01*
X15838992Y-20950468D02*
X15848515Y-20940945D01*
X15848515Y-20940945D02*
X15867563Y-20912373D01*
X15867563Y-20912373D02*
X15877087Y-20893326D01*
X15877087Y-20893326D02*
X15886611Y-20864754D01*
X15886611Y-20864754D02*
X15896134Y-20817135D01*
X15896134Y-20817135D02*
X15896134Y-20779040D01*
X15896134Y-20779040D02*
X15886611Y-20731421D01*
X15886611Y-20731421D02*
X15877087Y-20702849D01*
X15877087Y-20702849D02*
X15867563Y-20683802D01*
X15867563Y-20683802D02*
X15848515Y-20655230D01*
X15848515Y-20655230D02*
X15838992Y-20645706D01*
X8863211Y-21143686D02*
X8863211Y-21002263D01*
X8721789Y-21002263D01*
X8721789Y-21143686D01*
X8863211Y-21143686D01*
X9134229Y-20964458D02*
X9258039Y-20964458D01*
X9258039Y-20964458D02*
X9191372Y-21040648D01*
X9191372Y-21040648D02*
X9219944Y-21040648D01*
X9219944Y-21040648D02*
X9238991Y-21050172D01*
X9238991Y-21050172D02*
X9248515Y-21059696D01*
X9248515Y-21059696D02*
X9258039Y-21078744D01*
X9258039Y-21078744D02*
X9258039Y-21126363D01*
X9258039Y-21126363D02*
X9248515Y-21145410D01*
X9248515Y-21145410D02*
X9238991Y-21154934D01*
X9238991Y-21154934D02*
X9219944Y-21164458D01*
X9219944Y-21164458D02*
X9162801Y-21164458D01*
X9162801Y-21164458D02*
X9143753Y-21154934D01*
X9143753Y-21154934D02*
X9134229Y-21145410D01*
X9343753Y-21145410D02*
X9353277Y-21154934D01*
X9353277Y-21154934D02*
X9343753Y-21164458D01*
X9343753Y-21164458D02*
X9334229Y-21154934D01*
X9334229Y-21154934D02*
X9343753Y-21145410D01*
X9343753Y-21145410D02*
X9343753Y-21164458D01*
X9477086Y-20964458D02*
X9496134Y-20964458D01*
X9496134Y-20964458D02*
X9515182Y-20973982D01*
X9515182Y-20973982D02*
X9524705Y-20983506D01*
X9524705Y-20983506D02*
X9534229Y-21002553D01*
X9534229Y-21002553D02*
X9543753Y-21040648D01*
X9543753Y-21040648D02*
X9543753Y-21088267D01*
X9543753Y-21088267D02*
X9534229Y-21126363D01*
X9534229Y-21126363D02*
X9524705Y-21145410D01*
X9524705Y-21145410D02*
X9515182Y-21154934D01*
X9515182Y-21154934D02*
X9496134Y-21164458D01*
X9496134Y-21164458D02*
X9477086Y-21164458D01*
X9477086Y-21164458D02*
X9458039Y-21154934D01*
X9458039Y-21154934D02*
X9448515Y-21145410D01*
X9448515Y-21145410D02*
X9438991Y-21126363D01*
X9438991Y-21126363D02*
X9429467Y-21088267D01*
X9429467Y-21088267D02*
X9429467Y-21040648D01*
X9429467Y-21040648D02*
X9438991Y-21002553D01*
X9438991Y-21002553D02*
X9448515Y-20983506D01*
X9448515Y-20983506D02*
X9458039Y-20973982D01*
X9458039Y-20973982D02*
X9477086Y-20964458D01*
X9667563Y-20964458D02*
X9686610Y-20964458D01*
X9686610Y-20964458D02*
X9705658Y-20973982D01*
X9705658Y-20973982D02*
X9715182Y-20983506D01*
X9715182Y-20983506D02*
X9724705Y-21002553D01*
X9724705Y-21002553D02*
X9734229Y-21040648D01*
X9734229Y-21040648D02*
X9734229Y-21088267D01*
X9734229Y-21088267D02*
X9724705Y-21126363D01*
X9724705Y-21126363D02*
X9715182Y-21145410D01*
X9715182Y-21145410D02*
X9705658Y-21154934D01*
X9705658Y-21154934D02*
X9686610Y-21164458D01*
X9686610Y-21164458D02*
X9667563Y-21164458D01*
X9667563Y-21164458D02*
X9648515Y-21154934D01*
X9648515Y-21154934D02*
X9638991Y-21145410D01*
X9638991Y-21145410D02*
X9629467Y-21126363D01*
X9629467Y-21126363D02*
X9619944Y-21088267D01*
X9619944Y-21088267D02*
X9619944Y-21040648D01*
X9619944Y-21040648D02*
X9629467Y-21002553D01*
X9629467Y-21002553D02*
X9638991Y-20983506D01*
X9638991Y-20983506D02*
X9648515Y-20973982D01*
X9648515Y-20973982D02*
X9667563Y-20964458D01*
X9858039Y-20964458D02*
X9877086Y-20964458D01*
X9877086Y-20964458D02*
X9896134Y-20973982D01*
X9896134Y-20973982D02*
X9905658Y-20983506D01*
X9905658Y-20983506D02*
X9915182Y-21002553D01*
X9915182Y-21002553D02*
X9924705Y-21040648D01*
X9924705Y-21040648D02*
X9924705Y-21088267D01*
X9924705Y-21088267D02*
X9915182Y-21126363D01*
X9915182Y-21126363D02*
X9905658Y-21145410D01*
X9905658Y-21145410D02*
X9896134Y-21154934D01*
X9896134Y-21154934D02*
X9877086Y-21164458D01*
X9877086Y-21164458D02*
X9858039Y-21164458D01*
X9858039Y-21164458D02*
X9838991Y-21154934D01*
X9838991Y-21154934D02*
X9829467Y-21145410D01*
X9829467Y-21145410D02*
X9819944Y-21126363D01*
X9819944Y-21126363D02*
X9810420Y-21088267D01*
X9810420Y-21088267D02*
X9810420Y-21040648D01*
X9810420Y-21040648D02*
X9819944Y-21002553D01*
X9819944Y-21002553D02*
X9829467Y-20983506D01*
X9829467Y-20983506D02*
X9838991Y-20973982D01*
X9838991Y-20973982D02*
X9858039Y-20964458D01*
X10010420Y-21164458D02*
X10010420Y-21031125D01*
X10010420Y-21050172D02*
X10019944Y-21040648D01*
X10019944Y-21040648D02*
X10038991Y-21031125D01*
X10038991Y-21031125D02*
X10067563Y-21031125D01*
X10067563Y-21031125D02*
X10086610Y-21040648D01*
X10086610Y-21040648D02*
X10096134Y-21059696D01*
X10096134Y-21059696D02*
X10096134Y-21164458D01*
X10096134Y-21059696D02*
X10105658Y-21040648D01*
X10105658Y-21040648D02*
X10124705Y-21031125D01*
X10124705Y-21031125D02*
X10153277Y-21031125D01*
X10153277Y-21031125D02*
X10172325Y-21040648D01*
X10172325Y-21040648D02*
X10181848Y-21059696D01*
X10181848Y-21059696D02*
X10181848Y-21164458D01*
X10277086Y-21164458D02*
X10277086Y-21031125D01*
X10277086Y-21050172D02*
X10286610Y-21040648D01*
X10286610Y-21040648D02*
X10305658Y-21031125D01*
X10305658Y-21031125D02*
X10334229Y-21031125D01*
X10334229Y-21031125D02*
X10353277Y-21040648D01*
X10353277Y-21040648D02*
X10362801Y-21059696D01*
X10362801Y-21059696D02*
X10362801Y-21164458D01*
X10362801Y-21059696D02*
X10372325Y-21040648D01*
X10372325Y-21040648D02*
X10391372Y-21031125D01*
X10391372Y-21031125D02*
X10419944Y-21031125D01*
X10419944Y-21031125D02*
X10438991Y-21040648D01*
X10438991Y-21040648D02*
X10448515Y-21059696D01*
X10448515Y-21059696D02*
X10448515Y-21164458D01*
X10838991Y-20954934D02*
X10667563Y-21212077D01*
X11096134Y-20964458D02*
X11115182Y-20964458D01*
X11115182Y-20964458D02*
X11134229Y-20973982D01*
X11134229Y-20973982D02*
X11143753Y-20983506D01*
X11143753Y-20983506D02*
X11153277Y-21002553D01*
X11153277Y-21002553D02*
X11162801Y-21040648D01*
X11162801Y-21040648D02*
X11162801Y-21088267D01*
X11162801Y-21088267D02*
X11153277Y-21126363D01*
X11153277Y-21126363D02*
X11143753Y-21145410D01*
X11143753Y-21145410D02*
X11134229Y-21154934D01*
X11134229Y-21154934D02*
X11115182Y-21164458D01*
X11115182Y-21164458D02*
X11096134Y-21164458D01*
X11096134Y-21164458D02*
X11077087Y-21154934D01*
X11077087Y-21154934D02*
X11067563Y-21145410D01*
X11067563Y-21145410D02*
X11058039Y-21126363D01*
X11058039Y-21126363D02*
X11048515Y-21088267D01*
X11048515Y-21088267D02*
X11048515Y-21040648D01*
X11048515Y-21040648D02*
X11058039Y-21002553D01*
X11058039Y-21002553D02*
X11067563Y-20983506D01*
X11067563Y-20983506D02*
X11077087Y-20973982D01*
X11077087Y-20973982D02*
X11096134Y-20964458D01*
X11248515Y-21145410D02*
X11258039Y-21154934D01*
X11258039Y-21154934D02*
X11248515Y-21164458D01*
X11248515Y-21164458D02*
X11238991Y-21154934D01*
X11238991Y-21154934D02*
X11248515Y-21145410D01*
X11248515Y-21145410D02*
X11248515Y-21164458D01*
X11448515Y-21164458D02*
X11334229Y-21164458D01*
X11391372Y-21164458D02*
X11391372Y-20964458D01*
X11391372Y-20964458D02*
X11372325Y-20993029D01*
X11372325Y-20993029D02*
X11353277Y-21012077D01*
X11353277Y-21012077D02*
X11334229Y-21021601D01*
X11638991Y-21164458D02*
X11524706Y-21164458D01*
X11581848Y-21164458D02*
X11581848Y-20964458D01*
X11581848Y-20964458D02*
X11562801Y-20993029D01*
X11562801Y-20993029D02*
X11543753Y-21012077D01*
X11543753Y-21012077D02*
X11524706Y-21021601D01*
X11753277Y-21050172D02*
X11734229Y-21040648D01*
X11734229Y-21040648D02*
X11724706Y-21031125D01*
X11724706Y-21031125D02*
X11715182Y-21012077D01*
X11715182Y-21012077D02*
X11715182Y-21002553D01*
X11715182Y-21002553D02*
X11724706Y-20983506D01*
X11724706Y-20983506D02*
X11734229Y-20973982D01*
X11734229Y-20973982D02*
X11753277Y-20964458D01*
X11753277Y-20964458D02*
X11791372Y-20964458D01*
X11791372Y-20964458D02*
X11810420Y-20973982D01*
X11810420Y-20973982D02*
X11819944Y-20983506D01*
X11819944Y-20983506D02*
X11829467Y-21002553D01*
X11829467Y-21002553D02*
X11829467Y-21012077D01*
X11829467Y-21012077D02*
X11819944Y-21031125D01*
X11819944Y-21031125D02*
X11810420Y-21040648D01*
X11810420Y-21040648D02*
X11791372Y-21050172D01*
X11791372Y-21050172D02*
X11753277Y-21050172D01*
X11753277Y-21050172D02*
X11734229Y-21059696D01*
X11734229Y-21059696D02*
X11724706Y-21069220D01*
X11724706Y-21069220D02*
X11715182Y-21088267D01*
X11715182Y-21088267D02*
X11715182Y-21126363D01*
X11715182Y-21126363D02*
X11724706Y-21145410D01*
X11724706Y-21145410D02*
X11734229Y-21154934D01*
X11734229Y-21154934D02*
X11753277Y-21164458D01*
X11753277Y-21164458D02*
X11791372Y-21164458D01*
X11791372Y-21164458D02*
X11810420Y-21154934D01*
X11810420Y-21154934D02*
X11819944Y-21145410D01*
X11819944Y-21145410D02*
X11829467Y-21126363D01*
X11829467Y-21126363D02*
X11829467Y-21088267D01*
X11829467Y-21088267D02*
X11819944Y-21069220D01*
X11819944Y-21069220D02*
X11810420Y-21059696D01*
X11810420Y-21059696D02*
X11791372Y-21050172D01*
X12019944Y-21164458D02*
X11905658Y-21164458D01*
X11962801Y-21164458D02*
X11962801Y-20964458D01*
X11962801Y-20964458D02*
X11943753Y-20993029D01*
X11943753Y-20993029D02*
X11924706Y-21012077D01*
X11924706Y-21012077D02*
X11905658Y-21021601D01*
X12096134Y-20964458D02*
X12096134Y-21002553D01*
X12172325Y-20964458D02*
X12172325Y-21002553D01*
X12467563Y-21240648D02*
X12458039Y-21231125D01*
X12458039Y-21231125D02*
X12438991Y-21202553D01*
X12438991Y-21202553D02*
X12429468Y-21183506D01*
X12429468Y-21183506D02*
X12419944Y-21154934D01*
X12419944Y-21154934D02*
X12410420Y-21107315D01*
X12410420Y-21107315D02*
X12410420Y-21069220D01*
X12410420Y-21069220D02*
X12419944Y-21021601D01*
X12419944Y-21021601D02*
X12429468Y-20993029D01*
X12429468Y-20993029D02*
X12438991Y-20973982D01*
X12438991Y-20973982D02*
X12458039Y-20945410D01*
X12458039Y-20945410D02*
X12467563Y-20935886D01*
X12638991Y-20964458D02*
X12543753Y-20964458D01*
X12543753Y-20964458D02*
X12534229Y-21059696D01*
X12534229Y-21059696D02*
X12543753Y-21050172D01*
X12543753Y-21050172D02*
X12562801Y-21040648D01*
X12562801Y-21040648D02*
X12610420Y-21040648D01*
X12610420Y-21040648D02*
X12629468Y-21050172D01*
X12629468Y-21050172D02*
X12638991Y-21059696D01*
X12638991Y-21059696D02*
X12648515Y-21078744D01*
X12648515Y-21078744D02*
X12648515Y-21126363D01*
X12648515Y-21126363D02*
X12638991Y-21145410D01*
X12638991Y-21145410D02*
X12629468Y-21154934D01*
X12629468Y-21154934D02*
X12610420Y-21164458D01*
X12610420Y-21164458D02*
X12562801Y-21164458D01*
X12562801Y-21164458D02*
X12543753Y-21154934D01*
X12543753Y-21154934D02*
X12534229Y-21145410D01*
X12819944Y-21031125D02*
X12819944Y-21164458D01*
X12772325Y-20954934D02*
X12724706Y-21097791D01*
X12724706Y-21097791D02*
X12848515Y-21097791D01*
X13077087Y-21164458D02*
X13077087Y-20964458D01*
X13162801Y-21164458D02*
X13162801Y-21059696D01*
X13162801Y-21059696D02*
X13153277Y-21040648D01*
X13153277Y-21040648D02*
X13134230Y-21031125D01*
X13134230Y-21031125D02*
X13105658Y-21031125D01*
X13105658Y-21031125D02*
X13086610Y-21040648D01*
X13086610Y-21040648D02*
X13077087Y-21050172D01*
X13286610Y-21164458D02*
X13267563Y-21154934D01*
X13267563Y-21154934D02*
X13258039Y-21145410D01*
X13258039Y-21145410D02*
X13248515Y-21126363D01*
X13248515Y-21126363D02*
X13248515Y-21069220D01*
X13248515Y-21069220D02*
X13258039Y-21050172D01*
X13258039Y-21050172D02*
X13267563Y-21040648D01*
X13267563Y-21040648D02*
X13286610Y-21031125D01*
X13286610Y-21031125D02*
X13315182Y-21031125D01*
X13315182Y-21031125D02*
X13334230Y-21040648D01*
X13334230Y-21040648D02*
X13343753Y-21050172D01*
X13343753Y-21050172D02*
X13353277Y-21069220D01*
X13353277Y-21069220D02*
X13353277Y-21126363D01*
X13353277Y-21126363D02*
X13343753Y-21145410D01*
X13343753Y-21145410D02*
X13334230Y-21154934D01*
X13334230Y-21154934D02*
X13315182Y-21164458D01*
X13315182Y-21164458D02*
X13286610Y-21164458D01*
X13467563Y-21164458D02*
X13448515Y-21154934D01*
X13448515Y-21154934D02*
X13438991Y-21135886D01*
X13438991Y-21135886D02*
X13438991Y-20964458D01*
X13619944Y-21154934D02*
X13600896Y-21164458D01*
X13600896Y-21164458D02*
X13562801Y-21164458D01*
X13562801Y-21164458D02*
X13543753Y-21154934D01*
X13543753Y-21154934D02*
X13534230Y-21135886D01*
X13534230Y-21135886D02*
X13534230Y-21059696D01*
X13534230Y-21059696D02*
X13543753Y-21040648D01*
X13543753Y-21040648D02*
X13562801Y-21031125D01*
X13562801Y-21031125D02*
X13600896Y-21031125D01*
X13600896Y-21031125D02*
X13619944Y-21040648D01*
X13619944Y-21040648D02*
X13629468Y-21059696D01*
X13629468Y-21059696D02*
X13629468Y-21078744D01*
X13629468Y-21078744D02*
X13534230Y-21097791D01*
X13705658Y-21154934D02*
X13724706Y-21164458D01*
X13724706Y-21164458D02*
X13762801Y-21164458D01*
X13762801Y-21164458D02*
X13781849Y-21154934D01*
X13781849Y-21154934D02*
X13791372Y-21135886D01*
X13791372Y-21135886D02*
X13791372Y-21126363D01*
X13791372Y-21126363D02*
X13781849Y-21107315D01*
X13781849Y-21107315D02*
X13762801Y-21097791D01*
X13762801Y-21097791D02*
X13734230Y-21097791D01*
X13734230Y-21097791D02*
X13715182Y-21088267D01*
X13715182Y-21088267D02*
X13705658Y-21069220D01*
X13705658Y-21069220D02*
X13705658Y-21059696D01*
X13705658Y-21059696D02*
X13715182Y-21040648D01*
X13715182Y-21040648D02*
X13734230Y-21031125D01*
X13734230Y-21031125D02*
X13762801Y-21031125D01*
X13762801Y-21031125D02*
X13781849Y-21040648D01*
X13858039Y-21240648D02*
X13867563Y-21231125D01*
X13867563Y-21231125D02*
X13886611Y-21202553D01*
X13886611Y-21202553D02*
X13896134Y-21183506D01*
X13896134Y-21183506D02*
X13905658Y-21154934D01*
X13905658Y-21154934D02*
X13915182Y-21107315D01*
X13915182Y-21107315D02*
X13915182Y-21069220D01*
X13915182Y-21069220D02*
X13905658Y-21021601D01*
X13905658Y-21021601D02*
X13896134Y-20993029D01*
X13896134Y-20993029D02*
X13886611Y-20973982D01*
X13886611Y-20973982D02*
X13867563Y-20945410D01*
X13867563Y-20945410D02*
X13858039Y-20935886D01*
X14219944Y-21240648D02*
X14210420Y-21231125D01*
X14210420Y-21231125D02*
X14191372Y-21202553D01*
X14191372Y-21202553D02*
X14181849Y-21183506D01*
X14181849Y-21183506D02*
X14172325Y-21154934D01*
X14172325Y-21154934D02*
X14162801Y-21107315D01*
X14162801Y-21107315D02*
X14162801Y-21069220D01*
X14162801Y-21069220D02*
X14172325Y-21021601D01*
X14172325Y-21021601D02*
X14181849Y-20993029D01*
X14181849Y-20993029D02*
X14191372Y-20973982D01*
X14191372Y-20973982D02*
X14210420Y-20945410D01*
X14210420Y-20945410D02*
X14219944Y-20935886D01*
X14296134Y-21031125D02*
X14296134Y-21164458D01*
X14296134Y-21050172D02*
X14305658Y-21040648D01*
X14305658Y-21040648D02*
X14324706Y-21031125D01*
X14324706Y-21031125D02*
X14353277Y-21031125D01*
X14353277Y-21031125D02*
X14372325Y-21040648D01*
X14372325Y-21040648D02*
X14381849Y-21059696D01*
X14381849Y-21059696D02*
X14381849Y-21164458D01*
X14505658Y-21164458D02*
X14486611Y-21154934D01*
X14486611Y-21154934D02*
X14477087Y-21145410D01*
X14477087Y-21145410D02*
X14467563Y-21126363D01*
X14467563Y-21126363D02*
X14467563Y-21069220D01*
X14467563Y-21069220D02*
X14477087Y-21050172D01*
X14477087Y-21050172D02*
X14486611Y-21040648D01*
X14486611Y-21040648D02*
X14505658Y-21031125D01*
X14505658Y-21031125D02*
X14534230Y-21031125D01*
X14534230Y-21031125D02*
X14553277Y-21040648D01*
X14553277Y-21040648D02*
X14562801Y-21050172D01*
X14562801Y-21050172D02*
X14572325Y-21069220D01*
X14572325Y-21069220D02*
X14572325Y-21126363D01*
X14572325Y-21126363D02*
X14562801Y-21145410D01*
X14562801Y-21145410D02*
X14553277Y-21154934D01*
X14553277Y-21154934D02*
X14534230Y-21164458D01*
X14534230Y-21164458D02*
X14505658Y-21164458D01*
X14629468Y-21031125D02*
X14705658Y-21031125D01*
X14658039Y-20964458D02*
X14658039Y-21135886D01*
X14658039Y-21135886D02*
X14667563Y-21154934D01*
X14667563Y-21154934D02*
X14686611Y-21164458D01*
X14686611Y-21164458D02*
X14705658Y-21164458D01*
X14924706Y-21031125D02*
X14924706Y-21231125D01*
X14924706Y-21040648D02*
X14943753Y-21031125D01*
X14943753Y-21031125D02*
X14981849Y-21031125D01*
X14981849Y-21031125D02*
X15000896Y-21040648D01*
X15000896Y-21040648D02*
X15010420Y-21050172D01*
X15010420Y-21050172D02*
X15019944Y-21069220D01*
X15019944Y-21069220D02*
X15019944Y-21126363D01*
X15019944Y-21126363D02*
X15010420Y-21145410D01*
X15010420Y-21145410D02*
X15000896Y-21154934D01*
X15000896Y-21154934D02*
X14981849Y-21164458D01*
X14981849Y-21164458D02*
X14943753Y-21164458D01*
X14943753Y-21164458D02*
X14924706Y-21154934D01*
X15134230Y-21164458D02*
X15115182Y-21154934D01*
X15115182Y-21154934D02*
X15105658Y-21135886D01*
X15105658Y-21135886D02*
X15105658Y-20964458D01*
X15296134Y-21164458D02*
X15296134Y-21059696D01*
X15296134Y-21059696D02*
X15286611Y-21040648D01*
X15286611Y-21040648D02*
X15267563Y-21031125D01*
X15267563Y-21031125D02*
X15229468Y-21031125D01*
X15229468Y-21031125D02*
X15210420Y-21040648D01*
X15296134Y-21154934D02*
X15277087Y-21164458D01*
X15277087Y-21164458D02*
X15229468Y-21164458D01*
X15229468Y-21164458D02*
X15210420Y-21154934D01*
X15210420Y-21154934D02*
X15200896Y-21135886D01*
X15200896Y-21135886D02*
X15200896Y-21116839D01*
X15200896Y-21116839D02*
X15210420Y-21097791D01*
X15210420Y-21097791D02*
X15229468Y-21088267D01*
X15229468Y-21088267D02*
X15277087Y-21088267D01*
X15277087Y-21088267D02*
X15296134Y-21078744D01*
X15362801Y-21031125D02*
X15438992Y-21031125D01*
X15391373Y-20964458D02*
X15391373Y-21135886D01*
X15391373Y-21135886D02*
X15400896Y-21154934D01*
X15400896Y-21154934D02*
X15419944Y-21164458D01*
X15419944Y-21164458D02*
X15438992Y-21164458D01*
X15581849Y-21154934D02*
X15562801Y-21164458D01*
X15562801Y-21164458D02*
X15524706Y-21164458D01*
X15524706Y-21164458D02*
X15505658Y-21154934D01*
X15505658Y-21154934D02*
X15496134Y-21135886D01*
X15496134Y-21135886D02*
X15496134Y-21059696D01*
X15496134Y-21059696D02*
X15505658Y-21040648D01*
X15505658Y-21040648D02*
X15524706Y-21031125D01*
X15524706Y-21031125D02*
X15562801Y-21031125D01*
X15562801Y-21031125D02*
X15581849Y-21040648D01*
X15581849Y-21040648D02*
X15591373Y-21059696D01*
X15591373Y-21059696D02*
X15591373Y-21078744D01*
X15591373Y-21078744D02*
X15496134Y-21097791D01*
X15762801Y-21164458D02*
X15762801Y-20964458D01*
X15762801Y-21154934D02*
X15743754Y-21164458D01*
X15743754Y-21164458D02*
X15705658Y-21164458D01*
X15705658Y-21164458D02*
X15686611Y-21154934D01*
X15686611Y-21154934D02*
X15677087Y-21145410D01*
X15677087Y-21145410D02*
X15667563Y-21126363D01*
X15667563Y-21126363D02*
X15667563Y-21069220D01*
X15667563Y-21069220D02*
X15677087Y-21050172D01*
X15677087Y-21050172D02*
X15686611Y-21040648D01*
X15686611Y-21040648D02*
X15705658Y-21031125D01*
X15705658Y-21031125D02*
X15743754Y-21031125D01*
X15743754Y-21031125D02*
X15762801Y-21040648D01*
X15838992Y-21240648D02*
X15848515Y-21231125D01*
X15848515Y-21231125D02*
X15867563Y-21202553D01*
X15867563Y-21202553D02*
X15877087Y-21183506D01*
X15877087Y-21183506D02*
X15886611Y-21154934D01*
X15886611Y-21154934D02*
X15896134Y-21107315D01*
X15896134Y-21107315D02*
X15896134Y-21069220D01*
X15896134Y-21069220D02*
X15886611Y-21021601D01*
X15886611Y-21021601D02*
X15877087Y-20993029D01*
X15877087Y-20993029D02*
X15867563Y-20973982D01*
X15867563Y-20973982D02*
X15848515Y-20945410D01*
X15848515Y-20945410D02*
X15838992Y-20935886D01*
X8792500Y-21492974D02*
X8892500Y-21392974D01*
X8792500Y-21292974D01*
X8692500Y-21392974D01*
X8792500Y-21492974D01*
X9134229Y-21284458D02*
X9258039Y-21284458D01*
X9258039Y-21284458D02*
X9191372Y-21360648D01*
X9191372Y-21360648D02*
X9219944Y-21360648D01*
X9219944Y-21360648D02*
X9238991Y-21370172D01*
X9238991Y-21370172D02*
X9248515Y-21379696D01*
X9248515Y-21379696D02*
X9258039Y-21398744D01*
X9258039Y-21398744D02*
X9258039Y-21446363D01*
X9258039Y-21446363D02*
X9248515Y-21465410D01*
X9248515Y-21465410D02*
X9238991Y-21474934D01*
X9238991Y-21474934D02*
X9219944Y-21484458D01*
X9219944Y-21484458D02*
X9162801Y-21484458D01*
X9162801Y-21484458D02*
X9143753Y-21474934D01*
X9143753Y-21474934D02*
X9134229Y-21465410D01*
X9343753Y-21465410D02*
X9353277Y-21474934D01*
X9353277Y-21474934D02*
X9343753Y-21484458D01*
X9343753Y-21484458D02*
X9334229Y-21474934D01*
X9334229Y-21474934D02*
X9343753Y-21465410D01*
X9343753Y-21465410D02*
X9343753Y-21484458D01*
X9524705Y-21351125D02*
X9524705Y-21484458D01*
X9477086Y-21274934D02*
X9429467Y-21417791D01*
X9429467Y-21417791D02*
X9553277Y-21417791D01*
X9619944Y-21303506D02*
X9629467Y-21293982D01*
X9629467Y-21293982D02*
X9648515Y-21284458D01*
X9648515Y-21284458D02*
X9696134Y-21284458D01*
X9696134Y-21284458D02*
X9715182Y-21293982D01*
X9715182Y-21293982D02*
X9724705Y-21303506D01*
X9724705Y-21303506D02*
X9734229Y-21322553D01*
X9734229Y-21322553D02*
X9734229Y-21341601D01*
X9734229Y-21341601D02*
X9724705Y-21370172D01*
X9724705Y-21370172D02*
X9610420Y-21484458D01*
X9610420Y-21484458D02*
X9734229Y-21484458D01*
X9829467Y-21484458D02*
X9867563Y-21484458D01*
X9867563Y-21484458D02*
X9886610Y-21474934D01*
X9886610Y-21474934D02*
X9896134Y-21465410D01*
X9896134Y-21465410D02*
X9915182Y-21436839D01*
X9915182Y-21436839D02*
X9924705Y-21398744D01*
X9924705Y-21398744D02*
X9924705Y-21322553D01*
X9924705Y-21322553D02*
X9915182Y-21303506D01*
X9915182Y-21303506D02*
X9905658Y-21293982D01*
X9905658Y-21293982D02*
X9886610Y-21284458D01*
X9886610Y-21284458D02*
X9848515Y-21284458D01*
X9848515Y-21284458D02*
X9829467Y-21293982D01*
X9829467Y-21293982D02*
X9819944Y-21303506D01*
X9819944Y-21303506D02*
X9810420Y-21322553D01*
X9810420Y-21322553D02*
X9810420Y-21370172D01*
X9810420Y-21370172D02*
X9819944Y-21389220D01*
X9819944Y-21389220D02*
X9829467Y-21398744D01*
X9829467Y-21398744D02*
X9848515Y-21408267D01*
X9848515Y-21408267D02*
X9886610Y-21408267D01*
X9886610Y-21408267D02*
X9905658Y-21398744D01*
X9905658Y-21398744D02*
X9915182Y-21389220D01*
X9915182Y-21389220D02*
X9924705Y-21370172D01*
X10010420Y-21484458D02*
X10010420Y-21351125D01*
X10010420Y-21370172D02*
X10019944Y-21360648D01*
X10019944Y-21360648D02*
X10038991Y-21351125D01*
X10038991Y-21351125D02*
X10067563Y-21351125D01*
X10067563Y-21351125D02*
X10086610Y-21360648D01*
X10086610Y-21360648D02*
X10096134Y-21379696D01*
X10096134Y-21379696D02*
X10096134Y-21484458D01*
X10096134Y-21379696D02*
X10105658Y-21360648D01*
X10105658Y-21360648D02*
X10124705Y-21351125D01*
X10124705Y-21351125D02*
X10153277Y-21351125D01*
X10153277Y-21351125D02*
X10172325Y-21360648D01*
X10172325Y-21360648D02*
X10181848Y-21379696D01*
X10181848Y-21379696D02*
X10181848Y-21484458D01*
X10277086Y-21484458D02*
X10277086Y-21351125D01*
X10277086Y-21370172D02*
X10286610Y-21360648D01*
X10286610Y-21360648D02*
X10305658Y-21351125D01*
X10305658Y-21351125D02*
X10334229Y-21351125D01*
X10334229Y-21351125D02*
X10353277Y-21360648D01*
X10353277Y-21360648D02*
X10362801Y-21379696D01*
X10362801Y-21379696D02*
X10362801Y-21484458D01*
X10362801Y-21379696D02*
X10372325Y-21360648D01*
X10372325Y-21360648D02*
X10391372Y-21351125D01*
X10391372Y-21351125D02*
X10419944Y-21351125D01*
X10419944Y-21351125D02*
X10438991Y-21360648D01*
X10438991Y-21360648D02*
X10448515Y-21379696D01*
X10448515Y-21379696D02*
X10448515Y-21484458D01*
X10838991Y-21274934D02*
X10667563Y-21532077D01*
X11096134Y-21284458D02*
X11115182Y-21284458D01*
X11115182Y-21284458D02*
X11134229Y-21293982D01*
X11134229Y-21293982D02*
X11143753Y-21303506D01*
X11143753Y-21303506D02*
X11153277Y-21322553D01*
X11153277Y-21322553D02*
X11162801Y-21360648D01*
X11162801Y-21360648D02*
X11162801Y-21408267D01*
X11162801Y-21408267D02*
X11153277Y-21446363D01*
X11153277Y-21446363D02*
X11143753Y-21465410D01*
X11143753Y-21465410D02*
X11134229Y-21474934D01*
X11134229Y-21474934D02*
X11115182Y-21484458D01*
X11115182Y-21484458D02*
X11096134Y-21484458D01*
X11096134Y-21484458D02*
X11077087Y-21474934D01*
X11077087Y-21474934D02*
X11067563Y-21465410D01*
X11067563Y-21465410D02*
X11058039Y-21446363D01*
X11058039Y-21446363D02*
X11048515Y-21408267D01*
X11048515Y-21408267D02*
X11048515Y-21360648D01*
X11048515Y-21360648D02*
X11058039Y-21322553D01*
X11058039Y-21322553D02*
X11067563Y-21303506D01*
X11067563Y-21303506D02*
X11077087Y-21293982D01*
X11077087Y-21293982D02*
X11096134Y-21284458D01*
X11248515Y-21465410D02*
X11258039Y-21474934D01*
X11258039Y-21474934D02*
X11248515Y-21484458D01*
X11248515Y-21484458D02*
X11238991Y-21474934D01*
X11238991Y-21474934D02*
X11248515Y-21465410D01*
X11248515Y-21465410D02*
X11248515Y-21484458D01*
X11448515Y-21484458D02*
X11334229Y-21484458D01*
X11391372Y-21484458D02*
X11391372Y-21284458D01*
X11391372Y-21284458D02*
X11372325Y-21313029D01*
X11372325Y-21313029D02*
X11353277Y-21332077D01*
X11353277Y-21332077D02*
X11334229Y-21341601D01*
X11515182Y-21284458D02*
X11638991Y-21284458D01*
X11638991Y-21284458D02*
X11572325Y-21360648D01*
X11572325Y-21360648D02*
X11600896Y-21360648D01*
X11600896Y-21360648D02*
X11619944Y-21370172D01*
X11619944Y-21370172D02*
X11629467Y-21379696D01*
X11629467Y-21379696D02*
X11638991Y-21398744D01*
X11638991Y-21398744D02*
X11638991Y-21446363D01*
X11638991Y-21446363D02*
X11629467Y-21465410D01*
X11629467Y-21465410D02*
X11619944Y-21474934D01*
X11619944Y-21474934D02*
X11600896Y-21484458D01*
X11600896Y-21484458D02*
X11543753Y-21484458D01*
X11543753Y-21484458D02*
X11524706Y-21474934D01*
X11524706Y-21474934D02*
X11515182Y-21465410D01*
X11819944Y-21284458D02*
X11724706Y-21284458D01*
X11724706Y-21284458D02*
X11715182Y-21379696D01*
X11715182Y-21379696D02*
X11724706Y-21370172D01*
X11724706Y-21370172D02*
X11743753Y-21360648D01*
X11743753Y-21360648D02*
X11791372Y-21360648D01*
X11791372Y-21360648D02*
X11810420Y-21370172D01*
X11810420Y-21370172D02*
X11819944Y-21379696D01*
X11819944Y-21379696D02*
X11829467Y-21398744D01*
X11829467Y-21398744D02*
X11829467Y-21446363D01*
X11829467Y-21446363D02*
X11819944Y-21465410D01*
X11819944Y-21465410D02*
X11810420Y-21474934D01*
X11810420Y-21474934D02*
X11791372Y-21484458D01*
X11791372Y-21484458D02*
X11743753Y-21484458D01*
X11743753Y-21484458D02*
X11724706Y-21474934D01*
X11724706Y-21474934D02*
X11715182Y-21465410D01*
X11953277Y-21284458D02*
X11972325Y-21284458D01*
X11972325Y-21284458D02*
X11991372Y-21293982D01*
X11991372Y-21293982D02*
X12000896Y-21303506D01*
X12000896Y-21303506D02*
X12010420Y-21322553D01*
X12010420Y-21322553D02*
X12019944Y-21360648D01*
X12019944Y-21360648D02*
X12019944Y-21408267D01*
X12019944Y-21408267D02*
X12010420Y-21446363D01*
X12010420Y-21446363D02*
X12000896Y-21465410D01*
X12000896Y-21465410D02*
X11991372Y-21474934D01*
X11991372Y-21474934D02*
X11972325Y-21484458D01*
X11972325Y-21484458D02*
X11953277Y-21484458D01*
X11953277Y-21484458D02*
X11934229Y-21474934D01*
X11934229Y-21474934D02*
X11924706Y-21465410D01*
X11924706Y-21465410D02*
X11915182Y-21446363D01*
X11915182Y-21446363D02*
X11905658Y-21408267D01*
X11905658Y-21408267D02*
X11905658Y-21360648D01*
X11905658Y-21360648D02*
X11915182Y-21322553D01*
X11915182Y-21322553D02*
X11924706Y-21303506D01*
X11924706Y-21303506D02*
X11934229Y-21293982D01*
X11934229Y-21293982D02*
X11953277Y-21284458D01*
X12096134Y-21284458D02*
X12096134Y-21322553D01*
X12172325Y-21284458D02*
X12172325Y-21322553D01*
X12467563Y-21560648D02*
X12458039Y-21551125D01*
X12458039Y-21551125D02*
X12438991Y-21522553D01*
X12438991Y-21522553D02*
X12429468Y-21503506D01*
X12429468Y-21503506D02*
X12419944Y-21474934D01*
X12419944Y-21474934D02*
X12410420Y-21427315D01*
X12410420Y-21427315D02*
X12410420Y-21389220D01*
X12410420Y-21389220D02*
X12419944Y-21341601D01*
X12419944Y-21341601D02*
X12429468Y-21313029D01*
X12429468Y-21313029D02*
X12438991Y-21293982D01*
X12438991Y-21293982D02*
X12458039Y-21265410D01*
X12458039Y-21265410D02*
X12467563Y-21255886D01*
X12534229Y-21303506D02*
X12543753Y-21293982D01*
X12543753Y-21293982D02*
X12562801Y-21284458D01*
X12562801Y-21284458D02*
X12610420Y-21284458D01*
X12610420Y-21284458D02*
X12629468Y-21293982D01*
X12629468Y-21293982D02*
X12638991Y-21303506D01*
X12638991Y-21303506D02*
X12648515Y-21322553D01*
X12648515Y-21322553D02*
X12648515Y-21341601D01*
X12648515Y-21341601D02*
X12638991Y-21370172D01*
X12638991Y-21370172D02*
X12524706Y-21484458D01*
X12524706Y-21484458D02*
X12648515Y-21484458D01*
X12715182Y-21284458D02*
X12848515Y-21284458D01*
X12848515Y-21284458D02*
X12762801Y-21484458D01*
X13077087Y-21484458D02*
X13077087Y-21284458D01*
X13162801Y-21484458D02*
X13162801Y-21379696D01*
X13162801Y-21379696D02*
X13153277Y-21360648D01*
X13153277Y-21360648D02*
X13134230Y-21351125D01*
X13134230Y-21351125D02*
X13105658Y-21351125D01*
X13105658Y-21351125D02*
X13086610Y-21360648D01*
X13086610Y-21360648D02*
X13077087Y-21370172D01*
X13286610Y-21484458D02*
X13267563Y-21474934D01*
X13267563Y-21474934D02*
X13258039Y-21465410D01*
X13258039Y-21465410D02*
X13248515Y-21446363D01*
X13248515Y-21446363D02*
X13248515Y-21389220D01*
X13248515Y-21389220D02*
X13258039Y-21370172D01*
X13258039Y-21370172D02*
X13267563Y-21360648D01*
X13267563Y-21360648D02*
X13286610Y-21351125D01*
X13286610Y-21351125D02*
X13315182Y-21351125D01*
X13315182Y-21351125D02*
X13334230Y-21360648D01*
X13334230Y-21360648D02*
X13343753Y-21370172D01*
X13343753Y-21370172D02*
X13353277Y-21389220D01*
X13353277Y-21389220D02*
X13353277Y-21446363D01*
X13353277Y-21446363D02*
X13343753Y-21465410D01*
X13343753Y-21465410D02*
X13334230Y-21474934D01*
X13334230Y-21474934D02*
X13315182Y-21484458D01*
X13315182Y-21484458D02*
X13286610Y-21484458D01*
X13467563Y-21484458D02*
X13448515Y-21474934D01*
X13448515Y-21474934D02*
X13438991Y-21455886D01*
X13438991Y-21455886D02*
X13438991Y-21284458D01*
X13619944Y-21474934D02*
X13600896Y-21484458D01*
X13600896Y-21484458D02*
X13562801Y-21484458D01*
X13562801Y-21484458D02*
X13543753Y-21474934D01*
X13543753Y-21474934D02*
X13534230Y-21455886D01*
X13534230Y-21455886D02*
X13534230Y-21379696D01*
X13534230Y-21379696D02*
X13543753Y-21360648D01*
X13543753Y-21360648D02*
X13562801Y-21351125D01*
X13562801Y-21351125D02*
X13600896Y-21351125D01*
X13600896Y-21351125D02*
X13619944Y-21360648D01*
X13619944Y-21360648D02*
X13629468Y-21379696D01*
X13629468Y-21379696D02*
X13629468Y-21398744D01*
X13629468Y-21398744D02*
X13534230Y-21417791D01*
X13705658Y-21474934D02*
X13724706Y-21484458D01*
X13724706Y-21484458D02*
X13762801Y-21484458D01*
X13762801Y-21484458D02*
X13781849Y-21474934D01*
X13781849Y-21474934D02*
X13791372Y-21455886D01*
X13791372Y-21455886D02*
X13791372Y-21446363D01*
X13791372Y-21446363D02*
X13781849Y-21427315D01*
X13781849Y-21427315D02*
X13762801Y-21417791D01*
X13762801Y-21417791D02*
X13734230Y-21417791D01*
X13734230Y-21417791D02*
X13715182Y-21408267D01*
X13715182Y-21408267D02*
X13705658Y-21389220D01*
X13705658Y-21389220D02*
X13705658Y-21379696D01*
X13705658Y-21379696D02*
X13715182Y-21360648D01*
X13715182Y-21360648D02*
X13734230Y-21351125D01*
X13734230Y-21351125D02*
X13762801Y-21351125D01*
X13762801Y-21351125D02*
X13781849Y-21360648D01*
X13858039Y-21560648D02*
X13867563Y-21551125D01*
X13867563Y-21551125D02*
X13886611Y-21522553D01*
X13886611Y-21522553D02*
X13896134Y-21503506D01*
X13896134Y-21503506D02*
X13905658Y-21474934D01*
X13905658Y-21474934D02*
X13915182Y-21427315D01*
X13915182Y-21427315D02*
X13915182Y-21389220D01*
X13915182Y-21389220D02*
X13905658Y-21341601D01*
X13905658Y-21341601D02*
X13896134Y-21313029D01*
X13896134Y-21313029D02*
X13886611Y-21293982D01*
X13886611Y-21293982D02*
X13867563Y-21265410D01*
X13867563Y-21265410D02*
X13858039Y-21255886D01*
X14219944Y-21560648D02*
X14210420Y-21551125D01*
X14210420Y-21551125D02*
X14191372Y-21522553D01*
X14191372Y-21522553D02*
X14181849Y-21503506D01*
X14181849Y-21503506D02*
X14172325Y-21474934D01*
X14172325Y-21474934D02*
X14162801Y-21427315D01*
X14162801Y-21427315D02*
X14162801Y-21389220D01*
X14162801Y-21389220D02*
X14172325Y-21341601D01*
X14172325Y-21341601D02*
X14181849Y-21313029D01*
X14181849Y-21313029D02*
X14191372Y-21293982D01*
X14191372Y-21293982D02*
X14210420Y-21265410D01*
X14210420Y-21265410D02*
X14219944Y-21255886D01*
X14296134Y-21351125D02*
X14296134Y-21484458D01*
X14296134Y-21370172D02*
X14305658Y-21360648D01*
X14305658Y-21360648D02*
X14324706Y-21351125D01*
X14324706Y-21351125D02*
X14353277Y-21351125D01*
X14353277Y-21351125D02*
X14372325Y-21360648D01*
X14372325Y-21360648D02*
X14381849Y-21379696D01*
X14381849Y-21379696D02*
X14381849Y-21484458D01*
X14505658Y-21484458D02*
X14486611Y-21474934D01*
X14486611Y-21474934D02*
X14477087Y-21465410D01*
X14477087Y-21465410D02*
X14467563Y-21446363D01*
X14467563Y-21446363D02*
X14467563Y-21389220D01*
X14467563Y-21389220D02*
X14477087Y-21370172D01*
X14477087Y-21370172D02*
X14486611Y-21360648D01*
X14486611Y-21360648D02*
X14505658Y-21351125D01*
X14505658Y-21351125D02*
X14534230Y-21351125D01*
X14534230Y-21351125D02*
X14553277Y-21360648D01*
X14553277Y-21360648D02*
X14562801Y-21370172D01*
X14562801Y-21370172D02*
X14572325Y-21389220D01*
X14572325Y-21389220D02*
X14572325Y-21446363D01*
X14572325Y-21446363D02*
X14562801Y-21465410D01*
X14562801Y-21465410D02*
X14553277Y-21474934D01*
X14553277Y-21474934D02*
X14534230Y-21484458D01*
X14534230Y-21484458D02*
X14505658Y-21484458D01*
X14629468Y-21351125D02*
X14705658Y-21351125D01*
X14658039Y-21284458D02*
X14658039Y-21455886D01*
X14658039Y-21455886D02*
X14667563Y-21474934D01*
X14667563Y-21474934D02*
X14686611Y-21484458D01*
X14686611Y-21484458D02*
X14705658Y-21484458D01*
X14924706Y-21351125D02*
X14924706Y-21551125D01*
X14924706Y-21360648D02*
X14943753Y-21351125D01*
X14943753Y-21351125D02*
X14981849Y-21351125D01*
X14981849Y-21351125D02*
X15000896Y-21360648D01*
X15000896Y-21360648D02*
X15010420Y-21370172D01*
X15010420Y-21370172D02*
X15019944Y-21389220D01*
X15019944Y-21389220D02*
X15019944Y-21446363D01*
X15019944Y-21446363D02*
X15010420Y-21465410D01*
X15010420Y-21465410D02*
X15000896Y-21474934D01*
X15000896Y-21474934D02*
X14981849Y-21484458D01*
X14981849Y-21484458D02*
X14943753Y-21484458D01*
X14943753Y-21484458D02*
X14924706Y-21474934D01*
X15134230Y-21484458D02*
X15115182Y-21474934D01*
X15115182Y-21474934D02*
X15105658Y-21455886D01*
X15105658Y-21455886D02*
X15105658Y-21284458D01*
X15296134Y-21484458D02*
X15296134Y-21379696D01*
X15296134Y-21379696D02*
X15286611Y-21360648D01*
X15286611Y-21360648D02*
X15267563Y-21351125D01*
X15267563Y-21351125D02*
X15229468Y-21351125D01*
X15229468Y-21351125D02*
X15210420Y-21360648D01*
X15296134Y-21474934D02*
X15277087Y-21484458D01*
X15277087Y-21484458D02*
X15229468Y-21484458D01*
X15229468Y-21484458D02*
X15210420Y-21474934D01*
X15210420Y-21474934D02*
X15200896Y-21455886D01*
X15200896Y-21455886D02*
X15200896Y-21436839D01*
X15200896Y-21436839D02*
X15210420Y-21417791D01*
X15210420Y-21417791D02*
X15229468Y-21408267D01*
X15229468Y-21408267D02*
X15277087Y-21408267D01*
X15277087Y-21408267D02*
X15296134Y-21398744D01*
X15362801Y-21351125D02*
X15438992Y-21351125D01*
X15391373Y-21284458D02*
X15391373Y-21455886D01*
X15391373Y-21455886D02*
X15400896Y-21474934D01*
X15400896Y-21474934D02*
X15419944Y-21484458D01*
X15419944Y-21484458D02*
X15438992Y-21484458D01*
X15581849Y-21474934D02*
X15562801Y-21484458D01*
X15562801Y-21484458D02*
X15524706Y-21484458D01*
X15524706Y-21484458D02*
X15505658Y-21474934D01*
X15505658Y-21474934D02*
X15496134Y-21455886D01*
X15496134Y-21455886D02*
X15496134Y-21379696D01*
X15496134Y-21379696D02*
X15505658Y-21360648D01*
X15505658Y-21360648D02*
X15524706Y-21351125D01*
X15524706Y-21351125D02*
X15562801Y-21351125D01*
X15562801Y-21351125D02*
X15581849Y-21360648D01*
X15581849Y-21360648D02*
X15591373Y-21379696D01*
X15591373Y-21379696D02*
X15591373Y-21398744D01*
X15591373Y-21398744D02*
X15496134Y-21417791D01*
X15762801Y-21484458D02*
X15762801Y-21284458D01*
X15762801Y-21474934D02*
X15743754Y-21484458D01*
X15743754Y-21484458D02*
X15705658Y-21484458D01*
X15705658Y-21484458D02*
X15686611Y-21474934D01*
X15686611Y-21474934D02*
X15677087Y-21465410D01*
X15677087Y-21465410D02*
X15667563Y-21446363D01*
X15667563Y-21446363D02*
X15667563Y-21389220D01*
X15667563Y-21389220D02*
X15677087Y-21370172D01*
X15677087Y-21370172D02*
X15686611Y-21360648D01*
X15686611Y-21360648D02*
X15705658Y-21351125D01*
X15705658Y-21351125D02*
X15743754Y-21351125D01*
X15743754Y-21351125D02*
X15762801Y-21360648D01*
X15838992Y-21560648D02*
X15848515Y-21551125D01*
X15848515Y-21551125D02*
X15867563Y-21522553D01*
X15867563Y-21522553D02*
X15877087Y-21503506D01*
X15877087Y-21503506D02*
X15886611Y-21474934D01*
X15886611Y-21474934D02*
X15896134Y-21427315D01*
X15896134Y-21427315D02*
X15896134Y-21389220D01*
X15896134Y-21389220D02*
X15886611Y-21341601D01*
X15886611Y-21341601D02*
X15877087Y-21313029D01*
X15877087Y-21313029D02*
X15867563Y-21293982D01*
X15867563Y-21293982D02*
X15848515Y-21265410D01*
X15848515Y-21265410D02*
X15838992Y-21255886D01*
X8692500Y-21612974D02*
X8892500Y-21812974D01*
X8892500Y-21612974D02*
X8692500Y-21812974D01*
X8892500Y-21712974D02*
G75*
G02*
X8692500Y-21712974I-100000J0D01*
G01*
X8692500Y-21712974D02*
G75*
G02*
X8892500Y-21712974I100000J0D01*
G01*
X9238991Y-21671125D02*
X9238991Y-21804458D01*
X9191372Y-21594934D02*
X9143753Y-21737791D01*
X9143753Y-21737791D02*
X9267563Y-21737791D01*
X9343753Y-21785410D02*
X9353277Y-21794934D01*
X9353277Y-21794934D02*
X9343753Y-21804458D01*
X9343753Y-21804458D02*
X9334229Y-21794934D01*
X9334229Y-21794934D02*
X9343753Y-21785410D01*
X9343753Y-21785410D02*
X9343753Y-21804458D01*
X9477086Y-21604458D02*
X9496134Y-21604458D01*
X9496134Y-21604458D02*
X9515182Y-21613982D01*
X9515182Y-21613982D02*
X9524705Y-21623506D01*
X9524705Y-21623506D02*
X9534229Y-21642553D01*
X9534229Y-21642553D02*
X9543753Y-21680648D01*
X9543753Y-21680648D02*
X9543753Y-21728267D01*
X9543753Y-21728267D02*
X9534229Y-21766363D01*
X9534229Y-21766363D02*
X9524705Y-21785410D01*
X9524705Y-21785410D02*
X9515182Y-21794934D01*
X9515182Y-21794934D02*
X9496134Y-21804458D01*
X9496134Y-21804458D02*
X9477086Y-21804458D01*
X9477086Y-21804458D02*
X9458039Y-21794934D01*
X9458039Y-21794934D02*
X9448515Y-21785410D01*
X9448515Y-21785410D02*
X9438991Y-21766363D01*
X9438991Y-21766363D02*
X9429467Y-21728267D01*
X9429467Y-21728267D02*
X9429467Y-21680648D01*
X9429467Y-21680648D02*
X9438991Y-21642553D01*
X9438991Y-21642553D02*
X9448515Y-21623506D01*
X9448515Y-21623506D02*
X9458039Y-21613982D01*
X9458039Y-21613982D02*
X9477086Y-21604458D01*
X9667563Y-21604458D02*
X9686610Y-21604458D01*
X9686610Y-21604458D02*
X9705658Y-21613982D01*
X9705658Y-21613982D02*
X9715182Y-21623506D01*
X9715182Y-21623506D02*
X9724705Y-21642553D01*
X9724705Y-21642553D02*
X9734229Y-21680648D01*
X9734229Y-21680648D02*
X9734229Y-21728267D01*
X9734229Y-21728267D02*
X9724705Y-21766363D01*
X9724705Y-21766363D02*
X9715182Y-21785410D01*
X9715182Y-21785410D02*
X9705658Y-21794934D01*
X9705658Y-21794934D02*
X9686610Y-21804458D01*
X9686610Y-21804458D02*
X9667563Y-21804458D01*
X9667563Y-21804458D02*
X9648515Y-21794934D01*
X9648515Y-21794934D02*
X9638991Y-21785410D01*
X9638991Y-21785410D02*
X9629467Y-21766363D01*
X9629467Y-21766363D02*
X9619944Y-21728267D01*
X9619944Y-21728267D02*
X9619944Y-21680648D01*
X9619944Y-21680648D02*
X9629467Y-21642553D01*
X9629467Y-21642553D02*
X9638991Y-21623506D01*
X9638991Y-21623506D02*
X9648515Y-21613982D01*
X9648515Y-21613982D02*
X9667563Y-21604458D01*
X9858039Y-21604458D02*
X9877086Y-21604458D01*
X9877086Y-21604458D02*
X9896134Y-21613982D01*
X9896134Y-21613982D02*
X9905658Y-21623506D01*
X9905658Y-21623506D02*
X9915182Y-21642553D01*
X9915182Y-21642553D02*
X9924705Y-21680648D01*
X9924705Y-21680648D02*
X9924705Y-21728267D01*
X9924705Y-21728267D02*
X9915182Y-21766363D01*
X9915182Y-21766363D02*
X9905658Y-21785410D01*
X9905658Y-21785410D02*
X9896134Y-21794934D01*
X9896134Y-21794934D02*
X9877086Y-21804458D01*
X9877086Y-21804458D02*
X9858039Y-21804458D01*
X9858039Y-21804458D02*
X9838991Y-21794934D01*
X9838991Y-21794934D02*
X9829467Y-21785410D01*
X9829467Y-21785410D02*
X9819944Y-21766363D01*
X9819944Y-21766363D02*
X9810420Y-21728267D01*
X9810420Y-21728267D02*
X9810420Y-21680648D01*
X9810420Y-21680648D02*
X9819944Y-21642553D01*
X9819944Y-21642553D02*
X9829467Y-21623506D01*
X9829467Y-21623506D02*
X9838991Y-21613982D01*
X9838991Y-21613982D02*
X9858039Y-21604458D01*
X10010420Y-21804458D02*
X10010420Y-21671125D01*
X10010420Y-21690172D02*
X10019944Y-21680648D01*
X10019944Y-21680648D02*
X10038991Y-21671125D01*
X10038991Y-21671125D02*
X10067563Y-21671125D01*
X10067563Y-21671125D02*
X10086610Y-21680648D01*
X10086610Y-21680648D02*
X10096134Y-21699696D01*
X10096134Y-21699696D02*
X10096134Y-21804458D01*
X10096134Y-21699696D02*
X10105658Y-21680648D01*
X10105658Y-21680648D02*
X10124705Y-21671125D01*
X10124705Y-21671125D02*
X10153277Y-21671125D01*
X10153277Y-21671125D02*
X10172325Y-21680648D01*
X10172325Y-21680648D02*
X10181848Y-21699696D01*
X10181848Y-21699696D02*
X10181848Y-21804458D01*
X10277086Y-21804458D02*
X10277086Y-21671125D01*
X10277086Y-21690172D02*
X10286610Y-21680648D01*
X10286610Y-21680648D02*
X10305658Y-21671125D01*
X10305658Y-21671125D02*
X10334229Y-21671125D01*
X10334229Y-21671125D02*
X10353277Y-21680648D01*
X10353277Y-21680648D02*
X10362801Y-21699696D01*
X10362801Y-21699696D02*
X10362801Y-21804458D01*
X10362801Y-21699696D02*
X10372325Y-21680648D01*
X10372325Y-21680648D02*
X10391372Y-21671125D01*
X10391372Y-21671125D02*
X10419944Y-21671125D01*
X10419944Y-21671125D02*
X10438991Y-21680648D01*
X10438991Y-21680648D02*
X10448515Y-21699696D01*
X10448515Y-21699696D02*
X10448515Y-21804458D01*
X10838991Y-21594934D02*
X10667563Y-21852077D01*
X11096134Y-21604458D02*
X11115182Y-21604458D01*
X11115182Y-21604458D02*
X11134229Y-21613982D01*
X11134229Y-21613982D02*
X11143753Y-21623506D01*
X11143753Y-21623506D02*
X11153277Y-21642553D01*
X11153277Y-21642553D02*
X11162801Y-21680648D01*
X11162801Y-21680648D02*
X11162801Y-21728267D01*
X11162801Y-21728267D02*
X11153277Y-21766363D01*
X11153277Y-21766363D02*
X11143753Y-21785410D01*
X11143753Y-21785410D02*
X11134229Y-21794934D01*
X11134229Y-21794934D02*
X11115182Y-21804458D01*
X11115182Y-21804458D02*
X11096134Y-21804458D01*
X11096134Y-21804458D02*
X11077087Y-21794934D01*
X11077087Y-21794934D02*
X11067563Y-21785410D01*
X11067563Y-21785410D02*
X11058039Y-21766363D01*
X11058039Y-21766363D02*
X11048515Y-21728267D01*
X11048515Y-21728267D02*
X11048515Y-21680648D01*
X11048515Y-21680648D02*
X11058039Y-21642553D01*
X11058039Y-21642553D02*
X11067563Y-21623506D01*
X11067563Y-21623506D02*
X11077087Y-21613982D01*
X11077087Y-21613982D02*
X11096134Y-21604458D01*
X11248515Y-21785410D02*
X11258039Y-21794934D01*
X11258039Y-21794934D02*
X11248515Y-21804458D01*
X11248515Y-21804458D02*
X11238991Y-21794934D01*
X11238991Y-21794934D02*
X11248515Y-21785410D01*
X11248515Y-21785410D02*
X11248515Y-21804458D01*
X11448515Y-21804458D02*
X11334229Y-21804458D01*
X11391372Y-21804458D02*
X11391372Y-21604458D01*
X11391372Y-21604458D02*
X11372325Y-21633029D01*
X11372325Y-21633029D02*
X11353277Y-21652077D01*
X11353277Y-21652077D02*
X11334229Y-21661601D01*
X11629467Y-21604458D02*
X11534229Y-21604458D01*
X11534229Y-21604458D02*
X11524706Y-21699696D01*
X11524706Y-21699696D02*
X11534229Y-21690172D01*
X11534229Y-21690172D02*
X11553277Y-21680648D01*
X11553277Y-21680648D02*
X11600896Y-21680648D01*
X11600896Y-21680648D02*
X11619944Y-21690172D01*
X11619944Y-21690172D02*
X11629467Y-21699696D01*
X11629467Y-21699696D02*
X11638991Y-21718744D01*
X11638991Y-21718744D02*
X11638991Y-21766363D01*
X11638991Y-21766363D02*
X11629467Y-21785410D01*
X11629467Y-21785410D02*
X11619944Y-21794934D01*
X11619944Y-21794934D02*
X11600896Y-21804458D01*
X11600896Y-21804458D02*
X11553277Y-21804458D01*
X11553277Y-21804458D02*
X11534229Y-21794934D01*
X11534229Y-21794934D02*
X11524706Y-21785410D01*
X11705658Y-21604458D02*
X11838991Y-21604458D01*
X11838991Y-21604458D02*
X11753277Y-21804458D01*
X12010420Y-21604458D02*
X11915182Y-21604458D01*
X11915182Y-21604458D02*
X11905658Y-21699696D01*
X11905658Y-21699696D02*
X11915182Y-21690172D01*
X11915182Y-21690172D02*
X11934229Y-21680648D01*
X11934229Y-21680648D02*
X11981848Y-21680648D01*
X11981848Y-21680648D02*
X12000896Y-21690172D01*
X12000896Y-21690172D02*
X12010420Y-21699696D01*
X12010420Y-21699696D02*
X12019944Y-21718744D01*
X12019944Y-21718744D02*
X12019944Y-21766363D01*
X12019944Y-21766363D02*
X12010420Y-21785410D01*
X12010420Y-21785410D02*
X12000896Y-21794934D01*
X12000896Y-21794934D02*
X11981848Y-21804458D01*
X11981848Y-21804458D02*
X11934229Y-21804458D01*
X11934229Y-21804458D02*
X11915182Y-21794934D01*
X11915182Y-21794934D02*
X11905658Y-21785410D01*
X12096134Y-21604458D02*
X12096134Y-21642553D01*
X12172325Y-21604458D02*
X12172325Y-21642553D01*
X12467563Y-21880648D02*
X12458039Y-21871125D01*
X12458039Y-21871125D02*
X12438991Y-21842553D01*
X12438991Y-21842553D02*
X12429468Y-21823506D01*
X12429468Y-21823506D02*
X12419944Y-21794934D01*
X12419944Y-21794934D02*
X12410420Y-21747315D01*
X12410420Y-21747315D02*
X12410420Y-21709220D01*
X12410420Y-21709220D02*
X12419944Y-21661601D01*
X12419944Y-21661601D02*
X12429468Y-21633029D01*
X12429468Y-21633029D02*
X12438991Y-21613982D01*
X12438991Y-21613982D02*
X12458039Y-21585410D01*
X12458039Y-21585410D02*
X12467563Y-21575886D01*
X12638991Y-21604458D02*
X12543753Y-21604458D01*
X12543753Y-21604458D02*
X12534229Y-21699696D01*
X12534229Y-21699696D02*
X12543753Y-21690172D01*
X12543753Y-21690172D02*
X12562801Y-21680648D01*
X12562801Y-21680648D02*
X12610420Y-21680648D01*
X12610420Y-21680648D02*
X12629468Y-21690172D01*
X12629468Y-21690172D02*
X12638991Y-21699696D01*
X12638991Y-21699696D02*
X12648515Y-21718744D01*
X12648515Y-21718744D02*
X12648515Y-21766363D01*
X12648515Y-21766363D02*
X12638991Y-21785410D01*
X12638991Y-21785410D02*
X12629468Y-21794934D01*
X12629468Y-21794934D02*
X12610420Y-21804458D01*
X12610420Y-21804458D02*
X12562801Y-21804458D01*
X12562801Y-21804458D02*
X12543753Y-21794934D01*
X12543753Y-21794934D02*
X12534229Y-21785410D01*
X12886610Y-21804458D02*
X12886610Y-21604458D01*
X12972325Y-21804458D02*
X12972325Y-21699696D01*
X12972325Y-21699696D02*
X12962801Y-21680648D01*
X12962801Y-21680648D02*
X12943753Y-21671125D01*
X12943753Y-21671125D02*
X12915182Y-21671125D01*
X12915182Y-21671125D02*
X12896134Y-21680648D01*
X12896134Y-21680648D02*
X12886610Y-21690172D01*
X13096134Y-21804458D02*
X13077087Y-21794934D01*
X13077087Y-21794934D02*
X13067563Y-21785410D01*
X13067563Y-21785410D02*
X13058039Y-21766363D01*
X13058039Y-21766363D02*
X13058039Y-21709220D01*
X13058039Y-21709220D02*
X13067563Y-21690172D01*
X13067563Y-21690172D02*
X13077087Y-21680648D01*
X13077087Y-21680648D02*
X13096134Y-21671125D01*
X13096134Y-21671125D02*
X13124706Y-21671125D01*
X13124706Y-21671125D02*
X13143753Y-21680648D01*
X13143753Y-21680648D02*
X13153277Y-21690172D01*
X13153277Y-21690172D02*
X13162801Y-21709220D01*
X13162801Y-21709220D02*
X13162801Y-21766363D01*
X13162801Y-21766363D02*
X13153277Y-21785410D01*
X13153277Y-21785410D02*
X13143753Y-21794934D01*
X13143753Y-21794934D02*
X13124706Y-21804458D01*
X13124706Y-21804458D02*
X13096134Y-21804458D01*
X13277087Y-21804458D02*
X13258039Y-21794934D01*
X13258039Y-21794934D02*
X13248515Y-21775886D01*
X13248515Y-21775886D02*
X13248515Y-21604458D01*
X13429468Y-21794934D02*
X13410420Y-21804458D01*
X13410420Y-21804458D02*
X13372325Y-21804458D01*
X13372325Y-21804458D02*
X13353277Y-21794934D01*
X13353277Y-21794934D02*
X13343753Y-21775886D01*
X13343753Y-21775886D02*
X13343753Y-21699696D01*
X13343753Y-21699696D02*
X13353277Y-21680648D01*
X13353277Y-21680648D02*
X13372325Y-21671125D01*
X13372325Y-21671125D02*
X13410420Y-21671125D01*
X13410420Y-21671125D02*
X13429468Y-21680648D01*
X13429468Y-21680648D02*
X13438991Y-21699696D01*
X13438991Y-21699696D02*
X13438991Y-21718744D01*
X13438991Y-21718744D02*
X13343753Y-21737791D01*
X13515182Y-21794934D02*
X13534230Y-21804458D01*
X13534230Y-21804458D02*
X13572325Y-21804458D01*
X13572325Y-21804458D02*
X13591372Y-21794934D01*
X13591372Y-21794934D02*
X13600896Y-21775886D01*
X13600896Y-21775886D02*
X13600896Y-21766363D01*
X13600896Y-21766363D02*
X13591372Y-21747315D01*
X13591372Y-21747315D02*
X13572325Y-21737791D01*
X13572325Y-21737791D02*
X13543753Y-21737791D01*
X13543753Y-21737791D02*
X13524706Y-21728267D01*
X13524706Y-21728267D02*
X13515182Y-21709220D01*
X13515182Y-21709220D02*
X13515182Y-21699696D01*
X13515182Y-21699696D02*
X13524706Y-21680648D01*
X13524706Y-21680648D02*
X13543753Y-21671125D01*
X13543753Y-21671125D02*
X13572325Y-21671125D01*
X13572325Y-21671125D02*
X13591372Y-21680648D01*
X13667563Y-21880648D02*
X13677087Y-21871125D01*
X13677087Y-21871125D02*
X13696134Y-21842553D01*
X13696134Y-21842553D02*
X13705658Y-21823506D01*
X13705658Y-21823506D02*
X13715182Y-21794934D01*
X13715182Y-21794934D02*
X13724706Y-21747315D01*
X13724706Y-21747315D02*
X13724706Y-21709220D01*
X13724706Y-21709220D02*
X13715182Y-21661601D01*
X13715182Y-21661601D02*
X13705658Y-21633029D01*
X13705658Y-21633029D02*
X13696134Y-21613982D01*
X13696134Y-21613982D02*
X13677087Y-21585410D01*
X13677087Y-21585410D02*
X13667563Y-21575886D01*
X14029468Y-21880648D02*
X14019944Y-21871125D01*
X14019944Y-21871125D02*
X14000896Y-21842553D01*
X14000896Y-21842553D02*
X13991372Y-21823506D01*
X13991372Y-21823506D02*
X13981849Y-21794934D01*
X13981849Y-21794934D02*
X13972325Y-21747315D01*
X13972325Y-21747315D02*
X13972325Y-21709220D01*
X13972325Y-21709220D02*
X13981849Y-21661601D01*
X13981849Y-21661601D02*
X13991372Y-21633029D01*
X13991372Y-21633029D02*
X14000896Y-21613982D01*
X14000896Y-21613982D02*
X14019944Y-21585410D01*
X14019944Y-21585410D02*
X14029468Y-21575886D01*
X14105658Y-21671125D02*
X14105658Y-21804458D01*
X14105658Y-21690172D02*
X14115182Y-21680648D01*
X14115182Y-21680648D02*
X14134230Y-21671125D01*
X14134230Y-21671125D02*
X14162801Y-21671125D01*
X14162801Y-21671125D02*
X14181849Y-21680648D01*
X14181849Y-21680648D02*
X14191372Y-21699696D01*
X14191372Y-21699696D02*
X14191372Y-21804458D01*
X14315182Y-21804458D02*
X14296134Y-21794934D01*
X14296134Y-21794934D02*
X14286611Y-21785410D01*
X14286611Y-21785410D02*
X14277087Y-21766363D01*
X14277087Y-21766363D02*
X14277087Y-21709220D01*
X14277087Y-21709220D02*
X14286611Y-21690172D01*
X14286611Y-21690172D02*
X14296134Y-21680648D01*
X14296134Y-21680648D02*
X14315182Y-21671125D01*
X14315182Y-21671125D02*
X14343753Y-21671125D01*
X14343753Y-21671125D02*
X14362801Y-21680648D01*
X14362801Y-21680648D02*
X14372325Y-21690172D01*
X14372325Y-21690172D02*
X14381849Y-21709220D01*
X14381849Y-21709220D02*
X14381849Y-21766363D01*
X14381849Y-21766363D02*
X14372325Y-21785410D01*
X14372325Y-21785410D02*
X14362801Y-21794934D01*
X14362801Y-21794934D02*
X14343753Y-21804458D01*
X14343753Y-21804458D02*
X14315182Y-21804458D01*
X14438992Y-21671125D02*
X14515182Y-21671125D01*
X14467563Y-21604458D02*
X14467563Y-21775886D01*
X14467563Y-21775886D02*
X14477087Y-21794934D01*
X14477087Y-21794934D02*
X14496134Y-21804458D01*
X14496134Y-21804458D02*
X14515182Y-21804458D01*
X14734230Y-21671125D02*
X14734230Y-21871125D01*
X14734230Y-21680648D02*
X14753277Y-21671125D01*
X14753277Y-21671125D02*
X14791373Y-21671125D01*
X14791373Y-21671125D02*
X14810420Y-21680648D01*
X14810420Y-21680648D02*
X14819944Y-21690172D01*
X14819944Y-21690172D02*
X14829468Y-21709220D01*
X14829468Y-21709220D02*
X14829468Y-21766363D01*
X14829468Y-21766363D02*
X14819944Y-21785410D01*
X14819944Y-21785410D02*
X14810420Y-21794934D01*
X14810420Y-21794934D02*
X14791373Y-21804458D01*
X14791373Y-21804458D02*
X14753277Y-21804458D01*
X14753277Y-21804458D02*
X14734230Y-21794934D01*
X14943753Y-21804458D02*
X14924706Y-21794934D01*
X14924706Y-21794934D02*
X14915182Y-21775886D01*
X14915182Y-21775886D02*
X14915182Y-21604458D01*
X15105658Y-21804458D02*
X15105658Y-21699696D01*
X15105658Y-21699696D02*
X15096134Y-21680648D01*
X15096134Y-21680648D02*
X15077087Y-21671125D01*
X15077087Y-21671125D02*
X15038992Y-21671125D01*
X15038992Y-21671125D02*
X15019944Y-21680648D01*
X15105658Y-21794934D02*
X15086611Y-21804458D01*
X15086611Y-21804458D02*
X15038992Y-21804458D01*
X15038992Y-21804458D02*
X15019944Y-21794934D01*
X15019944Y-21794934D02*
X15010420Y-21775886D01*
X15010420Y-21775886D02*
X15010420Y-21756839D01*
X15010420Y-21756839D02*
X15019944Y-21737791D01*
X15019944Y-21737791D02*
X15038992Y-21728267D01*
X15038992Y-21728267D02*
X15086611Y-21728267D01*
X15086611Y-21728267D02*
X15105658Y-21718744D01*
X15172325Y-21671125D02*
X15248515Y-21671125D01*
X15200896Y-21604458D02*
X15200896Y-21775886D01*
X15200896Y-21775886D02*
X15210420Y-21794934D01*
X15210420Y-21794934D02*
X15229468Y-21804458D01*
X15229468Y-21804458D02*
X15248515Y-21804458D01*
X15391373Y-21794934D02*
X15372325Y-21804458D01*
X15372325Y-21804458D02*
X15334230Y-21804458D01*
X15334230Y-21804458D02*
X15315182Y-21794934D01*
X15315182Y-21794934D02*
X15305658Y-21775886D01*
X15305658Y-21775886D02*
X15305658Y-21699696D01*
X15305658Y-21699696D02*
X15315182Y-21680648D01*
X15315182Y-21680648D02*
X15334230Y-21671125D01*
X15334230Y-21671125D02*
X15372325Y-21671125D01*
X15372325Y-21671125D02*
X15391373Y-21680648D01*
X15391373Y-21680648D02*
X15400896Y-21699696D01*
X15400896Y-21699696D02*
X15400896Y-21718744D01*
X15400896Y-21718744D02*
X15305658Y-21737791D01*
X15572325Y-21804458D02*
X15572325Y-21604458D01*
X15572325Y-21794934D02*
X15553277Y-21804458D01*
X15553277Y-21804458D02*
X15515182Y-21804458D01*
X15515182Y-21804458D02*
X15496134Y-21794934D01*
X15496134Y-21794934D02*
X15486611Y-21785410D01*
X15486611Y-21785410D02*
X15477087Y-21766363D01*
X15477087Y-21766363D02*
X15477087Y-21709220D01*
X15477087Y-21709220D02*
X15486611Y-21690172D01*
X15486611Y-21690172D02*
X15496134Y-21680648D01*
X15496134Y-21680648D02*
X15515182Y-21671125D01*
X15515182Y-21671125D02*
X15553277Y-21671125D01*
X15553277Y-21671125D02*
X15572325Y-21680648D01*
X15648515Y-21880648D02*
X15658039Y-21871125D01*
X15658039Y-21871125D02*
X15677087Y-21842553D01*
X15677087Y-21842553D02*
X15686611Y-21823506D01*
X15686611Y-21823506D02*
X15696134Y-21794934D01*
X15696134Y-21794934D02*
X15705658Y-21747315D01*
X15705658Y-21747315D02*
X15705658Y-21709220D01*
X15705658Y-21709220D02*
X15696134Y-21661601D01*
X15696134Y-21661601D02*
X15686611Y-21633029D01*
X15686611Y-21633029D02*
X15677087Y-21613982D01*
X15677087Y-21613982D02*
X15658039Y-21585410D01*
X15658039Y-21585410D02*
X15648515Y-21575886D01*
M02*
