%TF.GenerationSoftware,KiCad,Pcbnew,8.0.7*%
%TF.CreationDate,2024-12-27T12:51:14-06:00*%
%TF.ProjectId,left,6c656674-2e6b-4696-9361-645f70636258,v1.0.0*%
%TF.SameCoordinates,Original*%
%TF.FileFunction,Drillmap*%
%TF.FilePolarity,Positive*%
%FSLAX45Y45*%
G04 Gerber Fmt 4.5, Leading zero omitted, Abs format (unit mm)*
G04 Created by KiCad (PCBNEW 8.0.7) date 2024-12-27 12:51:14*
%MOMM*%
%LPD*%
G01*
G04 APERTURE LIST*
%ADD10C,0.150000*%
%ADD11C,0.200000*%
%ADD12C,0.100000*%
%ADD13C,0.109220*%
G04 APERTURE END LIST*
D10*
X16492642Y-17501232D02*
G75*
G02*
X16372531Y-17321710I79858J183372D01*
G01*
X14697237Y-7425000D02*
X16548444Y-7425000D01*
X16976556Y-8025000D02*
G75*
G02*
X16778105Y-7849806I4J200000D01*
G01*
X14875550Y-15179668D02*
G75*
G02*
X14677762Y-15350002I-197790J29668D01*
G01*
X9100000Y-16050000D02*
G75*
G02*
X8900000Y-15850000I0J200000D01*
G01*
X22819739Y-18087858D02*
G75*
G02*
X22812355Y-18378119I-141209J-141633D01*
G01*
X21290582Y-19590663D02*
X16492642Y-17501232D01*
X20475000Y-8525000D02*
X20475000Y-15666985D01*
X14677762Y-15350000D02*
X13229716Y-15350000D01*
X13030854Y-15528693D02*
G75*
G02*
X13229716Y-15349996I198866J-21307D01*
G01*
X8900000Y-8825000D02*
G75*
G02*
X9100000Y-8625000I200000J0D01*
G01*
X13030854Y-15528693D02*
X12994146Y-15871307D01*
X12829716Y-7925000D02*
X14277762Y-7925000D01*
X16548444Y-7425000D02*
G75*
G02*
X16746895Y-7600193I-4J-200000D01*
G01*
X20275000Y-8325000D02*
G75*
G02*
X20475000Y-8525000I0J-200000D01*
G01*
X12630854Y-8103693D02*
G75*
G02*
X12829716Y-7924996I198866J-21307D01*
G01*
X9100000Y-8625000D02*
X12395284Y-8625000D01*
X16746899Y-7600193D02*
X16778101Y-7849807D01*
X16976556Y-8025000D02*
X18443850Y-8025000D01*
X14899450Y-15020332D02*
X14875550Y-15179668D01*
X18637877Y-8176487D02*
X18675010Y-8325000D01*
X8900000Y-15850000D02*
X8900000Y-8825000D01*
X16372533Y-17321710D02*
X16328772Y-15046155D01*
X18443850Y-8025000D02*
G75*
G02*
X18637877Y-8176487I0J-200000D01*
G01*
X20533787Y-15808614D02*
X22819739Y-18087858D01*
X22812352Y-18378116D02*
X21504261Y-19555925D01*
X16128809Y-14850000D02*
X15097237Y-14850000D01*
X14899450Y-15020332D02*
G75*
G02*
X15097237Y-14849997I197790J-29668D01*
G01*
X12994146Y-15871307D02*
G75*
G02*
X12795284Y-16050004I-198866J21307D01*
G01*
X14499450Y-7595332D02*
G75*
G02*
X14697237Y-7424997I197790J-29668D01*
G01*
X18675010Y-8325000D02*
X20275000Y-8325000D01*
X9100000Y-16050000D02*
X12795284Y-16050000D01*
X12594146Y-8446307D02*
G75*
G02*
X12395284Y-8625004I-198866J21307D01*
G01*
X21504261Y-19555925D02*
G75*
G02*
X21290584Y-19590659I-133821J148625D01*
G01*
X14475550Y-7754668D02*
G75*
G02*
X14277762Y-7925002I-197790J29668D01*
G01*
X20533787Y-15808614D02*
G75*
G02*
X20474996Y-15666985I141213J141634D01*
G01*
X16128809Y-14850000D02*
G75*
G02*
X16328773Y-15046155I1J-200000D01*
G01*
X12594146Y-8446307D02*
X12630854Y-8103693D01*
X14475550Y-7754668D02*
X14499450Y-7595332D01*
D11*
D12*
X10280000Y-14080000D02*
X10320000Y-14120000D01*
X10320000Y-14080000D02*
X10280000Y-14120000D01*
X10330000Y-10530000D02*
X10370000Y-10570000D01*
X10370000Y-10530000D02*
X10330000Y-10570000D01*
X10330000Y-11780000D02*
X10370000Y-11820000D01*
X10370000Y-11780000D02*
X10330000Y-11820000D01*
X10330000Y-12280000D02*
X10370000Y-12320000D01*
X10370000Y-12280000D02*
X10330000Y-12320000D01*
X10330000Y-13530000D02*
X10370000Y-13570000D01*
X10370000Y-13530000D02*
X10330000Y-13570000D01*
X10330000Y-15330000D02*
X10370000Y-15370000D01*
X10370000Y-15330000D02*
X10330000Y-15370000D01*
X11580000Y-10230000D02*
X11620000Y-10270000D01*
X11620000Y-10230000D02*
X11580000Y-10270000D01*
X11630000Y-8730000D02*
X11670000Y-8770000D01*
X11670000Y-8730000D02*
X11630000Y-8770000D01*
X12130000Y-9430000D02*
X12170000Y-9470000D01*
X12170000Y-9430000D02*
X12130000Y-9470000D01*
X12130000Y-9980000D02*
X12170000Y-10020000D01*
X12170000Y-9980000D02*
X12130000Y-10020000D01*
X12180000Y-10530000D02*
X12220000Y-10570000D01*
X12220000Y-10530000D02*
X12180000Y-10570000D01*
X12180000Y-11780000D02*
X12220000Y-11820000D01*
X12220000Y-11780000D02*
X12180000Y-11820000D01*
X12430000Y-12030000D02*
X12470000Y-12070000D01*
X12470000Y-12030000D02*
X12430000Y-12070000D01*
X12430000Y-13730000D02*
X12470000Y-13770000D01*
X12470000Y-13730000D02*
X12430000Y-13770000D01*
X12430000Y-15530000D02*
X12470000Y-15570000D01*
X12470000Y-15530000D02*
X12430000Y-15570000D01*
X14130000Y-8130000D02*
X14170000Y-8170000D01*
X14170000Y-8130000D02*
X14130000Y-8170000D01*
X14280000Y-9430000D02*
X14320000Y-9470000D01*
X14320000Y-9430000D02*
X14280000Y-9470000D01*
X14280000Y-9530000D02*
X14320000Y-9570000D01*
X14320000Y-9530000D02*
X14280000Y-9570000D01*
X14280000Y-11280000D02*
X14320000Y-11320000D01*
X14320000Y-11280000D02*
X14280000Y-11320000D01*
X14280000Y-13130000D02*
X14320000Y-13170000D01*
X14320000Y-13130000D02*
X14280000Y-13170000D01*
X14330000Y-14880000D02*
X14370000Y-14920000D01*
X14370000Y-14880000D02*
X14330000Y-14920000D01*
X14380000Y-10980000D02*
X14420000Y-11020000D01*
X14420000Y-10980000D02*
X14380000Y-11020000D01*
X14380000Y-11930000D02*
X14420000Y-11970000D01*
X14420000Y-11930000D02*
X14380000Y-11970000D01*
X15330000Y-14130000D02*
X15370000Y-14170000D01*
X15370000Y-14130000D02*
X15330000Y-14170000D01*
X16130000Y-14380000D02*
X16170000Y-14420000D01*
X16170000Y-14380000D02*
X16130000Y-14420000D01*
X16180000Y-9030000D02*
X16220000Y-9070000D01*
X16220000Y-9030000D02*
X16180000Y-9070000D01*
X16180000Y-10780000D02*
X16220000Y-10820000D01*
X16220000Y-10780000D02*
X16180000Y-10820000D01*
X16180000Y-12630000D02*
X16220000Y-12670000D01*
X16220000Y-12630000D02*
X16180000Y-12670000D01*
X16380000Y-11130000D02*
X16420000Y-11170000D01*
X16420000Y-11130000D02*
X16380000Y-11170000D01*
X16380000Y-11680000D02*
X16420000Y-11720000D01*
X16420000Y-11680000D02*
X16380000Y-11720000D01*
X16680000Y-8530000D02*
X16720000Y-8570000D01*
X16720000Y-8530000D02*
X16680000Y-8570000D01*
X16680000Y-9880000D02*
X16720000Y-9920000D01*
X16720000Y-9880000D02*
X16680000Y-9920000D01*
X16680000Y-14380000D02*
X16720000Y-14420000D01*
X16720000Y-14380000D02*
X16680000Y-14420000D01*
X16780000Y-8380000D02*
X16820000Y-8420000D01*
X16820000Y-8380000D02*
X16780000Y-8420000D01*
X16780000Y-8880000D02*
X16820000Y-8920000D01*
X16820000Y-8880000D02*
X16780000Y-8920000D01*
X17030000Y-10580000D02*
X17070000Y-10620000D01*
X17070000Y-10580000D02*
X17030000Y-10620000D01*
X17080000Y-13730000D02*
X17120000Y-13770000D01*
X17120000Y-13730000D02*
X17080000Y-13770000D01*
X17280000Y-10480000D02*
X17320000Y-10520000D01*
X17320000Y-10480000D02*
X17280000Y-10520000D01*
X17280000Y-11130000D02*
X17320000Y-11170000D01*
X17320000Y-11130000D02*
X17280000Y-11170000D01*
X17280000Y-14180000D02*
X17320000Y-14220000D01*
X17320000Y-14180000D02*
X17280000Y-14220000D01*
X17280000Y-17580000D02*
X17320000Y-17620000D01*
X17320000Y-17580000D02*
X17280000Y-17620000D01*
X17580000Y-9430000D02*
X17620000Y-9470000D01*
X17620000Y-9430000D02*
X17580000Y-9470000D01*
X17680000Y-14730000D02*
X17720000Y-14770000D01*
X17720000Y-14730000D02*
X17680000Y-14770000D01*
X17699870Y-11607500D02*
X17739870Y-11647500D01*
X17739870Y-11607500D02*
X17699870Y-11647500D01*
X17699870Y-13480000D02*
X17739870Y-13520000D01*
X17739870Y-13480000D02*
X17699870Y-13520000D01*
X17780000Y-11130000D02*
X17820000Y-11170000D01*
X17820000Y-11130000D02*
X17780000Y-11170000D01*
X17830000Y-8380000D02*
X17870000Y-8420000D01*
X17870000Y-8380000D02*
X17830000Y-8420000D01*
X17880000Y-13880000D02*
X17920000Y-13920000D01*
X17920000Y-13880000D02*
X17880000Y-13920000D01*
X17930000Y-12330000D02*
X17970000Y-12370000D01*
X17970000Y-12330000D02*
X17930000Y-12370000D01*
X17980000Y-16930000D02*
X18020000Y-16970000D01*
X18020000Y-16930000D02*
X17980000Y-16970000D01*
X18030000Y-8230000D02*
X18070000Y-8270000D01*
X18070000Y-8230000D02*
X18030000Y-8270000D01*
X18030000Y-9680000D02*
X18070000Y-9720000D01*
X18070000Y-9680000D02*
X18030000Y-9720000D01*
X18030000Y-13130000D02*
X18070000Y-13170000D01*
X18070000Y-13130000D02*
X18030000Y-13170000D01*
X18430000Y-11280000D02*
X18470000Y-11320000D01*
X18470000Y-11280000D02*
X18430000Y-11320000D01*
X18480000Y-16630000D02*
X18520000Y-16670000D01*
X18520000Y-16630000D02*
X18480000Y-16670000D01*
X18580000Y-10530000D02*
X18620000Y-10570000D01*
X18620000Y-10530000D02*
X18580000Y-10570000D01*
X18580000Y-11315000D02*
X18620000Y-11355000D01*
X18620000Y-11315000D02*
X18580000Y-11355000D01*
X19130000Y-10780000D02*
X19170000Y-10820000D01*
X19170000Y-10780000D02*
X19130000Y-10820000D01*
X19230000Y-11430000D02*
X19270000Y-11470000D01*
X19270000Y-11430000D02*
X19230000Y-11470000D01*
X19230000Y-13730000D02*
X19270000Y-13770000D01*
X19270000Y-13730000D02*
X19230000Y-13770000D01*
X19230000Y-17080000D02*
X19270000Y-17120000D01*
X19270000Y-17080000D02*
X19230000Y-17120000D01*
X19280000Y-10630000D02*
X19320000Y-10670000D01*
X19320000Y-10630000D02*
X19280000Y-10670000D01*
X19431265Y-9628735D02*
X19471265Y-9668735D01*
X19471265Y-9628735D02*
X19431265Y-9668735D01*
X19480000Y-15030000D02*
X19520000Y-15070000D01*
X19520000Y-15030000D02*
X19480000Y-15070000D01*
X19730000Y-9080000D02*
X19770000Y-9120000D01*
X19770000Y-9080000D02*
X19730000Y-9120000D01*
X19730000Y-9630000D02*
X19770000Y-9670000D01*
X19770000Y-9630000D02*
X19730000Y-9670000D01*
X19930000Y-9980000D02*
X19970000Y-10020000D01*
X19970000Y-9980000D02*
X19930000Y-10020000D01*
X19930000Y-10780000D02*
X19970000Y-10820000D01*
X19970000Y-10780000D02*
X19930000Y-10820000D01*
X21180000Y-17480000D02*
X21220000Y-17520000D01*
X21220000Y-17480000D02*
X21180000Y-17520000D01*
X21330000Y-17730000D02*
X21370000Y-17770000D01*
X21370000Y-17730000D02*
X21330000Y-17770000D01*
X21430000Y-18530000D02*
X21470000Y-18570000D01*
X21470000Y-18530000D02*
X21430000Y-18570000D01*
X21980000Y-17580000D02*
X22020000Y-17620000D01*
X22020000Y-17580000D02*
X21980000Y-17620000D01*
X14992500Y-11600000D02*
G75*
G02*
X14917500Y-11600000I-37500J0D01*
G01*
X14917500Y-11600000D02*
G75*
G02*
X14992500Y-11600000I37500J0D01*
G01*
X14992500Y-11800000D02*
G75*
G02*
X14917500Y-11800000I-37500J0D01*
G01*
X14917500Y-11800000D02*
G75*
G02*
X14992500Y-11800000I37500J0D01*
G01*
X10780000Y-8894470D02*
X10780000Y-8993530D01*
X10730470Y-8944000D02*
X10829530Y-8944000D01*
X10780000Y-9656470D02*
X10780000Y-9755530D01*
X10730470Y-9706000D02*
X10829530Y-9706000D01*
X10780000Y-11369470D02*
X10780000Y-11468530D01*
X10730470Y-11419000D02*
X10829530Y-11419000D01*
X10780000Y-12131470D02*
X10780000Y-12230530D01*
X10730470Y-12181000D02*
X10829530Y-12181000D01*
X10780000Y-12444470D02*
X10780000Y-12543530D01*
X10730470Y-12494000D02*
X10829530Y-12494000D01*
X10780000Y-13206470D02*
X10780000Y-13305530D01*
X10730470Y-13256000D02*
X10829530Y-13256000D01*
X10780000Y-14919470D02*
X10780000Y-15018530D01*
X10730470Y-14969000D02*
X10829530Y-14969000D01*
X10780000Y-15681470D02*
X10780000Y-15780530D01*
X10730470Y-15731000D02*
X10829530Y-15731000D01*
X12655000Y-9594470D02*
X12655000Y-9693530D01*
X12605470Y-9644000D02*
X12704530Y-9644000D01*
X12655000Y-10356470D02*
X12655000Y-10455530D01*
X12605470Y-10406000D02*
X12704530Y-10406000D01*
X12655000Y-11369470D02*
X12655000Y-11468530D01*
X12605470Y-11419000D02*
X12704530Y-11419000D01*
X12655000Y-12131470D02*
X12655000Y-12230530D01*
X12605470Y-12181000D02*
X12704530Y-12181000D01*
X12655000Y-13144470D02*
X12655000Y-13243530D01*
X12605470Y-13194000D02*
X12704530Y-13194000D01*
X12655000Y-13906470D02*
X12655000Y-14005530D01*
X12605470Y-13956000D02*
X12704530Y-13956000D01*
X12655000Y-14919470D02*
X12655000Y-15018530D01*
X12605470Y-14969000D02*
X12704530Y-14969000D01*
X12655000Y-15681470D02*
X12655000Y-15780530D01*
X12605470Y-15731000D02*
X12704530Y-15731000D01*
X14530000Y-8894470D02*
X14530000Y-8993530D01*
X14480470Y-8944000D02*
X14579530Y-8944000D01*
X14530000Y-9656470D02*
X14530000Y-9755530D01*
X14480470Y-9706000D02*
X14579530Y-9706000D01*
X14530000Y-9969470D02*
X14530000Y-10068530D01*
X14480470Y-10019000D02*
X14579530Y-10019000D01*
X14530000Y-10731470D02*
X14530000Y-10830530D01*
X14480470Y-10781000D02*
X14579530Y-10781000D01*
X14530000Y-12444470D02*
X14530000Y-12543530D01*
X14480470Y-12494000D02*
X14579530Y-12494000D01*
X14530000Y-13206470D02*
X14530000Y-13305530D01*
X14480470Y-13256000D02*
X14579530Y-13256000D01*
X14530000Y-14219470D02*
X14530000Y-14318530D01*
X14480470Y-14269000D02*
X14579530Y-14269000D01*
X14530000Y-14981470D02*
X14530000Y-15080530D01*
X14480470Y-15031000D02*
X14579530Y-15031000D01*
X16405000Y-8494470D02*
X16405000Y-8593530D01*
X16355470Y-8544000D02*
X16454530Y-8544000D01*
X16405000Y-9256470D02*
X16405000Y-9355530D01*
X16355470Y-9306000D02*
X16454530Y-9306000D01*
X16405000Y-10169470D02*
X16405000Y-10268530D01*
X16355470Y-10219000D02*
X16454530Y-10219000D01*
X16405000Y-10931470D02*
X16405000Y-11030530D01*
X16355470Y-10981000D02*
X16454530Y-10981000D01*
X16405000Y-11944470D02*
X16405000Y-12043530D01*
X16355470Y-11994000D02*
X16454530Y-11994000D01*
X16405000Y-12706470D02*
X16405000Y-12805530D01*
X16355470Y-12756000D02*
X16454530Y-12756000D01*
X16405000Y-13819470D02*
X16405000Y-13918530D01*
X16355470Y-13869000D02*
X16454530Y-13869000D01*
X16405000Y-14581470D02*
X16405000Y-14680530D01*
X16355470Y-14631000D02*
X16454530Y-14631000D01*
X18255000Y-16319470D02*
X18255000Y-16418530D01*
X18205470Y-16369000D02*
X18304530Y-16369000D01*
X18255000Y-17081470D02*
X18255000Y-17180530D01*
X18205470Y-17131000D02*
X18304530Y-17131000D01*
X18280000Y-8994470D02*
X18280000Y-9093530D01*
X18230470Y-9044000D02*
X18329530Y-9044000D01*
X18280000Y-9756470D02*
X18280000Y-9855530D01*
X18230470Y-9806000D02*
X18329530Y-9806000D01*
X18280000Y-10769470D02*
X18280000Y-10868530D01*
X18230470Y-10819000D02*
X18329530Y-10819000D01*
X18280000Y-11531470D02*
X18280000Y-11630530D01*
X18230470Y-11581000D02*
X18329530Y-11581000D01*
X18280000Y-12544470D02*
X18280000Y-12643530D01*
X18230470Y-12594000D02*
X18329530Y-12594000D01*
X18280000Y-13306470D02*
X18280000Y-13405530D01*
X18230470Y-13356000D02*
X18329530Y-13356000D01*
X18280000Y-14319470D02*
X18280000Y-14418530D01*
X18230470Y-14369000D02*
X18329530Y-14369000D01*
X18280000Y-15081470D02*
X18280000Y-15180530D01*
X18230470Y-15131000D02*
X18329530Y-15131000D01*
X20069901Y-17760311D02*
X20069901Y-17859371D01*
X20020371Y-17809841D02*
X20119431Y-17809841D01*
X20155000Y-10544470D02*
X20155000Y-10643530D01*
X20105470Y-10594000D02*
X20204530Y-10594000D01*
X20155000Y-11306470D02*
X20155000Y-11405530D01*
X20105470Y-11356000D02*
X20204530Y-11356000D01*
X20155000Y-11669470D02*
X20155000Y-11768530D01*
X20105470Y-11719000D02*
X20204530Y-11719000D01*
X20155000Y-12431470D02*
X20155000Y-12530530D01*
X20105470Y-12481000D02*
X20204530Y-12481000D01*
X20155000Y-12844470D02*
X20155000Y-12943530D01*
X20105470Y-12894000D02*
X20204530Y-12894000D01*
X20155000Y-13606470D02*
X20155000Y-13705530D01*
X20105470Y-13656000D02*
X20204530Y-13656000D01*
X20155000Y-14619470D02*
X20155000Y-14718530D01*
X20105470Y-14669000D02*
X20204530Y-14669000D01*
X20155000Y-15381470D02*
X20155000Y-15480530D01*
X20105470Y-15431000D02*
X20204530Y-15431000D01*
X20330520Y-17044266D02*
X20330520Y-17143326D01*
X20280990Y-17093796D02*
X20380050Y-17093796D01*
X21431542Y-19141270D02*
X21431542Y-19240330D01*
X21382012Y-19190800D02*
X21481072Y-19190800D01*
X21997818Y-18631392D02*
X21997818Y-18730452D01*
X21948288Y-18680922D02*
X22047348Y-18680922D01*
D13*
X17116616Y-8801616D02*
X17116616Y-8724385D01*
X17039385Y-8724385D01*
X17039385Y-8801616D01*
X17116616Y-8801616D01*
X17116616Y-10325616D02*
X17116616Y-10248385D01*
X17039385Y-10248385D01*
X17039385Y-10325616D01*
X17116616Y-10325616D01*
X17370616Y-8801616D02*
X17370616Y-8724385D01*
X17293385Y-8724385D01*
X17293385Y-8801616D01*
X17370616Y-8801616D01*
X17370616Y-10325616D02*
X17370616Y-10248385D01*
X17293385Y-10248385D01*
X17293385Y-10325616D01*
X17370616Y-10325616D01*
X17624616Y-8801616D02*
X17624616Y-8724385D01*
X17547385Y-8724385D01*
X17547385Y-8801616D01*
X17624616Y-8801616D01*
X17624616Y-10325616D02*
X17624616Y-10248385D01*
X17547385Y-10248385D01*
X17547385Y-10325616D01*
X17624616Y-10325616D01*
X17878616Y-8801616D02*
X17878616Y-8724385D01*
X17801385Y-8724385D01*
X17801385Y-8801616D01*
X17878616Y-8801616D01*
X17878616Y-10325616D02*
X17878616Y-10248385D01*
X17801385Y-10248385D01*
X17801385Y-10325616D01*
X17878616Y-10325616D01*
X18132616Y-8801616D02*
X18132616Y-8724385D01*
X18055385Y-8724385D01*
X18055385Y-8801616D01*
X18132616Y-8801616D01*
X18132616Y-10325616D02*
X18132616Y-10248385D01*
X18055385Y-10248385D01*
X18055385Y-10325616D01*
X18132616Y-10325616D01*
X18386616Y-8801616D02*
X18386616Y-8724385D01*
X18309385Y-8724385D01*
X18309385Y-8801616D01*
X18386616Y-8801616D01*
X18386616Y-10325616D02*
X18386616Y-10248385D01*
X18309385Y-10248385D01*
X18309385Y-10325616D01*
X18386616Y-10325616D01*
X18640616Y-8801616D02*
X18640616Y-8724385D01*
X18563385Y-8724385D01*
X18563385Y-8801616D01*
X18640616Y-8801616D01*
X18640616Y-10325616D02*
X18640616Y-10248385D01*
X18563385Y-10248385D01*
X18563385Y-10325616D01*
X18640616Y-10325616D01*
X18894616Y-8801616D02*
X18894616Y-8724385D01*
X18817385Y-8724385D01*
X18817385Y-8801616D01*
X18894616Y-8801616D01*
X18894616Y-10325616D02*
X18894616Y-10248385D01*
X18817385Y-10248385D01*
X18817385Y-10325616D01*
X18894616Y-10325616D01*
X19148616Y-8801616D02*
X19148616Y-8724385D01*
X19071385Y-8724385D01*
X19071385Y-8801616D01*
X19148616Y-8801616D01*
X19148616Y-10325616D02*
X19148616Y-10248385D01*
X19071385Y-10248385D01*
X19071385Y-10325616D01*
X19148616Y-10325616D01*
X19402616Y-8801616D02*
X19402616Y-8724385D01*
X19325385Y-8724385D01*
X19325385Y-8801616D01*
X19402616Y-8801616D01*
X19402616Y-10325616D02*
X19402616Y-10248385D01*
X19325385Y-10248385D01*
X19325385Y-10325616D01*
X19402616Y-10325616D01*
X19656616Y-8801616D02*
X19656616Y-8724385D01*
X19579385Y-8724385D01*
X19579385Y-8801616D01*
X19656616Y-8801616D01*
X19656616Y-10325616D02*
X19656616Y-10248385D01*
X19579385Y-10248385D01*
X19579385Y-10325616D01*
X19656616Y-10325616D01*
X19910616Y-8801616D02*
X19910616Y-8724385D01*
X19833385Y-8724385D01*
X19833385Y-8801616D01*
X19910616Y-8801616D01*
X19910616Y-10325616D02*
X19910616Y-10248385D01*
X19833385Y-10248385D01*
X19833385Y-10325616D01*
X19910616Y-10325616D01*
D11*
X9153277Y-19926278D02*
X9153277Y-19726278D01*
X9153277Y-19726278D02*
X9200896Y-19726278D01*
X9200896Y-19726278D02*
X9229467Y-19735802D01*
X9229467Y-19735802D02*
X9248515Y-19754849D01*
X9248515Y-19754849D02*
X9258039Y-19773897D01*
X9258039Y-19773897D02*
X9267563Y-19811992D01*
X9267563Y-19811992D02*
X9267563Y-19840564D01*
X9267563Y-19840564D02*
X9258039Y-19878659D01*
X9258039Y-19878659D02*
X9248515Y-19897706D01*
X9248515Y-19897706D02*
X9229467Y-19916754D01*
X9229467Y-19916754D02*
X9200896Y-19926278D01*
X9200896Y-19926278D02*
X9153277Y-19926278D01*
X9353277Y-19926278D02*
X9353277Y-19792945D01*
X9353277Y-19831040D02*
X9362801Y-19811992D01*
X9362801Y-19811992D02*
X9372324Y-19802468D01*
X9372324Y-19802468D02*
X9391372Y-19792945D01*
X9391372Y-19792945D02*
X9410420Y-19792945D01*
X9477086Y-19926278D02*
X9477086Y-19792945D01*
X9477086Y-19726278D02*
X9467563Y-19735802D01*
X9467563Y-19735802D02*
X9477086Y-19745326D01*
X9477086Y-19745326D02*
X9486610Y-19735802D01*
X9486610Y-19735802D02*
X9477086Y-19726278D01*
X9477086Y-19726278D02*
X9477086Y-19745326D01*
X9600896Y-19926278D02*
X9581848Y-19916754D01*
X9581848Y-19916754D02*
X9572324Y-19897706D01*
X9572324Y-19897706D02*
X9572324Y-19726278D01*
X9705658Y-19926278D02*
X9686610Y-19916754D01*
X9686610Y-19916754D02*
X9677086Y-19897706D01*
X9677086Y-19897706D02*
X9677086Y-19726278D01*
X9934229Y-19926278D02*
X9934229Y-19726278D01*
X9934229Y-19726278D02*
X10000896Y-19869135D01*
X10000896Y-19869135D02*
X10067563Y-19726278D01*
X10067563Y-19726278D02*
X10067563Y-19926278D01*
X10248515Y-19926278D02*
X10248515Y-19821516D01*
X10248515Y-19821516D02*
X10238991Y-19802468D01*
X10238991Y-19802468D02*
X10219944Y-19792945D01*
X10219944Y-19792945D02*
X10181848Y-19792945D01*
X10181848Y-19792945D02*
X10162801Y-19802468D01*
X10248515Y-19916754D02*
X10229467Y-19926278D01*
X10229467Y-19926278D02*
X10181848Y-19926278D01*
X10181848Y-19926278D02*
X10162801Y-19916754D01*
X10162801Y-19916754D02*
X10153277Y-19897706D01*
X10153277Y-19897706D02*
X10153277Y-19878659D01*
X10153277Y-19878659D02*
X10162801Y-19859611D01*
X10162801Y-19859611D02*
X10181848Y-19850087D01*
X10181848Y-19850087D02*
X10229467Y-19850087D01*
X10229467Y-19850087D02*
X10248515Y-19840564D01*
X10343753Y-19792945D02*
X10343753Y-19992945D01*
X10343753Y-19802468D02*
X10362801Y-19792945D01*
X10362801Y-19792945D02*
X10400896Y-19792945D01*
X10400896Y-19792945D02*
X10419944Y-19802468D01*
X10419944Y-19802468D02*
X10429467Y-19811992D01*
X10429467Y-19811992D02*
X10438991Y-19831040D01*
X10438991Y-19831040D02*
X10438991Y-19888183D01*
X10438991Y-19888183D02*
X10429467Y-19907230D01*
X10429467Y-19907230D02*
X10419944Y-19916754D01*
X10419944Y-19916754D02*
X10400896Y-19926278D01*
X10400896Y-19926278D02*
X10362801Y-19926278D01*
X10362801Y-19926278D02*
X10343753Y-19916754D01*
X10524705Y-19907230D02*
X10534229Y-19916754D01*
X10534229Y-19916754D02*
X10524705Y-19926278D01*
X10524705Y-19926278D02*
X10515182Y-19916754D01*
X10515182Y-19916754D02*
X10524705Y-19907230D01*
X10524705Y-19907230D02*
X10524705Y-19926278D01*
X10524705Y-19802468D02*
X10534229Y-19811992D01*
X10534229Y-19811992D02*
X10524705Y-19821516D01*
X10524705Y-19821516D02*
X10515182Y-19811992D01*
X10515182Y-19811992D02*
X10524705Y-19802468D01*
X10524705Y-19802468D02*
X10524705Y-19821516D01*
D12*
X8852500Y-20234794D02*
X8892500Y-20274794D01*
X8892500Y-20234794D02*
X8852500Y-20274794D01*
D11*
X9191372Y-20146278D02*
X9210420Y-20146278D01*
X9210420Y-20146278D02*
X9229467Y-20155802D01*
X9229467Y-20155802D02*
X9238991Y-20165326D01*
X9238991Y-20165326D02*
X9248515Y-20184373D01*
X9248515Y-20184373D02*
X9258039Y-20222468D01*
X9258039Y-20222468D02*
X9258039Y-20270087D01*
X9258039Y-20270087D02*
X9248515Y-20308183D01*
X9248515Y-20308183D02*
X9238991Y-20327230D01*
X9238991Y-20327230D02*
X9229467Y-20336754D01*
X9229467Y-20336754D02*
X9210420Y-20346278D01*
X9210420Y-20346278D02*
X9191372Y-20346278D01*
X9191372Y-20346278D02*
X9172324Y-20336754D01*
X9172324Y-20336754D02*
X9162801Y-20327230D01*
X9162801Y-20327230D02*
X9153277Y-20308183D01*
X9153277Y-20308183D02*
X9143753Y-20270087D01*
X9143753Y-20270087D02*
X9143753Y-20222468D01*
X9143753Y-20222468D02*
X9153277Y-20184373D01*
X9153277Y-20184373D02*
X9162801Y-20165326D01*
X9162801Y-20165326D02*
X9172324Y-20155802D01*
X9172324Y-20155802D02*
X9191372Y-20146278D01*
X9343753Y-20327230D02*
X9353277Y-20336754D01*
X9353277Y-20336754D02*
X9343753Y-20346278D01*
X9343753Y-20346278D02*
X9334229Y-20336754D01*
X9334229Y-20336754D02*
X9343753Y-20327230D01*
X9343753Y-20327230D02*
X9343753Y-20346278D01*
X9524705Y-20212945D02*
X9524705Y-20346278D01*
X9477086Y-20136754D02*
X9429467Y-20279611D01*
X9429467Y-20279611D02*
X9553277Y-20279611D01*
X9667563Y-20146278D02*
X9686610Y-20146278D01*
X9686610Y-20146278D02*
X9705658Y-20155802D01*
X9705658Y-20155802D02*
X9715182Y-20165326D01*
X9715182Y-20165326D02*
X9724705Y-20184373D01*
X9724705Y-20184373D02*
X9734229Y-20222468D01*
X9734229Y-20222468D02*
X9734229Y-20270087D01*
X9734229Y-20270087D02*
X9724705Y-20308183D01*
X9724705Y-20308183D02*
X9715182Y-20327230D01*
X9715182Y-20327230D02*
X9705658Y-20336754D01*
X9705658Y-20336754D02*
X9686610Y-20346278D01*
X9686610Y-20346278D02*
X9667563Y-20346278D01*
X9667563Y-20346278D02*
X9648515Y-20336754D01*
X9648515Y-20336754D02*
X9638991Y-20327230D01*
X9638991Y-20327230D02*
X9629467Y-20308183D01*
X9629467Y-20308183D02*
X9619944Y-20270087D01*
X9619944Y-20270087D02*
X9619944Y-20222468D01*
X9619944Y-20222468D02*
X9629467Y-20184373D01*
X9629467Y-20184373D02*
X9638991Y-20165326D01*
X9638991Y-20165326D02*
X9648515Y-20155802D01*
X9648515Y-20155802D02*
X9667563Y-20146278D01*
X9858039Y-20146278D02*
X9877086Y-20146278D01*
X9877086Y-20146278D02*
X9896134Y-20155802D01*
X9896134Y-20155802D02*
X9905658Y-20165326D01*
X9905658Y-20165326D02*
X9915182Y-20184373D01*
X9915182Y-20184373D02*
X9924705Y-20222468D01*
X9924705Y-20222468D02*
X9924705Y-20270087D01*
X9924705Y-20270087D02*
X9915182Y-20308183D01*
X9915182Y-20308183D02*
X9905658Y-20327230D01*
X9905658Y-20327230D02*
X9896134Y-20336754D01*
X9896134Y-20336754D02*
X9877086Y-20346278D01*
X9877086Y-20346278D02*
X9858039Y-20346278D01*
X9858039Y-20346278D02*
X9838991Y-20336754D01*
X9838991Y-20336754D02*
X9829467Y-20327230D01*
X9829467Y-20327230D02*
X9819944Y-20308183D01*
X9819944Y-20308183D02*
X9810420Y-20270087D01*
X9810420Y-20270087D02*
X9810420Y-20222468D01*
X9810420Y-20222468D02*
X9819944Y-20184373D01*
X9819944Y-20184373D02*
X9829467Y-20165326D01*
X9829467Y-20165326D02*
X9838991Y-20155802D01*
X9838991Y-20155802D02*
X9858039Y-20146278D01*
X10010420Y-20346278D02*
X10010420Y-20212945D01*
X10010420Y-20231992D02*
X10019944Y-20222468D01*
X10019944Y-20222468D02*
X10038991Y-20212945D01*
X10038991Y-20212945D02*
X10067563Y-20212945D01*
X10067563Y-20212945D02*
X10086610Y-20222468D01*
X10086610Y-20222468D02*
X10096134Y-20241516D01*
X10096134Y-20241516D02*
X10096134Y-20346278D01*
X10096134Y-20241516D02*
X10105658Y-20222468D01*
X10105658Y-20222468D02*
X10124705Y-20212945D01*
X10124705Y-20212945D02*
X10153277Y-20212945D01*
X10153277Y-20212945D02*
X10172325Y-20222468D01*
X10172325Y-20222468D02*
X10181848Y-20241516D01*
X10181848Y-20241516D02*
X10181848Y-20346278D01*
X10277086Y-20346278D02*
X10277086Y-20212945D01*
X10277086Y-20231992D02*
X10286610Y-20222468D01*
X10286610Y-20222468D02*
X10305658Y-20212945D01*
X10305658Y-20212945D02*
X10334229Y-20212945D01*
X10334229Y-20212945D02*
X10353277Y-20222468D01*
X10353277Y-20222468D02*
X10362801Y-20241516D01*
X10362801Y-20241516D02*
X10362801Y-20346278D01*
X10362801Y-20241516D02*
X10372325Y-20222468D01*
X10372325Y-20222468D02*
X10391372Y-20212945D01*
X10391372Y-20212945D02*
X10419944Y-20212945D01*
X10419944Y-20212945D02*
X10438991Y-20222468D01*
X10438991Y-20222468D02*
X10448515Y-20241516D01*
X10448515Y-20241516D02*
X10448515Y-20346278D01*
X10838991Y-20136754D02*
X10667563Y-20393897D01*
X11096134Y-20146278D02*
X11115182Y-20146278D01*
X11115182Y-20146278D02*
X11134229Y-20155802D01*
X11134229Y-20155802D02*
X11143753Y-20165326D01*
X11143753Y-20165326D02*
X11153277Y-20184373D01*
X11153277Y-20184373D02*
X11162801Y-20222468D01*
X11162801Y-20222468D02*
X11162801Y-20270087D01*
X11162801Y-20270087D02*
X11153277Y-20308183D01*
X11153277Y-20308183D02*
X11143753Y-20327230D01*
X11143753Y-20327230D02*
X11134229Y-20336754D01*
X11134229Y-20336754D02*
X11115182Y-20346278D01*
X11115182Y-20346278D02*
X11096134Y-20346278D01*
X11096134Y-20346278D02*
X11077087Y-20336754D01*
X11077087Y-20336754D02*
X11067563Y-20327230D01*
X11067563Y-20327230D02*
X11058039Y-20308183D01*
X11058039Y-20308183D02*
X11048515Y-20270087D01*
X11048515Y-20270087D02*
X11048515Y-20222468D01*
X11048515Y-20222468D02*
X11058039Y-20184373D01*
X11058039Y-20184373D02*
X11067563Y-20165326D01*
X11067563Y-20165326D02*
X11077087Y-20155802D01*
X11077087Y-20155802D02*
X11096134Y-20146278D01*
X11248515Y-20327230D02*
X11258039Y-20336754D01*
X11258039Y-20336754D02*
X11248515Y-20346278D01*
X11248515Y-20346278D02*
X11238991Y-20336754D01*
X11238991Y-20336754D02*
X11248515Y-20327230D01*
X11248515Y-20327230D02*
X11248515Y-20346278D01*
X11381848Y-20146278D02*
X11400896Y-20146278D01*
X11400896Y-20146278D02*
X11419944Y-20155802D01*
X11419944Y-20155802D02*
X11429467Y-20165326D01*
X11429467Y-20165326D02*
X11438991Y-20184373D01*
X11438991Y-20184373D02*
X11448515Y-20222468D01*
X11448515Y-20222468D02*
X11448515Y-20270087D01*
X11448515Y-20270087D02*
X11438991Y-20308183D01*
X11438991Y-20308183D02*
X11429467Y-20327230D01*
X11429467Y-20327230D02*
X11419944Y-20336754D01*
X11419944Y-20336754D02*
X11400896Y-20346278D01*
X11400896Y-20346278D02*
X11381848Y-20346278D01*
X11381848Y-20346278D02*
X11362801Y-20336754D01*
X11362801Y-20336754D02*
X11353277Y-20327230D01*
X11353277Y-20327230D02*
X11343753Y-20308183D01*
X11343753Y-20308183D02*
X11334229Y-20270087D01*
X11334229Y-20270087D02*
X11334229Y-20222468D01*
X11334229Y-20222468D02*
X11343753Y-20184373D01*
X11343753Y-20184373D02*
X11353277Y-20165326D01*
X11353277Y-20165326D02*
X11362801Y-20155802D01*
X11362801Y-20155802D02*
X11381848Y-20146278D01*
X11638991Y-20346278D02*
X11524706Y-20346278D01*
X11581848Y-20346278D02*
X11581848Y-20146278D01*
X11581848Y-20146278D02*
X11562801Y-20174849D01*
X11562801Y-20174849D02*
X11543753Y-20193897D01*
X11543753Y-20193897D02*
X11524706Y-20203421D01*
X11819944Y-20146278D02*
X11724706Y-20146278D01*
X11724706Y-20146278D02*
X11715182Y-20241516D01*
X11715182Y-20241516D02*
X11724706Y-20231992D01*
X11724706Y-20231992D02*
X11743753Y-20222468D01*
X11743753Y-20222468D02*
X11791372Y-20222468D01*
X11791372Y-20222468D02*
X11810420Y-20231992D01*
X11810420Y-20231992D02*
X11819944Y-20241516D01*
X11819944Y-20241516D02*
X11829467Y-20260564D01*
X11829467Y-20260564D02*
X11829467Y-20308183D01*
X11829467Y-20308183D02*
X11819944Y-20327230D01*
X11819944Y-20327230D02*
X11810420Y-20336754D01*
X11810420Y-20336754D02*
X11791372Y-20346278D01*
X11791372Y-20346278D02*
X11743753Y-20346278D01*
X11743753Y-20346278D02*
X11724706Y-20336754D01*
X11724706Y-20336754D02*
X11715182Y-20327230D01*
X11896134Y-20146278D02*
X12029467Y-20146278D01*
X12029467Y-20146278D02*
X11943753Y-20346278D01*
X12096134Y-20146278D02*
X12096134Y-20184373D01*
X12172325Y-20146278D02*
X12172325Y-20184373D01*
X12467563Y-20422468D02*
X12458039Y-20412945D01*
X12458039Y-20412945D02*
X12438991Y-20384373D01*
X12438991Y-20384373D02*
X12429468Y-20365326D01*
X12429468Y-20365326D02*
X12419944Y-20336754D01*
X12419944Y-20336754D02*
X12410420Y-20289135D01*
X12410420Y-20289135D02*
X12410420Y-20251040D01*
X12410420Y-20251040D02*
X12419944Y-20203421D01*
X12419944Y-20203421D02*
X12429468Y-20174849D01*
X12429468Y-20174849D02*
X12438991Y-20155802D01*
X12438991Y-20155802D02*
X12458039Y-20127230D01*
X12458039Y-20127230D02*
X12467563Y-20117706D01*
X12524706Y-20146278D02*
X12658039Y-20146278D01*
X12658039Y-20146278D02*
X12572325Y-20346278D01*
X12724706Y-20165326D02*
X12734229Y-20155802D01*
X12734229Y-20155802D02*
X12753277Y-20146278D01*
X12753277Y-20146278D02*
X12800896Y-20146278D01*
X12800896Y-20146278D02*
X12819944Y-20155802D01*
X12819944Y-20155802D02*
X12829468Y-20165326D01*
X12829468Y-20165326D02*
X12838991Y-20184373D01*
X12838991Y-20184373D02*
X12838991Y-20203421D01*
X12838991Y-20203421D02*
X12829468Y-20231992D01*
X12829468Y-20231992D02*
X12715182Y-20346278D01*
X12715182Y-20346278D02*
X12838991Y-20346278D01*
X13077087Y-20346278D02*
X13077087Y-20146278D01*
X13162801Y-20346278D02*
X13162801Y-20241516D01*
X13162801Y-20241516D02*
X13153277Y-20222468D01*
X13153277Y-20222468D02*
X13134230Y-20212945D01*
X13134230Y-20212945D02*
X13105658Y-20212945D01*
X13105658Y-20212945D02*
X13086610Y-20222468D01*
X13086610Y-20222468D02*
X13077087Y-20231992D01*
X13286610Y-20346278D02*
X13267563Y-20336754D01*
X13267563Y-20336754D02*
X13258039Y-20327230D01*
X13258039Y-20327230D02*
X13248515Y-20308183D01*
X13248515Y-20308183D02*
X13248515Y-20251040D01*
X13248515Y-20251040D02*
X13258039Y-20231992D01*
X13258039Y-20231992D02*
X13267563Y-20222468D01*
X13267563Y-20222468D02*
X13286610Y-20212945D01*
X13286610Y-20212945D02*
X13315182Y-20212945D01*
X13315182Y-20212945D02*
X13334230Y-20222468D01*
X13334230Y-20222468D02*
X13343753Y-20231992D01*
X13343753Y-20231992D02*
X13353277Y-20251040D01*
X13353277Y-20251040D02*
X13353277Y-20308183D01*
X13353277Y-20308183D02*
X13343753Y-20327230D01*
X13343753Y-20327230D02*
X13334230Y-20336754D01*
X13334230Y-20336754D02*
X13315182Y-20346278D01*
X13315182Y-20346278D02*
X13286610Y-20346278D01*
X13467563Y-20346278D02*
X13448515Y-20336754D01*
X13448515Y-20336754D02*
X13438991Y-20317706D01*
X13438991Y-20317706D02*
X13438991Y-20146278D01*
X13619944Y-20336754D02*
X13600896Y-20346278D01*
X13600896Y-20346278D02*
X13562801Y-20346278D01*
X13562801Y-20346278D02*
X13543753Y-20336754D01*
X13543753Y-20336754D02*
X13534230Y-20317706D01*
X13534230Y-20317706D02*
X13534230Y-20241516D01*
X13534230Y-20241516D02*
X13543753Y-20222468D01*
X13543753Y-20222468D02*
X13562801Y-20212945D01*
X13562801Y-20212945D02*
X13600896Y-20212945D01*
X13600896Y-20212945D02*
X13619944Y-20222468D01*
X13619944Y-20222468D02*
X13629468Y-20241516D01*
X13629468Y-20241516D02*
X13629468Y-20260564D01*
X13629468Y-20260564D02*
X13534230Y-20279611D01*
X13705658Y-20336754D02*
X13724706Y-20346278D01*
X13724706Y-20346278D02*
X13762801Y-20346278D01*
X13762801Y-20346278D02*
X13781849Y-20336754D01*
X13781849Y-20336754D02*
X13791372Y-20317706D01*
X13791372Y-20317706D02*
X13791372Y-20308183D01*
X13791372Y-20308183D02*
X13781849Y-20289135D01*
X13781849Y-20289135D02*
X13762801Y-20279611D01*
X13762801Y-20279611D02*
X13734230Y-20279611D01*
X13734230Y-20279611D02*
X13715182Y-20270087D01*
X13715182Y-20270087D02*
X13705658Y-20251040D01*
X13705658Y-20251040D02*
X13705658Y-20241516D01*
X13705658Y-20241516D02*
X13715182Y-20222468D01*
X13715182Y-20222468D02*
X13734230Y-20212945D01*
X13734230Y-20212945D02*
X13762801Y-20212945D01*
X13762801Y-20212945D02*
X13781849Y-20222468D01*
X13858039Y-20422468D02*
X13867563Y-20412945D01*
X13867563Y-20412945D02*
X13886611Y-20384373D01*
X13886611Y-20384373D02*
X13896134Y-20365326D01*
X13896134Y-20365326D02*
X13905658Y-20336754D01*
X13905658Y-20336754D02*
X13915182Y-20289135D01*
X13915182Y-20289135D02*
X13915182Y-20251040D01*
X13915182Y-20251040D02*
X13905658Y-20203421D01*
X13905658Y-20203421D02*
X13896134Y-20174849D01*
X13896134Y-20174849D02*
X13886611Y-20155802D01*
X13886611Y-20155802D02*
X13867563Y-20127230D01*
X13867563Y-20127230D02*
X13858039Y-20117706D01*
D12*
X8892500Y-20518794D02*
G75*
G02*
X8817500Y-20518794I-37500J0D01*
G01*
X8817500Y-20518794D02*
G75*
G02*
X8892500Y-20518794I37500J0D01*
G01*
D11*
X9191372Y-20410278D02*
X9210420Y-20410278D01*
X9210420Y-20410278D02*
X9229467Y-20419802D01*
X9229467Y-20419802D02*
X9238991Y-20429326D01*
X9238991Y-20429326D02*
X9248515Y-20448373D01*
X9248515Y-20448373D02*
X9258039Y-20486468D01*
X9258039Y-20486468D02*
X9258039Y-20534087D01*
X9258039Y-20534087D02*
X9248515Y-20572183D01*
X9248515Y-20572183D02*
X9238991Y-20591230D01*
X9238991Y-20591230D02*
X9229467Y-20600754D01*
X9229467Y-20600754D02*
X9210420Y-20610278D01*
X9210420Y-20610278D02*
X9191372Y-20610278D01*
X9191372Y-20610278D02*
X9172324Y-20600754D01*
X9172324Y-20600754D02*
X9162801Y-20591230D01*
X9162801Y-20591230D02*
X9153277Y-20572183D01*
X9153277Y-20572183D02*
X9143753Y-20534087D01*
X9143753Y-20534087D02*
X9143753Y-20486468D01*
X9143753Y-20486468D02*
X9153277Y-20448373D01*
X9153277Y-20448373D02*
X9162801Y-20429326D01*
X9162801Y-20429326D02*
X9172324Y-20419802D01*
X9172324Y-20419802D02*
X9191372Y-20410278D01*
X9343753Y-20591230D02*
X9353277Y-20600754D01*
X9353277Y-20600754D02*
X9343753Y-20610278D01*
X9343753Y-20610278D02*
X9334229Y-20600754D01*
X9334229Y-20600754D02*
X9343753Y-20591230D01*
X9343753Y-20591230D02*
X9343753Y-20610278D01*
X9419944Y-20410278D02*
X9553277Y-20410278D01*
X9553277Y-20410278D02*
X9467563Y-20610278D01*
X9724705Y-20410278D02*
X9629467Y-20410278D01*
X9629467Y-20410278D02*
X9619944Y-20505516D01*
X9619944Y-20505516D02*
X9629467Y-20495992D01*
X9629467Y-20495992D02*
X9648515Y-20486468D01*
X9648515Y-20486468D02*
X9696134Y-20486468D01*
X9696134Y-20486468D02*
X9715182Y-20495992D01*
X9715182Y-20495992D02*
X9724705Y-20505516D01*
X9724705Y-20505516D02*
X9734229Y-20524564D01*
X9734229Y-20524564D02*
X9734229Y-20572183D01*
X9734229Y-20572183D02*
X9724705Y-20591230D01*
X9724705Y-20591230D02*
X9715182Y-20600754D01*
X9715182Y-20600754D02*
X9696134Y-20610278D01*
X9696134Y-20610278D02*
X9648515Y-20610278D01*
X9648515Y-20610278D02*
X9629467Y-20600754D01*
X9629467Y-20600754D02*
X9619944Y-20591230D01*
X9858039Y-20410278D02*
X9877086Y-20410278D01*
X9877086Y-20410278D02*
X9896134Y-20419802D01*
X9896134Y-20419802D02*
X9905658Y-20429326D01*
X9905658Y-20429326D02*
X9915182Y-20448373D01*
X9915182Y-20448373D02*
X9924705Y-20486468D01*
X9924705Y-20486468D02*
X9924705Y-20534087D01*
X9924705Y-20534087D02*
X9915182Y-20572183D01*
X9915182Y-20572183D02*
X9905658Y-20591230D01*
X9905658Y-20591230D02*
X9896134Y-20600754D01*
X9896134Y-20600754D02*
X9877086Y-20610278D01*
X9877086Y-20610278D02*
X9858039Y-20610278D01*
X9858039Y-20610278D02*
X9838991Y-20600754D01*
X9838991Y-20600754D02*
X9829467Y-20591230D01*
X9829467Y-20591230D02*
X9819944Y-20572183D01*
X9819944Y-20572183D02*
X9810420Y-20534087D01*
X9810420Y-20534087D02*
X9810420Y-20486468D01*
X9810420Y-20486468D02*
X9819944Y-20448373D01*
X9819944Y-20448373D02*
X9829467Y-20429326D01*
X9829467Y-20429326D02*
X9838991Y-20419802D01*
X9838991Y-20419802D02*
X9858039Y-20410278D01*
X10010420Y-20610278D02*
X10010420Y-20476945D01*
X10010420Y-20495992D02*
X10019944Y-20486468D01*
X10019944Y-20486468D02*
X10038991Y-20476945D01*
X10038991Y-20476945D02*
X10067563Y-20476945D01*
X10067563Y-20476945D02*
X10086610Y-20486468D01*
X10086610Y-20486468D02*
X10096134Y-20505516D01*
X10096134Y-20505516D02*
X10096134Y-20610278D01*
X10096134Y-20505516D02*
X10105658Y-20486468D01*
X10105658Y-20486468D02*
X10124705Y-20476945D01*
X10124705Y-20476945D02*
X10153277Y-20476945D01*
X10153277Y-20476945D02*
X10172325Y-20486468D01*
X10172325Y-20486468D02*
X10181848Y-20505516D01*
X10181848Y-20505516D02*
X10181848Y-20610278D01*
X10277086Y-20610278D02*
X10277086Y-20476945D01*
X10277086Y-20495992D02*
X10286610Y-20486468D01*
X10286610Y-20486468D02*
X10305658Y-20476945D01*
X10305658Y-20476945D02*
X10334229Y-20476945D01*
X10334229Y-20476945D02*
X10353277Y-20486468D01*
X10353277Y-20486468D02*
X10362801Y-20505516D01*
X10362801Y-20505516D02*
X10362801Y-20610278D01*
X10362801Y-20505516D02*
X10372325Y-20486468D01*
X10372325Y-20486468D02*
X10391372Y-20476945D01*
X10391372Y-20476945D02*
X10419944Y-20476945D01*
X10419944Y-20476945D02*
X10438991Y-20486468D01*
X10438991Y-20486468D02*
X10448515Y-20505516D01*
X10448515Y-20505516D02*
X10448515Y-20610278D01*
X10838991Y-20400754D02*
X10667563Y-20657897D01*
X11096134Y-20410278D02*
X11115182Y-20410278D01*
X11115182Y-20410278D02*
X11134229Y-20419802D01*
X11134229Y-20419802D02*
X11143753Y-20429326D01*
X11143753Y-20429326D02*
X11153277Y-20448373D01*
X11153277Y-20448373D02*
X11162801Y-20486468D01*
X11162801Y-20486468D02*
X11162801Y-20534087D01*
X11162801Y-20534087D02*
X11153277Y-20572183D01*
X11153277Y-20572183D02*
X11143753Y-20591230D01*
X11143753Y-20591230D02*
X11134229Y-20600754D01*
X11134229Y-20600754D02*
X11115182Y-20610278D01*
X11115182Y-20610278D02*
X11096134Y-20610278D01*
X11096134Y-20610278D02*
X11077087Y-20600754D01*
X11077087Y-20600754D02*
X11067563Y-20591230D01*
X11067563Y-20591230D02*
X11058039Y-20572183D01*
X11058039Y-20572183D02*
X11048515Y-20534087D01*
X11048515Y-20534087D02*
X11048515Y-20486468D01*
X11048515Y-20486468D02*
X11058039Y-20448373D01*
X11058039Y-20448373D02*
X11067563Y-20429326D01*
X11067563Y-20429326D02*
X11077087Y-20419802D01*
X11077087Y-20419802D02*
X11096134Y-20410278D01*
X11248515Y-20591230D02*
X11258039Y-20600754D01*
X11258039Y-20600754D02*
X11248515Y-20610278D01*
X11248515Y-20610278D02*
X11238991Y-20600754D01*
X11238991Y-20600754D02*
X11248515Y-20591230D01*
X11248515Y-20591230D02*
X11248515Y-20610278D01*
X11381848Y-20410278D02*
X11400896Y-20410278D01*
X11400896Y-20410278D02*
X11419944Y-20419802D01*
X11419944Y-20419802D02*
X11429467Y-20429326D01*
X11429467Y-20429326D02*
X11438991Y-20448373D01*
X11438991Y-20448373D02*
X11448515Y-20486468D01*
X11448515Y-20486468D02*
X11448515Y-20534087D01*
X11448515Y-20534087D02*
X11438991Y-20572183D01*
X11438991Y-20572183D02*
X11429467Y-20591230D01*
X11429467Y-20591230D02*
X11419944Y-20600754D01*
X11419944Y-20600754D02*
X11400896Y-20610278D01*
X11400896Y-20610278D02*
X11381848Y-20610278D01*
X11381848Y-20610278D02*
X11362801Y-20600754D01*
X11362801Y-20600754D02*
X11353277Y-20591230D01*
X11353277Y-20591230D02*
X11343753Y-20572183D01*
X11343753Y-20572183D02*
X11334229Y-20534087D01*
X11334229Y-20534087D02*
X11334229Y-20486468D01*
X11334229Y-20486468D02*
X11343753Y-20448373D01*
X11343753Y-20448373D02*
X11353277Y-20429326D01*
X11353277Y-20429326D02*
X11362801Y-20419802D01*
X11362801Y-20419802D02*
X11381848Y-20410278D01*
X11524706Y-20429326D02*
X11534229Y-20419802D01*
X11534229Y-20419802D02*
X11553277Y-20410278D01*
X11553277Y-20410278D02*
X11600896Y-20410278D01*
X11600896Y-20410278D02*
X11619944Y-20419802D01*
X11619944Y-20419802D02*
X11629467Y-20429326D01*
X11629467Y-20429326D02*
X11638991Y-20448373D01*
X11638991Y-20448373D02*
X11638991Y-20467421D01*
X11638991Y-20467421D02*
X11629467Y-20495992D01*
X11629467Y-20495992D02*
X11515182Y-20610278D01*
X11515182Y-20610278D02*
X11638991Y-20610278D01*
X11734229Y-20610278D02*
X11772325Y-20610278D01*
X11772325Y-20610278D02*
X11791372Y-20600754D01*
X11791372Y-20600754D02*
X11800896Y-20591230D01*
X11800896Y-20591230D02*
X11819944Y-20562659D01*
X11819944Y-20562659D02*
X11829467Y-20524564D01*
X11829467Y-20524564D02*
X11829467Y-20448373D01*
X11829467Y-20448373D02*
X11819944Y-20429326D01*
X11819944Y-20429326D02*
X11810420Y-20419802D01*
X11810420Y-20419802D02*
X11791372Y-20410278D01*
X11791372Y-20410278D02*
X11753277Y-20410278D01*
X11753277Y-20410278D02*
X11734229Y-20419802D01*
X11734229Y-20419802D02*
X11724706Y-20429326D01*
X11724706Y-20429326D02*
X11715182Y-20448373D01*
X11715182Y-20448373D02*
X11715182Y-20495992D01*
X11715182Y-20495992D02*
X11724706Y-20515040D01*
X11724706Y-20515040D02*
X11734229Y-20524564D01*
X11734229Y-20524564D02*
X11753277Y-20534087D01*
X11753277Y-20534087D02*
X11791372Y-20534087D01*
X11791372Y-20534087D02*
X11810420Y-20524564D01*
X11810420Y-20524564D02*
X11819944Y-20515040D01*
X11819944Y-20515040D02*
X11829467Y-20495992D01*
X12010420Y-20410278D02*
X11915182Y-20410278D01*
X11915182Y-20410278D02*
X11905658Y-20505516D01*
X11905658Y-20505516D02*
X11915182Y-20495992D01*
X11915182Y-20495992D02*
X11934229Y-20486468D01*
X11934229Y-20486468D02*
X11981848Y-20486468D01*
X11981848Y-20486468D02*
X12000896Y-20495992D01*
X12000896Y-20495992D02*
X12010420Y-20505516D01*
X12010420Y-20505516D02*
X12019944Y-20524564D01*
X12019944Y-20524564D02*
X12019944Y-20572183D01*
X12019944Y-20572183D02*
X12010420Y-20591230D01*
X12010420Y-20591230D02*
X12000896Y-20600754D01*
X12000896Y-20600754D02*
X11981848Y-20610278D01*
X11981848Y-20610278D02*
X11934229Y-20610278D01*
X11934229Y-20610278D02*
X11915182Y-20600754D01*
X11915182Y-20600754D02*
X11905658Y-20591230D01*
X12096134Y-20410278D02*
X12096134Y-20448373D01*
X12172325Y-20410278D02*
X12172325Y-20448373D01*
X12467563Y-20686468D02*
X12458039Y-20676945D01*
X12458039Y-20676945D02*
X12438991Y-20648373D01*
X12438991Y-20648373D02*
X12429468Y-20629326D01*
X12429468Y-20629326D02*
X12419944Y-20600754D01*
X12419944Y-20600754D02*
X12410420Y-20553135D01*
X12410420Y-20553135D02*
X12410420Y-20515040D01*
X12410420Y-20515040D02*
X12419944Y-20467421D01*
X12419944Y-20467421D02*
X12429468Y-20438849D01*
X12429468Y-20438849D02*
X12438991Y-20419802D01*
X12438991Y-20419802D02*
X12458039Y-20391230D01*
X12458039Y-20391230D02*
X12467563Y-20381706D01*
X12534229Y-20429326D02*
X12543753Y-20419802D01*
X12543753Y-20419802D02*
X12562801Y-20410278D01*
X12562801Y-20410278D02*
X12610420Y-20410278D01*
X12610420Y-20410278D02*
X12629468Y-20419802D01*
X12629468Y-20419802D02*
X12638991Y-20429326D01*
X12638991Y-20429326D02*
X12648515Y-20448373D01*
X12648515Y-20448373D02*
X12648515Y-20467421D01*
X12648515Y-20467421D02*
X12638991Y-20495992D01*
X12638991Y-20495992D02*
X12524706Y-20610278D01*
X12524706Y-20610278D02*
X12648515Y-20610278D01*
X12886610Y-20610278D02*
X12886610Y-20410278D01*
X12972325Y-20610278D02*
X12972325Y-20505516D01*
X12972325Y-20505516D02*
X12962801Y-20486468D01*
X12962801Y-20486468D02*
X12943753Y-20476945D01*
X12943753Y-20476945D02*
X12915182Y-20476945D01*
X12915182Y-20476945D02*
X12896134Y-20486468D01*
X12896134Y-20486468D02*
X12886610Y-20495992D01*
X13096134Y-20610278D02*
X13077087Y-20600754D01*
X13077087Y-20600754D02*
X13067563Y-20591230D01*
X13067563Y-20591230D02*
X13058039Y-20572183D01*
X13058039Y-20572183D02*
X13058039Y-20515040D01*
X13058039Y-20515040D02*
X13067563Y-20495992D01*
X13067563Y-20495992D02*
X13077087Y-20486468D01*
X13077087Y-20486468D02*
X13096134Y-20476945D01*
X13096134Y-20476945D02*
X13124706Y-20476945D01*
X13124706Y-20476945D02*
X13143753Y-20486468D01*
X13143753Y-20486468D02*
X13153277Y-20495992D01*
X13153277Y-20495992D02*
X13162801Y-20515040D01*
X13162801Y-20515040D02*
X13162801Y-20572183D01*
X13162801Y-20572183D02*
X13153277Y-20591230D01*
X13153277Y-20591230D02*
X13143753Y-20600754D01*
X13143753Y-20600754D02*
X13124706Y-20610278D01*
X13124706Y-20610278D02*
X13096134Y-20610278D01*
X13277087Y-20610278D02*
X13258039Y-20600754D01*
X13258039Y-20600754D02*
X13248515Y-20581706D01*
X13248515Y-20581706D02*
X13248515Y-20410278D01*
X13429468Y-20600754D02*
X13410420Y-20610278D01*
X13410420Y-20610278D02*
X13372325Y-20610278D01*
X13372325Y-20610278D02*
X13353277Y-20600754D01*
X13353277Y-20600754D02*
X13343753Y-20581706D01*
X13343753Y-20581706D02*
X13343753Y-20505516D01*
X13343753Y-20505516D02*
X13353277Y-20486468D01*
X13353277Y-20486468D02*
X13372325Y-20476945D01*
X13372325Y-20476945D02*
X13410420Y-20476945D01*
X13410420Y-20476945D02*
X13429468Y-20486468D01*
X13429468Y-20486468D02*
X13438991Y-20505516D01*
X13438991Y-20505516D02*
X13438991Y-20524564D01*
X13438991Y-20524564D02*
X13343753Y-20543611D01*
X13515182Y-20600754D02*
X13534230Y-20610278D01*
X13534230Y-20610278D02*
X13572325Y-20610278D01*
X13572325Y-20610278D02*
X13591372Y-20600754D01*
X13591372Y-20600754D02*
X13600896Y-20581706D01*
X13600896Y-20581706D02*
X13600896Y-20572183D01*
X13600896Y-20572183D02*
X13591372Y-20553135D01*
X13591372Y-20553135D02*
X13572325Y-20543611D01*
X13572325Y-20543611D02*
X13543753Y-20543611D01*
X13543753Y-20543611D02*
X13524706Y-20534087D01*
X13524706Y-20534087D02*
X13515182Y-20515040D01*
X13515182Y-20515040D02*
X13515182Y-20505516D01*
X13515182Y-20505516D02*
X13524706Y-20486468D01*
X13524706Y-20486468D02*
X13543753Y-20476945D01*
X13543753Y-20476945D02*
X13572325Y-20476945D01*
X13572325Y-20476945D02*
X13591372Y-20486468D01*
X13667563Y-20686468D02*
X13677087Y-20676945D01*
X13677087Y-20676945D02*
X13696134Y-20648373D01*
X13696134Y-20648373D02*
X13705658Y-20629326D01*
X13705658Y-20629326D02*
X13715182Y-20600754D01*
X13715182Y-20600754D02*
X13724706Y-20553135D01*
X13724706Y-20553135D02*
X13724706Y-20515040D01*
X13724706Y-20515040D02*
X13715182Y-20467421D01*
X13715182Y-20467421D02*
X13705658Y-20438849D01*
X13705658Y-20438849D02*
X13696134Y-20419802D01*
X13696134Y-20419802D02*
X13677087Y-20391230D01*
X13677087Y-20391230D02*
X13667563Y-20381706D01*
D12*
X8842970Y-20733264D02*
X8842970Y-20832324D01*
X8793440Y-20782794D02*
X8892500Y-20782794D01*
D11*
X9191372Y-20674278D02*
X9210420Y-20674278D01*
X9210420Y-20674278D02*
X9229467Y-20683802D01*
X9229467Y-20683802D02*
X9238991Y-20693326D01*
X9238991Y-20693326D02*
X9248515Y-20712373D01*
X9248515Y-20712373D02*
X9258039Y-20750468D01*
X9258039Y-20750468D02*
X9258039Y-20798087D01*
X9258039Y-20798087D02*
X9248515Y-20836183D01*
X9248515Y-20836183D02*
X9238991Y-20855230D01*
X9238991Y-20855230D02*
X9229467Y-20864754D01*
X9229467Y-20864754D02*
X9210420Y-20874278D01*
X9210420Y-20874278D02*
X9191372Y-20874278D01*
X9191372Y-20874278D02*
X9172324Y-20864754D01*
X9172324Y-20864754D02*
X9162801Y-20855230D01*
X9162801Y-20855230D02*
X9153277Y-20836183D01*
X9153277Y-20836183D02*
X9143753Y-20798087D01*
X9143753Y-20798087D02*
X9143753Y-20750468D01*
X9143753Y-20750468D02*
X9153277Y-20712373D01*
X9153277Y-20712373D02*
X9162801Y-20693326D01*
X9162801Y-20693326D02*
X9172324Y-20683802D01*
X9172324Y-20683802D02*
X9191372Y-20674278D01*
X9343753Y-20855230D02*
X9353277Y-20864754D01*
X9353277Y-20864754D02*
X9343753Y-20874278D01*
X9343753Y-20874278D02*
X9334229Y-20864754D01*
X9334229Y-20864754D02*
X9343753Y-20855230D01*
X9343753Y-20855230D02*
X9343753Y-20874278D01*
X9448515Y-20874278D02*
X9486610Y-20874278D01*
X9486610Y-20874278D02*
X9505658Y-20864754D01*
X9505658Y-20864754D02*
X9515182Y-20855230D01*
X9515182Y-20855230D02*
X9534229Y-20826659D01*
X9534229Y-20826659D02*
X9543753Y-20788564D01*
X9543753Y-20788564D02*
X9543753Y-20712373D01*
X9543753Y-20712373D02*
X9534229Y-20693326D01*
X9534229Y-20693326D02*
X9524705Y-20683802D01*
X9524705Y-20683802D02*
X9505658Y-20674278D01*
X9505658Y-20674278D02*
X9467563Y-20674278D01*
X9467563Y-20674278D02*
X9448515Y-20683802D01*
X9448515Y-20683802D02*
X9438991Y-20693326D01*
X9438991Y-20693326D02*
X9429467Y-20712373D01*
X9429467Y-20712373D02*
X9429467Y-20759992D01*
X9429467Y-20759992D02*
X9438991Y-20779040D01*
X9438991Y-20779040D02*
X9448515Y-20788564D01*
X9448515Y-20788564D02*
X9467563Y-20798087D01*
X9467563Y-20798087D02*
X9505658Y-20798087D01*
X9505658Y-20798087D02*
X9524705Y-20788564D01*
X9524705Y-20788564D02*
X9534229Y-20779040D01*
X9534229Y-20779040D02*
X9543753Y-20759992D01*
X9638991Y-20874278D02*
X9677086Y-20874278D01*
X9677086Y-20874278D02*
X9696134Y-20864754D01*
X9696134Y-20864754D02*
X9705658Y-20855230D01*
X9705658Y-20855230D02*
X9724705Y-20826659D01*
X9724705Y-20826659D02*
X9734229Y-20788564D01*
X9734229Y-20788564D02*
X9734229Y-20712373D01*
X9734229Y-20712373D02*
X9724705Y-20693326D01*
X9724705Y-20693326D02*
X9715182Y-20683802D01*
X9715182Y-20683802D02*
X9696134Y-20674278D01*
X9696134Y-20674278D02*
X9658039Y-20674278D01*
X9658039Y-20674278D02*
X9638991Y-20683802D01*
X9638991Y-20683802D02*
X9629467Y-20693326D01*
X9629467Y-20693326D02*
X9619944Y-20712373D01*
X9619944Y-20712373D02*
X9619944Y-20759992D01*
X9619944Y-20759992D02*
X9629467Y-20779040D01*
X9629467Y-20779040D02*
X9638991Y-20788564D01*
X9638991Y-20788564D02*
X9658039Y-20798087D01*
X9658039Y-20798087D02*
X9696134Y-20798087D01*
X9696134Y-20798087D02*
X9715182Y-20788564D01*
X9715182Y-20788564D02*
X9724705Y-20779040D01*
X9724705Y-20779040D02*
X9734229Y-20759992D01*
X9924705Y-20874278D02*
X9810420Y-20874278D01*
X9867563Y-20874278D02*
X9867563Y-20674278D01*
X9867563Y-20674278D02*
X9848515Y-20702849D01*
X9848515Y-20702849D02*
X9829467Y-20721897D01*
X9829467Y-20721897D02*
X9810420Y-20731421D01*
X10010420Y-20874278D02*
X10010420Y-20740945D01*
X10010420Y-20759992D02*
X10019944Y-20750468D01*
X10019944Y-20750468D02*
X10038991Y-20740945D01*
X10038991Y-20740945D02*
X10067563Y-20740945D01*
X10067563Y-20740945D02*
X10086610Y-20750468D01*
X10086610Y-20750468D02*
X10096134Y-20769516D01*
X10096134Y-20769516D02*
X10096134Y-20874278D01*
X10096134Y-20769516D02*
X10105658Y-20750468D01*
X10105658Y-20750468D02*
X10124705Y-20740945D01*
X10124705Y-20740945D02*
X10153277Y-20740945D01*
X10153277Y-20740945D02*
X10172325Y-20750468D01*
X10172325Y-20750468D02*
X10181848Y-20769516D01*
X10181848Y-20769516D02*
X10181848Y-20874278D01*
X10277086Y-20874278D02*
X10277086Y-20740945D01*
X10277086Y-20759992D02*
X10286610Y-20750468D01*
X10286610Y-20750468D02*
X10305658Y-20740945D01*
X10305658Y-20740945D02*
X10334229Y-20740945D01*
X10334229Y-20740945D02*
X10353277Y-20750468D01*
X10353277Y-20750468D02*
X10362801Y-20769516D01*
X10362801Y-20769516D02*
X10362801Y-20874278D01*
X10362801Y-20769516D02*
X10372325Y-20750468D01*
X10372325Y-20750468D02*
X10391372Y-20740945D01*
X10391372Y-20740945D02*
X10419944Y-20740945D01*
X10419944Y-20740945D02*
X10438991Y-20750468D01*
X10438991Y-20750468D02*
X10448515Y-20769516D01*
X10448515Y-20769516D02*
X10448515Y-20874278D01*
X10838991Y-20664754D02*
X10667563Y-20921897D01*
X11096134Y-20674278D02*
X11115182Y-20674278D01*
X11115182Y-20674278D02*
X11134229Y-20683802D01*
X11134229Y-20683802D02*
X11143753Y-20693326D01*
X11143753Y-20693326D02*
X11153277Y-20712373D01*
X11153277Y-20712373D02*
X11162801Y-20750468D01*
X11162801Y-20750468D02*
X11162801Y-20798087D01*
X11162801Y-20798087D02*
X11153277Y-20836183D01*
X11153277Y-20836183D02*
X11143753Y-20855230D01*
X11143753Y-20855230D02*
X11134229Y-20864754D01*
X11134229Y-20864754D02*
X11115182Y-20874278D01*
X11115182Y-20874278D02*
X11096134Y-20874278D01*
X11096134Y-20874278D02*
X11077087Y-20864754D01*
X11077087Y-20864754D02*
X11067563Y-20855230D01*
X11067563Y-20855230D02*
X11058039Y-20836183D01*
X11058039Y-20836183D02*
X11048515Y-20798087D01*
X11048515Y-20798087D02*
X11048515Y-20750468D01*
X11048515Y-20750468D02*
X11058039Y-20712373D01*
X11058039Y-20712373D02*
X11067563Y-20693326D01*
X11067563Y-20693326D02*
X11077087Y-20683802D01*
X11077087Y-20683802D02*
X11096134Y-20674278D01*
X11248515Y-20855230D02*
X11258039Y-20864754D01*
X11258039Y-20864754D02*
X11248515Y-20874278D01*
X11248515Y-20874278D02*
X11238991Y-20864754D01*
X11238991Y-20864754D02*
X11248515Y-20855230D01*
X11248515Y-20855230D02*
X11248515Y-20874278D01*
X11381848Y-20674278D02*
X11400896Y-20674278D01*
X11400896Y-20674278D02*
X11419944Y-20683802D01*
X11419944Y-20683802D02*
X11429467Y-20693326D01*
X11429467Y-20693326D02*
X11438991Y-20712373D01*
X11438991Y-20712373D02*
X11448515Y-20750468D01*
X11448515Y-20750468D02*
X11448515Y-20798087D01*
X11448515Y-20798087D02*
X11438991Y-20836183D01*
X11438991Y-20836183D02*
X11429467Y-20855230D01*
X11429467Y-20855230D02*
X11419944Y-20864754D01*
X11419944Y-20864754D02*
X11400896Y-20874278D01*
X11400896Y-20874278D02*
X11381848Y-20874278D01*
X11381848Y-20874278D02*
X11362801Y-20864754D01*
X11362801Y-20864754D02*
X11353277Y-20855230D01*
X11353277Y-20855230D02*
X11343753Y-20836183D01*
X11343753Y-20836183D02*
X11334229Y-20798087D01*
X11334229Y-20798087D02*
X11334229Y-20750468D01*
X11334229Y-20750468D02*
X11343753Y-20712373D01*
X11343753Y-20712373D02*
X11353277Y-20693326D01*
X11353277Y-20693326D02*
X11362801Y-20683802D01*
X11362801Y-20683802D02*
X11381848Y-20674278D01*
X11515182Y-20674278D02*
X11638991Y-20674278D01*
X11638991Y-20674278D02*
X11572325Y-20750468D01*
X11572325Y-20750468D02*
X11600896Y-20750468D01*
X11600896Y-20750468D02*
X11619944Y-20759992D01*
X11619944Y-20759992D02*
X11629467Y-20769516D01*
X11629467Y-20769516D02*
X11638991Y-20788564D01*
X11638991Y-20788564D02*
X11638991Y-20836183D01*
X11638991Y-20836183D02*
X11629467Y-20855230D01*
X11629467Y-20855230D02*
X11619944Y-20864754D01*
X11619944Y-20864754D02*
X11600896Y-20874278D01*
X11600896Y-20874278D02*
X11543753Y-20874278D01*
X11543753Y-20874278D02*
X11524706Y-20864754D01*
X11524706Y-20864754D02*
X11515182Y-20855230D01*
X11734229Y-20874278D02*
X11772325Y-20874278D01*
X11772325Y-20874278D02*
X11791372Y-20864754D01*
X11791372Y-20864754D02*
X11800896Y-20855230D01*
X11800896Y-20855230D02*
X11819944Y-20826659D01*
X11819944Y-20826659D02*
X11829467Y-20788564D01*
X11829467Y-20788564D02*
X11829467Y-20712373D01*
X11829467Y-20712373D02*
X11819944Y-20693326D01*
X11819944Y-20693326D02*
X11810420Y-20683802D01*
X11810420Y-20683802D02*
X11791372Y-20674278D01*
X11791372Y-20674278D02*
X11753277Y-20674278D01*
X11753277Y-20674278D02*
X11734229Y-20683802D01*
X11734229Y-20683802D02*
X11724706Y-20693326D01*
X11724706Y-20693326D02*
X11715182Y-20712373D01*
X11715182Y-20712373D02*
X11715182Y-20759992D01*
X11715182Y-20759992D02*
X11724706Y-20779040D01*
X11724706Y-20779040D02*
X11734229Y-20788564D01*
X11734229Y-20788564D02*
X11753277Y-20798087D01*
X11753277Y-20798087D02*
X11791372Y-20798087D01*
X11791372Y-20798087D02*
X11810420Y-20788564D01*
X11810420Y-20788564D02*
X11819944Y-20779040D01*
X11819944Y-20779040D02*
X11829467Y-20759992D01*
X11953277Y-20674278D02*
X11972325Y-20674278D01*
X11972325Y-20674278D02*
X11991372Y-20683802D01*
X11991372Y-20683802D02*
X12000896Y-20693326D01*
X12000896Y-20693326D02*
X12010420Y-20712373D01*
X12010420Y-20712373D02*
X12019944Y-20750468D01*
X12019944Y-20750468D02*
X12019944Y-20798087D01*
X12019944Y-20798087D02*
X12010420Y-20836183D01*
X12010420Y-20836183D02*
X12000896Y-20855230D01*
X12000896Y-20855230D02*
X11991372Y-20864754D01*
X11991372Y-20864754D02*
X11972325Y-20874278D01*
X11972325Y-20874278D02*
X11953277Y-20874278D01*
X11953277Y-20874278D02*
X11934229Y-20864754D01*
X11934229Y-20864754D02*
X11924706Y-20855230D01*
X11924706Y-20855230D02*
X11915182Y-20836183D01*
X11915182Y-20836183D02*
X11905658Y-20798087D01*
X11905658Y-20798087D02*
X11905658Y-20750468D01*
X11905658Y-20750468D02*
X11915182Y-20712373D01*
X11915182Y-20712373D02*
X11924706Y-20693326D01*
X11924706Y-20693326D02*
X11934229Y-20683802D01*
X11934229Y-20683802D02*
X11953277Y-20674278D01*
X12096134Y-20674278D02*
X12096134Y-20712373D01*
X12172325Y-20674278D02*
X12172325Y-20712373D01*
X12467563Y-20950468D02*
X12458039Y-20940945D01*
X12458039Y-20940945D02*
X12438991Y-20912373D01*
X12438991Y-20912373D02*
X12429468Y-20893326D01*
X12429468Y-20893326D02*
X12419944Y-20864754D01*
X12419944Y-20864754D02*
X12410420Y-20817135D01*
X12410420Y-20817135D02*
X12410420Y-20779040D01*
X12410420Y-20779040D02*
X12419944Y-20731421D01*
X12419944Y-20731421D02*
X12429468Y-20702849D01*
X12429468Y-20702849D02*
X12438991Y-20683802D01*
X12438991Y-20683802D02*
X12458039Y-20655230D01*
X12458039Y-20655230D02*
X12467563Y-20645706D01*
X12638991Y-20674278D02*
X12543753Y-20674278D01*
X12543753Y-20674278D02*
X12534229Y-20769516D01*
X12534229Y-20769516D02*
X12543753Y-20759992D01*
X12543753Y-20759992D02*
X12562801Y-20750468D01*
X12562801Y-20750468D02*
X12610420Y-20750468D01*
X12610420Y-20750468D02*
X12629468Y-20759992D01*
X12629468Y-20759992D02*
X12638991Y-20769516D01*
X12638991Y-20769516D02*
X12648515Y-20788564D01*
X12648515Y-20788564D02*
X12648515Y-20836183D01*
X12648515Y-20836183D02*
X12638991Y-20855230D01*
X12638991Y-20855230D02*
X12629468Y-20864754D01*
X12629468Y-20864754D02*
X12610420Y-20874278D01*
X12610420Y-20874278D02*
X12562801Y-20874278D01*
X12562801Y-20874278D02*
X12543753Y-20864754D01*
X12543753Y-20864754D02*
X12534229Y-20855230D01*
X12819944Y-20740945D02*
X12819944Y-20874278D01*
X12772325Y-20664754D02*
X12724706Y-20807611D01*
X12724706Y-20807611D02*
X12848515Y-20807611D01*
X13077087Y-20874278D02*
X13077087Y-20674278D01*
X13162801Y-20874278D02*
X13162801Y-20769516D01*
X13162801Y-20769516D02*
X13153277Y-20750468D01*
X13153277Y-20750468D02*
X13134230Y-20740945D01*
X13134230Y-20740945D02*
X13105658Y-20740945D01*
X13105658Y-20740945D02*
X13086610Y-20750468D01*
X13086610Y-20750468D02*
X13077087Y-20759992D01*
X13286610Y-20874278D02*
X13267563Y-20864754D01*
X13267563Y-20864754D02*
X13258039Y-20855230D01*
X13258039Y-20855230D02*
X13248515Y-20836183D01*
X13248515Y-20836183D02*
X13248515Y-20779040D01*
X13248515Y-20779040D02*
X13258039Y-20759992D01*
X13258039Y-20759992D02*
X13267563Y-20750468D01*
X13267563Y-20750468D02*
X13286610Y-20740945D01*
X13286610Y-20740945D02*
X13315182Y-20740945D01*
X13315182Y-20740945D02*
X13334230Y-20750468D01*
X13334230Y-20750468D02*
X13343753Y-20759992D01*
X13343753Y-20759992D02*
X13353277Y-20779040D01*
X13353277Y-20779040D02*
X13353277Y-20836183D01*
X13353277Y-20836183D02*
X13343753Y-20855230D01*
X13343753Y-20855230D02*
X13334230Y-20864754D01*
X13334230Y-20864754D02*
X13315182Y-20874278D01*
X13315182Y-20874278D02*
X13286610Y-20874278D01*
X13467563Y-20874278D02*
X13448515Y-20864754D01*
X13448515Y-20864754D02*
X13438991Y-20845706D01*
X13438991Y-20845706D02*
X13438991Y-20674278D01*
X13619944Y-20864754D02*
X13600896Y-20874278D01*
X13600896Y-20874278D02*
X13562801Y-20874278D01*
X13562801Y-20874278D02*
X13543753Y-20864754D01*
X13543753Y-20864754D02*
X13534230Y-20845706D01*
X13534230Y-20845706D02*
X13534230Y-20769516D01*
X13534230Y-20769516D02*
X13543753Y-20750468D01*
X13543753Y-20750468D02*
X13562801Y-20740945D01*
X13562801Y-20740945D02*
X13600896Y-20740945D01*
X13600896Y-20740945D02*
X13619944Y-20750468D01*
X13619944Y-20750468D02*
X13629468Y-20769516D01*
X13629468Y-20769516D02*
X13629468Y-20788564D01*
X13629468Y-20788564D02*
X13534230Y-20807611D01*
X13705658Y-20864754D02*
X13724706Y-20874278D01*
X13724706Y-20874278D02*
X13762801Y-20874278D01*
X13762801Y-20874278D02*
X13781849Y-20864754D01*
X13781849Y-20864754D02*
X13791372Y-20845706D01*
X13791372Y-20845706D02*
X13791372Y-20836183D01*
X13791372Y-20836183D02*
X13781849Y-20817135D01*
X13781849Y-20817135D02*
X13762801Y-20807611D01*
X13762801Y-20807611D02*
X13734230Y-20807611D01*
X13734230Y-20807611D02*
X13715182Y-20798087D01*
X13715182Y-20798087D02*
X13705658Y-20779040D01*
X13705658Y-20779040D02*
X13705658Y-20769516D01*
X13705658Y-20769516D02*
X13715182Y-20750468D01*
X13715182Y-20750468D02*
X13734230Y-20740945D01*
X13734230Y-20740945D02*
X13762801Y-20740945D01*
X13762801Y-20740945D02*
X13781849Y-20750468D01*
X13858039Y-20950468D02*
X13867563Y-20940945D01*
X13867563Y-20940945D02*
X13886611Y-20912373D01*
X13886611Y-20912373D02*
X13896134Y-20893326D01*
X13896134Y-20893326D02*
X13905658Y-20864754D01*
X13905658Y-20864754D02*
X13915182Y-20817135D01*
X13915182Y-20817135D02*
X13915182Y-20779040D01*
X13915182Y-20779040D02*
X13905658Y-20731421D01*
X13905658Y-20731421D02*
X13896134Y-20702849D01*
X13896134Y-20702849D02*
X13886611Y-20683802D01*
X13886611Y-20683802D02*
X13867563Y-20655230D01*
X13867563Y-20655230D02*
X13858039Y-20645706D01*
D13*
X8876506Y-21085410D02*
X8876506Y-21008179D01*
X8799275Y-21008179D01*
X8799275Y-21085410D01*
X8876506Y-21085410D01*
D11*
X9258039Y-21138278D02*
X9143753Y-21138278D01*
X9200896Y-21138278D02*
X9200896Y-20938278D01*
X9200896Y-20938278D02*
X9181848Y-20966849D01*
X9181848Y-20966849D02*
X9162801Y-20985897D01*
X9162801Y-20985897D02*
X9143753Y-20995421D01*
X9343753Y-21119230D02*
X9353277Y-21128754D01*
X9353277Y-21128754D02*
X9343753Y-21138278D01*
X9343753Y-21138278D02*
X9334229Y-21128754D01*
X9334229Y-21128754D02*
X9343753Y-21119230D01*
X9343753Y-21119230D02*
X9343753Y-21138278D01*
X9477086Y-20938278D02*
X9496134Y-20938278D01*
X9496134Y-20938278D02*
X9515182Y-20947802D01*
X9515182Y-20947802D02*
X9524705Y-20957326D01*
X9524705Y-20957326D02*
X9534229Y-20976373D01*
X9534229Y-20976373D02*
X9543753Y-21014468D01*
X9543753Y-21014468D02*
X9543753Y-21062087D01*
X9543753Y-21062087D02*
X9534229Y-21100183D01*
X9534229Y-21100183D02*
X9524705Y-21119230D01*
X9524705Y-21119230D02*
X9515182Y-21128754D01*
X9515182Y-21128754D02*
X9496134Y-21138278D01*
X9496134Y-21138278D02*
X9477086Y-21138278D01*
X9477086Y-21138278D02*
X9458039Y-21128754D01*
X9458039Y-21128754D02*
X9448515Y-21119230D01*
X9448515Y-21119230D02*
X9438991Y-21100183D01*
X9438991Y-21100183D02*
X9429467Y-21062087D01*
X9429467Y-21062087D02*
X9429467Y-21014468D01*
X9429467Y-21014468D02*
X9438991Y-20976373D01*
X9438991Y-20976373D02*
X9448515Y-20957326D01*
X9448515Y-20957326D02*
X9458039Y-20947802D01*
X9458039Y-20947802D02*
X9477086Y-20938278D01*
X9638991Y-21138278D02*
X9677086Y-21138278D01*
X9677086Y-21138278D02*
X9696134Y-21128754D01*
X9696134Y-21128754D02*
X9705658Y-21119230D01*
X9705658Y-21119230D02*
X9724705Y-21090659D01*
X9724705Y-21090659D02*
X9734229Y-21052564D01*
X9734229Y-21052564D02*
X9734229Y-20976373D01*
X9734229Y-20976373D02*
X9724705Y-20957326D01*
X9724705Y-20957326D02*
X9715182Y-20947802D01*
X9715182Y-20947802D02*
X9696134Y-20938278D01*
X9696134Y-20938278D02*
X9658039Y-20938278D01*
X9658039Y-20938278D02*
X9638991Y-20947802D01*
X9638991Y-20947802D02*
X9629467Y-20957326D01*
X9629467Y-20957326D02*
X9619944Y-20976373D01*
X9619944Y-20976373D02*
X9619944Y-21023992D01*
X9619944Y-21023992D02*
X9629467Y-21043040D01*
X9629467Y-21043040D02*
X9638991Y-21052564D01*
X9638991Y-21052564D02*
X9658039Y-21062087D01*
X9658039Y-21062087D02*
X9696134Y-21062087D01*
X9696134Y-21062087D02*
X9715182Y-21052564D01*
X9715182Y-21052564D02*
X9724705Y-21043040D01*
X9724705Y-21043040D02*
X9734229Y-21023992D01*
X9810420Y-20957326D02*
X9819944Y-20947802D01*
X9819944Y-20947802D02*
X9838991Y-20938278D01*
X9838991Y-20938278D02*
X9886610Y-20938278D01*
X9886610Y-20938278D02*
X9905658Y-20947802D01*
X9905658Y-20947802D02*
X9915182Y-20957326D01*
X9915182Y-20957326D02*
X9924705Y-20976373D01*
X9924705Y-20976373D02*
X9924705Y-20995421D01*
X9924705Y-20995421D02*
X9915182Y-21023992D01*
X9915182Y-21023992D02*
X9800896Y-21138278D01*
X9800896Y-21138278D02*
X9924705Y-21138278D01*
X10010420Y-21138278D02*
X10010420Y-21004945D01*
X10010420Y-21023992D02*
X10019944Y-21014468D01*
X10019944Y-21014468D02*
X10038991Y-21004945D01*
X10038991Y-21004945D02*
X10067563Y-21004945D01*
X10067563Y-21004945D02*
X10086610Y-21014468D01*
X10086610Y-21014468D02*
X10096134Y-21033516D01*
X10096134Y-21033516D02*
X10096134Y-21138278D01*
X10096134Y-21033516D02*
X10105658Y-21014468D01*
X10105658Y-21014468D02*
X10124705Y-21004945D01*
X10124705Y-21004945D02*
X10153277Y-21004945D01*
X10153277Y-21004945D02*
X10172325Y-21014468D01*
X10172325Y-21014468D02*
X10181848Y-21033516D01*
X10181848Y-21033516D02*
X10181848Y-21138278D01*
X10277086Y-21138278D02*
X10277086Y-21004945D01*
X10277086Y-21023992D02*
X10286610Y-21014468D01*
X10286610Y-21014468D02*
X10305658Y-21004945D01*
X10305658Y-21004945D02*
X10334229Y-21004945D01*
X10334229Y-21004945D02*
X10353277Y-21014468D01*
X10353277Y-21014468D02*
X10362801Y-21033516D01*
X10362801Y-21033516D02*
X10362801Y-21138278D01*
X10362801Y-21033516D02*
X10372325Y-21014468D01*
X10372325Y-21014468D02*
X10391372Y-21004945D01*
X10391372Y-21004945D02*
X10419944Y-21004945D01*
X10419944Y-21004945D02*
X10438991Y-21014468D01*
X10438991Y-21014468D02*
X10448515Y-21033516D01*
X10448515Y-21033516D02*
X10448515Y-21138278D01*
X10838991Y-20928754D02*
X10667563Y-21185897D01*
X11096134Y-20938278D02*
X11115182Y-20938278D01*
X11115182Y-20938278D02*
X11134229Y-20947802D01*
X11134229Y-20947802D02*
X11143753Y-20957326D01*
X11143753Y-20957326D02*
X11153277Y-20976373D01*
X11153277Y-20976373D02*
X11162801Y-21014468D01*
X11162801Y-21014468D02*
X11162801Y-21062087D01*
X11162801Y-21062087D02*
X11153277Y-21100183D01*
X11153277Y-21100183D02*
X11143753Y-21119230D01*
X11143753Y-21119230D02*
X11134229Y-21128754D01*
X11134229Y-21128754D02*
X11115182Y-21138278D01*
X11115182Y-21138278D02*
X11096134Y-21138278D01*
X11096134Y-21138278D02*
X11077087Y-21128754D01*
X11077087Y-21128754D02*
X11067563Y-21119230D01*
X11067563Y-21119230D02*
X11058039Y-21100183D01*
X11058039Y-21100183D02*
X11048515Y-21062087D01*
X11048515Y-21062087D02*
X11048515Y-21014468D01*
X11048515Y-21014468D02*
X11058039Y-20976373D01*
X11058039Y-20976373D02*
X11067563Y-20957326D01*
X11067563Y-20957326D02*
X11077087Y-20947802D01*
X11077087Y-20947802D02*
X11096134Y-20938278D01*
X11248515Y-21119230D02*
X11258039Y-21128754D01*
X11258039Y-21128754D02*
X11248515Y-21138278D01*
X11248515Y-21138278D02*
X11238991Y-21128754D01*
X11238991Y-21128754D02*
X11248515Y-21119230D01*
X11248515Y-21119230D02*
X11248515Y-21138278D01*
X11381848Y-20938278D02*
X11400896Y-20938278D01*
X11400896Y-20938278D02*
X11419944Y-20947802D01*
X11419944Y-20947802D02*
X11429467Y-20957326D01*
X11429467Y-20957326D02*
X11438991Y-20976373D01*
X11438991Y-20976373D02*
X11448515Y-21014468D01*
X11448515Y-21014468D02*
X11448515Y-21062087D01*
X11448515Y-21062087D02*
X11438991Y-21100183D01*
X11438991Y-21100183D02*
X11429467Y-21119230D01*
X11429467Y-21119230D02*
X11419944Y-21128754D01*
X11419944Y-21128754D02*
X11400896Y-21138278D01*
X11400896Y-21138278D02*
X11381848Y-21138278D01*
X11381848Y-21138278D02*
X11362801Y-21128754D01*
X11362801Y-21128754D02*
X11353277Y-21119230D01*
X11353277Y-21119230D02*
X11343753Y-21100183D01*
X11343753Y-21100183D02*
X11334229Y-21062087D01*
X11334229Y-21062087D02*
X11334229Y-21014468D01*
X11334229Y-21014468D02*
X11343753Y-20976373D01*
X11343753Y-20976373D02*
X11353277Y-20957326D01*
X11353277Y-20957326D02*
X11362801Y-20947802D01*
X11362801Y-20947802D02*
X11381848Y-20938278D01*
X11619944Y-21004945D02*
X11619944Y-21138278D01*
X11572325Y-20928754D02*
X11524706Y-21071611D01*
X11524706Y-21071611D02*
X11648515Y-21071611D01*
X11705658Y-20938278D02*
X11829467Y-20938278D01*
X11829467Y-20938278D02*
X11762801Y-21014468D01*
X11762801Y-21014468D02*
X11791372Y-21014468D01*
X11791372Y-21014468D02*
X11810420Y-21023992D01*
X11810420Y-21023992D02*
X11819944Y-21033516D01*
X11819944Y-21033516D02*
X11829467Y-21052564D01*
X11829467Y-21052564D02*
X11829467Y-21100183D01*
X11829467Y-21100183D02*
X11819944Y-21119230D01*
X11819944Y-21119230D02*
X11810420Y-21128754D01*
X11810420Y-21128754D02*
X11791372Y-21138278D01*
X11791372Y-21138278D02*
X11734229Y-21138278D01*
X11734229Y-21138278D02*
X11715182Y-21128754D01*
X11715182Y-21128754D02*
X11705658Y-21119230D01*
X11953277Y-20938278D02*
X11972325Y-20938278D01*
X11972325Y-20938278D02*
X11991372Y-20947802D01*
X11991372Y-20947802D02*
X12000896Y-20957326D01*
X12000896Y-20957326D02*
X12010420Y-20976373D01*
X12010420Y-20976373D02*
X12019944Y-21014468D01*
X12019944Y-21014468D02*
X12019944Y-21062087D01*
X12019944Y-21062087D02*
X12010420Y-21100183D01*
X12010420Y-21100183D02*
X12000896Y-21119230D01*
X12000896Y-21119230D02*
X11991372Y-21128754D01*
X11991372Y-21128754D02*
X11972325Y-21138278D01*
X11972325Y-21138278D02*
X11953277Y-21138278D01*
X11953277Y-21138278D02*
X11934229Y-21128754D01*
X11934229Y-21128754D02*
X11924706Y-21119230D01*
X11924706Y-21119230D02*
X11915182Y-21100183D01*
X11915182Y-21100183D02*
X11905658Y-21062087D01*
X11905658Y-21062087D02*
X11905658Y-21014468D01*
X11905658Y-21014468D02*
X11915182Y-20976373D01*
X11915182Y-20976373D02*
X11924706Y-20957326D01*
X11924706Y-20957326D02*
X11934229Y-20947802D01*
X11934229Y-20947802D02*
X11953277Y-20938278D01*
X12096134Y-20938278D02*
X12096134Y-20976373D01*
X12172325Y-20938278D02*
X12172325Y-20976373D01*
X12467563Y-21214468D02*
X12458039Y-21204945D01*
X12458039Y-21204945D02*
X12438991Y-21176373D01*
X12438991Y-21176373D02*
X12429468Y-21157326D01*
X12429468Y-21157326D02*
X12419944Y-21128754D01*
X12419944Y-21128754D02*
X12410420Y-21081135D01*
X12410420Y-21081135D02*
X12410420Y-21043040D01*
X12410420Y-21043040D02*
X12419944Y-20995421D01*
X12419944Y-20995421D02*
X12429468Y-20966849D01*
X12429468Y-20966849D02*
X12438991Y-20947802D01*
X12438991Y-20947802D02*
X12458039Y-20919230D01*
X12458039Y-20919230D02*
X12467563Y-20909706D01*
X12534229Y-20957326D02*
X12543753Y-20947802D01*
X12543753Y-20947802D02*
X12562801Y-20938278D01*
X12562801Y-20938278D02*
X12610420Y-20938278D01*
X12610420Y-20938278D02*
X12629468Y-20947802D01*
X12629468Y-20947802D02*
X12638991Y-20957326D01*
X12638991Y-20957326D02*
X12648515Y-20976373D01*
X12648515Y-20976373D02*
X12648515Y-20995421D01*
X12648515Y-20995421D02*
X12638991Y-21023992D01*
X12638991Y-21023992D02*
X12524706Y-21138278D01*
X12524706Y-21138278D02*
X12648515Y-21138278D01*
X12819944Y-21004945D02*
X12819944Y-21138278D01*
X12772325Y-20928754D02*
X12724706Y-21071611D01*
X12724706Y-21071611D02*
X12848515Y-21071611D01*
X13077087Y-21138278D02*
X13077087Y-20938278D01*
X13162801Y-21138278D02*
X13162801Y-21033516D01*
X13162801Y-21033516D02*
X13153277Y-21014468D01*
X13153277Y-21014468D02*
X13134230Y-21004945D01*
X13134230Y-21004945D02*
X13105658Y-21004945D01*
X13105658Y-21004945D02*
X13086610Y-21014468D01*
X13086610Y-21014468D02*
X13077087Y-21023992D01*
X13286610Y-21138278D02*
X13267563Y-21128754D01*
X13267563Y-21128754D02*
X13258039Y-21119230D01*
X13258039Y-21119230D02*
X13248515Y-21100183D01*
X13248515Y-21100183D02*
X13248515Y-21043040D01*
X13248515Y-21043040D02*
X13258039Y-21023992D01*
X13258039Y-21023992D02*
X13267563Y-21014468D01*
X13267563Y-21014468D02*
X13286610Y-21004945D01*
X13286610Y-21004945D02*
X13315182Y-21004945D01*
X13315182Y-21004945D02*
X13334230Y-21014468D01*
X13334230Y-21014468D02*
X13343753Y-21023992D01*
X13343753Y-21023992D02*
X13353277Y-21043040D01*
X13353277Y-21043040D02*
X13353277Y-21100183D01*
X13353277Y-21100183D02*
X13343753Y-21119230D01*
X13343753Y-21119230D02*
X13334230Y-21128754D01*
X13334230Y-21128754D02*
X13315182Y-21138278D01*
X13315182Y-21138278D02*
X13286610Y-21138278D01*
X13467563Y-21138278D02*
X13448515Y-21128754D01*
X13448515Y-21128754D02*
X13438991Y-21109706D01*
X13438991Y-21109706D02*
X13438991Y-20938278D01*
X13619944Y-21128754D02*
X13600896Y-21138278D01*
X13600896Y-21138278D02*
X13562801Y-21138278D01*
X13562801Y-21138278D02*
X13543753Y-21128754D01*
X13543753Y-21128754D02*
X13534230Y-21109706D01*
X13534230Y-21109706D02*
X13534230Y-21033516D01*
X13534230Y-21033516D02*
X13543753Y-21014468D01*
X13543753Y-21014468D02*
X13562801Y-21004945D01*
X13562801Y-21004945D02*
X13600896Y-21004945D01*
X13600896Y-21004945D02*
X13619944Y-21014468D01*
X13619944Y-21014468D02*
X13629468Y-21033516D01*
X13629468Y-21033516D02*
X13629468Y-21052564D01*
X13629468Y-21052564D02*
X13534230Y-21071611D01*
X13705658Y-21128754D02*
X13724706Y-21138278D01*
X13724706Y-21138278D02*
X13762801Y-21138278D01*
X13762801Y-21138278D02*
X13781849Y-21128754D01*
X13781849Y-21128754D02*
X13791372Y-21109706D01*
X13791372Y-21109706D02*
X13791372Y-21100183D01*
X13791372Y-21100183D02*
X13781849Y-21081135D01*
X13781849Y-21081135D02*
X13762801Y-21071611D01*
X13762801Y-21071611D02*
X13734230Y-21071611D01*
X13734230Y-21071611D02*
X13715182Y-21062087D01*
X13715182Y-21062087D02*
X13705658Y-21043040D01*
X13705658Y-21043040D02*
X13705658Y-21033516D01*
X13705658Y-21033516D02*
X13715182Y-21014468D01*
X13715182Y-21014468D02*
X13734230Y-21004945D01*
X13734230Y-21004945D02*
X13762801Y-21004945D01*
X13762801Y-21004945D02*
X13781849Y-21014468D01*
X13858039Y-21214468D02*
X13867563Y-21204945D01*
X13867563Y-21204945D02*
X13886611Y-21176373D01*
X13886611Y-21176373D02*
X13896134Y-21157326D01*
X13896134Y-21157326D02*
X13905658Y-21128754D01*
X13905658Y-21128754D02*
X13915182Y-21081135D01*
X13915182Y-21081135D02*
X13915182Y-21043040D01*
X13915182Y-21043040D02*
X13905658Y-20995421D01*
X13905658Y-20995421D02*
X13896134Y-20966849D01*
X13896134Y-20966849D02*
X13886611Y-20947802D01*
X13886611Y-20947802D02*
X13867563Y-20919230D01*
X13867563Y-20919230D02*
X13858039Y-20909706D01*
M02*
