%TF.GenerationSoftware,KiCad,Pcbnew,8.0.7*%
%TF.CreationDate,2024-12-27T12:49:26-06:00*%
%TF.ProjectId,left,6c656674-2e6b-4696-9361-645f70636258,v1.0.0*%
%TF.SameCoordinates,Original*%
%TF.FileFunction,Legend,Top*%
%TF.FilePolarity,Positive*%
%FSLAX46Y46*%
G04 Gerber Fmt 4.6, Leading zero omitted, Abs format (unit mm)*
G04 Created by KiCad (PCBNEW 8.0.7) date 2024-12-27 12:49:26*
%MOMM*%
%LPD*%
G01*
G04 APERTURE LIST*
%ADD10C,0.400000*%
%ADD11C,0.150000*%
%ADD12C,0.300000*%
%ADD13C,0.100000*%
%ADD14C,0.381000*%
%ADD15C,1.752600*%
%ADD16C,4.000000*%
G04 APERTURE END LIST*
D10*
X148527442Y-80617057D02*
X148527442Y-77617057D01*
X148527442Y-77617057D02*
X149670299Y-77617057D01*
X149670299Y-77617057D02*
X149956014Y-77759914D01*
X149956014Y-77759914D02*
X150098871Y-77902771D01*
X150098871Y-77902771D02*
X150241728Y-78188485D01*
X150241728Y-78188485D02*
X150241728Y-78617057D01*
X150241728Y-78617057D02*
X150098871Y-78902771D01*
X150098871Y-78902771D02*
X149956014Y-79045628D01*
X149956014Y-79045628D02*
X149670299Y-79188485D01*
X149670299Y-79188485D02*
X148527442Y-79188485D01*
X151384585Y-80474200D02*
X151813157Y-80617057D01*
X151813157Y-80617057D02*
X152527442Y-80617057D01*
X152527442Y-80617057D02*
X152813157Y-80474200D01*
X152813157Y-80474200D02*
X152956014Y-80331342D01*
X152956014Y-80331342D02*
X153098871Y-80045628D01*
X153098871Y-80045628D02*
X153098871Y-79759914D01*
X153098871Y-79759914D02*
X152956014Y-79474200D01*
X152956014Y-79474200D02*
X152813157Y-79331342D01*
X152813157Y-79331342D02*
X152527442Y-79188485D01*
X152527442Y-79188485D02*
X151956014Y-79045628D01*
X151956014Y-79045628D02*
X151670299Y-78902771D01*
X151670299Y-78902771D02*
X151527442Y-78759914D01*
X151527442Y-78759914D02*
X151384585Y-78474200D01*
X151384585Y-78474200D02*
X151384585Y-78188485D01*
X151384585Y-78188485D02*
X151527442Y-77902771D01*
X151527442Y-77902771D02*
X151670299Y-77759914D01*
X151670299Y-77759914D02*
X151956014Y-77617057D01*
X151956014Y-77617057D02*
X152670299Y-77617057D01*
X152670299Y-77617057D02*
X153098871Y-77759914D01*
X154384585Y-80617057D02*
X154384585Y-77617057D01*
X156098871Y-80617057D02*
X154813157Y-78902771D01*
X156098871Y-77617057D02*
X154384585Y-79331342D01*
D11*
X195812295Y-90512809D02*
X195812295Y-90436619D01*
X195812295Y-90436619D02*
X195850390Y-90360428D01*
X195850390Y-90360428D02*
X195888485Y-90322333D01*
X195888485Y-90322333D02*
X195964676Y-90284238D01*
X195964676Y-90284238D02*
X196117057Y-90246143D01*
X196117057Y-90246143D02*
X196307533Y-90246143D01*
X196307533Y-90246143D02*
X196459914Y-90284238D01*
X196459914Y-90284238D02*
X196536104Y-90322333D01*
X196536104Y-90322333D02*
X196574200Y-90360428D01*
X196574200Y-90360428D02*
X196612295Y-90436619D01*
X196612295Y-90436619D02*
X196612295Y-90512809D01*
X196612295Y-90512809D02*
X196574200Y-90589000D01*
X196574200Y-90589000D02*
X196536104Y-90627095D01*
X196536104Y-90627095D02*
X196459914Y-90665190D01*
X196459914Y-90665190D02*
X196307533Y-90703286D01*
X196307533Y-90703286D02*
X196117057Y-90703286D01*
X196117057Y-90703286D02*
X195964676Y-90665190D01*
X195964676Y-90665190D02*
X195888485Y-90627095D01*
X195888485Y-90627095D02*
X195850390Y-90589000D01*
X195850390Y-90589000D02*
X195812295Y-90512809D01*
X195812295Y-89750904D02*
X195812295Y-89674714D01*
X195812295Y-89674714D02*
X195850390Y-89598523D01*
X195850390Y-89598523D02*
X195888485Y-89560428D01*
X195888485Y-89560428D02*
X195964676Y-89522333D01*
X195964676Y-89522333D02*
X196117057Y-89484238D01*
X196117057Y-89484238D02*
X196307533Y-89484238D01*
X196307533Y-89484238D02*
X196459914Y-89522333D01*
X196459914Y-89522333D02*
X196536104Y-89560428D01*
X196536104Y-89560428D02*
X196574200Y-89598523D01*
X196574200Y-89598523D02*
X196612295Y-89674714D01*
X196612295Y-89674714D02*
X196612295Y-89750904D01*
X196612295Y-89750904D02*
X196574200Y-89827095D01*
X196574200Y-89827095D02*
X196536104Y-89865190D01*
X196536104Y-89865190D02*
X196459914Y-89903285D01*
X196459914Y-89903285D02*
X196307533Y-89941381D01*
X196307533Y-89941381D02*
X196117057Y-89941381D01*
X196117057Y-89941381D02*
X195964676Y-89903285D01*
X195964676Y-89903285D02*
X195888485Y-89865190D01*
X195888485Y-89865190D02*
X195850390Y-89827095D01*
X195850390Y-89827095D02*
X195812295Y-89750904D01*
X196155152Y-89027095D02*
X196117057Y-89103285D01*
X196117057Y-89103285D02*
X196078961Y-89141380D01*
X196078961Y-89141380D02*
X196002771Y-89179476D01*
X196002771Y-89179476D02*
X195964676Y-89179476D01*
X195964676Y-89179476D02*
X195888485Y-89141380D01*
X195888485Y-89141380D02*
X195850390Y-89103285D01*
X195850390Y-89103285D02*
X195812295Y-89027095D01*
X195812295Y-89027095D02*
X195812295Y-88874714D01*
X195812295Y-88874714D02*
X195850390Y-88798523D01*
X195850390Y-88798523D02*
X195888485Y-88760428D01*
X195888485Y-88760428D02*
X195964676Y-88722333D01*
X195964676Y-88722333D02*
X196002771Y-88722333D01*
X196002771Y-88722333D02*
X196078961Y-88760428D01*
X196078961Y-88760428D02*
X196117057Y-88798523D01*
X196117057Y-88798523D02*
X196155152Y-88874714D01*
X196155152Y-88874714D02*
X196155152Y-89027095D01*
X196155152Y-89027095D02*
X196193247Y-89103285D01*
X196193247Y-89103285D02*
X196231342Y-89141380D01*
X196231342Y-89141380D02*
X196307533Y-89179476D01*
X196307533Y-89179476D02*
X196459914Y-89179476D01*
X196459914Y-89179476D02*
X196536104Y-89141380D01*
X196536104Y-89141380D02*
X196574200Y-89103285D01*
X196574200Y-89103285D02*
X196612295Y-89027095D01*
X196612295Y-89027095D02*
X196612295Y-88874714D01*
X196612295Y-88874714D02*
X196574200Y-88798523D01*
X196574200Y-88798523D02*
X196536104Y-88760428D01*
X196536104Y-88760428D02*
X196459914Y-88722333D01*
X196459914Y-88722333D02*
X196307533Y-88722333D01*
X196307533Y-88722333D02*
X196231342Y-88760428D01*
X196231342Y-88760428D02*
X196193247Y-88798523D01*
X196193247Y-88798523D02*
X196155152Y-88874714D01*
X193240390Y-90398523D02*
X193202295Y-90474713D01*
X193202295Y-90474713D02*
X193202295Y-90588999D01*
X193202295Y-90588999D02*
X193240390Y-90703285D01*
X193240390Y-90703285D02*
X193316580Y-90779475D01*
X193316580Y-90779475D02*
X193392771Y-90817570D01*
X193392771Y-90817570D02*
X193545152Y-90855666D01*
X193545152Y-90855666D02*
X193659438Y-90855666D01*
X193659438Y-90855666D02*
X193811819Y-90817570D01*
X193811819Y-90817570D02*
X193888009Y-90779475D01*
X193888009Y-90779475D02*
X193964200Y-90703285D01*
X193964200Y-90703285D02*
X194002295Y-90588999D01*
X194002295Y-90588999D02*
X194002295Y-90512808D01*
X194002295Y-90512808D02*
X193964200Y-90398523D01*
X193964200Y-90398523D02*
X193926104Y-90360427D01*
X193926104Y-90360427D02*
X193659438Y-90360427D01*
X193659438Y-90360427D02*
X193659438Y-90512808D01*
X194002295Y-90017570D02*
X193202295Y-90017570D01*
X193202295Y-90017570D02*
X194002295Y-89560427D01*
X194002295Y-89560427D02*
X193202295Y-89560427D01*
X194002295Y-89179475D02*
X193202295Y-89179475D01*
X193202295Y-89179475D02*
X193202295Y-88988999D01*
X193202295Y-88988999D02*
X193240390Y-88874713D01*
X193240390Y-88874713D02*
X193316580Y-88798523D01*
X193316580Y-88798523D02*
X193392771Y-88760428D01*
X193392771Y-88760428D02*
X193545152Y-88722332D01*
X193545152Y-88722332D02*
X193659438Y-88722332D01*
X193659438Y-88722332D02*
X193811819Y-88760428D01*
X193811819Y-88760428D02*
X193888009Y-88798523D01*
X193888009Y-88798523D02*
X193964200Y-88874713D01*
X193964200Y-88874713D02*
X194002295Y-88988999D01*
X194002295Y-88988999D02*
X194002295Y-89179475D01*
X199082295Y-101276095D02*
X198701342Y-101542762D01*
X199082295Y-101733238D02*
X198282295Y-101733238D01*
X198282295Y-101733238D02*
X198282295Y-101428476D01*
X198282295Y-101428476D02*
X198320390Y-101352286D01*
X198320390Y-101352286D02*
X198358485Y-101314191D01*
X198358485Y-101314191D02*
X198434676Y-101276095D01*
X198434676Y-101276095D02*
X198548961Y-101276095D01*
X198548961Y-101276095D02*
X198625152Y-101314191D01*
X198625152Y-101314191D02*
X198663247Y-101352286D01*
X198663247Y-101352286D02*
X198701342Y-101428476D01*
X198701342Y-101428476D02*
X198701342Y-101733238D01*
X198853723Y-100971334D02*
X198853723Y-100590381D01*
X199082295Y-101047524D02*
X198282295Y-100780857D01*
X198282295Y-100780857D02*
X199082295Y-100514191D01*
X198282295Y-100323715D02*
X199082295Y-100133239D01*
X199082295Y-100133239D02*
X198510866Y-99980858D01*
X198510866Y-99980858D02*
X199082295Y-99828477D01*
X199082295Y-99828477D02*
X198282295Y-99638001D01*
X195780390Y-101314190D02*
X195742295Y-101390380D01*
X195742295Y-101390380D02*
X195742295Y-101504666D01*
X195742295Y-101504666D02*
X195780390Y-101618952D01*
X195780390Y-101618952D02*
X195856580Y-101695142D01*
X195856580Y-101695142D02*
X195932771Y-101733237D01*
X195932771Y-101733237D02*
X196085152Y-101771333D01*
X196085152Y-101771333D02*
X196199438Y-101771333D01*
X196199438Y-101771333D02*
X196351819Y-101733237D01*
X196351819Y-101733237D02*
X196428009Y-101695142D01*
X196428009Y-101695142D02*
X196504200Y-101618952D01*
X196504200Y-101618952D02*
X196542295Y-101504666D01*
X196542295Y-101504666D02*
X196542295Y-101428475D01*
X196542295Y-101428475D02*
X196504200Y-101314190D01*
X196504200Y-101314190D02*
X196466104Y-101276094D01*
X196466104Y-101276094D02*
X196199438Y-101276094D01*
X196199438Y-101276094D02*
X196199438Y-101428475D01*
X196542295Y-100933237D02*
X195742295Y-100933237D01*
X195742295Y-100933237D02*
X196542295Y-100476094D01*
X196542295Y-100476094D02*
X195742295Y-100476094D01*
X196542295Y-100095142D02*
X195742295Y-100095142D01*
X195742295Y-100095142D02*
X195742295Y-99904666D01*
X195742295Y-99904666D02*
X195780390Y-99790380D01*
X195780390Y-99790380D02*
X195856580Y-99714190D01*
X195856580Y-99714190D02*
X195932771Y-99676095D01*
X195932771Y-99676095D02*
X196085152Y-99637999D01*
X196085152Y-99637999D02*
X196199438Y-99637999D01*
X196199438Y-99637999D02*
X196351819Y-99676095D01*
X196351819Y-99676095D02*
X196428009Y-99714190D01*
X196428009Y-99714190D02*
X196504200Y-99790380D01*
X196504200Y-99790380D02*
X196542295Y-99904666D01*
X196542295Y-99904666D02*
X196542295Y-100095142D01*
X180502295Y-90512809D02*
X180502295Y-90436619D01*
X180502295Y-90436619D02*
X180540390Y-90360428D01*
X180540390Y-90360428D02*
X180578485Y-90322333D01*
X180578485Y-90322333D02*
X180654676Y-90284238D01*
X180654676Y-90284238D02*
X180807057Y-90246143D01*
X180807057Y-90246143D02*
X180997533Y-90246143D01*
X180997533Y-90246143D02*
X181149914Y-90284238D01*
X181149914Y-90284238D02*
X181226104Y-90322333D01*
X181226104Y-90322333D02*
X181264200Y-90360428D01*
X181264200Y-90360428D02*
X181302295Y-90436619D01*
X181302295Y-90436619D02*
X181302295Y-90512809D01*
X181302295Y-90512809D02*
X181264200Y-90589000D01*
X181264200Y-90589000D02*
X181226104Y-90627095D01*
X181226104Y-90627095D02*
X181149914Y-90665190D01*
X181149914Y-90665190D02*
X180997533Y-90703286D01*
X180997533Y-90703286D02*
X180807057Y-90703286D01*
X180807057Y-90703286D02*
X180654676Y-90665190D01*
X180654676Y-90665190D02*
X180578485Y-90627095D01*
X180578485Y-90627095D02*
X180540390Y-90589000D01*
X180540390Y-90589000D02*
X180502295Y-90512809D01*
X180578485Y-89941381D02*
X180540390Y-89903285D01*
X180540390Y-89903285D02*
X180502295Y-89827095D01*
X180502295Y-89827095D02*
X180502295Y-89636619D01*
X180502295Y-89636619D02*
X180540390Y-89560428D01*
X180540390Y-89560428D02*
X180578485Y-89522333D01*
X180578485Y-89522333D02*
X180654676Y-89484238D01*
X180654676Y-89484238D02*
X180730866Y-89484238D01*
X180730866Y-89484238D02*
X180845152Y-89522333D01*
X180845152Y-89522333D02*
X181302295Y-89979476D01*
X181302295Y-89979476D02*
X181302295Y-89484238D01*
X180768961Y-88798523D02*
X181302295Y-88798523D01*
X180464200Y-88988999D02*
X181035628Y-89179476D01*
X181035628Y-89179476D02*
X181035628Y-88684237D01*
X181302295Y-101320524D02*
X181302295Y-101777667D01*
X181302295Y-101549095D02*
X180502295Y-101549095D01*
X180502295Y-101549095D02*
X180616580Y-101625286D01*
X180616580Y-101625286D02*
X180692771Y-101701476D01*
X180692771Y-101701476D02*
X180730866Y-101777667D01*
X181302295Y-100558619D02*
X181302295Y-101015762D01*
X181302295Y-100787190D02*
X180502295Y-100787190D01*
X180502295Y-100787190D02*
X180616580Y-100863381D01*
X180616580Y-100863381D02*
X180692771Y-100939571D01*
X180692771Y-100939571D02*
X180730866Y-101015762D01*
X180502295Y-99834809D02*
X180502295Y-100215761D01*
X180502295Y-100215761D02*
X180883247Y-100253857D01*
X180883247Y-100253857D02*
X180845152Y-100215761D01*
X180845152Y-100215761D02*
X180807057Y-100139571D01*
X180807057Y-100139571D02*
X180807057Y-99949095D01*
X180807057Y-99949095D02*
X180845152Y-99872904D01*
X180845152Y-99872904D02*
X180883247Y-99834809D01*
X180883247Y-99834809D02*
X180959438Y-99796714D01*
X180959438Y-99796714D02*
X181149914Y-99796714D01*
X181149914Y-99796714D02*
X181226104Y-99834809D01*
X181226104Y-99834809D02*
X181264200Y-99872904D01*
X181264200Y-99872904D02*
X181302295Y-99949095D01*
X181302295Y-99949095D02*
X181302295Y-100139571D01*
X181302295Y-100139571D02*
X181264200Y-100215761D01*
X181264200Y-100215761D02*
X181226104Y-100253857D01*
X178762295Y-101320524D02*
X178762295Y-101777667D01*
X178762295Y-101549095D02*
X177962295Y-101549095D01*
X177962295Y-101549095D02*
X178076580Y-101625286D01*
X178076580Y-101625286D02*
X178152771Y-101701476D01*
X178152771Y-101701476D02*
X178190866Y-101777667D01*
X178762295Y-100558619D02*
X178762295Y-101015762D01*
X178762295Y-100787190D02*
X177962295Y-100787190D01*
X177962295Y-100787190D02*
X178076580Y-100863381D01*
X178076580Y-100863381D02*
X178152771Y-100939571D01*
X178152771Y-100939571D02*
X178190866Y-101015762D01*
X177962295Y-100291952D02*
X177962295Y-99796714D01*
X177962295Y-99796714D02*
X178267057Y-100063380D01*
X178267057Y-100063380D02*
X178267057Y-99949095D01*
X178267057Y-99949095D02*
X178305152Y-99872904D01*
X178305152Y-99872904D02*
X178343247Y-99834809D01*
X178343247Y-99834809D02*
X178419438Y-99796714D01*
X178419438Y-99796714D02*
X178609914Y-99796714D01*
X178609914Y-99796714D02*
X178686104Y-99834809D01*
X178686104Y-99834809D02*
X178724200Y-99872904D01*
X178724200Y-99872904D02*
X178762295Y-99949095D01*
X178762295Y-99949095D02*
X178762295Y-100177666D01*
X178762295Y-100177666D02*
X178724200Y-100253857D01*
X178724200Y-100253857D02*
X178686104Y-100291952D01*
X188122295Y-101587190D02*
X188122295Y-101511000D01*
X188122295Y-101511000D02*
X188160390Y-101434809D01*
X188160390Y-101434809D02*
X188198485Y-101396714D01*
X188198485Y-101396714D02*
X188274676Y-101358619D01*
X188274676Y-101358619D02*
X188427057Y-101320524D01*
X188427057Y-101320524D02*
X188617533Y-101320524D01*
X188617533Y-101320524D02*
X188769914Y-101358619D01*
X188769914Y-101358619D02*
X188846104Y-101396714D01*
X188846104Y-101396714D02*
X188884200Y-101434809D01*
X188884200Y-101434809D02*
X188922295Y-101511000D01*
X188922295Y-101511000D02*
X188922295Y-101587190D01*
X188922295Y-101587190D02*
X188884200Y-101663381D01*
X188884200Y-101663381D02*
X188846104Y-101701476D01*
X188846104Y-101701476D02*
X188769914Y-101739571D01*
X188769914Y-101739571D02*
X188617533Y-101777667D01*
X188617533Y-101777667D02*
X188427057Y-101777667D01*
X188427057Y-101777667D02*
X188274676Y-101739571D01*
X188274676Y-101739571D02*
X188198485Y-101701476D01*
X188198485Y-101701476D02*
X188160390Y-101663381D01*
X188160390Y-101663381D02*
X188122295Y-101587190D01*
X188122295Y-101053857D02*
X188122295Y-100558619D01*
X188122295Y-100558619D02*
X188427057Y-100825285D01*
X188427057Y-100825285D02*
X188427057Y-100711000D01*
X188427057Y-100711000D02*
X188465152Y-100634809D01*
X188465152Y-100634809D02*
X188503247Y-100596714D01*
X188503247Y-100596714D02*
X188579438Y-100558619D01*
X188579438Y-100558619D02*
X188769914Y-100558619D01*
X188769914Y-100558619D02*
X188846104Y-100596714D01*
X188846104Y-100596714D02*
X188884200Y-100634809D01*
X188884200Y-100634809D02*
X188922295Y-100711000D01*
X188922295Y-100711000D02*
X188922295Y-100939571D01*
X188922295Y-100939571D02*
X188884200Y-101015762D01*
X188884200Y-101015762D02*
X188846104Y-101053857D01*
X188922295Y-99796714D02*
X188922295Y-100253857D01*
X188922295Y-100025285D02*
X188122295Y-100025285D01*
X188122295Y-100025285D02*
X188236580Y-100101476D01*
X188236580Y-100101476D02*
X188312771Y-100177666D01*
X188312771Y-100177666D02*
X188350866Y-100253857D01*
X185582295Y-101587190D02*
X185582295Y-101511000D01*
X185582295Y-101511000D02*
X185620390Y-101434809D01*
X185620390Y-101434809D02*
X185658485Y-101396714D01*
X185658485Y-101396714D02*
X185734676Y-101358619D01*
X185734676Y-101358619D02*
X185887057Y-101320524D01*
X185887057Y-101320524D02*
X186077533Y-101320524D01*
X186077533Y-101320524D02*
X186229914Y-101358619D01*
X186229914Y-101358619D02*
X186306104Y-101396714D01*
X186306104Y-101396714D02*
X186344200Y-101434809D01*
X186344200Y-101434809D02*
X186382295Y-101511000D01*
X186382295Y-101511000D02*
X186382295Y-101587190D01*
X186382295Y-101587190D02*
X186344200Y-101663381D01*
X186344200Y-101663381D02*
X186306104Y-101701476D01*
X186306104Y-101701476D02*
X186229914Y-101739571D01*
X186229914Y-101739571D02*
X186077533Y-101777667D01*
X186077533Y-101777667D02*
X185887057Y-101777667D01*
X185887057Y-101777667D02*
X185734676Y-101739571D01*
X185734676Y-101739571D02*
X185658485Y-101701476D01*
X185658485Y-101701476D02*
X185620390Y-101663381D01*
X185620390Y-101663381D02*
X185582295Y-101587190D01*
X185658485Y-101015762D02*
X185620390Y-100977666D01*
X185620390Y-100977666D02*
X185582295Y-100901476D01*
X185582295Y-100901476D02*
X185582295Y-100711000D01*
X185582295Y-100711000D02*
X185620390Y-100634809D01*
X185620390Y-100634809D02*
X185658485Y-100596714D01*
X185658485Y-100596714D02*
X185734676Y-100558619D01*
X185734676Y-100558619D02*
X185810866Y-100558619D01*
X185810866Y-100558619D02*
X185925152Y-100596714D01*
X185925152Y-100596714D02*
X186382295Y-101053857D01*
X186382295Y-101053857D02*
X186382295Y-100558619D01*
X186382295Y-100177666D02*
X186382295Y-100025285D01*
X186382295Y-100025285D02*
X186344200Y-99949095D01*
X186344200Y-99949095D02*
X186306104Y-99910999D01*
X186306104Y-99910999D02*
X186191819Y-99834809D01*
X186191819Y-99834809D02*
X186039438Y-99796714D01*
X186039438Y-99796714D02*
X185734676Y-99796714D01*
X185734676Y-99796714D02*
X185658485Y-99834809D01*
X185658485Y-99834809D02*
X185620390Y-99872904D01*
X185620390Y-99872904D02*
X185582295Y-99949095D01*
X185582295Y-99949095D02*
X185582295Y-100101476D01*
X185582295Y-100101476D02*
X185620390Y-100177666D01*
X185620390Y-100177666D02*
X185658485Y-100215761D01*
X185658485Y-100215761D02*
X185734676Y-100253857D01*
X185734676Y-100253857D02*
X185925152Y-100253857D01*
X185925152Y-100253857D02*
X186001342Y-100215761D01*
X186001342Y-100215761D02*
X186039438Y-100177666D01*
X186039438Y-100177666D02*
X186077533Y-100101476D01*
X186077533Y-100101476D02*
X186077533Y-99949095D01*
X186077533Y-99949095D02*
X186039438Y-99872904D01*
X186039438Y-99872904D02*
X186001342Y-99834809D01*
X186001342Y-99834809D02*
X185925152Y-99796714D01*
X178762295Y-90246143D02*
X178762295Y-90703286D01*
X178762295Y-90474714D02*
X177962295Y-90474714D01*
X177962295Y-90474714D02*
X178076580Y-90550905D01*
X178076580Y-90550905D02*
X178152771Y-90627095D01*
X178152771Y-90627095D02*
X178190866Y-90703286D01*
X177962295Y-89750904D02*
X177962295Y-89674714D01*
X177962295Y-89674714D02*
X178000390Y-89598523D01*
X178000390Y-89598523D02*
X178038485Y-89560428D01*
X178038485Y-89560428D02*
X178114676Y-89522333D01*
X178114676Y-89522333D02*
X178267057Y-89484238D01*
X178267057Y-89484238D02*
X178457533Y-89484238D01*
X178457533Y-89484238D02*
X178609914Y-89522333D01*
X178609914Y-89522333D02*
X178686104Y-89560428D01*
X178686104Y-89560428D02*
X178724200Y-89598523D01*
X178724200Y-89598523D02*
X178762295Y-89674714D01*
X178762295Y-89674714D02*
X178762295Y-89750904D01*
X178762295Y-89750904D02*
X178724200Y-89827095D01*
X178724200Y-89827095D02*
X178686104Y-89865190D01*
X178686104Y-89865190D02*
X178609914Y-89903285D01*
X178609914Y-89903285D02*
X178457533Y-89941381D01*
X178457533Y-89941381D02*
X178267057Y-89941381D01*
X178267057Y-89941381D02*
X178114676Y-89903285D01*
X178114676Y-89903285D02*
X178038485Y-89865190D01*
X178038485Y-89865190D02*
X178000390Y-89827095D01*
X178000390Y-89827095D02*
X177962295Y-89750904D01*
X177962295Y-88988999D02*
X177962295Y-88912809D01*
X177962295Y-88912809D02*
X178000390Y-88836618D01*
X178000390Y-88836618D02*
X178038485Y-88798523D01*
X178038485Y-88798523D02*
X178114676Y-88760428D01*
X178114676Y-88760428D02*
X178267057Y-88722333D01*
X178267057Y-88722333D02*
X178457533Y-88722333D01*
X178457533Y-88722333D02*
X178609914Y-88760428D01*
X178609914Y-88760428D02*
X178686104Y-88798523D01*
X178686104Y-88798523D02*
X178724200Y-88836618D01*
X178724200Y-88836618D02*
X178762295Y-88912809D01*
X178762295Y-88912809D02*
X178762295Y-88988999D01*
X178762295Y-88988999D02*
X178724200Y-89065190D01*
X178724200Y-89065190D02*
X178686104Y-89103285D01*
X178686104Y-89103285D02*
X178609914Y-89141380D01*
X178609914Y-89141380D02*
X178457533Y-89179476D01*
X178457533Y-89179476D02*
X178267057Y-89179476D01*
X178267057Y-89179476D02*
X178114676Y-89141380D01*
X178114676Y-89141380D02*
X178038485Y-89103285D01*
X178038485Y-89103285D02*
X178000390Y-89065190D01*
X178000390Y-89065190D02*
X177962295Y-88988999D01*
X190700390Y-90398523D02*
X190662295Y-90474713D01*
X190662295Y-90474713D02*
X190662295Y-90588999D01*
X190662295Y-90588999D02*
X190700390Y-90703285D01*
X190700390Y-90703285D02*
X190776580Y-90779475D01*
X190776580Y-90779475D02*
X190852771Y-90817570D01*
X190852771Y-90817570D02*
X191005152Y-90855666D01*
X191005152Y-90855666D02*
X191119438Y-90855666D01*
X191119438Y-90855666D02*
X191271819Y-90817570D01*
X191271819Y-90817570D02*
X191348009Y-90779475D01*
X191348009Y-90779475D02*
X191424200Y-90703285D01*
X191424200Y-90703285D02*
X191462295Y-90588999D01*
X191462295Y-90588999D02*
X191462295Y-90512808D01*
X191462295Y-90512808D02*
X191424200Y-90398523D01*
X191424200Y-90398523D02*
X191386104Y-90360427D01*
X191386104Y-90360427D02*
X191119438Y-90360427D01*
X191119438Y-90360427D02*
X191119438Y-90512808D01*
X191462295Y-90017570D02*
X190662295Y-90017570D01*
X190662295Y-90017570D02*
X191462295Y-89560427D01*
X191462295Y-89560427D02*
X190662295Y-89560427D01*
X191462295Y-89179475D02*
X190662295Y-89179475D01*
X190662295Y-89179475D02*
X190662295Y-88988999D01*
X190662295Y-88988999D02*
X190700390Y-88874713D01*
X190700390Y-88874713D02*
X190776580Y-88798523D01*
X190776580Y-88798523D02*
X190852771Y-88760428D01*
X190852771Y-88760428D02*
X191005152Y-88722332D01*
X191005152Y-88722332D02*
X191119438Y-88722332D01*
X191119438Y-88722332D02*
X191271819Y-88760428D01*
X191271819Y-88760428D02*
X191348009Y-88798523D01*
X191348009Y-88798523D02*
X191424200Y-88874713D01*
X191424200Y-88874713D02*
X191462295Y-88988999D01*
X191462295Y-88988999D02*
X191462295Y-89179475D01*
X194002295Y-101276094D02*
X193621342Y-101542761D01*
X194002295Y-101733237D02*
X193202295Y-101733237D01*
X193202295Y-101733237D02*
X193202295Y-101428475D01*
X193202295Y-101428475D02*
X193240390Y-101352285D01*
X193240390Y-101352285D02*
X193278485Y-101314190D01*
X193278485Y-101314190D02*
X193354676Y-101276094D01*
X193354676Y-101276094D02*
X193468961Y-101276094D01*
X193468961Y-101276094D02*
X193545152Y-101314190D01*
X193545152Y-101314190D02*
X193583247Y-101352285D01*
X193583247Y-101352285D02*
X193621342Y-101428475D01*
X193621342Y-101428475D02*
X193621342Y-101733237D01*
X193964200Y-100971333D02*
X194002295Y-100857047D01*
X194002295Y-100857047D02*
X194002295Y-100666571D01*
X194002295Y-100666571D02*
X193964200Y-100590380D01*
X193964200Y-100590380D02*
X193926104Y-100552285D01*
X193926104Y-100552285D02*
X193849914Y-100514190D01*
X193849914Y-100514190D02*
X193773723Y-100514190D01*
X193773723Y-100514190D02*
X193697533Y-100552285D01*
X193697533Y-100552285D02*
X193659438Y-100590380D01*
X193659438Y-100590380D02*
X193621342Y-100666571D01*
X193621342Y-100666571D02*
X193583247Y-100818952D01*
X193583247Y-100818952D02*
X193545152Y-100895142D01*
X193545152Y-100895142D02*
X193507057Y-100933237D01*
X193507057Y-100933237D02*
X193430866Y-100971333D01*
X193430866Y-100971333D02*
X193354676Y-100971333D01*
X193354676Y-100971333D02*
X193278485Y-100933237D01*
X193278485Y-100933237D02*
X193240390Y-100895142D01*
X193240390Y-100895142D02*
X193202295Y-100818952D01*
X193202295Y-100818952D02*
X193202295Y-100628475D01*
X193202295Y-100628475D02*
X193240390Y-100514190D01*
X193202295Y-100285618D02*
X193202295Y-99828475D01*
X194002295Y-100057047D02*
X193202295Y-100057047D01*
X188112295Y-90512809D02*
X188112295Y-90436619D01*
X188112295Y-90436619D02*
X188150390Y-90360428D01*
X188150390Y-90360428D02*
X188188485Y-90322333D01*
X188188485Y-90322333D02*
X188264676Y-90284238D01*
X188264676Y-90284238D02*
X188417057Y-90246143D01*
X188417057Y-90246143D02*
X188607533Y-90246143D01*
X188607533Y-90246143D02*
X188759914Y-90284238D01*
X188759914Y-90284238D02*
X188836104Y-90322333D01*
X188836104Y-90322333D02*
X188874200Y-90360428D01*
X188874200Y-90360428D02*
X188912295Y-90436619D01*
X188912295Y-90436619D02*
X188912295Y-90512809D01*
X188912295Y-90512809D02*
X188874200Y-90589000D01*
X188874200Y-90589000D02*
X188836104Y-90627095D01*
X188836104Y-90627095D02*
X188759914Y-90665190D01*
X188759914Y-90665190D02*
X188607533Y-90703286D01*
X188607533Y-90703286D02*
X188417057Y-90703286D01*
X188417057Y-90703286D02*
X188264676Y-90665190D01*
X188264676Y-90665190D02*
X188188485Y-90627095D01*
X188188485Y-90627095D02*
X188150390Y-90589000D01*
X188150390Y-90589000D02*
X188112295Y-90512809D01*
X188912295Y-89484238D02*
X188912295Y-89941381D01*
X188912295Y-89712809D02*
X188112295Y-89712809D01*
X188112295Y-89712809D02*
X188226580Y-89789000D01*
X188226580Y-89789000D02*
X188302771Y-89865190D01*
X188302771Y-89865190D02*
X188340866Y-89941381D01*
X188112295Y-89217571D02*
X188112295Y-88684237D01*
X188112295Y-88684237D02*
X188912295Y-89027095D01*
X183012295Y-90512809D02*
X183012295Y-90436619D01*
X183012295Y-90436619D02*
X183050390Y-90360428D01*
X183050390Y-90360428D02*
X183088485Y-90322333D01*
X183088485Y-90322333D02*
X183164676Y-90284238D01*
X183164676Y-90284238D02*
X183317057Y-90246143D01*
X183317057Y-90246143D02*
X183507533Y-90246143D01*
X183507533Y-90246143D02*
X183659914Y-90284238D01*
X183659914Y-90284238D02*
X183736104Y-90322333D01*
X183736104Y-90322333D02*
X183774200Y-90360428D01*
X183774200Y-90360428D02*
X183812295Y-90436619D01*
X183812295Y-90436619D02*
X183812295Y-90512809D01*
X183812295Y-90512809D02*
X183774200Y-90589000D01*
X183774200Y-90589000D02*
X183736104Y-90627095D01*
X183736104Y-90627095D02*
X183659914Y-90665190D01*
X183659914Y-90665190D02*
X183507533Y-90703286D01*
X183507533Y-90703286D02*
X183317057Y-90703286D01*
X183317057Y-90703286D02*
X183164676Y-90665190D01*
X183164676Y-90665190D02*
X183088485Y-90627095D01*
X183088485Y-90627095D02*
X183050390Y-90589000D01*
X183050390Y-90589000D02*
X183012295Y-90512809D01*
X183088485Y-89941381D02*
X183050390Y-89903285D01*
X183050390Y-89903285D02*
X183012295Y-89827095D01*
X183012295Y-89827095D02*
X183012295Y-89636619D01*
X183012295Y-89636619D02*
X183050390Y-89560428D01*
X183050390Y-89560428D02*
X183088485Y-89522333D01*
X183088485Y-89522333D02*
X183164676Y-89484238D01*
X183164676Y-89484238D02*
X183240866Y-89484238D01*
X183240866Y-89484238D02*
X183355152Y-89522333D01*
X183355152Y-89522333D02*
X183812295Y-89979476D01*
X183812295Y-89979476D02*
X183812295Y-89484238D01*
X183088485Y-89179476D02*
X183050390Y-89141380D01*
X183050390Y-89141380D02*
X183012295Y-89065190D01*
X183012295Y-89065190D02*
X183012295Y-88874714D01*
X183012295Y-88874714D02*
X183050390Y-88798523D01*
X183050390Y-88798523D02*
X183088485Y-88760428D01*
X183088485Y-88760428D02*
X183164676Y-88722333D01*
X183164676Y-88722333D02*
X183240866Y-88722333D01*
X183240866Y-88722333D02*
X183355152Y-88760428D01*
X183355152Y-88760428D02*
X183812295Y-89217571D01*
X183812295Y-89217571D02*
X183812295Y-88722333D01*
X190662295Y-101853857D02*
X191462295Y-101587190D01*
X191462295Y-101587190D02*
X190662295Y-101320524D01*
X191386104Y-100596714D02*
X191424200Y-100634810D01*
X191424200Y-100634810D02*
X191462295Y-100749095D01*
X191462295Y-100749095D02*
X191462295Y-100825286D01*
X191462295Y-100825286D02*
X191424200Y-100939572D01*
X191424200Y-100939572D02*
X191348009Y-101015762D01*
X191348009Y-101015762D02*
X191271819Y-101053857D01*
X191271819Y-101053857D02*
X191119438Y-101091953D01*
X191119438Y-101091953D02*
X191005152Y-101091953D01*
X191005152Y-101091953D02*
X190852771Y-101053857D01*
X190852771Y-101053857D02*
X190776580Y-101015762D01*
X190776580Y-101015762D02*
X190700390Y-100939572D01*
X190700390Y-100939572D02*
X190662295Y-100825286D01*
X190662295Y-100825286D02*
X190662295Y-100749095D01*
X190662295Y-100749095D02*
X190700390Y-100634810D01*
X190700390Y-100634810D02*
X190738485Y-100596714D01*
X191386104Y-99796714D02*
X191424200Y-99834810D01*
X191424200Y-99834810D02*
X191462295Y-99949095D01*
X191462295Y-99949095D02*
X191462295Y-100025286D01*
X191462295Y-100025286D02*
X191424200Y-100139572D01*
X191424200Y-100139572D02*
X191348009Y-100215762D01*
X191348009Y-100215762D02*
X191271819Y-100253857D01*
X191271819Y-100253857D02*
X191119438Y-100291953D01*
X191119438Y-100291953D02*
X191005152Y-100291953D01*
X191005152Y-100291953D02*
X190852771Y-100253857D01*
X190852771Y-100253857D02*
X190776580Y-100215762D01*
X190776580Y-100215762D02*
X190700390Y-100139572D01*
X190700390Y-100139572D02*
X190662295Y-100025286D01*
X190662295Y-100025286D02*
X190662295Y-99949095D01*
X190662295Y-99949095D02*
X190700390Y-99834810D01*
X190700390Y-99834810D02*
X190738485Y-99796714D01*
D12*
X170966328Y-100539714D02*
X171966328Y-100539714D01*
X171109185Y-100539714D02*
X171037757Y-100468285D01*
X171037757Y-100468285D02*
X170966328Y-100325428D01*
X170966328Y-100325428D02*
X170966328Y-100111142D01*
X170966328Y-100111142D02*
X171037757Y-99968285D01*
X171037757Y-99968285D02*
X171180614Y-99896857D01*
X171180614Y-99896857D02*
X171966328Y-99896857D01*
X171966328Y-99182571D02*
X170966328Y-99182571D01*
X170466328Y-99182571D02*
X170537757Y-99253999D01*
X170537757Y-99253999D02*
X170609185Y-99182571D01*
X170609185Y-99182571D02*
X170537757Y-99111142D01*
X170537757Y-99111142D02*
X170466328Y-99182571D01*
X170466328Y-99182571D02*
X170609185Y-99182571D01*
X171894900Y-97825428D02*
X171966328Y-97968285D01*
X171966328Y-97968285D02*
X171966328Y-98253999D01*
X171966328Y-98253999D02*
X171894900Y-98396856D01*
X171894900Y-98396856D02*
X171823471Y-98468285D01*
X171823471Y-98468285D02*
X171680614Y-98539713D01*
X171680614Y-98539713D02*
X171252042Y-98539713D01*
X171252042Y-98539713D02*
X171109185Y-98468285D01*
X171109185Y-98468285D02*
X171037757Y-98396856D01*
X171037757Y-98396856D02*
X170966328Y-98253999D01*
X170966328Y-98253999D02*
X170966328Y-97968285D01*
X170966328Y-97968285D02*
X171037757Y-97825428D01*
X171894900Y-96611142D02*
X171966328Y-96753999D01*
X171966328Y-96753999D02*
X171966328Y-97039714D01*
X171966328Y-97039714D02*
X171894900Y-97182571D01*
X171894900Y-97182571D02*
X171752042Y-97253999D01*
X171752042Y-97253999D02*
X171180614Y-97253999D01*
X171180614Y-97253999D02*
X171037757Y-97182571D01*
X171037757Y-97182571D02*
X170966328Y-97039714D01*
X170966328Y-97039714D02*
X170966328Y-96753999D01*
X170966328Y-96753999D02*
X171037757Y-96611142D01*
X171037757Y-96611142D02*
X171180614Y-96539714D01*
X171180614Y-96539714D02*
X171323471Y-96539714D01*
X171323471Y-96539714D02*
X171466328Y-97253999D01*
X171823471Y-95896857D02*
X171894900Y-95825428D01*
X171894900Y-95825428D02*
X171966328Y-95896857D01*
X171966328Y-95896857D02*
X171894900Y-95968285D01*
X171894900Y-95968285D02*
X171823471Y-95896857D01*
X171823471Y-95896857D02*
X171966328Y-95896857D01*
X171394900Y-95896857D02*
X170537757Y-95968285D01*
X170537757Y-95968285D02*
X170466328Y-95896857D01*
X170466328Y-95896857D02*
X170537757Y-95825428D01*
X170537757Y-95825428D02*
X171394900Y-95896857D01*
X171394900Y-95896857D02*
X170466328Y-95896857D01*
X170966328Y-95182571D02*
X171966328Y-95182571D01*
X171109185Y-95182571D02*
X171037757Y-95111142D01*
X171037757Y-95111142D02*
X170966328Y-94968285D01*
X170966328Y-94968285D02*
X170966328Y-94753999D01*
X170966328Y-94753999D02*
X171037757Y-94611142D01*
X171037757Y-94611142D02*
X171180614Y-94539714D01*
X171180614Y-94539714D02*
X171966328Y-94539714D01*
X171966328Y-93182571D02*
X171180614Y-93182571D01*
X171180614Y-93182571D02*
X171037757Y-93253999D01*
X171037757Y-93253999D02*
X170966328Y-93396856D01*
X170966328Y-93396856D02*
X170966328Y-93682571D01*
X170966328Y-93682571D02*
X171037757Y-93825428D01*
X171894900Y-93182571D02*
X171966328Y-93325428D01*
X171966328Y-93325428D02*
X171966328Y-93682571D01*
X171966328Y-93682571D02*
X171894900Y-93825428D01*
X171894900Y-93825428D02*
X171752042Y-93896856D01*
X171752042Y-93896856D02*
X171609185Y-93896856D01*
X171609185Y-93896856D02*
X171466328Y-93825428D01*
X171466328Y-93825428D02*
X171394900Y-93682571D01*
X171394900Y-93682571D02*
X171394900Y-93325428D01*
X171394900Y-93325428D02*
X171323471Y-93182571D01*
X170966328Y-92468285D02*
X171966328Y-92468285D01*
X171109185Y-92468285D02*
X171037757Y-92396856D01*
X171037757Y-92396856D02*
X170966328Y-92253999D01*
X170966328Y-92253999D02*
X170966328Y-92039713D01*
X170966328Y-92039713D02*
X171037757Y-91896856D01*
X171037757Y-91896856D02*
X171180614Y-91825428D01*
X171180614Y-91825428D02*
X171966328Y-91825428D01*
X171966328Y-90896856D02*
X171894900Y-91039713D01*
X171894900Y-91039713D02*
X171823471Y-91111142D01*
X171823471Y-91111142D02*
X171680614Y-91182570D01*
X171680614Y-91182570D02*
X171252042Y-91182570D01*
X171252042Y-91182570D02*
X171109185Y-91111142D01*
X171109185Y-91111142D02*
X171037757Y-91039713D01*
X171037757Y-91039713D02*
X170966328Y-90896856D01*
X170966328Y-90896856D02*
X170966328Y-90682570D01*
X170966328Y-90682570D02*
X171037757Y-90539713D01*
X171037757Y-90539713D02*
X171109185Y-90468285D01*
X171109185Y-90468285D02*
X171252042Y-90396856D01*
X171252042Y-90396856D02*
X171680614Y-90396856D01*
X171680614Y-90396856D02*
X171823471Y-90468285D01*
X171823471Y-90468285D02*
X171894900Y-90539713D01*
X171894900Y-90539713D02*
X171966328Y-90682570D01*
X171966328Y-90682570D02*
X171966328Y-90896856D01*
D11*
X176222295Y-101320524D02*
X176222295Y-101777667D01*
X176222295Y-101549095D02*
X175422295Y-101549095D01*
X175422295Y-101549095D02*
X175536580Y-101625286D01*
X175536580Y-101625286D02*
X175612771Y-101701476D01*
X175612771Y-101701476D02*
X175650866Y-101777667D01*
X176222295Y-100558619D02*
X176222295Y-101015762D01*
X176222295Y-100787190D02*
X175422295Y-100787190D01*
X175422295Y-100787190D02*
X175536580Y-100863381D01*
X175536580Y-100863381D02*
X175612771Y-100939571D01*
X175612771Y-100939571D02*
X175650866Y-101015762D01*
X176222295Y-99796714D02*
X176222295Y-100253857D01*
X176222295Y-100025285D02*
X175422295Y-100025285D01*
X175422295Y-100025285D02*
X175536580Y-100101476D01*
X175536580Y-100101476D02*
X175612771Y-100177666D01*
X175612771Y-100177666D02*
X175650866Y-100253857D01*
X172882295Y-101587190D02*
X172882295Y-101511000D01*
X172882295Y-101511000D02*
X172920390Y-101434809D01*
X172920390Y-101434809D02*
X172958485Y-101396714D01*
X172958485Y-101396714D02*
X173034676Y-101358619D01*
X173034676Y-101358619D02*
X173187057Y-101320524D01*
X173187057Y-101320524D02*
X173377533Y-101320524D01*
X173377533Y-101320524D02*
X173529914Y-101358619D01*
X173529914Y-101358619D02*
X173606104Y-101396714D01*
X173606104Y-101396714D02*
X173644200Y-101434809D01*
X173644200Y-101434809D02*
X173682295Y-101511000D01*
X173682295Y-101511000D02*
X173682295Y-101587190D01*
X173682295Y-101587190D02*
X173644200Y-101663381D01*
X173644200Y-101663381D02*
X173606104Y-101701476D01*
X173606104Y-101701476D02*
X173529914Y-101739571D01*
X173529914Y-101739571D02*
X173377533Y-101777667D01*
X173377533Y-101777667D02*
X173187057Y-101777667D01*
X173187057Y-101777667D02*
X173034676Y-101739571D01*
X173034676Y-101739571D02*
X172958485Y-101701476D01*
X172958485Y-101701476D02*
X172920390Y-101663381D01*
X172920390Y-101663381D02*
X172882295Y-101587190D01*
X173682295Y-100558619D02*
X173682295Y-101015762D01*
X173682295Y-100787190D02*
X172882295Y-100787190D01*
X172882295Y-100787190D02*
X172996580Y-100863381D01*
X172996580Y-100863381D02*
X173072771Y-100939571D01*
X173072771Y-100939571D02*
X173110866Y-101015762D01*
X172882295Y-100063380D02*
X172882295Y-99987190D01*
X172882295Y-99987190D02*
X172920390Y-99910999D01*
X172920390Y-99910999D02*
X172958485Y-99872904D01*
X172958485Y-99872904D02*
X173034676Y-99834809D01*
X173034676Y-99834809D02*
X173187057Y-99796714D01*
X173187057Y-99796714D02*
X173377533Y-99796714D01*
X173377533Y-99796714D02*
X173529914Y-99834809D01*
X173529914Y-99834809D02*
X173606104Y-99872904D01*
X173606104Y-99872904D02*
X173644200Y-99910999D01*
X173644200Y-99910999D02*
X173682295Y-99987190D01*
X173682295Y-99987190D02*
X173682295Y-100063380D01*
X173682295Y-100063380D02*
X173644200Y-100139571D01*
X173644200Y-100139571D02*
X173606104Y-100177666D01*
X173606104Y-100177666D02*
X173529914Y-100215761D01*
X173529914Y-100215761D02*
X173377533Y-100253857D01*
X173377533Y-100253857D02*
X173187057Y-100253857D01*
X173187057Y-100253857D02*
X173034676Y-100215761D01*
X173034676Y-100215761D02*
X172958485Y-100177666D01*
X172958485Y-100177666D02*
X172920390Y-100139571D01*
X172920390Y-100139571D02*
X172882295Y-100063380D01*
X183042295Y-101587190D02*
X183042295Y-101511000D01*
X183042295Y-101511000D02*
X183080390Y-101434809D01*
X183080390Y-101434809D02*
X183118485Y-101396714D01*
X183118485Y-101396714D02*
X183194676Y-101358619D01*
X183194676Y-101358619D02*
X183347057Y-101320524D01*
X183347057Y-101320524D02*
X183537533Y-101320524D01*
X183537533Y-101320524D02*
X183689914Y-101358619D01*
X183689914Y-101358619D02*
X183766104Y-101396714D01*
X183766104Y-101396714D02*
X183804200Y-101434809D01*
X183804200Y-101434809D02*
X183842295Y-101511000D01*
X183842295Y-101511000D02*
X183842295Y-101587190D01*
X183842295Y-101587190D02*
X183804200Y-101663381D01*
X183804200Y-101663381D02*
X183766104Y-101701476D01*
X183766104Y-101701476D02*
X183689914Y-101739571D01*
X183689914Y-101739571D02*
X183537533Y-101777667D01*
X183537533Y-101777667D02*
X183347057Y-101777667D01*
X183347057Y-101777667D02*
X183194676Y-101739571D01*
X183194676Y-101739571D02*
X183118485Y-101701476D01*
X183118485Y-101701476D02*
X183080390Y-101663381D01*
X183080390Y-101663381D02*
X183042295Y-101587190D01*
X183042295Y-100825285D02*
X183042295Y-100749095D01*
X183042295Y-100749095D02*
X183080390Y-100672904D01*
X183080390Y-100672904D02*
X183118485Y-100634809D01*
X183118485Y-100634809D02*
X183194676Y-100596714D01*
X183194676Y-100596714D02*
X183347057Y-100558619D01*
X183347057Y-100558619D02*
X183537533Y-100558619D01*
X183537533Y-100558619D02*
X183689914Y-100596714D01*
X183689914Y-100596714D02*
X183766104Y-100634809D01*
X183766104Y-100634809D02*
X183804200Y-100672904D01*
X183804200Y-100672904D02*
X183842295Y-100749095D01*
X183842295Y-100749095D02*
X183842295Y-100825285D01*
X183842295Y-100825285D02*
X183804200Y-100901476D01*
X183804200Y-100901476D02*
X183766104Y-100939571D01*
X183766104Y-100939571D02*
X183689914Y-100977666D01*
X183689914Y-100977666D02*
X183537533Y-101015762D01*
X183537533Y-101015762D02*
X183347057Y-101015762D01*
X183347057Y-101015762D02*
X183194676Y-100977666D01*
X183194676Y-100977666D02*
X183118485Y-100939571D01*
X183118485Y-100939571D02*
X183080390Y-100901476D01*
X183080390Y-100901476D02*
X183042295Y-100825285D01*
X183118485Y-100253857D02*
X183080390Y-100215761D01*
X183080390Y-100215761D02*
X183042295Y-100139571D01*
X183042295Y-100139571D02*
X183042295Y-99949095D01*
X183042295Y-99949095D02*
X183080390Y-99872904D01*
X183080390Y-99872904D02*
X183118485Y-99834809D01*
X183118485Y-99834809D02*
X183194676Y-99796714D01*
X183194676Y-99796714D02*
X183270866Y-99796714D01*
X183270866Y-99796714D02*
X183385152Y-99834809D01*
X183385152Y-99834809D02*
X183842295Y-100291952D01*
X183842295Y-100291952D02*
X183842295Y-99796714D01*
X198282295Y-90512809D02*
X198282295Y-90436619D01*
X198282295Y-90436619D02*
X198320390Y-90360428D01*
X198320390Y-90360428D02*
X198358485Y-90322333D01*
X198358485Y-90322333D02*
X198434676Y-90284238D01*
X198434676Y-90284238D02*
X198587057Y-90246143D01*
X198587057Y-90246143D02*
X198777533Y-90246143D01*
X198777533Y-90246143D02*
X198929914Y-90284238D01*
X198929914Y-90284238D02*
X199006104Y-90322333D01*
X199006104Y-90322333D02*
X199044200Y-90360428D01*
X199044200Y-90360428D02*
X199082295Y-90436619D01*
X199082295Y-90436619D02*
X199082295Y-90512809D01*
X199082295Y-90512809D02*
X199044200Y-90589000D01*
X199044200Y-90589000D02*
X199006104Y-90627095D01*
X199006104Y-90627095D02*
X198929914Y-90665190D01*
X198929914Y-90665190D02*
X198777533Y-90703286D01*
X198777533Y-90703286D02*
X198587057Y-90703286D01*
X198587057Y-90703286D02*
X198434676Y-90665190D01*
X198434676Y-90665190D02*
X198358485Y-90627095D01*
X198358485Y-90627095D02*
X198320390Y-90589000D01*
X198320390Y-90589000D02*
X198282295Y-90512809D01*
X198282295Y-89750904D02*
X198282295Y-89674714D01*
X198282295Y-89674714D02*
X198320390Y-89598523D01*
X198320390Y-89598523D02*
X198358485Y-89560428D01*
X198358485Y-89560428D02*
X198434676Y-89522333D01*
X198434676Y-89522333D02*
X198587057Y-89484238D01*
X198587057Y-89484238D02*
X198777533Y-89484238D01*
X198777533Y-89484238D02*
X198929914Y-89522333D01*
X198929914Y-89522333D02*
X199006104Y-89560428D01*
X199006104Y-89560428D02*
X199044200Y-89598523D01*
X199044200Y-89598523D02*
X199082295Y-89674714D01*
X199082295Y-89674714D02*
X199082295Y-89750904D01*
X199082295Y-89750904D02*
X199044200Y-89827095D01*
X199044200Y-89827095D02*
X199006104Y-89865190D01*
X199006104Y-89865190D02*
X198929914Y-89903285D01*
X198929914Y-89903285D02*
X198777533Y-89941381D01*
X198777533Y-89941381D02*
X198587057Y-89941381D01*
X198587057Y-89941381D02*
X198434676Y-89903285D01*
X198434676Y-89903285D02*
X198358485Y-89865190D01*
X198358485Y-89865190D02*
X198320390Y-89827095D01*
X198320390Y-89827095D02*
X198282295Y-89750904D01*
X198282295Y-88798523D02*
X198282295Y-88950904D01*
X198282295Y-88950904D02*
X198320390Y-89027095D01*
X198320390Y-89027095D02*
X198358485Y-89065190D01*
X198358485Y-89065190D02*
X198472771Y-89141380D01*
X198472771Y-89141380D02*
X198625152Y-89179476D01*
X198625152Y-89179476D02*
X198929914Y-89179476D01*
X198929914Y-89179476D02*
X199006104Y-89141380D01*
X199006104Y-89141380D02*
X199044200Y-89103285D01*
X199044200Y-89103285D02*
X199082295Y-89027095D01*
X199082295Y-89027095D02*
X199082295Y-88874714D01*
X199082295Y-88874714D02*
X199044200Y-88798523D01*
X199044200Y-88798523D02*
X199006104Y-88760428D01*
X199006104Y-88760428D02*
X198929914Y-88722333D01*
X198929914Y-88722333D02*
X198739438Y-88722333D01*
X198739438Y-88722333D02*
X198663247Y-88760428D01*
X198663247Y-88760428D02*
X198625152Y-88798523D01*
X198625152Y-88798523D02*
X198587057Y-88874714D01*
X198587057Y-88874714D02*
X198587057Y-89027095D01*
X198587057Y-89027095D02*
X198625152Y-89103285D01*
X198625152Y-89103285D02*
X198663247Y-89141380D01*
X198663247Y-89141380D02*
X198739438Y-89179476D01*
X185512295Y-90512809D02*
X185512295Y-90436619D01*
X185512295Y-90436619D02*
X185550390Y-90360428D01*
X185550390Y-90360428D02*
X185588485Y-90322333D01*
X185588485Y-90322333D02*
X185664676Y-90284238D01*
X185664676Y-90284238D02*
X185817057Y-90246143D01*
X185817057Y-90246143D02*
X186007533Y-90246143D01*
X186007533Y-90246143D02*
X186159914Y-90284238D01*
X186159914Y-90284238D02*
X186236104Y-90322333D01*
X186236104Y-90322333D02*
X186274200Y-90360428D01*
X186274200Y-90360428D02*
X186312295Y-90436619D01*
X186312295Y-90436619D02*
X186312295Y-90512809D01*
X186312295Y-90512809D02*
X186274200Y-90589000D01*
X186274200Y-90589000D02*
X186236104Y-90627095D01*
X186236104Y-90627095D02*
X186159914Y-90665190D01*
X186159914Y-90665190D02*
X186007533Y-90703286D01*
X186007533Y-90703286D02*
X185817057Y-90703286D01*
X185817057Y-90703286D02*
X185664676Y-90665190D01*
X185664676Y-90665190D02*
X185588485Y-90627095D01*
X185588485Y-90627095D02*
X185550390Y-90589000D01*
X185550390Y-90589000D02*
X185512295Y-90512809D01*
X185588485Y-89941381D02*
X185550390Y-89903285D01*
X185550390Y-89903285D02*
X185512295Y-89827095D01*
X185512295Y-89827095D02*
X185512295Y-89636619D01*
X185512295Y-89636619D02*
X185550390Y-89560428D01*
X185550390Y-89560428D02*
X185588485Y-89522333D01*
X185588485Y-89522333D02*
X185664676Y-89484238D01*
X185664676Y-89484238D02*
X185740866Y-89484238D01*
X185740866Y-89484238D02*
X185855152Y-89522333D01*
X185855152Y-89522333D02*
X186312295Y-89979476D01*
X186312295Y-89979476D02*
X186312295Y-89484238D01*
X185512295Y-88988999D02*
X185512295Y-88912809D01*
X185512295Y-88912809D02*
X185550390Y-88836618D01*
X185550390Y-88836618D02*
X185588485Y-88798523D01*
X185588485Y-88798523D02*
X185664676Y-88760428D01*
X185664676Y-88760428D02*
X185817057Y-88722333D01*
X185817057Y-88722333D02*
X186007533Y-88722333D01*
X186007533Y-88722333D02*
X186159914Y-88760428D01*
X186159914Y-88760428D02*
X186236104Y-88798523D01*
X186236104Y-88798523D02*
X186274200Y-88836618D01*
X186274200Y-88836618D02*
X186312295Y-88912809D01*
X186312295Y-88912809D02*
X186312295Y-88988999D01*
X186312295Y-88988999D02*
X186274200Y-89065190D01*
X186274200Y-89065190D02*
X186236104Y-89103285D01*
X186236104Y-89103285D02*
X186159914Y-89141380D01*
X186159914Y-89141380D02*
X186007533Y-89179476D01*
X186007533Y-89179476D02*
X185817057Y-89179476D01*
X185817057Y-89179476D02*
X185664676Y-89141380D01*
X185664676Y-89141380D02*
X185588485Y-89103285D01*
X185588485Y-89103285D02*
X185550390Y-89065190D01*
X185550390Y-89065190D02*
X185512295Y-88988999D01*
X173682295Y-90246143D02*
X173682295Y-90703286D01*
X173682295Y-90474714D02*
X172882295Y-90474714D01*
X172882295Y-90474714D02*
X172996580Y-90550905D01*
X172996580Y-90550905D02*
X173072771Y-90627095D01*
X173072771Y-90627095D02*
X173110866Y-90703286D01*
X172882295Y-89750904D02*
X172882295Y-89674714D01*
X172882295Y-89674714D02*
X172920390Y-89598523D01*
X172920390Y-89598523D02*
X172958485Y-89560428D01*
X172958485Y-89560428D02*
X173034676Y-89522333D01*
X173034676Y-89522333D02*
X173187057Y-89484238D01*
X173187057Y-89484238D02*
X173377533Y-89484238D01*
X173377533Y-89484238D02*
X173529914Y-89522333D01*
X173529914Y-89522333D02*
X173606104Y-89560428D01*
X173606104Y-89560428D02*
X173644200Y-89598523D01*
X173644200Y-89598523D02*
X173682295Y-89674714D01*
X173682295Y-89674714D02*
X173682295Y-89750904D01*
X173682295Y-89750904D02*
X173644200Y-89827095D01*
X173644200Y-89827095D02*
X173606104Y-89865190D01*
X173606104Y-89865190D02*
X173529914Y-89903285D01*
X173529914Y-89903285D02*
X173377533Y-89941381D01*
X173377533Y-89941381D02*
X173187057Y-89941381D01*
X173187057Y-89941381D02*
X173034676Y-89903285D01*
X173034676Y-89903285D02*
X172958485Y-89865190D01*
X172958485Y-89865190D02*
X172920390Y-89827095D01*
X172920390Y-89827095D02*
X172882295Y-89750904D01*
X173148961Y-88798523D02*
X173682295Y-88798523D01*
X172844200Y-88988999D02*
X173415628Y-89179476D01*
X173415628Y-89179476D02*
X173415628Y-88684237D01*
D13*
%TO.C,D13*%
X182400000Y-129500000D02*
X183200000Y-129500000D01*
X182800000Y-129500000D02*
X182800000Y-129000000D01*
X182800000Y-130100000D02*
X182250000Y-130100000D01*
X182800000Y-130100000D02*
X182400000Y-129500000D01*
X182800000Y-130100000D02*
X183350000Y-130100000D01*
X182800000Y-130500000D02*
X182800000Y-130100000D01*
X183200000Y-129500000D02*
X182800000Y-130100000D01*
%TO.C,D14*%
X182400000Y-111750000D02*
X183200000Y-111750000D01*
X182800000Y-111750000D02*
X182800000Y-111250000D01*
X182800000Y-112350000D02*
X182250000Y-112350000D01*
X182800000Y-112350000D02*
X182400000Y-111750000D01*
X182800000Y-112350000D02*
X183350000Y-112350000D01*
X182800000Y-112750000D02*
X182800000Y-112350000D01*
X183200000Y-111750000D02*
X182800000Y-112350000D01*
%TO.C,D25*%
X144900000Y-103750000D02*
X145700000Y-103750000D01*
X145300000Y-103750000D02*
X145300000Y-103250000D01*
X145300000Y-104350000D02*
X144750000Y-104350000D01*
X145300000Y-104350000D02*
X144900000Y-103750000D01*
X145300000Y-104350000D02*
X145850000Y-104350000D01*
X145300000Y-104750000D02*
X145300000Y-104350000D01*
X145700000Y-103750000D02*
X145300000Y-104350000D01*
D14*
%TO.C,MCU1*%
X169510000Y-86360000D02*
X169510000Y-104140000D01*
X169510000Y-104140000D02*
X202530000Y-104140000D01*
X202530000Y-86360000D02*
X169510000Y-86360000D01*
X202530000Y-104140000D02*
X202530000Y-86360000D01*
D13*
%TO.C,D27*%
X163650000Y-89000000D02*
X164450000Y-89000000D01*
X164050000Y-89000000D02*
X164050000Y-88500000D01*
X164050000Y-89600000D02*
X163500000Y-89600000D01*
X164050000Y-89600000D02*
X163650000Y-89000000D01*
X164050000Y-89600000D02*
X164600000Y-89600000D01*
X164050000Y-90000000D02*
X164050000Y-89600000D01*
X164450000Y-89000000D02*
X164050000Y-89600000D01*
%TO.C,D1*%
X107400000Y-153250000D02*
X108200000Y-153250000D01*
X107800000Y-153250000D02*
X107800000Y-152750000D01*
X107800000Y-153850000D02*
X107250000Y-153850000D01*
X107800000Y-153850000D02*
X107400000Y-153250000D01*
X107800000Y-153850000D02*
X108350000Y-153850000D01*
X107800000Y-154250000D02*
X107800000Y-153850000D01*
X108200000Y-153250000D02*
X107800000Y-153850000D01*
%TO.C,D12*%
X182400000Y-147250000D02*
X183200000Y-147250000D01*
X182800000Y-147250000D02*
X182800000Y-146750000D01*
X182800000Y-147850000D02*
X182250000Y-147850000D01*
X182800000Y-147850000D02*
X182400000Y-147250000D01*
X182800000Y-147850000D02*
X183350000Y-147850000D01*
X182800000Y-148250000D02*
X182800000Y-147850000D01*
X183200000Y-147250000D02*
X182800000Y-147850000D01*
%TO.C,D11*%
X163650000Y-105750000D02*
X164450000Y-105750000D01*
X164050000Y-105750000D02*
X164050000Y-105250000D01*
X164050000Y-106350000D02*
X163500000Y-106350000D01*
X164050000Y-106350000D02*
X163650000Y-105750000D01*
X164050000Y-106350000D02*
X164600000Y-106350000D01*
X164050000Y-106750000D02*
X164050000Y-106350000D01*
X164450000Y-105750000D02*
X164050000Y-106350000D01*
%TO.C,D15*%
X182400000Y-94000000D02*
X183200000Y-94000000D01*
X182800000Y-94000000D02*
X182800000Y-93500000D01*
X182800000Y-94600000D02*
X182250000Y-94600000D01*
X182800000Y-94600000D02*
X182400000Y-94000000D01*
X182800000Y-94600000D02*
X183350000Y-94600000D01*
X182800000Y-95000000D02*
X182800000Y-94600000D01*
X183200000Y-94000000D02*
X182800000Y-94600000D01*
%TO.C,D20*%
X216589442Y-189860458D02*
X216886700Y-189592806D01*
X216886700Y-189592806D02*
X216518678Y-189184076D01*
X216886700Y-189592806D02*
X217064935Y-188894069D01*
X216886700Y-189592806D02*
X217254722Y-190001535D01*
X217064935Y-188894069D02*
X217600239Y-189488585D01*
X217332587Y-189191327D02*
X217704160Y-188856762D01*
X217600239Y-189488585D02*
X216886700Y-189592806D01*
%TO.C,D22*%
X201150000Y-120750000D02*
X201950000Y-120750000D01*
X201550000Y-120750000D02*
X201550000Y-120250000D01*
X201550000Y-121350000D02*
X201000000Y-121350000D01*
X201550000Y-121350000D02*
X201150000Y-120750000D01*
X201550000Y-121350000D02*
X202100000Y-121350000D01*
X201550000Y-121750000D02*
X201550000Y-121350000D01*
X201950000Y-120750000D02*
X201550000Y-121350000D01*
%TO.C,D18*%
X182150000Y-167250000D02*
X182950000Y-167250000D01*
X182550000Y-167250000D02*
X182550000Y-166750000D01*
X182550000Y-167850000D02*
X182000000Y-167850000D01*
X182550000Y-167850000D02*
X182150000Y-167250000D01*
X182550000Y-167850000D02*
X183100000Y-167850000D01*
X182550000Y-168250000D02*
X182550000Y-167850000D01*
X182950000Y-167250000D02*
X182550000Y-167850000D01*
%TO.C,D24*%
X107400000Y-93000000D02*
X108200000Y-93000000D01*
X107800000Y-93000000D02*
X107800000Y-92500000D01*
X107800000Y-93600000D02*
X107250000Y-93600000D01*
X107800000Y-93600000D02*
X107400000Y-93000000D01*
X107800000Y-93600000D02*
X108350000Y-93600000D01*
X107800000Y-94000000D02*
X107800000Y-93600000D01*
X108200000Y-93000000D02*
X107800000Y-93600000D01*
%TO.C,D9*%
X144900000Y-93000000D02*
X145700000Y-93000000D01*
X145300000Y-93000000D02*
X145300000Y-92500000D01*
X145300000Y-93600000D02*
X144750000Y-93600000D01*
X145300000Y-93600000D02*
X144900000Y-93000000D01*
X145300000Y-93600000D02*
X145850000Y-93600000D01*
X145300000Y-94000000D02*
X145300000Y-93600000D01*
X145700000Y-93000000D02*
X145300000Y-93600000D01*
%TO.C,D4*%
X126150000Y-135500000D02*
X126950000Y-135500000D01*
X126550000Y-135500000D02*
X126550000Y-135000000D01*
X126550000Y-136100000D02*
X126000000Y-136100000D01*
X126550000Y-136100000D02*
X126150000Y-135500000D01*
X126550000Y-136100000D02*
X127100000Y-136100000D01*
X126550000Y-136500000D02*
X126550000Y-136100000D01*
X126950000Y-135500000D02*
X126550000Y-136100000D01*
%TO.C,D3*%
X126150000Y-153250000D02*
X126950000Y-153250000D01*
X126550000Y-153250000D02*
X126550000Y-152750000D01*
X126550000Y-153850000D02*
X126000000Y-153850000D01*
X126550000Y-153850000D02*
X126150000Y-153250000D01*
X126550000Y-153850000D02*
X127100000Y-153850000D01*
X126550000Y-154250000D02*
X126550000Y-153850000D01*
X126950000Y-153250000D02*
X126550000Y-153850000D01*
%TO.C,D16*%
X201150000Y-150250000D02*
X201950000Y-150250000D01*
X201550000Y-150250000D02*
X201550000Y-149750000D01*
X201550000Y-150850000D02*
X201000000Y-150850000D01*
X201550000Y-150850000D02*
X201150000Y-150250000D01*
X201550000Y-150850000D02*
X202100000Y-150850000D01*
X201550000Y-151250000D02*
X201550000Y-150850000D01*
X201950000Y-150250000D02*
X201550000Y-150850000D01*
%TO.C,D17*%
X201150000Y-132500000D02*
X201950000Y-132500000D01*
X201550000Y-132500000D02*
X201550000Y-132000000D01*
X201550000Y-133100000D02*
X201000000Y-133100000D01*
X201550000Y-133100000D02*
X201150000Y-132500000D01*
X201550000Y-133100000D02*
X202100000Y-133100000D01*
X201550000Y-133500000D02*
X201550000Y-133100000D01*
X201950000Y-132500000D02*
X201550000Y-133100000D01*
%TO.C,D26*%
X163650000Y-142250000D02*
X164450000Y-142250000D01*
X164050000Y-142250000D02*
X164050000Y-141750000D01*
X164050000Y-142850000D02*
X163500000Y-142850000D01*
X164050000Y-142850000D02*
X163650000Y-142250000D01*
X164050000Y-142850000D02*
X164600000Y-142850000D01*
X164050000Y-143250000D02*
X164050000Y-142850000D01*
X164450000Y-142250000D02*
X164050000Y-142850000D01*
%TO.C,D23*%
X107400000Y-128500000D02*
X108200000Y-128500000D01*
X107800000Y-128500000D02*
X107800000Y-128000000D01*
X107800000Y-129100000D02*
X107250000Y-129100000D01*
X107800000Y-129100000D02*
X107400000Y-128500000D01*
X107800000Y-129100000D02*
X108350000Y-129100000D01*
X107800000Y-129500000D02*
X107800000Y-129100000D01*
X108200000Y-128500000D02*
X107800000Y-129100000D01*
%TO.C,D21*%
X201150000Y-109500000D02*
X201950000Y-109500000D01*
X201550000Y-109500000D02*
X201550000Y-109000000D01*
X201550000Y-110100000D02*
X201000000Y-110100000D01*
X201550000Y-110100000D02*
X201150000Y-109500000D01*
X201550000Y-110100000D02*
X202100000Y-110100000D01*
X201550000Y-110500000D02*
X201550000Y-110100000D01*
X201950000Y-109500000D02*
X201550000Y-110100000D01*
%TO.C,D8*%
X144900000Y-128500000D02*
X145700000Y-128500000D01*
X145300000Y-128500000D02*
X145300000Y-128000000D01*
X145300000Y-129100000D02*
X144750000Y-129100000D01*
X145300000Y-129100000D02*
X144900000Y-128500000D01*
X145300000Y-129100000D02*
X145850000Y-129100000D01*
X145300000Y-129500000D02*
X145300000Y-129100000D01*
X145700000Y-128500000D02*
X145300000Y-129100000D01*
%TO.C,D7*%
X144900000Y-146250000D02*
X145700000Y-146250000D01*
X145300000Y-146250000D02*
X145300000Y-145750000D01*
X145300000Y-146850000D02*
X144750000Y-146850000D01*
X145300000Y-146850000D02*
X144900000Y-146250000D01*
X145300000Y-146850000D02*
X145850000Y-146850000D01*
X145300000Y-147250000D02*
X145300000Y-146850000D01*
X145700000Y-146250000D02*
X145300000Y-146850000D01*
%TO.C,D10*%
X163650000Y-123500000D02*
X164450000Y-123500000D01*
X164050000Y-123500000D02*
X164050000Y-123000000D01*
X164050000Y-124100000D02*
X163500000Y-124100000D01*
X164050000Y-124100000D02*
X163650000Y-123500000D01*
X164050000Y-124100000D02*
X164600000Y-124100000D01*
X164050000Y-124500000D02*
X164050000Y-124100000D01*
X164450000Y-123500000D02*
X164050000Y-124100000D01*
%TO.C,D5*%
X126150000Y-117750000D02*
X126950000Y-117750000D01*
X126550000Y-117750000D02*
X126550000Y-117250000D01*
X126550000Y-118350000D02*
X126000000Y-118350000D01*
X126550000Y-118350000D02*
X126150000Y-117750000D01*
X126550000Y-118350000D02*
X127100000Y-118350000D01*
X126550000Y-118750000D02*
X126550000Y-118350000D01*
X126950000Y-117750000D02*
X126550000Y-118350000D01*
%TO.C,D19*%
X201711730Y-174146453D02*
X202463484Y-174420069D01*
X201745587Y-175222953D02*
X201882395Y-174847076D01*
X201882395Y-174847076D02*
X201365564Y-174658965D01*
X201882395Y-174847076D02*
X201711730Y-174146453D01*
X201882395Y-174847076D02*
X202399226Y-175035187D01*
X202087607Y-174283261D02*
X202258617Y-173813415D01*
X202463484Y-174420069D02*
X201882395Y-174847076D01*
%TO.C,D6*%
X126150000Y-100000000D02*
X126950000Y-100000000D01*
X126550000Y-100000000D02*
X126550000Y-99500000D01*
X126550000Y-100600000D02*
X126000000Y-100600000D01*
X126550000Y-100600000D02*
X126150000Y-100000000D01*
X126550000Y-100600000D02*
X127100000Y-100600000D01*
X126550000Y-101000000D02*
X126550000Y-100600000D01*
X126950000Y-100000000D02*
X126550000Y-100600000D01*
%TO.C,D2*%
X107400000Y-117750000D02*
X108200000Y-117750000D01*
X107800000Y-117750000D02*
X107800000Y-117250000D01*
X107800000Y-118350000D02*
X107250000Y-118350000D01*
X107800000Y-118350000D02*
X107400000Y-117750000D01*
X107800000Y-118350000D02*
X108350000Y-118350000D01*
X107800000Y-118750000D02*
X107800000Y-118350000D01*
X108200000Y-117750000D02*
X107800000Y-118350000D01*
%TD*%
D15*
%TO.C,MCU1*%
X198720000Y-87630000D03*
X196180000Y-87630000D03*
X193640000Y-87630000D03*
X191100000Y-87630000D03*
X188560000Y-87630000D03*
X186020000Y-87630000D03*
X183480000Y-87630000D03*
X180940000Y-87630000D03*
X178400000Y-87630000D03*
X175860000Y-87630000D03*
X173320000Y-87630000D03*
X170780000Y-87630000D03*
X170780000Y-102870000D03*
X173320000Y-102870000D03*
X175860000Y-102870000D03*
X178400000Y-102870000D03*
X180940000Y-102870000D03*
X183480000Y-102870000D03*
X186020000Y-102870000D03*
X188560000Y-102870000D03*
X191100000Y-102870000D03*
X193640000Y-102870000D03*
X196180000Y-102870000D03*
X198720000Y-102870000D03*
%TD*%
D16*
%TO.C,*%
X109750000Y-105250000D03*
%TD*%
%TO.C,*%
X109000000Y-140750000D03*
%TD*%
%TO.C,*%
X166000000Y-135500000D03*
%TD*%
%TO.C,*%
X186816389Y-158349259D03*
%TD*%
%TO.C,*%
X147250000Y-111750000D03*
%TD*%
M02*
