%TF.GenerationSoftware,KiCad,Pcbnew,8.0.7*%
%TF.CreationDate,2024-12-27T12:49:26-06:00*%
%TF.ProjectId,left,6c656674-2e6b-4696-9361-645f70636258,v1.0.0*%
%TF.SameCoordinates,Original*%
%TF.FileFunction,Paste,Bot*%
%TF.FilePolarity,Positive*%
%FSLAX46Y46*%
G04 Gerber Fmt 4.6, Leading zero omitted, Abs format (unit mm)*
G04 Created by KiCad (PCBNEW 8.0.7) date 2024-12-27 12:49:26*
%MOMM*%
%LPD*%
G01*
G04 APERTURE LIST*
G04 Aperture macros list*
%AMRotRect*
0 Rectangle, with rotation*
0 The origin of the aperture is its center*
0 $1 length*
0 $2 width*
0 $3 Rotation angle, in degrees counterclockwise*
0 Add horizontal line*
21,1,$1,$2,0,0,$3*%
G04 Aperture macros list end*
%ADD10RotRect,0.900000X0.900000X316.000000*%
%ADD11RotRect,0.900000X1.250000X316.000000*%
%ADD12R,1.200000X0.900000*%
%ADD13R,2.600000X2.600000*%
%ADD14RotRect,0.900000X1.200000X42.000000*%
%ADD15RotRect,1.550000X1.000000X316.000000*%
%ADD16RotRect,2.600000X2.600000X160.000000*%
%ADD17RotRect,2.600000X2.600000X132.000000*%
%ADD18RotRect,0.900000X1.200000X70.000000*%
G04 APERTURE END LIST*
D10*
%TO.C,T1*%
X214859089Y-169124410D03*
X213330841Y-170706958D03*
X220182203Y-174264882D03*
X218653955Y-175847430D03*
D11*
X213696591Y-172415569D03*
X215854611Y-174499544D03*
X216933620Y-175541531D03*
%TD*%
D12*
%TO.C,D13*%
X182800000Y-131400000D03*
X182800000Y-128100000D03*
%TD*%
D13*
%TO.C,S19*%
X178275000Y-114450000D03*
X166725000Y-112250000D03*
%TD*%
D12*
%TO.C,D14*%
X182800000Y-113650000D03*
X182800000Y-110350000D03*
%TD*%
D13*
%TO.C,S13*%
X159525000Y-143950000D03*
X147975000Y-141750000D03*
%TD*%
D12*
%TO.C,D25*%
X145300000Y-105650000D03*
X145300000Y-102350000D03*
%TD*%
D13*
%TO.C,S18*%
X178275000Y-132200000D03*
X166725000Y-130000000D03*
%TD*%
%TO.C,S1*%
X103275000Y-155950000D03*
X91725000Y-153750000D03*
%TD*%
%TO.C,S9*%
X140775000Y-148950000D03*
X129225000Y-146750000D03*
%TD*%
D12*
%TO.C,D27*%
X164050000Y-90900000D03*
X164050000Y-87600000D03*
%TD*%
D13*
%TO.C,S10*%
X140775000Y-131200000D03*
X129225000Y-129000000D03*
%TD*%
%TO.C,S14*%
X159525000Y-126200000D03*
X147975000Y-124000000D03*
%TD*%
D12*
%TO.C,D1*%
X107800000Y-155150000D03*
X107800000Y-151850000D03*
%TD*%
D13*
%TO.C,S12*%
X140775000Y-95700000D03*
X129225000Y-93500000D03*
%TD*%
%TO.C,S20*%
X178275000Y-96700000D03*
X166725000Y-94500000D03*
%TD*%
%TO.C,S8*%
X122025000Y-102700000D03*
X110475000Y-100500000D03*
%TD*%
%TO.C,S24*%
X197025000Y-99700000D03*
X185475000Y-97500000D03*
%TD*%
D12*
%TO.C,D12*%
X182800000Y-149150000D03*
X182800000Y-145850000D03*
%TD*%
D13*
%TO.C,S23*%
X197025000Y-117450000D03*
X185475000Y-115250000D03*
%TD*%
D12*
%TO.C,D11*%
X164050000Y-107650000D03*
X164050000Y-104350000D03*
%TD*%
%TO.C,D15*%
X182800000Y-95900000D03*
X182800000Y-92600000D03*
%TD*%
D14*
%TO.C,D20*%
X215920612Y-190462676D03*
X218372990Y-188254544D03*
%TD*%
D12*
%TO.C,D22*%
X201550000Y-122650000D03*
X201550000Y-119350000D03*
%TD*%
D13*
%TO.C,S21*%
X197025000Y-152950000D03*
X185475000Y-150750000D03*
%TD*%
D12*
%TO.C,D18*%
X182550000Y-169150000D03*
X182550000Y-165850000D03*
%TD*%
D13*
%TO.C,S5*%
X122025000Y-155950000D03*
X110475000Y-153750000D03*
%TD*%
%TO.C,S15*%
X159525000Y-108450000D03*
X147975000Y-106250000D03*
%TD*%
%TO.C,S22*%
X197025000Y-135200000D03*
X185475000Y-133000000D03*
%TD*%
%TO.C,S7*%
X122025000Y-120450000D03*
X110475000Y-118250000D03*
%TD*%
%TO.C,S6*%
X122025000Y-138200000D03*
X110475000Y-136000000D03*
%TD*%
D12*
%TO.C,D24*%
X107800000Y-94900000D03*
X107800000Y-91600000D03*
%TD*%
%TO.C,D9*%
X145300000Y-94900000D03*
X145300000Y-91600000D03*
%TD*%
D15*
%TO.C,B1*%
X222001092Y-176270915D03*
X225777626Y-179917871D03*
X220820172Y-177493793D03*
X224596706Y-181140749D03*
%TD*%
D12*
%TO.C,D4*%
X126550000Y-137400000D03*
X126550000Y-134100000D03*
%TD*%
D13*
%TO.C,S2*%
X103275000Y-138200000D03*
X91725000Y-136000000D03*
%TD*%
D12*
%TO.C,D3*%
X126550000Y-155150000D03*
X126550000Y-151850000D03*
%TD*%
D13*
%TO.C,S25*%
X178025000Y-169950000D03*
X166475000Y-167750000D03*
%TD*%
D12*
%TO.C,D16*%
X201550000Y-152150000D03*
X201550000Y-148850000D03*
%TD*%
%TO.C,D17*%
X201550000Y-134400000D03*
X201550000Y-131100000D03*
%TD*%
D16*
%TO.C,S26*%
X196912043Y-175272790D03*
X186811038Y-169255134D03*
%TD*%
D13*
%TO.C,S3*%
X103275000Y-120450000D03*
X91725000Y-118250000D03*
%TD*%
D12*
%TO.C,D26*%
X164050000Y-144150000D03*
X164050000Y-140850000D03*
%TD*%
%TO.C,D23*%
X107800000Y-130400000D03*
X107800000Y-127100000D03*
%TD*%
D13*
%TO.C,S17*%
X178275000Y-149950000D03*
X166725000Y-147750000D03*
%TD*%
D12*
%TO.C,D21*%
X201550000Y-111400000D03*
X201550000Y-108100000D03*
%TD*%
%TO.C,D8*%
X145300000Y-130400000D03*
X145300000Y-127100000D03*
%TD*%
%TO.C,D7*%
X145300000Y-148150000D03*
X145300000Y-144850000D03*
%TD*%
D17*
%TO.C,S27*%
X212298280Y-187635249D03*
X206204740Y-177579839D03*
%TD*%
D12*
%TO.C,D10*%
X164050000Y-125400000D03*
X164050000Y-122100000D03*
%TD*%
D13*
%TO.C,S11*%
X140775000Y-113450000D03*
X129225000Y-111250000D03*
%TD*%
D12*
%TO.C,D5*%
X126550000Y-119650000D03*
X126550000Y-116350000D03*
%TD*%
D13*
%TO.C,S4*%
X103275000Y-102700000D03*
X91725000Y-100500000D03*
%TD*%
D18*
%TO.C,D19*%
X201437769Y-176068677D03*
X202566435Y-172967691D03*
%TD*%
D12*
%TO.C,D6*%
X126550000Y-101900000D03*
X126550000Y-98600000D03*
%TD*%
D13*
%TO.C,S16*%
X159525000Y-90700000D03*
X147975000Y-88500000D03*
%TD*%
D12*
%TO.C,D2*%
X107800000Y-119650000D03*
X107800000Y-116350000D03*
%TD*%
M02*
