%TF.GenerationSoftware,KiCad,Pcbnew,8.0.7*%
%TF.CreationDate,2024-12-27T12:49:26-06:00*%
%TF.ProjectId,left,6c656674-2e6b-4696-9361-645f70636258,v1.0.0*%
%TF.SameCoordinates,Original*%
%TF.FileFunction,Soldermask,Bot*%
%TF.FilePolarity,Negative*%
%FSLAX46Y46*%
G04 Gerber Fmt 4.6, Leading zero omitted, Abs format (unit mm)*
G04 Created by KiCad (PCBNEW 8.0.7) date 2024-12-27 12:49:26*
%MOMM*%
%LPD*%
G01*
G04 APERTURE LIST*
G04 Aperture macros list*
%AMRotRect*
0 Rectangle, with rotation*
0 The origin of the aperture is its center*
0 $1 length*
0 $2 width*
0 $3 Rotation angle, in degrees counterclockwise*
0 Add horizontal line*
21,1,$1,$2,0,0,$3*%
G04 Aperture macros list end*
%ADD10RotRect,0.900000X0.900000X316.000000*%
%ADD11C,1.000000*%
%ADD12RotRect,0.900000X1.250000X316.000000*%
%ADD13R,1.778000X1.778000*%
%ADD14R,1.200000X0.900000*%
%ADD15C,1.905000*%
%ADD16C,1.701800*%
%ADD17C,3.000000*%
%ADD18C,3.429000*%
%ADD19R,2.600000X2.600000*%
%ADD20C,1.752600*%
%ADD21C,4.000000*%
%ADD22RotRect,1.778000X1.778000X42.000000*%
%ADD23RotRect,0.900000X1.200000X42.000000*%
%ADD24C,0.750000*%
%ADD25RotRect,1.550000X1.000000X316.000000*%
%ADD26RotRect,2.600000X2.600000X160.000000*%
%ADD27R,1.700000X1.200000*%
%ADD28O,1.700000X1.200000*%
%ADD29RotRect,2.600000X2.600000X132.000000*%
%ADD30RotRect,1.778000X1.778000X70.000000*%
%ADD31RotRect,0.900000X1.200000X70.000000*%
G04 APERTURE END LIST*
D10*
%TO.C,T1*%
X214859089Y-169124410D03*
X213330841Y-170706958D03*
D11*
X215677512Y-171443932D03*
X217835532Y-173527908D03*
D10*
X220182203Y-174264882D03*
X218653955Y-175847430D03*
D12*
X213696591Y-172415569D03*
X215854611Y-174499544D03*
X216933620Y-175541531D03*
%TD*%
D13*
%TO.C,D13*%
X182800000Y-133560000D03*
D14*
X182800000Y-131400000D03*
X182800000Y-128100000D03*
D15*
X182800000Y-125940000D03*
%TD*%
D16*
%TO.C,S19*%
X180500000Y-108500000D03*
D17*
X175000000Y-114450000D03*
D18*
X175000000Y-108500000D03*
D17*
X170000000Y-112250000D03*
D16*
X169500000Y-108500000D03*
D19*
X178275000Y-114450000D03*
X166725000Y-112250000D03*
%TD*%
D13*
%TO.C,D14*%
X182800000Y-115810000D03*
D14*
X182800000Y-113650000D03*
X182800000Y-110350000D03*
D15*
X182800000Y-108190000D03*
%TD*%
D16*
%TO.C,S13*%
X161750000Y-138000000D03*
D17*
X156250000Y-143950000D03*
D18*
X156250000Y-138000000D03*
D17*
X151250000Y-141750000D03*
D16*
X150750000Y-138000000D03*
D19*
X159525000Y-143950000D03*
X147975000Y-141750000D03*
%TD*%
D13*
%TO.C,D25*%
X145300000Y-107810000D03*
D14*
X145300000Y-105650000D03*
X145300000Y-102350000D03*
D15*
X145300000Y-100190000D03*
%TD*%
D16*
%TO.C,S18*%
X180500000Y-126250000D03*
D17*
X175000000Y-132200000D03*
D18*
X175000000Y-126250000D03*
D17*
X170000000Y-130000000D03*
D16*
X169500000Y-126250000D03*
D19*
X178275000Y-132200000D03*
X166725000Y-130000000D03*
%TD*%
D20*
%TO.C,MCU1*%
X198720000Y-87630000D03*
X196180000Y-87630000D03*
X193640000Y-87630000D03*
X191100000Y-87630000D03*
X188560000Y-87630000D03*
X186020000Y-87630000D03*
X183480000Y-87630000D03*
X180940000Y-87630000D03*
X178400000Y-87630000D03*
X175860000Y-87630000D03*
X173320000Y-87630000D03*
X170780000Y-87630000D03*
X170780000Y-102870000D03*
X173320000Y-102870000D03*
X175860000Y-102870000D03*
X178400000Y-102870000D03*
X180940000Y-102870000D03*
X183480000Y-102870000D03*
X186020000Y-102870000D03*
X188560000Y-102870000D03*
X191100000Y-102870000D03*
X193640000Y-102870000D03*
X196180000Y-102870000D03*
X198720000Y-102870000D03*
%TD*%
D16*
%TO.C,S1*%
X105500000Y-150000000D03*
D17*
X100000000Y-155950000D03*
D18*
X100000000Y-150000000D03*
D17*
X95000000Y-153750000D03*
D16*
X94500000Y-150000000D03*
D19*
X103275000Y-155950000D03*
X91725000Y-153750000D03*
%TD*%
D16*
%TO.C,S9*%
X143000000Y-143000000D03*
D17*
X137500000Y-148950000D03*
D18*
X137500000Y-143000000D03*
D17*
X132500000Y-146750000D03*
D16*
X132000000Y-143000000D03*
D19*
X140775000Y-148950000D03*
X129225000Y-146750000D03*
%TD*%
D13*
%TO.C,D27*%
X164050000Y-93060000D03*
D14*
X164050000Y-90900000D03*
X164050000Y-87600000D03*
D15*
X164050000Y-85440000D03*
%TD*%
D16*
%TO.C,S10*%
X143000000Y-125250000D03*
D17*
X137500000Y-131200000D03*
D18*
X137500000Y-125250000D03*
D17*
X132500000Y-129000000D03*
D16*
X132000000Y-125250000D03*
D19*
X140775000Y-131200000D03*
X129225000Y-129000000D03*
%TD*%
D21*
%TO.C,*%
X109750000Y-105250000D03*
%TD*%
D16*
%TO.C,S14*%
X161750000Y-120250000D03*
D17*
X156250000Y-126200000D03*
D18*
X156250000Y-120250000D03*
D17*
X151250000Y-124000000D03*
D16*
X150750000Y-120250000D03*
D19*
X159525000Y-126200000D03*
X147975000Y-124000000D03*
%TD*%
D13*
%TO.C,D1*%
X107800000Y-157310000D03*
D14*
X107800000Y-155150000D03*
X107800000Y-151850000D03*
D15*
X107800000Y-149690000D03*
%TD*%
D16*
%TO.C,S12*%
X143000000Y-89750000D03*
D17*
X137500000Y-95700000D03*
D18*
X137500000Y-89750000D03*
D17*
X132500000Y-93500000D03*
D16*
X132000000Y-89750000D03*
D19*
X140775000Y-95700000D03*
X129225000Y-93500000D03*
%TD*%
D21*
%TO.C,*%
X109000000Y-140750000D03*
%TD*%
D16*
%TO.C,S20*%
X180500000Y-90750000D03*
D17*
X175000000Y-96700000D03*
D18*
X175000000Y-90750000D03*
D17*
X170000000Y-94500000D03*
D16*
X169500000Y-90750000D03*
D19*
X178275000Y-96700000D03*
X166725000Y-94500000D03*
%TD*%
D16*
%TO.C,S8*%
X124250000Y-96750000D03*
D17*
X118750000Y-102700000D03*
D18*
X118750000Y-96750000D03*
D17*
X113750000Y-100500000D03*
D16*
X113250000Y-96750000D03*
D19*
X122025000Y-102700000D03*
X110475000Y-100500000D03*
%TD*%
D16*
%TO.C,S24*%
X199250000Y-93750000D03*
D17*
X193750000Y-99700000D03*
D18*
X193750000Y-93750000D03*
D17*
X188750000Y-97500000D03*
D16*
X188250000Y-93750000D03*
D19*
X197025000Y-99700000D03*
X185475000Y-97500000D03*
%TD*%
D13*
%TO.C,D12*%
X182800000Y-151310000D03*
D14*
X182800000Y-149150000D03*
X182800000Y-145850000D03*
D15*
X182800000Y-143690000D03*
%TD*%
D16*
%TO.C,S23*%
X199250000Y-111500000D03*
D17*
X193750000Y-117450000D03*
D18*
X193750000Y-111500000D03*
D17*
X188750000Y-115250000D03*
D16*
X188250000Y-111500000D03*
D19*
X197025000Y-117450000D03*
X185475000Y-115250000D03*
%TD*%
D13*
%TO.C,D11*%
X164050000Y-109810000D03*
D14*
X164050000Y-107650000D03*
X164050000Y-104350000D03*
D15*
X164050000Y-102190000D03*
%TD*%
D13*
%TO.C,D15*%
X182800000Y-98060000D03*
D14*
X182800000Y-95900000D03*
X182800000Y-92600000D03*
D15*
X182800000Y-90440000D03*
%TD*%
D22*
%TO.C,D20*%
X214315419Y-191907998D03*
D23*
X215920612Y-190462676D03*
X218372990Y-188254544D03*
D15*
X219978183Y-186809222D03*
%TD*%
D13*
%TO.C,D22*%
X201550000Y-124810000D03*
D14*
X201550000Y-122650000D03*
X201550000Y-119350000D03*
D15*
X201550000Y-117190000D03*
%TD*%
D16*
%TO.C,S21*%
X199250000Y-147000000D03*
D17*
X193750000Y-152950000D03*
D18*
X193750000Y-147000000D03*
D17*
X188750000Y-150750000D03*
D16*
X188250000Y-147000000D03*
D19*
X197025000Y-152950000D03*
X185475000Y-150750000D03*
%TD*%
D13*
%TO.C,D18*%
X182550000Y-171310000D03*
D14*
X182550000Y-169150000D03*
X182550000Y-165850000D03*
D15*
X182550000Y-163690000D03*
%TD*%
D16*
%TO.C,S5*%
X124250000Y-150000000D03*
D17*
X118750000Y-155950000D03*
D18*
X118750000Y-150000000D03*
D17*
X113750000Y-153750000D03*
D16*
X113250000Y-150000000D03*
D19*
X122025000Y-155950000D03*
X110475000Y-153750000D03*
%TD*%
D16*
%TO.C,S15*%
X161750000Y-102500000D03*
D17*
X156250000Y-108450000D03*
D18*
X156250000Y-102500000D03*
D17*
X151250000Y-106250000D03*
D16*
X150750000Y-102500000D03*
D19*
X159525000Y-108450000D03*
X147975000Y-106250000D03*
%TD*%
D16*
%TO.C,S22*%
X199250000Y-129250000D03*
D17*
X193750000Y-135200000D03*
D18*
X193750000Y-129250000D03*
D17*
X188750000Y-133000000D03*
D16*
X188250000Y-129250000D03*
D19*
X197025000Y-135200000D03*
X185475000Y-133000000D03*
%TD*%
D16*
%TO.C,S7*%
X124250000Y-114500000D03*
D17*
X118750000Y-120450000D03*
D18*
X118750000Y-114500000D03*
D17*
X113750000Y-118250000D03*
D16*
X113250000Y-114500000D03*
D19*
X122025000Y-120450000D03*
X110475000Y-118250000D03*
%TD*%
D16*
%TO.C,S6*%
X124250000Y-132250000D03*
D17*
X118750000Y-138200000D03*
D18*
X118750000Y-132250000D03*
D17*
X113750000Y-136000000D03*
D16*
X113250000Y-132250000D03*
D19*
X122025000Y-138200000D03*
X110475000Y-136000000D03*
%TD*%
D13*
%TO.C,D24*%
X107800000Y-97060000D03*
D14*
X107800000Y-94900000D03*
X107800000Y-91600000D03*
D15*
X107800000Y-89440000D03*
%TD*%
D13*
%TO.C,D9*%
X145300000Y-97060000D03*
D14*
X145300000Y-94900000D03*
X145300000Y-91600000D03*
D15*
X145300000Y-89440000D03*
%TD*%
D24*
%TO.C,B1*%
X224254054Y-177716740D03*
X222343744Y-179694924D03*
D25*
X222001092Y-176270915D03*
X225777626Y-179917871D03*
X220820172Y-177493793D03*
X224596706Y-181140749D03*
%TD*%
D13*
%TO.C,D4*%
X126550000Y-139560000D03*
D14*
X126550000Y-137400000D03*
X126550000Y-134100000D03*
D15*
X126550000Y-131940000D03*
%TD*%
D16*
%TO.C,S2*%
X105500000Y-132250000D03*
D17*
X100000000Y-138200000D03*
D18*
X100000000Y-132250000D03*
D17*
X95000000Y-136000000D03*
D16*
X94500000Y-132250000D03*
D19*
X103275000Y-138200000D03*
X91725000Y-136000000D03*
%TD*%
D21*
%TO.C,*%
X166000000Y-135500000D03*
%TD*%
D13*
%TO.C,D3*%
X126550000Y-157310000D03*
D14*
X126550000Y-155150000D03*
X126550000Y-151850000D03*
D15*
X126550000Y-149690000D03*
%TD*%
D16*
%TO.C,S25*%
X180250000Y-164000000D03*
D17*
X174750000Y-169950000D03*
D18*
X174750000Y-164000000D03*
D17*
X169750000Y-167750000D03*
D16*
X169250000Y-164000000D03*
D19*
X178025000Y-169950000D03*
X166475000Y-167750000D03*
%TD*%
D13*
%TO.C,D16*%
X201550000Y-154310000D03*
D14*
X201550000Y-152150000D03*
X201550000Y-148850000D03*
D15*
X201550000Y-146690000D03*
%TD*%
D13*
%TO.C,D17*%
X201550000Y-136560000D03*
D14*
X201550000Y-134400000D03*
X201550000Y-131100000D03*
D15*
X201550000Y-128940000D03*
%TD*%
D16*
%TO.C,S26*%
X201037879Y-170442614D03*
D17*
X193834550Y-174152674D03*
D18*
X195869570Y-168561503D03*
D17*
X189888531Y-170375250D03*
D16*
X190701261Y-166680392D03*
D26*
X196912043Y-175272790D03*
X186811038Y-169255134D03*
%TD*%
D16*
%TO.C,S3*%
X105500000Y-114500000D03*
D17*
X100000000Y-120450000D03*
D18*
X100000000Y-114500000D03*
D17*
X95000000Y-118250000D03*
D16*
X94500000Y-114500000D03*
D19*
X103275000Y-120450000D03*
X91725000Y-118250000D03*
%TD*%
D13*
%TO.C,D26*%
X164050000Y-146310000D03*
D14*
X164050000Y-144150000D03*
X164050000Y-140850000D03*
D15*
X164050000Y-138690000D03*
%TD*%
D27*
%TO.C,JST1*%
X149550000Y-118000000D03*
D28*
X149550000Y-116000000D03*
%TD*%
D13*
%TO.C,D23*%
X107800000Y-132560000D03*
D14*
X107800000Y-130400000D03*
X107800000Y-127100000D03*
D15*
X107800000Y-124940000D03*
%TD*%
D16*
%TO.C,S17*%
X180500000Y-144000000D03*
D17*
X175000000Y-149950000D03*
D18*
X175000000Y-144000000D03*
D17*
X170000000Y-147750000D03*
D16*
X169500000Y-144000000D03*
D19*
X178275000Y-149950000D03*
X166725000Y-147750000D03*
%TD*%
D13*
%TO.C,D21*%
X201550000Y-113560000D03*
D14*
X201550000Y-111400000D03*
X201550000Y-108100000D03*
D15*
X201550000Y-105940000D03*
%TD*%
D13*
%TO.C,D8*%
X145300000Y-132560000D03*
D14*
X145300000Y-130400000D03*
X145300000Y-127100000D03*
D15*
X145300000Y-124940000D03*
%TD*%
D13*
%TO.C,D7*%
X145300000Y-150310000D03*
D14*
X145300000Y-148150000D03*
X145300000Y-144850000D03*
D15*
X145300000Y-142690000D03*
%TD*%
D16*
%TO.C,S27*%
X218208807Y-185307420D03*
D17*
X210106877Y-185201450D03*
D18*
X214528589Y-181220123D03*
D17*
X208396143Y-180013639D03*
D16*
X210848371Y-177132826D03*
D29*
X212298280Y-187635249D03*
X206204740Y-177579839D03*
%TD*%
D13*
%TO.C,D10*%
X164050000Y-127560000D03*
D14*
X164050000Y-125400000D03*
X164050000Y-122100000D03*
D15*
X164050000Y-119940000D03*
%TD*%
D21*
%TO.C,*%
X186816389Y-158349259D03*
%TD*%
D16*
%TO.C,S11*%
X143000000Y-107500000D03*
D17*
X137500000Y-113450000D03*
D18*
X137500000Y-107500000D03*
D17*
X132500000Y-111250000D03*
D16*
X132000000Y-107500000D03*
D19*
X140775000Y-113450000D03*
X129225000Y-111250000D03*
%TD*%
D13*
%TO.C,D5*%
X126550000Y-121810000D03*
D14*
X126550000Y-119650000D03*
X126550000Y-116350000D03*
D15*
X126550000Y-114190000D03*
%TD*%
D16*
%TO.C,S4*%
X105500000Y-96750000D03*
D17*
X100000000Y-102700000D03*
D18*
X100000000Y-96750000D03*
D17*
X95000000Y-100500000D03*
D16*
X94500000Y-96750000D03*
D19*
X103275000Y-102700000D03*
X91725000Y-100500000D03*
%TD*%
D30*
%TO.C,D19*%
X200699005Y-178098413D03*
D31*
X201437769Y-176068677D03*
X202566435Y-172967691D03*
D15*
X203305199Y-170937955D03*
%TD*%
D13*
%TO.C,D6*%
X126550000Y-104060000D03*
D14*
X126550000Y-101900000D03*
X126550000Y-98600000D03*
D15*
X126550000Y-96440000D03*
%TD*%
D16*
%TO.C,S16*%
X161750000Y-84750000D03*
D17*
X156250000Y-90700000D03*
D18*
X156250000Y-84750000D03*
D17*
X151250000Y-88500000D03*
D16*
X150750000Y-84750000D03*
D19*
X159525000Y-90700000D03*
X147975000Y-88500000D03*
%TD*%
D21*
%TO.C,*%
X147250000Y-111750000D03*
%TD*%
D13*
%TO.C,D2*%
X107800000Y-121810000D03*
D14*
X107800000Y-119650000D03*
X107800000Y-116350000D03*
D15*
X107800000Y-114190000D03*
%TD*%
M02*
