%TF.GenerationSoftware,KiCad,Pcbnew,8.0.7*%
%TF.CreationDate,2024-12-27T12:49:26-06:00*%
%TF.ProjectId,left,6c656674-2e6b-4696-9361-645f70636258,v1.0.0*%
%TF.SameCoordinates,Original*%
%TF.FileFunction,Copper,L1,Top*%
%TF.FilePolarity,Positive*%
%FSLAX46Y46*%
G04 Gerber Fmt 4.6, Leading zero omitted, Abs format (unit mm)*
G04 Created by KiCad (PCBNEW 8.0.7) date 2024-12-27 12:49:26*
%MOMM*%
%LPD*%
G01*
G04 APERTURE LIST*
G04 Aperture macros list*
%AMRotRect*
0 Rectangle, with rotation*
0 The origin of the aperture is its center*
0 $1 length*
0 $2 width*
0 $3 Rotation angle, in degrees counterclockwise*
0 Add horizontal line*
21,1,$1,$2,0,0,$3*%
G04 Aperture macros list end*
%TA.AperFunction,WasherPad*%
%ADD10C,1.000000*%
%TD*%
%TA.AperFunction,ComponentPad*%
%ADD11R,1.778000X1.778000*%
%TD*%
%TA.AperFunction,SMDPad,CuDef*%
%ADD12R,1.200000X0.900000*%
%TD*%
%TA.AperFunction,ComponentPad*%
%ADD13C,1.905000*%
%TD*%
%TA.AperFunction,ComponentPad*%
%ADD14C,1.752600*%
%TD*%
%TA.AperFunction,ComponentPad*%
%ADD15RotRect,1.778000X1.778000X42.000000*%
%TD*%
%TA.AperFunction,SMDPad,CuDef*%
%ADD16RotRect,0.900000X1.200000X42.000000*%
%TD*%
%TA.AperFunction,ComponentPad*%
%ADD17R,1.700000X1.200000*%
%TD*%
%TA.AperFunction,ComponentPad*%
%ADD18O,1.700000X1.200000*%
%TD*%
%TA.AperFunction,ComponentPad*%
%ADD19RotRect,1.778000X1.778000X70.000000*%
%TD*%
%TA.AperFunction,SMDPad,CuDef*%
%ADD20RotRect,0.900000X1.200000X70.000000*%
%TD*%
%TA.AperFunction,ViaPad*%
%ADD21C,0.800000*%
%TD*%
%TA.AperFunction,Conductor*%
%ADD22C,0.250000*%
%TD*%
G04 APERTURE END LIST*
D10*
%TO.P,T1,*%
%TO.N,*%
X215677512Y-171443932D03*
X217835532Y-173527908D03*
%TD*%
D11*
%TO.P,D13,1*%
%TO.N,P115*%
X182800000Y-133560000D03*
D12*
X182800000Y-131400000D03*
%TO.P,D13,2*%
%TO.N,fifth_bottom*%
X182800000Y-128100000D03*
D13*
X182800000Y-125940000D03*
%TD*%
D11*
%TO.P,D14,1*%
%TO.N,P002*%
X182800000Y-115810000D03*
D12*
X182800000Y-113650000D03*
%TO.P,D14,2*%
%TO.N,fifth_home*%
X182800000Y-110350000D03*
D13*
X182800000Y-108190000D03*
%TD*%
D11*
%TO.P,D25,1*%
%TO.N,P002*%
X145300000Y-107810000D03*
D12*
X145300000Y-105650000D03*
%TO.P,D25,2*%
%TO.N,third_home*%
X145300000Y-102350000D03*
D13*
X145300000Y-100190000D03*
%TD*%
D14*
%TO.P,MCU1,1*%
%TO.N,P006*%
X198720000Y-87630000D03*
%TO.P,MCU1,2*%
%TO.N,P008*%
X196180000Y-87630000D03*
%TO.P,MCU1,3*%
%TO.N,GND*%
X193640000Y-87630000D03*
%TO.P,MCU1,4*%
X191100000Y-87630000D03*
%TO.P,MCU1,5*%
%TO.N,P017*%
X188560000Y-87630000D03*
%TO.P,MCU1,6*%
%TO.N,P020*%
X186020000Y-87630000D03*
%TO.P,MCU1,7*%
%TO.N,P022*%
X183480000Y-87630000D03*
%TO.P,MCU1,8*%
%TO.N,P024*%
X180940000Y-87630000D03*
%TO.P,MCU1,9*%
%TO.N,P100*%
X178400000Y-87630000D03*
%TO.P,MCU1,10*%
%TO.N,P011*%
X175860000Y-87630000D03*
%TO.P,MCU1,11*%
%TO.N,P104*%
X173320000Y-87630000D03*
%TO.P,MCU1,12*%
%TO.N,P106*%
X170780000Y-87630000D03*
%TO.P,MCU1,13*%
%TO.N,P009*%
X170780000Y-102870000D03*
%TO.P,MCU1,14*%
%TO.N,P010*%
X173320000Y-102870000D03*
%TO.P,MCU1,15*%
%TO.N,P111*%
X175860000Y-102870000D03*
%TO.P,MCU1,16*%
%TO.N,P113*%
X178400000Y-102870000D03*
%TO.P,MCU1,17*%
%TO.N,P115*%
X180940000Y-102870000D03*
%TO.P,MCU1,18*%
%TO.N,P002*%
X183480000Y-102870000D03*
%TO.P,MCU1,19*%
%TO.N,P029*%
X186020000Y-102870000D03*
%TO.P,MCU1,20*%
%TO.N,P031*%
X188560000Y-102870000D03*
%TO.P,MCU1,21*%
%TO.N,VCC*%
X191100000Y-102870000D03*
%TO.P,MCU1,22*%
%TO.N,RST*%
X193640000Y-102870000D03*
%TO.P,MCU1,23*%
%TO.N,GND*%
X196180000Y-102870000D03*
%TO.P,MCU1,24*%
%TO.N,RAW*%
X198720000Y-102870000D03*
%TD*%
D11*
%TO.P,D27,1*%
%TO.N,P029*%
X164050000Y-93060000D03*
D12*
X164050000Y-90900000D03*
%TO.P,D27,2*%
%TO.N,fourth_top*%
X164050000Y-87600000D03*
D13*
X164050000Y-85440000D03*
%TD*%
D11*
%TO.P,D1,1*%
%TO.N,P113*%
X107800000Y-157310000D03*
D12*
X107800000Y-155150000D03*
%TO.P,D1,2*%
%TO.N,first_mod*%
X107800000Y-151850000D03*
D13*
X107800000Y-149690000D03*
%TD*%
D11*
%TO.P,D12,1*%
%TO.N,P113*%
X182800000Y-151310000D03*
D12*
X182800000Y-149150000D03*
%TO.P,D12,2*%
%TO.N,fifth_mod*%
X182800000Y-145850000D03*
D13*
X182800000Y-143690000D03*
%TD*%
D11*
%TO.P,D11,1*%
%TO.N,P002*%
X164050000Y-109810000D03*
D12*
X164050000Y-107650000D03*
%TO.P,D11,2*%
%TO.N,fourth_home*%
X164050000Y-104350000D03*
D13*
X164050000Y-102190000D03*
%TD*%
D11*
%TO.P,D15,1*%
%TO.N,P029*%
X182800000Y-98060000D03*
D12*
X182800000Y-95900000D03*
%TO.P,D15,2*%
%TO.N,fifth_top*%
X182800000Y-92600000D03*
D13*
X182800000Y-90440000D03*
%TD*%
D15*
%TO.P,D20,1*%
%TO.N,P031*%
X214315419Y-191907998D03*
D16*
X215920612Y-190462676D03*
%TO.P,D20,2*%
%TO.N,far_thumb*%
X218372990Y-188254544D03*
D13*
X219978183Y-186809222D03*
%TD*%
D11*
%TO.P,D22,1*%
%TO.N,P002*%
X201550000Y-124810000D03*
D12*
X201550000Y-122650000D03*
%TO.P,D22,2*%
%TO.N,sixth_home*%
X201550000Y-119350000D03*
D13*
X201550000Y-117190000D03*
%TD*%
D11*
%TO.P,D18,1*%
%TO.N,P031*%
X182550000Y-171310000D03*
D12*
X182550000Y-169150000D03*
%TO.P,D18,2*%
%TO.N,near_thumb*%
X182550000Y-165850000D03*
D13*
X182550000Y-163690000D03*
%TD*%
D11*
%TO.P,D24,1*%
%TO.N,P029*%
X107800000Y-97060000D03*
D12*
X107800000Y-94900000D03*
%TO.P,D24,2*%
%TO.N,first_top*%
X107800000Y-91600000D03*
D13*
X107800000Y-89440000D03*
%TD*%
D11*
%TO.P,D9,1*%
%TO.N,P029*%
X145300000Y-97060000D03*
D12*
X145300000Y-94900000D03*
%TO.P,D9,2*%
%TO.N,third_top*%
X145300000Y-91600000D03*
D13*
X145300000Y-89440000D03*
%TD*%
D11*
%TO.P,D4,1*%
%TO.N,P115*%
X126550000Y-139560000D03*
D12*
X126550000Y-137400000D03*
%TO.P,D4,2*%
%TO.N,second_bottom*%
X126550000Y-134100000D03*
D13*
X126550000Y-131940000D03*
%TD*%
D11*
%TO.P,D3,1*%
%TO.N,P113*%
X126550000Y-157310000D03*
D12*
X126550000Y-155150000D03*
%TO.P,D3,2*%
%TO.N,second_mod*%
X126550000Y-151850000D03*
D13*
X126550000Y-149690000D03*
%TD*%
D11*
%TO.P,D16,1*%
%TO.N,P113*%
X201550000Y-154310000D03*
D12*
X201550000Y-152150000D03*
%TO.P,D16,2*%
%TO.N,sixth_mod*%
X201550000Y-148850000D03*
D13*
X201550000Y-146690000D03*
%TD*%
D11*
%TO.P,D17,1*%
%TO.N,P115*%
X201550000Y-136560000D03*
D12*
X201550000Y-134400000D03*
%TO.P,D17,2*%
%TO.N,sixth_bottom*%
X201550000Y-131100000D03*
D13*
X201550000Y-128940000D03*
%TD*%
D11*
%TO.P,D26,1*%
%TO.N,P113*%
X164050000Y-146310000D03*
D12*
X164050000Y-144150000D03*
%TO.P,D26,2*%
%TO.N,fourth_mod*%
X164050000Y-140850000D03*
D13*
X164050000Y-138690000D03*
%TD*%
D17*
%TO.P,JST1,1*%
%TO.N,pos*%
X149550000Y-118000000D03*
D18*
%TO.P,JST1,2*%
%TO.N,GND*%
X149550000Y-116000000D03*
%TD*%
D11*
%TO.P,D23,1*%
%TO.N,P115*%
X107800000Y-132560000D03*
D12*
X107800000Y-130400000D03*
%TO.P,D23,2*%
%TO.N,first_bottom*%
X107800000Y-127100000D03*
D13*
X107800000Y-124940000D03*
%TD*%
D11*
%TO.P,D21,1*%
%TO.N,P029*%
X201550000Y-113560000D03*
D12*
X201550000Y-111400000D03*
%TO.P,D21,2*%
%TO.N,sixth_top*%
X201550000Y-108100000D03*
D13*
X201550000Y-105940000D03*
%TD*%
D11*
%TO.P,D8,1*%
%TO.N,P115*%
X145300000Y-132560000D03*
D12*
X145300000Y-130400000D03*
%TO.P,D8,2*%
%TO.N,third_bottom*%
X145300000Y-127100000D03*
D13*
X145300000Y-124940000D03*
%TD*%
D11*
%TO.P,D7,1*%
%TO.N,P113*%
X145300000Y-150310000D03*
D12*
X145300000Y-148150000D03*
%TO.P,D7,2*%
%TO.N,third_mod*%
X145300000Y-144850000D03*
D13*
X145300000Y-142690000D03*
%TD*%
D11*
%TO.P,D10,1*%
%TO.N,P115*%
X164050000Y-127560000D03*
D12*
X164050000Y-125400000D03*
%TO.P,D10,2*%
%TO.N,fourth_bottom*%
X164050000Y-122100000D03*
D13*
X164050000Y-119940000D03*
%TD*%
D11*
%TO.P,D5,1*%
%TO.N,P002*%
X126550000Y-121810000D03*
D12*
X126550000Y-119650000D03*
%TO.P,D5,2*%
%TO.N,second_home*%
X126550000Y-116350000D03*
D13*
X126550000Y-114190000D03*
%TD*%
D19*
%TO.P,D19,1*%
%TO.N,P031*%
X200699005Y-178098413D03*
D20*
X201437769Y-176068677D03*
%TO.P,D19,2*%
%TO.N,home_thumb*%
X202566435Y-172967691D03*
D13*
X203305199Y-170937955D03*
%TD*%
D11*
%TO.P,D6,1*%
%TO.N,P029*%
X126550000Y-104060000D03*
D12*
X126550000Y-101900000D03*
%TO.P,D6,2*%
%TO.N,second_top*%
X126550000Y-98600000D03*
D13*
X126550000Y-96440000D03*
%TD*%
D11*
%TO.P,D2,1*%
%TO.N,P002*%
X107800000Y-121810000D03*
D12*
X107800000Y-119650000D03*
%TO.P,D2,2*%
%TO.N,first_home*%
X107800000Y-116350000D03*
D13*
X107800000Y-114190000D03*
%TD*%
D21*
%TO.N,P020*%
X116000000Y-102500000D03*
X103500000Y-105500000D03*
X103000000Y-141000000D03*
X103500000Y-153500000D03*
X103500000Y-118000000D03*
X103500000Y-123000000D03*
X103500000Y-135500000D03*
X116500000Y-87500000D03*
%TO.N,P022*%
X124500000Y-137500000D03*
X167000000Y-99000000D03*
X167000000Y-85500000D03*
X124500000Y-155500000D03*
X122000000Y-105500000D03*
X124500000Y-120500000D03*
X122000000Y-118000000D03*
%TO.N,P024*%
X143000000Y-131500000D03*
X143000000Y-94500000D03*
X143000000Y-95500000D03*
X143000000Y-113000000D03*
X141500000Y-81500000D03*
X143500000Y-149000000D03*
X180500000Y-82500000D03*
%TO.N,P100*%
X162000000Y-90500000D03*
X161500000Y-144000000D03*
X168000000Y-89000000D03*
X162000000Y-108000000D03*
X162000000Y-126500000D03*
X178500000Y-84000000D03*
X168000000Y-84000000D03*
%TO.N,P011*%
X177198700Y-116275000D03*
X180500000Y-97000000D03*
X176000000Y-94500000D03*
X177000000Y-147500000D03*
X177198700Y-135000000D03*
%TO.N,P017*%
X192500000Y-137500000D03*
X192500000Y-114500000D03*
X199500000Y-108000000D03*
X191500000Y-108000000D03*
X199500000Y-100000000D03*
X195000000Y-150500000D03*
X197500000Y-91000000D03*
%TO.N,P010*%
X173000000Y-105000000D03*
X180000000Y-169500000D03*
X171000000Y-137500000D03*
X179000000Y-139000000D03*
%TO.N,P111*%
X192500000Y-171000000D03*
%TO.N,P009*%
X170500000Y-106000000D03*
X193000000Y-106500000D03*
X214500000Y-185500000D03*
%TO.N,P113*%
X167000000Y-144000000D03*
X178000000Y-111500000D03*
X173000000Y-111500000D03*
%TO.N,P002*%
X164000000Y-111500000D03*
X144000000Y-119500000D03*
X144000000Y-110000000D03*
X164000000Y-117000000D03*
X184500000Y-113000000D03*
%TO.N,P115*%
X179500000Y-123500000D03*
X180500000Y-131500000D03*
%TO.N,P029*%
X186000000Y-105500000D03*
X186000000Y-113349998D03*
X121500000Y-100000000D03*
X121500000Y-94500000D03*
%TO.N,P031*%
X185000000Y-166500000D03*
%TO.N,RAW*%
X212000000Y-175000000D03*
%TO.N,GND*%
X220000000Y-176000000D03*
%TO.N,RST*%
X197500000Y-96500000D03*
X213500000Y-177500000D03*
X194512653Y-96487347D03*
%TO.N,pos*%
X173000000Y-176000000D03*
X153500000Y-141500000D03*
X173000000Y-142000000D03*
%TD*%
D22*
%TO.N,P020*%
X103000000Y-141000000D02*
X103000000Y-153000000D01*
X103500000Y-123000000D02*
X103500000Y-135500000D01*
X116500000Y-102000000D02*
X116500000Y-87500000D01*
X116000000Y-102500000D02*
X116500000Y-102000000D01*
X103500000Y-105500000D02*
X103500000Y-118000000D01*
X103000000Y-153000000D02*
X103500000Y-153500000D01*
%TO.N,first_mod*%
X107800000Y-151850000D02*
X107800000Y-149690000D01*
%TO.N,first_bottom*%
X107800000Y-127100000D02*
X107800000Y-124940000D01*
%TO.N,first_home*%
X107800000Y-116350000D02*
X107800000Y-114190000D01*
%TO.N,first_top*%
X107800000Y-91600000D02*
X107800000Y-89440000D01*
%TO.N,P022*%
X123024100Y-137475900D02*
X123024100Y-154024100D01*
X123750000Y-136750000D02*
X123024100Y-137475900D01*
X123024100Y-154024100D02*
X124500000Y-155500000D01*
X124500000Y-120500000D02*
X123024100Y-121975900D01*
X123750000Y-136750000D02*
X124500000Y-137500000D01*
X167000000Y-99000000D02*
X167000000Y-85500000D01*
X123024100Y-136024100D02*
X123750000Y-136750000D01*
X123024100Y-121975900D02*
X123024100Y-136024100D01*
X122000000Y-105500000D02*
X122000000Y-118000000D01*
%TO.N,second_mod*%
X126550000Y-149690000D02*
X126550000Y-151850000D01*
%TO.N,second_bottom*%
X126550000Y-131940000D02*
X126550000Y-134100000D01*
%TO.N,second_home*%
X126550000Y-114190000D02*
X126550000Y-116350000D01*
%TO.N,second_top*%
X126550000Y-98600000D02*
X126550000Y-96440000D01*
%TO.N,P024*%
X180500000Y-82500000D02*
X180940000Y-82940000D01*
X180940000Y-82940000D02*
X180940000Y-87630000D01*
X141774100Y-130274100D02*
X143000000Y-131500000D01*
X143000000Y-113000000D02*
X141774100Y-114225900D01*
X143000000Y-94000000D02*
X141500000Y-92500000D01*
X141774100Y-147274100D02*
X143500000Y-149000000D01*
X143000000Y-95500000D02*
X141774100Y-96725900D01*
X141774100Y-114225900D02*
X141774100Y-130274100D01*
X141774100Y-132725900D02*
X141774100Y-147274100D01*
X141500000Y-92500000D02*
X141500000Y-81500000D01*
X143000000Y-131500000D02*
X141774100Y-132725900D01*
X141774100Y-111774100D02*
X143000000Y-113000000D01*
X143000000Y-94500000D02*
X143000000Y-94000000D01*
X141774100Y-96725900D02*
X141774100Y-111774100D01*
%TO.N,third_mod*%
X145300000Y-144850000D02*
X145300000Y-142690000D01*
%TO.N,third_bottom*%
X145300000Y-127100000D02*
X145300000Y-124940000D01*
%TO.N,third_home*%
X145300000Y-102350000D02*
X145300000Y-100190000D01*
%TO.N,third_top*%
X145300000Y-91600000D02*
X145300000Y-89440000D01*
%TO.N,P100*%
X162000000Y-108000000D02*
X160524100Y-109475900D01*
X160524100Y-106524100D02*
X162000000Y-108000000D01*
X160524100Y-91975900D02*
X160524100Y-106524100D01*
X162000000Y-126500000D02*
X160524100Y-127975900D01*
X160524100Y-125024100D02*
X162000000Y-126500000D01*
X168000000Y-89000000D02*
X168000000Y-84000000D01*
X160524100Y-109475900D02*
X160524100Y-125024100D01*
X160524100Y-143024100D02*
X161500000Y-144000000D01*
X178500000Y-84500000D02*
X178400000Y-84600000D01*
X178400000Y-84600000D02*
X178400000Y-87630000D01*
X160524100Y-127975900D02*
X160524100Y-143024100D01*
X162000000Y-90500000D02*
X160524100Y-91975900D01*
X178500000Y-84000000D02*
X178500000Y-84500000D01*
%TO.N,fourth_mod*%
X164050000Y-138690000D02*
X164050000Y-140850000D01*
%TO.N,fourth_bottom*%
X164050000Y-119940000D02*
X164050000Y-122100000D01*
%TO.N,fourth_home*%
X164050000Y-102190000D02*
X164050000Y-104350000D01*
%TO.N,fourth_top*%
X164050000Y-85440000D02*
X164050000Y-87600000D01*
%TO.N,P011*%
X177089500Y-93410500D02*
X177089500Y-88859500D01*
X180500000Y-97000000D02*
X177198700Y-100301300D01*
X177198700Y-135000000D02*
X177198700Y-147301300D01*
X177198700Y-147301300D02*
X177000000Y-147500000D01*
X177198700Y-100301300D02*
X177198700Y-135000000D01*
X176000000Y-94500000D02*
X177089500Y-93410500D01*
X177089500Y-88859500D02*
X175860000Y-87630000D01*
%TO.N,fifth_mod*%
X182800000Y-143690000D02*
X182800000Y-145850000D01*
%TO.N,fifth_bottom*%
X182800000Y-125940000D02*
X182800000Y-128100000D01*
%TO.N,fifth_home*%
X182800000Y-108190000D02*
X182800000Y-110350000D01*
%TO.N,fifth_top*%
X182800000Y-90440000D02*
X182800000Y-92600000D01*
%TO.N,P017*%
X196775000Y-97275000D02*
X196775000Y-91725000D01*
X191500000Y-147704999D02*
X194295001Y-150500000D01*
X192500000Y-114500000D02*
X191500000Y-114500000D01*
X191500000Y-114500000D02*
X191500000Y-136500000D01*
X194295001Y-150500000D02*
X195000000Y-150500000D01*
X196775000Y-91725000D02*
X197500000Y-91000000D01*
X191500000Y-108000000D02*
X191500000Y-114500000D01*
X199921300Y-107578700D02*
X199500000Y-108000000D01*
X191500000Y-136500000D02*
X191500000Y-147704999D01*
X199500000Y-100000000D02*
X196775000Y-97275000D01*
X199921300Y-100921300D02*
X199921300Y-107578700D01*
X199500000Y-100000000D02*
X199500000Y-100500000D01*
X199500000Y-100500000D02*
X199921300Y-100921300D01*
X192500000Y-137500000D02*
X191500000Y-136500000D01*
%TO.N,sixth_mod*%
X201550000Y-146690000D02*
X201550000Y-148850000D01*
%TO.N,sixth_bottom*%
X201550000Y-128940000D02*
X201550000Y-131100000D01*
%TO.N,sixth_home*%
X201550000Y-117190000D02*
X201550000Y-119350000D01*
%TO.N,sixth_top*%
X201550000Y-105940000D02*
X201550000Y-108100000D01*
%TO.N,P010*%
X172275000Y-136225000D02*
X171000000Y-137500000D01*
X173000000Y-105000000D02*
X172275000Y-105725000D01*
X179000000Y-168500000D02*
X180000000Y-169500000D01*
X172275000Y-105725000D02*
X172275000Y-136225000D01*
X179000000Y-139000000D02*
X179000000Y-168500000D01*
%TO.N,near_thumb*%
X182550000Y-163690000D02*
X182550000Y-165850000D01*
%TO.N,P111*%
X180725000Y-169199695D02*
X180725000Y-169800305D01*
X166275000Y-170300305D02*
X166275000Y-143699695D01*
X188025305Y-164500000D02*
X185300305Y-167225000D01*
X169223350Y-110375000D02*
X170776650Y-110375000D01*
X169223350Y-131875000D02*
X168125000Y-130776650D01*
X173800305Y-176725000D02*
X172699695Y-176725000D01*
X185300305Y-167225000D02*
X182699695Y-167225000D01*
X166275000Y-143699695D02*
X169223350Y-140751345D01*
X192500000Y-164500000D02*
X188025305Y-164500000D01*
X192500000Y-171000000D02*
X192500000Y-164500000D01*
X172699695Y-176725000D02*
X166275000Y-170300305D01*
X174455000Y-104275000D02*
X175860000Y-102870000D01*
X171825000Y-105149695D02*
X172699695Y-104275000D01*
X169223350Y-140751345D02*
X169223350Y-131875000D01*
X182699695Y-167225000D02*
X180725000Y-169199695D01*
X170776650Y-110375000D02*
X171825000Y-109326650D01*
X180725000Y-169800305D02*
X173800305Y-176725000D01*
X168125000Y-130776650D02*
X168125000Y-111473350D01*
X172699695Y-104275000D02*
X174455000Y-104275000D01*
X171825000Y-109326650D02*
X171825000Y-105149695D01*
X168125000Y-111473350D02*
X169223350Y-110375000D01*
%TO.N,home_thumb*%
X203305199Y-170937955D02*
X203305199Y-172228927D01*
X203305199Y-172228927D02*
X202566435Y-172967691D01*
%TO.N,P009*%
X170780000Y-105720000D02*
X170780000Y-102870000D01*
X208893837Y-176911976D02*
X208893837Y-173393837D01*
X214500000Y-185500000D02*
X210340587Y-181340587D01*
X208893837Y-173393837D02*
X195839500Y-160339500D01*
X195839500Y-160339500D02*
X195839500Y-109339500D01*
X170500000Y-106000000D02*
X170780000Y-105720000D01*
X210340587Y-178358726D02*
X208893837Y-176911976D01*
X195839500Y-109339500D02*
X193000000Y-106500000D01*
X210340587Y-181340587D02*
X210340587Y-178358726D01*
%TO.N,far_thumb*%
X219978183Y-186809222D02*
X219818312Y-186809222D01*
X219818312Y-186809222D02*
X218372990Y-188254544D01*
%TO.N,P113*%
X167000000Y-144000000D02*
X172910500Y-138089500D01*
X126550000Y-155150000D02*
X126550000Y-157310000D01*
X107800000Y-155150000D02*
X107800000Y-157310000D01*
X164050000Y-144150000D02*
X164050000Y-146310000D01*
X201550000Y-152150000D02*
X201550000Y-154310000D01*
X178000000Y-111500000D02*
X178400000Y-111100000D01*
X182800000Y-149150000D02*
X182800000Y-151310000D01*
X172910500Y-138089500D02*
X172910500Y-111589500D01*
X172910500Y-111589500D02*
X173000000Y-111500000D01*
X145300000Y-150310000D02*
X145300000Y-148150000D01*
X178400000Y-111100000D02*
X178400000Y-102870000D01*
%TO.N,P002*%
X182800000Y-113650000D02*
X182800000Y-115810000D01*
X144000000Y-119500000D02*
X144000000Y-110000000D01*
X164000000Y-111500000D02*
X164000000Y-117000000D01*
X164050000Y-107650000D02*
X164050000Y-109810000D01*
X184500000Y-113000000D02*
X184500000Y-103890000D01*
X145300000Y-107810000D02*
X145300000Y-105650000D01*
X126550000Y-119650000D02*
X126550000Y-121810000D01*
X201550000Y-122650000D02*
X201550000Y-124810000D01*
X184500000Y-103890000D02*
X183480000Y-102870000D01*
X107800000Y-121810000D02*
X107800000Y-119650000D01*
%TO.N,P115*%
X145300000Y-132560000D02*
X145300000Y-130400000D01*
X164050000Y-125400000D02*
X164050000Y-127560000D01*
X179274100Y-122500000D02*
X179274100Y-104535900D01*
X179500000Y-123000000D02*
X179274100Y-122774100D01*
X201550000Y-134400000D02*
X201550000Y-136560000D01*
X179274100Y-122500000D02*
X179274100Y-126757784D01*
X182800000Y-131400000D02*
X182800000Y-133560000D01*
X179500000Y-123500000D02*
X179500000Y-123000000D01*
X179274100Y-126757784D02*
X180500000Y-127983684D01*
X179274100Y-104535900D02*
X180940000Y-102870000D01*
X107800000Y-132560000D02*
X107800000Y-130400000D01*
X179274100Y-122774100D02*
X179274100Y-122500000D01*
X126550000Y-137400000D02*
X126550000Y-139560000D01*
X180500000Y-127983684D02*
X180500000Y-131500000D01*
%TO.N,P029*%
X182800000Y-95900000D02*
X182800000Y-98060000D01*
X126550000Y-101900000D02*
X126550000Y-104060000D01*
X107800000Y-94900000D02*
X107800000Y-97060000D01*
X201550000Y-111400000D02*
X201550000Y-113560000D01*
X186000000Y-105500000D02*
X186000000Y-113349998D01*
X145300000Y-97060000D02*
X145300000Y-94900000D01*
X121500000Y-94500000D02*
X121500000Y-100000000D01*
X164050000Y-90900000D02*
X164050000Y-93060000D01*
%TO.N,P031*%
X191138066Y-160875000D02*
X199811979Y-169548913D01*
X190625000Y-104935000D02*
X188560000Y-102870000D01*
X199811979Y-169548913D02*
X199811979Y-177211387D01*
X190625000Y-160875000D02*
X190625000Y-104935000D01*
X190625000Y-160875000D02*
X191138066Y-160875000D01*
X201437769Y-176068677D02*
X201437769Y-177359649D01*
X215760741Y-190462676D02*
X214315419Y-191907998D01*
X201437769Y-177359649D02*
X200699005Y-178098413D01*
X215920612Y-190462676D02*
X215760741Y-190462676D01*
X185000000Y-166500000D02*
X190625000Y-160875000D01*
X182550000Y-169150000D02*
X182550000Y-171310000D01*
X199811979Y-177211387D02*
X200699005Y-178098413D01*
%TO.N,RAW*%
X212000000Y-175000000D02*
X198000000Y-161000000D01*
X198000000Y-106500000D02*
X198720000Y-105780000D01*
X198000000Y-161000000D02*
X198000000Y-106500000D01*
X198720000Y-105780000D02*
X198720000Y-102870000D01*
%TO.N,GND*%
X196180000Y-90170000D02*
X196180000Y-102870000D01*
X212775000Y-176800305D02*
X212775000Y-177800305D01*
X153500000Y-112050000D02*
X153500000Y-80500000D01*
X183717257Y-80500000D02*
X190847257Y-87630000D01*
X217500000Y-178500000D02*
X220000000Y-176000000D01*
X213474695Y-178500000D02*
X217500000Y-178500000D01*
X197056300Y-103746300D02*
X197056300Y-160919904D01*
X197056300Y-160919904D02*
X211000000Y-174863604D01*
X196180000Y-102870000D02*
X197056300Y-103746300D01*
X193640000Y-87630000D02*
X196180000Y-90170000D01*
X149550000Y-116000000D02*
X153500000Y-112050000D01*
X153500000Y-80500000D02*
X183717257Y-80500000D01*
X190847257Y-87630000D02*
X191100000Y-87630000D01*
X211000000Y-174863604D02*
X211000000Y-175025305D01*
X212775000Y-177800305D02*
X213474695Y-178500000D01*
X211000000Y-175025305D02*
X212775000Y-176800305D01*
%TO.N,RST*%
X213500000Y-177500000D02*
X213500000Y-173500000D01*
X202827500Y-159172500D02*
X202827500Y-101827500D01*
X191597595Y-100827595D02*
X193640000Y-102870000D01*
X213500000Y-173500000D02*
X201000000Y-161000000D01*
X194512653Y-96487347D02*
X194311003Y-96487347D01*
X194311003Y-96487347D02*
X191597595Y-99200755D01*
X191597595Y-99200755D02*
X191597595Y-100827595D01*
X202827500Y-101827500D02*
X197500000Y-96500000D01*
X201000000Y-161000000D02*
X202827500Y-159172500D01*
%TO.N,pos*%
X150650000Y-118000000D02*
X149550000Y-118000000D01*
X172660500Y-175660500D02*
X173000000Y-176000000D01*
X172660500Y-142339500D02*
X172660500Y-175660500D01*
X153500000Y-141500000D02*
X153500000Y-120850000D01*
X153500000Y-120850000D02*
X150650000Y-118000000D01*
X173000000Y-142000000D02*
X172660500Y-142339500D01*
%TD*%
M02*
