M48
; DRILL file {KiCad 8.0.7} date 2024-12-27T12:51:12-0600
; FORMAT={-:-/ absolute / inch / decimal}
; #@! TF.CreationDate,2024-12-27T12:51:12-06:00
; #@! TF.GenerationSoftware,Kicad,Pcbnew,8.0.7
; #@! TF.FileFunction,Plated,1,2,PTH
FMAT,2
INCH
; #@! TA.AperFunction,Plated,PTH,ViaDrill
T1C0.0157
; #@! TA.AperFunction,Plated,PTH,ComponentDrill
T2C0.0295
; #@! TA.AperFunction,Plated,PTH,ComponentDrill
T3C0.0390
; #@! TA.AperFunction,Plated,PTH,ComponentDrill
T4C0.0430
%
G90
G05
T1
X4.0551Y-5.5512
X4.0748Y-4.1535
X4.0748Y-4.6457
X4.0748Y-4.8425
X4.0748Y-5.3346
X4.0748Y-6.0433
X4.5669Y-4.0354
X4.5866Y-3.4449
X4.7835Y-3.7205
X4.7835Y-3.937
X4.8031Y-4.1535
X4.8031Y-4.6457
X4.9016Y-4.7441
X4.9016Y-5.4134
X4.9016Y-6.122
X5.5709Y-3.2087
X5.6299Y-3.7205
X5.6299Y-3.7598
X5.6299Y-4.4488
X5.6299Y-5.1772
X5.6496Y-5.8661
X5.6693Y-4.3307
X5.6693Y-4.7047
X6.0433Y-5.5709
X6.3583Y-5.6693
X6.378Y-3.563
X6.378Y-4.252
X6.378Y-4.9803
X6.4567Y-4.3898
X6.4567Y-4.6063
X6.5748Y-3.3661
X6.5748Y-3.8976
X6.5748Y-5.6693
X6.6142Y-3.3071
X6.6142Y-3.5039
X6.7126Y-4.1732
X6.7323Y-5.4134
X6.811Y-4.1339
X6.811Y-4.3898
X6.811Y-5.5906
X6.811Y-6.9291
X6.9291Y-3.7205
X6.9685Y-5.8071
X6.9763Y-4.5778
X6.9763Y-5.315
X7.0079Y-4.3898
X7.0276Y-3.3071
X7.0472Y-5.4724
X7.0669Y-4.8622
X7.0866Y-6.6732
X7.1063Y-3.248
X7.1063Y-3.8189
X7.1063Y-5.1772
X7.2638Y-4.4488
X7.2835Y-6.5551
X7.3228Y-4.1535
X7.3228Y-4.4626
X7.5394Y-4.252
X7.5787Y-4.5079
X7.5787Y-5.4134
X7.5787Y-6.7323
X7.5984Y-4.1929
X7.658Y-3.7987
X7.6772Y-5.9252
X7.7756Y-3.5827
X7.7756Y-3.7992
X7.8543Y-3.937
X7.8543Y-4.252
X8.3465Y-6.8898
X8.4055Y-6.9882
X8.4449Y-7.3031
X8.6614Y-6.9291
T2
X5.8878Y-4.5669
X5.8878Y-4.6457
T3
X4.2441Y-3.5213
X4.2441Y-3.8213
X4.2441Y-4.4957
X4.2441Y-4.7957
X4.2441Y-4.9189
X4.2441Y-5.2189
X4.2441Y-5.8933
X4.2441Y-6.1933
X4.9823Y-3.7969
X4.9823Y-4.0969
X4.9823Y-4.4957
X4.9823Y-4.7957
X4.9823Y-5.1945
X4.9823Y-5.4945
X4.9823Y-5.8933
X4.9823Y-6.1933
X5.7205Y-3.5213
X5.7205Y-3.8213
X5.7205Y-3.9445
X5.7205Y-4.2445
X5.7205Y-4.9189
X5.7205Y-5.2189
X5.7205Y-5.6177
X5.7205Y-5.9177
X6.4587Y-3.3638
X6.4587Y-3.6638
X6.4587Y-4.0232
X6.4587Y-4.3232
X6.4587Y-4.722
X6.4587Y-5.022
X6.4587Y-5.4602
X6.4587Y-5.7602
X7.187Y-6.4445
X7.187Y-6.7445
X7.1969Y-3.5606
X7.1969Y-3.8606
X7.1969Y-4.2594
X7.1969Y-4.5594
X7.1969Y-4.9583
X7.1969Y-5.2583
X7.1969Y-5.6571
X7.1969Y-5.9571
X7.9015Y-7.0117
X7.935Y-4.1709
X7.935Y-4.4709
X7.935Y-4.6138
X7.935Y-4.9138
X7.935Y-5.0764
X7.935Y-5.3764
X7.935Y-5.7752
X7.935Y-6.0752
X8.0041Y-6.7298
X8.4376Y-7.5554
X8.6606Y-7.3547
T4
X6.7236Y-3.45
X6.7236Y-4.05
X6.8236Y-3.45
X6.8236Y-4.05
X6.9236Y-3.45
X6.9236Y-4.05
X7.0236Y-3.45
X7.0236Y-4.05
X7.1236Y-3.45
X7.1236Y-4.05
X7.2236Y-3.45
X7.2236Y-4.05
X7.3236Y-3.45
X7.3236Y-4.05
X7.4236Y-3.45
X7.4236Y-4.05
X7.5236Y-3.45
X7.5236Y-4.05
X7.6236Y-3.45
X7.6236Y-4.05
X7.7236Y-3.45
X7.7236Y-4.05
X7.8236Y-3.45
X7.8236Y-4.05
M30
