%TF.GenerationSoftware,KiCad,Pcbnew,8.0.7*%
%TF.CreationDate,2024-12-27T12:50:11-06:00*%
%TF.ProjectId,right,72696768-742e-46b6-9963-61645f706362,v1.0.0*%
%TF.SameCoordinates,Original*%
%TF.FileFunction,Paste,Bot*%
%TF.FilePolarity,Positive*%
%FSLAX46Y46*%
G04 Gerber Fmt 4.6, Leading zero omitted, Abs format (unit mm)*
G04 Created by KiCad (PCBNEW 8.0.7) date 2024-12-27 12:50:11*
%MOMM*%
%LPD*%
G01*
G04 APERTURE LIST*
G04 Aperture macros list*
%AMRotRect*
0 Rectangle, with rotation*
0 The origin of the aperture is its center*
0 $1 length*
0 $2 width*
0 $3 Rotation angle, in degrees counterclockwise*
0 Add horizontal line*
21,1,$1,$2,0,0,$3*%
G04 Aperture macros list end*
%ADD10RotRect,0.900000X0.900000X44.000000*%
%ADD11RotRect,0.900000X1.250000X44.000000*%
%ADD12R,2.600000X2.600000*%
%ADD13R,1.200000X0.900000*%
%ADD14RotRect,2.600000X2.600000X228.000000*%
%ADD15RotRect,2.600000X2.600000X200.000000*%
%ADD16RotRect,1.550000X1.000000X44.000000*%
%ADD17RotRect,0.900000X1.200000X290.000000*%
%ADD18RotRect,0.900000X1.200000X318.000000*%
G04 APERTURE END LIST*
D10*
%TO.C,T1*%
X267317797Y-174264882D03*
X268846045Y-175847430D03*
X272640911Y-169124410D03*
X274169159Y-170706958D03*
D11*
X270566380Y-175541531D03*
X272724399Y-173457556D03*
X273803409Y-172415569D03*
%TD*%
D12*
%TO.C,S18*%
X315775000Y-132200000D03*
X304225000Y-130000000D03*
%TD*%
D13*
%TO.C,D6*%
X376550000Y-116350000D03*
X376550000Y-119650000D03*
%TD*%
%TO.C,D21*%
X376550000Y-128600000D03*
X376550000Y-131900000D03*
%TD*%
D12*
%TO.C,S5*%
X372025000Y-155950000D03*
X360475000Y-153750000D03*
%TD*%
%TO.C,S23*%
X297025000Y-117450000D03*
X285475000Y-115250000D03*
%TD*%
D13*
%TO.C,D1*%
X395300000Y-151850000D03*
X395300000Y-155150000D03*
%TD*%
%TO.C,D17*%
X301550000Y-131100000D03*
X301550000Y-134400000D03*
%TD*%
%TO.C,D14*%
X320300000Y-145850000D03*
X320300000Y-149150000D03*
%TD*%
D12*
%TO.C,S15*%
X334525000Y-108450000D03*
X322975000Y-106250000D03*
%TD*%
%TO.C,S4*%
X390775000Y-102700000D03*
X379225000Y-100500000D03*
%TD*%
D14*
%TO.C,S27*%
X279584525Y-182767651D03*
X270221148Y-189878886D03*
%TD*%
D12*
%TO.C,S17*%
X315775000Y-149950000D03*
X304225000Y-147750000D03*
%TD*%
%TO.C,S2*%
X390775000Y-138200000D03*
X379225000Y-136000000D03*
%TD*%
D13*
%TO.C,D13*%
X339050000Y-86600000D03*
X339050000Y-89900000D03*
%TD*%
%TO.C,D4*%
X395300000Y-98600000D03*
X395300000Y-101900000D03*
%TD*%
%TO.C,D7*%
X357800000Y-144850000D03*
X357800000Y-148150000D03*
%TD*%
D12*
%TO.C,S21*%
X297025000Y-152950000D03*
X285475000Y-150750000D03*
%TD*%
D13*
%TO.C,D15*%
X320300000Y-110350000D03*
X320300000Y-113650000D03*
%TD*%
D12*
%TO.C,S9*%
X353275000Y-148950000D03*
X341725000Y-146750000D03*
%TD*%
%TO.C,S10*%
X353275000Y-131200000D03*
X341725000Y-129000000D03*
%TD*%
D15*
%TO.C,S26*%
X296742943Y-173032558D03*
X285137049Y-174915567D03*
%TD*%
D13*
%TO.C,D5*%
X376550000Y-151850000D03*
X376550000Y-155150000D03*
%TD*%
%TO.C,D10*%
X357800000Y-91600000D03*
X357800000Y-94900000D03*
%TD*%
%TO.C,D24*%
X320300000Y-87100000D03*
X320300000Y-90400000D03*
%TD*%
D12*
%TO.C,S24*%
X297025000Y-99700000D03*
X285475000Y-97500000D03*
%TD*%
%TO.C,S8*%
X372025000Y-102700000D03*
X360475000Y-100500000D03*
%TD*%
D13*
%TO.C,D9*%
X357800000Y-109350000D03*
X357800000Y-112650000D03*
%TD*%
D12*
%TO.C,S25*%
X316025000Y-169950000D03*
X304475000Y-167750000D03*
%TD*%
%TO.C,S13*%
X334525000Y-143950000D03*
X322975000Y-141750000D03*
%TD*%
D16*
%TO.C,B1*%
X261722374Y-179917871D03*
X265498908Y-176270915D03*
X262903294Y-181140749D03*
X266679828Y-177493793D03*
%TD*%
D12*
%TO.C,S14*%
X334525000Y-126200000D03*
X322975000Y-124000000D03*
%TD*%
%TO.C,S11*%
X353275000Y-113450000D03*
X341725000Y-111250000D03*
%TD*%
%TO.C,S22*%
X297025000Y-135200000D03*
X285475000Y-133000000D03*
%TD*%
D13*
%TO.C,D22*%
X376550000Y-93100000D03*
X376550000Y-96400000D03*
%TD*%
%TO.C,D16*%
X301550000Y-148850000D03*
X301550000Y-152150000D03*
%TD*%
%TO.C,D8*%
X357800000Y-127100000D03*
X357800000Y-130400000D03*
%TD*%
D17*
%TO.C,D19*%
X299592770Y-167632177D03*
X300721436Y-170733163D03*
%TD*%
D13*
%TO.C,D2*%
X395300000Y-134100000D03*
X395300000Y-137400000D03*
%TD*%
D12*
%TO.C,S12*%
X353275000Y-95700000D03*
X341725000Y-93500000D03*
%TD*%
D18*
%TO.C,D20*%
X279565447Y-176661485D03*
X282017825Y-178869617D03*
%TD*%
D12*
%TO.C,S7*%
X372025000Y-120450000D03*
X360475000Y-118250000D03*
%TD*%
%TO.C,S16*%
X334525000Y-90700000D03*
X322975000Y-88500000D03*
%TD*%
D13*
%TO.C,D11*%
X339050000Y-139850000D03*
X339050000Y-143150000D03*
%TD*%
%TO.C,D23*%
X320300000Y-122600000D03*
X320300000Y-125900000D03*
%TD*%
D12*
%TO.C,S20*%
X315775000Y-96700000D03*
X304225000Y-94500000D03*
%TD*%
D13*
%TO.C,D27*%
X339050000Y-104350000D03*
X339050000Y-107650000D03*
%TD*%
%TO.C,D12*%
X339050000Y-122100000D03*
X339050000Y-125400000D03*
%TD*%
D12*
%TO.C,S1*%
X390775000Y-155950000D03*
X379225000Y-153750000D03*
%TD*%
%TO.C,S3*%
X390775000Y-120450000D03*
X379225000Y-118250000D03*
%TD*%
D13*
%TO.C,D26*%
X301550000Y-112850000D03*
X301550000Y-116150000D03*
%TD*%
D12*
%TO.C,S6*%
X372025000Y-138200000D03*
X360475000Y-136000000D03*
%TD*%
%TO.C,S19*%
X315775000Y-114450000D03*
X304225000Y-112250000D03*
%TD*%
D13*
%TO.C,D25*%
X301550000Y-93600000D03*
X301550000Y-96900000D03*
%TD*%
%TO.C,D3*%
X395300000Y-116350000D03*
X395300000Y-119650000D03*
%TD*%
%TO.C,D18*%
X320550000Y-165850000D03*
X320550000Y-169150000D03*
%TD*%
M02*
