%TF.GenerationSoftware,KiCad,Pcbnew,8.0.7*%
%TF.CreationDate,2024-12-27T12:50:11-06:00*%
%TF.ProjectId,right,72696768-742e-46b6-9963-61645f706362,v1.0.0*%
%TF.SameCoordinates,Original*%
%TF.FileFunction,Copper,L2,Bot*%
%TF.FilePolarity,Positive*%
%FSLAX46Y46*%
G04 Gerber Fmt 4.6, Leading zero omitted, Abs format (unit mm)*
G04 Created by KiCad (PCBNEW 8.0.7) date 2024-12-27 12:50:11*
%MOMM*%
%LPD*%
G01*
G04 APERTURE LIST*
G04 Aperture macros list*
%AMRotRect*
0 Rectangle, with rotation*
0 The origin of the aperture is its center*
0 $1 length*
0 $2 width*
0 $3 Rotation angle, in degrees counterclockwise*
0 Add horizontal line*
21,1,$1,$2,0,0,$3*%
G04 Aperture macros list end*
%TA.AperFunction,SMDPad,CuDef*%
%ADD10RotRect,0.900000X0.900000X44.000000*%
%TD*%
%TA.AperFunction,WasherPad*%
%ADD11C,1.000000*%
%TD*%
%TA.AperFunction,SMDPad,CuDef*%
%ADD12RotRect,0.900000X1.250000X44.000000*%
%TD*%
%TA.AperFunction,SMDPad,CuDef*%
%ADD13R,2.600000X2.600000*%
%TD*%
%TA.AperFunction,ComponentPad*%
%ADD14R,1.778000X1.778000*%
%TD*%
%TA.AperFunction,SMDPad,CuDef*%
%ADD15R,1.200000X0.900000*%
%TD*%
%TA.AperFunction,ComponentPad*%
%ADD16C,1.905000*%
%TD*%
%TA.AperFunction,SMDPad,CuDef*%
%ADD17RotRect,2.600000X2.600000X228.000000*%
%TD*%
%TA.AperFunction,ComponentPad*%
%ADD18R,1.700000X1.200000*%
%TD*%
%TA.AperFunction,ComponentPad*%
%ADD19O,1.700000X1.200000*%
%TD*%
%TA.AperFunction,ComponentPad*%
%ADD20C,1.752600*%
%TD*%
%TA.AperFunction,SMDPad,CuDef*%
%ADD21RotRect,2.600000X2.600000X200.000000*%
%TD*%
%TA.AperFunction,SMDPad,CuDef*%
%ADD22RotRect,1.550000X1.000000X44.000000*%
%TD*%
%TA.AperFunction,ComponentPad*%
%ADD23RotRect,1.778000X1.778000X290.000000*%
%TD*%
%TA.AperFunction,SMDPad,CuDef*%
%ADD24RotRect,0.900000X1.200000X290.000000*%
%TD*%
%TA.AperFunction,ComponentPad*%
%ADD25RotRect,1.778000X1.778000X318.000000*%
%TD*%
%TA.AperFunction,SMDPad,CuDef*%
%ADD26RotRect,0.900000X1.200000X318.000000*%
%TD*%
%TA.AperFunction,ViaPad*%
%ADD27C,0.800000*%
%TD*%
%TA.AperFunction,Conductor*%
%ADD28C,0.250000*%
%TD*%
G04 APERTURE END LIST*
D10*
%TO.P,T1,*%
%TO.N,*%
X267317797Y-174264882D03*
X268846045Y-175847430D03*
D11*
X269664468Y-173527908D03*
X271822488Y-171443932D03*
D10*
X272640911Y-169124410D03*
X274169159Y-170706958D03*
D12*
%TO.P,T1,1*%
%TO.N,pos*%
X270566380Y-175541531D03*
%TO.P,T1,2*%
%TO.N,RAW*%
X272724399Y-173457556D03*
%TO.P,T1,3*%
%TO.N,N/C*%
X273803409Y-172415569D03*
%TD*%
D13*
%TO.P,S18,1*%
%TO.N,P011*%
X315775000Y-132200000D03*
%TO.P,S18,2*%
%TO.N,mirror_fifth_bottom*%
X304225000Y-130000000D03*
%TD*%
D14*
%TO.P,D6,1*%
%TO.N,P002*%
X376550000Y-114190000D03*
D15*
X376550000Y-116350000D03*
%TO.P,D6,2*%
%TO.N,mirror_second_home*%
X376550000Y-119650000D03*
D16*
X376550000Y-121810000D03*
%TD*%
D14*
%TO.P,D21,1*%
%TO.N,P115*%
X376550000Y-126440000D03*
D15*
X376550000Y-128600000D03*
%TO.P,D21,2*%
%TO.N,mirror_second_bottom*%
X376550000Y-131900000D03*
D16*
X376550000Y-134060000D03*
%TD*%
D13*
%TO.P,S5,1*%
%TO.N,P022*%
X372025000Y-155950000D03*
%TO.P,S5,2*%
%TO.N,mirror_second_mod*%
X360475000Y-153750000D03*
%TD*%
%TO.P,S23,1*%
%TO.N,P017*%
X297025000Y-117450000D03*
%TO.P,S23,2*%
%TO.N,mirror_sixth_home*%
X285475000Y-115250000D03*
%TD*%
D14*
%TO.P,D1,1*%
%TO.N,P113*%
X395300000Y-149690000D03*
D15*
X395300000Y-151850000D03*
%TO.P,D1,2*%
%TO.N,mirror_first_mod*%
X395300000Y-155150000D03*
D16*
X395300000Y-157310000D03*
%TD*%
D14*
%TO.P,D17,1*%
%TO.N,P115*%
X301550000Y-128940000D03*
D15*
X301550000Y-131100000D03*
%TO.P,D17,2*%
%TO.N,mirror_sixth_bottom*%
X301550000Y-134400000D03*
D16*
X301550000Y-136560000D03*
%TD*%
D14*
%TO.P,D14,1*%
%TO.N,P113*%
X320300000Y-143690000D03*
D15*
X320300000Y-145850000D03*
%TO.P,D14,2*%
%TO.N,mirror_fifth_mod*%
X320300000Y-149150000D03*
D16*
X320300000Y-151310000D03*
%TD*%
D13*
%TO.P,S15,1*%
%TO.N,P100*%
X334525000Y-108450000D03*
%TO.P,S15,2*%
%TO.N,mirror_fourth_home*%
X322975000Y-106250000D03*
%TD*%
%TO.P,S4,1*%
%TO.N,P020*%
X390775000Y-102700000D03*
%TO.P,S4,2*%
%TO.N,mirror_first_top*%
X379225000Y-100500000D03*
%TD*%
D17*
%TO.P,S27,1*%
%TO.N,P009*%
X279584525Y-182767651D03*
%TO.P,S27,2*%
%TO.N,mirror_far_thumb*%
X270221148Y-189878886D03*
%TD*%
D13*
%TO.P,S17,1*%
%TO.N,P011*%
X315775000Y-149950000D03*
%TO.P,S17,2*%
%TO.N,mirror_fifth_mod*%
X304225000Y-147750000D03*
%TD*%
%TO.P,S2,1*%
%TO.N,P020*%
X390775000Y-138200000D03*
%TO.P,S2,2*%
%TO.N,mirror_first_bottom*%
X379225000Y-136000000D03*
%TD*%
D14*
%TO.P,D13,1*%
%TO.N,P029*%
X339050000Y-84440000D03*
D15*
X339050000Y-86600000D03*
%TO.P,D13,2*%
%TO.N,mirror_fourth_top*%
X339050000Y-89900000D03*
D16*
X339050000Y-92060000D03*
%TD*%
D18*
%TO.P,JST1,1*%
%TO.N,pos*%
X333000000Y-114000000D03*
D19*
%TO.P,JST1,2*%
%TO.N,GND*%
X333000000Y-116000000D03*
%TD*%
D14*
%TO.P,D4,1*%
%TO.N,P029*%
X395300000Y-96440000D03*
D15*
X395300000Y-98600000D03*
%TO.P,D4,2*%
%TO.N,mirror_first_top*%
X395300000Y-101900000D03*
D16*
X395300000Y-104060000D03*
%TD*%
D14*
%TO.P,D7,1*%
%TO.N,P113*%
X357800000Y-142690000D03*
D15*
X357800000Y-144850000D03*
%TO.P,D7,2*%
%TO.N,mirror_third_mod*%
X357800000Y-148150000D03*
D16*
X357800000Y-150310000D03*
%TD*%
D20*
%TO.P,MCU1,1*%
%TO.N,P006*%
X288780000Y-102870000D03*
%TO.P,MCU1,2*%
%TO.N,P008*%
X291320000Y-102870000D03*
%TO.P,MCU1,3*%
%TO.N,GND*%
X293860000Y-102870000D03*
%TO.P,MCU1,4*%
X296400000Y-102870000D03*
%TO.P,MCU1,5*%
%TO.N,P017*%
X298940000Y-102870000D03*
%TO.P,MCU1,6*%
%TO.N,P020*%
X301480000Y-102870000D03*
%TO.P,MCU1,7*%
%TO.N,P022*%
X304020000Y-102870000D03*
%TO.P,MCU1,8*%
%TO.N,P024*%
X306560000Y-102870000D03*
%TO.P,MCU1,9*%
%TO.N,P100*%
X309100000Y-102870000D03*
%TO.P,MCU1,10*%
%TO.N,P011*%
X311640000Y-102870000D03*
%TO.P,MCU1,11*%
%TO.N,P104*%
X314180000Y-102870000D03*
%TO.P,MCU1,12*%
%TO.N,P106*%
X316720000Y-102870000D03*
%TO.P,MCU1,13*%
%TO.N,P009*%
X316720000Y-87630000D03*
%TO.P,MCU1,14*%
%TO.N,P010*%
X314180000Y-87630000D03*
%TO.P,MCU1,15*%
%TO.N,P111*%
X311640000Y-87630000D03*
%TO.P,MCU1,16*%
%TO.N,P113*%
X309100000Y-87630000D03*
%TO.P,MCU1,17*%
%TO.N,P115*%
X306560000Y-87630000D03*
%TO.P,MCU1,18*%
%TO.N,P002*%
X304020000Y-87630000D03*
%TO.P,MCU1,19*%
%TO.N,P029*%
X301480000Y-87630000D03*
%TO.P,MCU1,20*%
%TO.N,P031*%
X298940000Y-87630000D03*
%TO.P,MCU1,21*%
%TO.N,VCC*%
X296400000Y-87630000D03*
%TO.P,MCU1,22*%
%TO.N,RST*%
X293860000Y-87630000D03*
%TO.P,MCU1,23*%
%TO.N,GND*%
X291320000Y-87630000D03*
%TO.P,MCU1,24*%
%TO.N,RAW*%
X288780000Y-87630000D03*
%TD*%
D13*
%TO.P,S21,1*%
%TO.N,P017*%
X297025000Y-152950000D03*
%TO.P,S21,2*%
%TO.N,mirror_sixth_mod*%
X285475000Y-150750000D03*
%TD*%
D14*
%TO.P,D15,1*%
%TO.N,P002*%
X320300000Y-108190000D03*
D15*
X320300000Y-110350000D03*
%TO.P,D15,2*%
%TO.N,mirror_fifth_home*%
X320300000Y-113650000D03*
D16*
X320300000Y-115810000D03*
%TD*%
D13*
%TO.P,S9,1*%
%TO.N,P024*%
X353275000Y-148950000D03*
%TO.P,S9,2*%
%TO.N,mirror_third_mod*%
X341725000Y-146750000D03*
%TD*%
%TO.P,S10,1*%
%TO.N,P024*%
X353275000Y-131200000D03*
%TO.P,S10,2*%
%TO.N,mirror_third_bottom*%
X341725000Y-129000000D03*
%TD*%
D21*
%TO.P,S26,1*%
%TO.N,P111*%
X296742943Y-173032558D03*
%TO.P,S26,2*%
%TO.N,mirror_home_thumb*%
X285137049Y-174915567D03*
%TD*%
D14*
%TO.P,D5,1*%
%TO.N,P113*%
X376550000Y-149690000D03*
D15*
X376550000Y-151850000D03*
%TO.P,D5,2*%
%TO.N,mirror_second_mod*%
X376550000Y-155150000D03*
D16*
X376550000Y-157310000D03*
%TD*%
D14*
%TO.P,D10,1*%
%TO.N,P029*%
X357800000Y-89440000D03*
D15*
X357800000Y-91600000D03*
%TO.P,D10,2*%
%TO.N,mirror_third_top*%
X357800000Y-94900000D03*
D16*
X357800000Y-97060000D03*
%TD*%
D14*
%TO.P,D24,1*%
%TO.N,P029*%
X320300000Y-84940000D03*
D15*
X320300000Y-87100000D03*
%TO.P,D24,2*%
%TO.N,mirror_fifth_top*%
X320300000Y-90400000D03*
D16*
X320300000Y-92560000D03*
%TD*%
D13*
%TO.P,S24,1*%
%TO.N,P017*%
X297025000Y-99700000D03*
%TO.P,S24,2*%
%TO.N,mirror_sixth_top*%
X285475000Y-97500000D03*
%TD*%
%TO.P,S8,1*%
%TO.N,P022*%
X372025000Y-102700000D03*
%TO.P,S8,2*%
%TO.N,mirror_second_top*%
X360475000Y-100500000D03*
%TD*%
D14*
%TO.P,D9,1*%
%TO.N,P002*%
X357800000Y-107190000D03*
D15*
X357800000Y-109350000D03*
%TO.P,D9,2*%
%TO.N,mirror_third_home*%
X357800000Y-112650000D03*
D16*
X357800000Y-114810000D03*
%TD*%
D13*
%TO.P,S25,1*%
%TO.N,P010*%
X316025000Y-169950000D03*
%TO.P,S25,2*%
%TO.N,mirror_near_thumb*%
X304475000Y-167750000D03*
%TD*%
%TO.P,S13,1*%
%TO.N,P100*%
X334525000Y-143950000D03*
%TO.P,S13,2*%
%TO.N,mirror_fourth_mod*%
X322975000Y-141750000D03*
%TD*%
D22*
%TO.P,B1,1*%
%TO.N,GND*%
X261722374Y-179917871D03*
X265498908Y-176270915D03*
%TO.P,B1,2*%
%TO.N,RST*%
X262903294Y-181140749D03*
X266679828Y-177493793D03*
%TD*%
D13*
%TO.P,S14,1*%
%TO.N,P100*%
X334525000Y-126200000D03*
%TO.P,S14,2*%
%TO.N,mirror_fourth_bottom*%
X322975000Y-124000000D03*
%TD*%
%TO.P,S11,1*%
%TO.N,P024*%
X353275000Y-113450000D03*
%TO.P,S11,2*%
%TO.N,mirror_third_home*%
X341725000Y-111250000D03*
%TD*%
%TO.P,S22,1*%
%TO.N,P017*%
X297025000Y-135200000D03*
%TO.P,S22,2*%
%TO.N,mirror_sixth_bottom*%
X285475000Y-133000000D03*
%TD*%
D14*
%TO.P,D22,1*%
%TO.N,P029*%
X376550000Y-90940000D03*
D15*
X376550000Y-93100000D03*
%TO.P,D22,2*%
%TO.N,mirror_second_top*%
X376550000Y-96400000D03*
D16*
X376550000Y-98560000D03*
%TD*%
D14*
%TO.P,D16,1*%
%TO.N,P113*%
X301550000Y-146690000D03*
D15*
X301550000Y-148850000D03*
%TO.P,D16,2*%
%TO.N,mirror_sixth_mod*%
X301550000Y-152150000D03*
D16*
X301550000Y-154310000D03*
%TD*%
D14*
%TO.P,D8,1*%
%TO.N,P115*%
X357800000Y-124940000D03*
D15*
X357800000Y-127100000D03*
%TO.P,D8,2*%
%TO.N,mirror_third_bottom*%
X357800000Y-130400000D03*
D16*
X357800000Y-132560000D03*
%TD*%
D23*
%TO.P,D19,1*%
%TO.N,P031*%
X298854006Y-165602441D03*
D24*
X299592770Y-167632177D03*
%TO.P,D19,2*%
%TO.N,mirror_home_thumb*%
X300721436Y-170733163D03*
D16*
X301460200Y-172762899D03*
%TD*%
D14*
%TO.P,D2,1*%
%TO.N,P115*%
X395300000Y-131940000D03*
D15*
X395300000Y-134100000D03*
%TO.P,D2,2*%
%TO.N,mirror_first_bottom*%
X395300000Y-137400000D03*
D16*
X395300000Y-139560000D03*
%TD*%
D13*
%TO.P,S12,1*%
%TO.N,P024*%
X353275000Y-95700000D03*
%TO.P,S12,2*%
%TO.N,mirror_third_top*%
X341725000Y-93500000D03*
%TD*%
D25*
%TO.P,D20,1*%
%TO.N,P031*%
X277960254Y-175216163D03*
D26*
X279565447Y-176661485D03*
%TO.P,D20,2*%
%TO.N,mirror_far_thumb*%
X282017825Y-178869617D03*
D16*
X283623018Y-180314939D03*
%TD*%
D13*
%TO.P,S7,1*%
%TO.N,P022*%
X372025000Y-120450000D03*
%TO.P,S7,2*%
%TO.N,mirror_second_home*%
X360475000Y-118250000D03*
%TD*%
%TO.P,S16,1*%
%TO.N,P100*%
X334525000Y-90700000D03*
%TO.P,S16,2*%
%TO.N,mirror_fourth_top*%
X322975000Y-88500000D03*
%TD*%
D14*
%TO.P,D11,1*%
%TO.N,P113*%
X339050000Y-137690000D03*
D15*
X339050000Y-139850000D03*
%TO.P,D11,2*%
%TO.N,mirror_fourth_mod*%
X339050000Y-143150000D03*
D16*
X339050000Y-145310000D03*
%TD*%
D14*
%TO.P,D23,1*%
%TO.N,P115*%
X320300000Y-120440000D03*
D15*
X320300000Y-122600000D03*
%TO.P,D23,2*%
%TO.N,mirror_fifth_bottom*%
X320300000Y-125900000D03*
D16*
X320300000Y-128060000D03*
%TD*%
D13*
%TO.P,S20,1*%
%TO.N,P011*%
X315775000Y-96700000D03*
%TO.P,S20,2*%
%TO.N,mirror_fifth_top*%
X304225000Y-94500000D03*
%TD*%
D14*
%TO.P,D27,1*%
%TO.N,P002*%
X339050000Y-102190000D03*
D15*
X339050000Y-104350000D03*
%TO.P,D27,2*%
%TO.N,mirror_fourth_home*%
X339050000Y-107650000D03*
D16*
X339050000Y-109810000D03*
%TD*%
D14*
%TO.P,D12,1*%
%TO.N,P115*%
X339050000Y-119940000D03*
D15*
X339050000Y-122100000D03*
%TO.P,D12,2*%
%TO.N,mirror_fourth_bottom*%
X339050000Y-125400000D03*
D16*
X339050000Y-127560000D03*
%TD*%
D13*
%TO.P,S1,1*%
%TO.N,P020*%
X390775000Y-155950000D03*
%TO.P,S1,2*%
%TO.N,mirror_first_mod*%
X379225000Y-153750000D03*
%TD*%
%TO.P,S3,1*%
%TO.N,P020*%
X390775000Y-120450000D03*
%TO.P,S3,2*%
%TO.N,mirror_first_home*%
X379225000Y-118250000D03*
%TD*%
D14*
%TO.P,D26,1*%
%TO.N,P002*%
X301550000Y-110690000D03*
D15*
X301550000Y-112850000D03*
%TO.P,D26,2*%
%TO.N,mirror_sixth_home*%
X301550000Y-116150000D03*
D16*
X301550000Y-118310000D03*
%TD*%
D13*
%TO.P,S6,1*%
%TO.N,P022*%
X372025000Y-138200000D03*
%TO.P,S6,2*%
%TO.N,mirror_second_bottom*%
X360475000Y-136000000D03*
%TD*%
%TO.P,S19,1*%
%TO.N,P011*%
X315775000Y-114450000D03*
%TO.P,S19,2*%
%TO.N,mirror_fifth_home*%
X304225000Y-112250000D03*
%TD*%
D14*
%TO.P,D25,1*%
%TO.N,P029*%
X301550000Y-91440000D03*
D15*
X301550000Y-93600000D03*
%TO.P,D25,2*%
%TO.N,mirror_sixth_top*%
X301550000Y-96900000D03*
D16*
X301550000Y-99060000D03*
%TD*%
D14*
%TO.P,D3,1*%
%TO.N,P002*%
X395300000Y-114190000D03*
D15*
X395300000Y-116350000D03*
%TO.P,D3,2*%
%TO.N,mirror_first_home*%
X395300000Y-119650000D03*
D16*
X395300000Y-121810000D03*
%TD*%
D14*
%TO.P,D18,1*%
%TO.N,P031*%
X320550000Y-163690000D03*
D15*
X320550000Y-165850000D03*
%TO.P,D18,2*%
%TO.N,mirror_near_thumb*%
X320550000Y-169150000D03*
D16*
X320550000Y-171310000D03*
%TD*%
D27*
%TO.N,P020*%
X393500000Y-156000000D03*
X393500000Y-138000000D03*
X393000000Y-102500000D03*
X393500000Y-120000000D03*
%TO.N,P022*%
X374500000Y-120500000D03*
X344000000Y-103500000D03*
X374500000Y-155500000D03*
X304158342Y-99283622D03*
X344000000Y-98500000D03*
X374500000Y-138000000D03*
X374500000Y-102500000D03*
%TO.N,P024*%
X355500000Y-113500000D03*
X356000000Y-149000000D03*
X356000000Y-95500000D03*
X307000000Y-99500000D03*
X355500000Y-131500000D03*
%TO.N,P100*%
X337000000Y-108500000D03*
X328500000Y-101500000D03*
X337000000Y-144000000D03*
X337000000Y-90500000D03*
X329000000Y-89000000D03*
X336500000Y-126000000D03*
%TO.N,P011*%
X318000000Y-114500000D03*
X319000000Y-96500000D03*
X317500000Y-105500000D03*
X318000000Y-132000000D03*
X311500000Y-105500000D03*
X318000000Y-149500000D03*
%TO.N,P017*%
X294500000Y-144500000D03*
X295839500Y-131500000D03*
X295839500Y-114500000D03*
%TO.N,P010*%
X316000000Y-167000000D03*
%TO.N,P111*%
X299000000Y-171500000D03*
%TO.N,P009*%
X277000000Y-179500000D03*
X300000000Y-106500000D03*
X320000000Y-104500000D03*
%TO.N,P113*%
X308000000Y-139500000D03*
%TO.N,P115*%
X309500000Y-120000000D03*
%TO.N,P002*%
X301500000Y-108000000D03*
%TO.N,P029*%
X301500000Y-85000000D03*
%TO.N,P031*%
X289500000Y-165000000D03*
%TO.N,RAW*%
X284987347Y-161487347D03*
%TO.N,GND*%
X328500000Y-116000000D03*
X275000000Y-167500000D03*
X293000000Y-160500000D03*
X328000000Y-82000000D03*
X275000000Y-177500000D03*
%TO.N,RST*%
X271000000Y-178500000D03*
%TO.N,pos*%
X281500000Y-173000000D03*
X297000000Y-121000000D03*
X292000000Y-158500000D03*
X289000000Y-158500000D03*
%TD*%
D28*
%TO.N,P020*%
X387650000Y-105825000D02*
X384650000Y-102825000D01*
X393300000Y-138200000D02*
X393500000Y-138000000D01*
X390775000Y-120450000D02*
X393050000Y-120450000D01*
X393050000Y-120450000D02*
X393500000Y-120000000D01*
X341663000Y-102375000D02*
X339698500Y-100410500D01*
X303939500Y-100410500D02*
X301480000Y-102870000D01*
X390775000Y-102700000D02*
X387650000Y-105825000D01*
X339698500Y-100410500D02*
X303939500Y-100410500D01*
X375850305Y-102825000D02*
X373850305Y-100825000D01*
X390775000Y-138200000D02*
X393300000Y-138200000D01*
X393450000Y-155950000D02*
X390775000Y-155950000D01*
X390775000Y-102700000D02*
X392800000Y-102700000D01*
X373850305Y-100825000D02*
X366175000Y-100825000D01*
X364625000Y-102375000D02*
X341663000Y-102375000D01*
X393500000Y-156000000D02*
X393450000Y-155950000D01*
X392800000Y-102700000D02*
X393000000Y-102500000D01*
X384650000Y-102825000D02*
X375850305Y-102825000D01*
X366175000Y-100825000D02*
X364625000Y-102375000D01*
%TO.N,mirror_first_mod*%
X383975000Y-158500000D02*
X394110000Y-158500000D01*
X395300000Y-155150000D02*
X395300000Y-157310000D01*
X394110000Y-158500000D02*
X395300000Y-157310000D01*
X379225000Y-153750000D02*
X383975000Y-158500000D01*
%TO.N,mirror_first_bottom*%
X383300000Y-140075000D02*
X394785000Y-140075000D01*
X379225000Y-136000000D02*
X383300000Y-140075000D01*
X395300000Y-137400000D02*
X395300000Y-139560000D01*
X394785000Y-140075000D02*
X395300000Y-139560000D01*
%TO.N,mirror_first_home*%
X383737500Y-122762500D02*
X394347500Y-122762500D01*
X395300000Y-119650000D02*
X395300000Y-121810000D01*
X394347500Y-122762500D02*
X395300000Y-121810000D01*
X379225000Y-118250000D02*
X383737500Y-122762500D01*
%TO.N,mirror_first_top*%
X394475000Y-101075000D02*
X395300000Y-101900000D01*
X379225000Y-100500000D02*
X381100000Y-98625000D01*
X381100000Y-98625000D02*
X386125000Y-98625000D01*
X386125000Y-98625000D02*
X388575000Y-101075000D01*
X388575000Y-101075000D02*
X394475000Y-101075000D01*
X395300000Y-101900000D02*
X395300000Y-104060000D01*
%TO.N,P022*%
X304866964Y-98575000D02*
X304158342Y-99283622D01*
X374300000Y-138200000D02*
X374500000Y-138000000D01*
X372025000Y-102700000D02*
X374300000Y-102700000D01*
X372025000Y-138200000D02*
X374300000Y-138200000D01*
X372025000Y-102700000D02*
X370150000Y-104575000D01*
X374500000Y-155500000D02*
X374050000Y-155950000D01*
X372025000Y-120450000D02*
X374450000Y-120450000D01*
X370150000Y-104575000D02*
X355821396Y-104575000D01*
X374450000Y-120450000D02*
X374500000Y-120500000D01*
X374050000Y-155950000D02*
X372025000Y-155950000D01*
X354746396Y-103500000D02*
X344000000Y-103500000D01*
X374300000Y-102700000D02*
X374500000Y-102500000D01*
X343925000Y-98575000D02*
X304866964Y-98575000D01*
X344000000Y-98500000D02*
X343925000Y-98575000D01*
X355821396Y-104575000D02*
X354746396Y-103500000D01*
%TO.N,mirror_second_mod*%
X370225000Y-154325000D02*
X375725000Y-154325000D01*
X375725000Y-154325000D02*
X376550000Y-155150000D01*
X360475000Y-153750000D02*
X362350000Y-151875000D01*
X367775000Y-151875000D02*
X370225000Y-154325000D01*
X362350000Y-151875000D02*
X367775000Y-151875000D01*
X376550000Y-157310000D02*
X376550000Y-155150000D01*
%TO.N,mirror_second_bottom*%
X362350000Y-137875000D02*
X366423350Y-137875000D01*
X376550000Y-134060000D02*
X376550000Y-131900000D01*
X360475000Y-136000000D02*
X362350000Y-137875000D01*
X366423350Y-137875000D02*
X370238350Y-134060000D01*
X370238350Y-134060000D02*
X376550000Y-134060000D01*
%TO.N,mirror_second_home*%
X368048350Y-118500000D02*
X375400000Y-118500000D01*
X360475000Y-118250000D02*
X362350000Y-120125000D01*
X362350000Y-120125000D02*
X366423350Y-120125000D01*
X376550000Y-121810000D02*
X376550000Y-119650000D01*
X366423350Y-120125000D02*
X368048350Y-118500000D01*
X375400000Y-118500000D02*
X376550000Y-119650000D01*
%TO.N,mirror_second_top*%
X376550000Y-98560000D02*
X376550000Y-96400000D01*
X360475000Y-100500000D02*
X362350000Y-98625000D01*
X376110000Y-99000000D02*
X376550000Y-98560000D01*
X368000000Y-99000000D02*
X376110000Y-99000000D01*
X362350000Y-98625000D02*
X367625000Y-98625000D01*
X367625000Y-98625000D02*
X368000000Y-99000000D01*
%TO.N,P024*%
X355200000Y-131200000D02*
X355500000Y-131500000D01*
X358725000Y-94125000D02*
X359077500Y-94477500D01*
X353275000Y-113450000D02*
X355450000Y-113450000D01*
X357166658Y-99500000D02*
X307000000Y-99500000D01*
X355950000Y-148950000D02*
X353275000Y-148950000D01*
X356000000Y-149000000D02*
X355950000Y-148950000D01*
X355450000Y-113450000D02*
X355500000Y-113500000D01*
X354850000Y-94125000D02*
X358725000Y-94125000D01*
X353275000Y-95700000D02*
X355800000Y-95700000D01*
X355800000Y-95700000D02*
X356000000Y-95500000D01*
X353275000Y-95700000D02*
X354850000Y-94125000D01*
X359077500Y-94477500D02*
X359077500Y-97589158D01*
X353275000Y-131200000D02*
X355200000Y-131200000D01*
X359077500Y-97589158D02*
X357166658Y-99500000D01*
%TO.N,mirror_third_mod*%
X341725000Y-146750000D02*
X346237500Y-151262500D01*
X346237500Y-151262500D02*
X356847500Y-151262500D01*
X356847500Y-151262500D02*
X357800000Y-150310000D01*
X357800000Y-150310000D02*
X357800000Y-148150000D01*
%TO.N,mirror_third_bottom*%
X346237500Y-133512500D02*
X356847500Y-133512500D01*
X341725000Y-129000000D02*
X346237500Y-133512500D01*
X356847500Y-133512500D02*
X357800000Y-132560000D01*
X357800000Y-132560000D02*
X357800000Y-130400000D01*
%TO.N,mirror_third_home*%
X357800000Y-114810000D02*
X357800000Y-112650000D01*
X346475000Y-116000000D02*
X356610000Y-116000000D01*
X356610000Y-116000000D02*
X357800000Y-114810000D01*
X341725000Y-111250000D02*
X346475000Y-116000000D01*
%TO.N,mirror_third_top*%
X341725000Y-93500000D02*
X346725000Y-98500000D01*
X356360000Y-98500000D02*
X357800000Y-97060000D01*
X346725000Y-98500000D02*
X356360000Y-98500000D01*
X357800000Y-97060000D02*
X357800000Y-94900000D01*
%TO.N,P100*%
X336950000Y-108450000D02*
X337000000Y-108500000D01*
X336300000Y-126200000D02*
X336500000Y-126000000D01*
X334525000Y-126200000D02*
X336300000Y-126200000D01*
X328500000Y-101500000D02*
X328274100Y-101274100D01*
X336800000Y-90700000D02*
X337000000Y-90500000D01*
X329175000Y-88825000D02*
X329000000Y-89000000D01*
X332650000Y-88825000D02*
X329175000Y-88825000D01*
X337000000Y-144000000D02*
X334575000Y-144000000D01*
X334525000Y-108450000D02*
X336950000Y-108450000D01*
X334575000Y-144000000D02*
X334525000Y-143950000D01*
X334525000Y-90700000D02*
X332650000Y-88825000D01*
X328274100Y-101274100D02*
X310695900Y-101274100D01*
X334525000Y-90700000D02*
X336800000Y-90700000D01*
X310695900Y-101274100D02*
X309100000Y-102870000D01*
%TO.N,mirror_fourth_mod*%
X322975000Y-143475000D02*
X326500000Y-147000000D01*
X339050000Y-145310000D02*
X339050000Y-143150000D01*
X322975000Y-141750000D02*
X322975000Y-143475000D01*
X337360000Y-147000000D02*
X339050000Y-145310000D01*
X326500000Y-147000000D02*
X337360000Y-147000000D01*
%TO.N,mirror_fourth_bottom*%
X339050000Y-127560000D02*
X339050000Y-125400000D01*
X327487500Y-128512500D02*
X338097500Y-128512500D01*
X322975000Y-124000000D02*
X327487500Y-128512500D01*
X338097500Y-128512500D02*
X339050000Y-127560000D01*
%TO.N,mirror_fourth_home*%
X322975000Y-106250000D02*
X322975000Y-107475000D01*
X326500000Y-111000000D02*
X337860000Y-111000000D01*
X339050000Y-109810000D02*
X339050000Y-107650000D01*
X322975000Y-107475000D02*
X326500000Y-111000000D01*
X337860000Y-111000000D02*
X339050000Y-109810000D01*
%TO.N,mirror_fourth_top*%
X338097500Y-93012500D02*
X339050000Y-92060000D01*
X339050000Y-92060000D02*
X339050000Y-89900000D01*
X322975000Y-88500000D02*
X327487500Y-93012500D01*
X327487500Y-93012500D02*
X338097500Y-93012500D01*
%TO.N,P011*%
X315775000Y-114450000D02*
X317950000Y-114450000D01*
X317800000Y-132200000D02*
X318000000Y-132000000D01*
X317950000Y-114450000D02*
X318000000Y-114500000D01*
X318800000Y-96700000D02*
X319000000Y-96500000D01*
X315775000Y-132200000D02*
X317800000Y-132200000D01*
X316225000Y-149500000D02*
X315775000Y-149950000D01*
X318000000Y-149500000D02*
X316225000Y-149500000D01*
X317500000Y-105500000D02*
X311500000Y-105500000D01*
X315775000Y-96700000D02*
X318800000Y-96700000D01*
%TO.N,mirror_fifth_mod*%
X320300000Y-149150000D02*
X317625000Y-151825000D01*
X317625000Y-151825000D02*
X308300000Y-151825000D01*
X308300000Y-151825000D02*
X304225000Y-147750000D01*
X320300000Y-151310000D02*
X320300000Y-149150000D01*
%TO.N,mirror_fifth_bottom*%
X319347500Y-129012500D02*
X311139150Y-129012500D01*
X320300000Y-128060000D02*
X319347500Y-129012500D01*
X306100000Y-131875000D02*
X304225000Y-130000000D01*
X311139150Y-129012500D02*
X308276650Y-131875000D01*
X308276650Y-131875000D02*
X306100000Y-131875000D01*
X320300000Y-128060000D02*
X320300000Y-125900000D01*
%TO.N,mirror_fifth_home*%
X320300000Y-115810000D02*
X319347500Y-116762500D01*
X320300000Y-115810000D02*
X320300000Y-113650000D01*
X319347500Y-116762500D02*
X308737500Y-116762500D01*
X308737500Y-116762500D02*
X304225000Y-112250000D01*
%TO.N,mirror_fifth_top*%
X313988350Y-92560000D02*
X310173350Y-96375000D01*
X306100000Y-96375000D02*
X304225000Y-94500000D01*
X320300000Y-92560000D02*
X320300000Y-90400000D01*
X320300000Y-92560000D02*
X313988350Y-92560000D01*
X310173350Y-96375000D02*
X306100000Y-96375000D01*
%TO.N,P017*%
X298940000Y-101615000D02*
X297025000Y-99700000D01*
X294500000Y-144795001D02*
X294500000Y-144500000D01*
X297025000Y-147320001D02*
X294500000Y-144795001D01*
X297025000Y-115685500D02*
X295839500Y-114500000D01*
X297025000Y-135200000D02*
X297025000Y-132685500D01*
X297025000Y-117450000D02*
X297025000Y-115685500D01*
X297025000Y-132685500D02*
X295839500Y-131500000D01*
X297025000Y-152950000D02*
X297025000Y-147320001D01*
X298940000Y-102870000D02*
X298940000Y-101615000D01*
%TO.N,mirror_sixth_mod*%
X301550000Y-154310000D02*
X301550000Y-152150000D01*
X301550000Y-154310000D02*
X300597500Y-155262500D01*
X300597500Y-155262500D02*
X289987500Y-155262500D01*
X289987500Y-155262500D02*
X285475000Y-150750000D01*
%TO.N,mirror_sixth_bottom*%
X300597500Y-137512500D02*
X289987500Y-137512500D01*
X301550000Y-136560000D02*
X301550000Y-134400000D01*
X289987500Y-137512500D02*
X285475000Y-133000000D01*
X301550000Y-136560000D02*
X300597500Y-137512500D01*
%TO.N,mirror_sixth_home*%
X301550000Y-118310000D02*
X301550000Y-116150000D01*
X289550000Y-119325000D02*
X285475000Y-115250000D01*
X301550000Y-118310000D02*
X300535000Y-119325000D01*
X300535000Y-119325000D02*
X289550000Y-119325000D01*
%TO.N,mirror_sixth_top*%
X287475000Y-99500000D02*
X285475000Y-97500000D01*
X292001650Y-96900000D02*
X289401650Y-99500000D01*
X301550000Y-96900000D02*
X292001650Y-96900000D01*
X301550000Y-99060000D02*
X301550000Y-96900000D01*
X289401650Y-99500000D02*
X287475000Y-99500000D01*
%TO.N,P010*%
X316025000Y-169950000D02*
X316025000Y-167025000D01*
X316025000Y-167025000D02*
X316000000Y-167000000D01*
%TO.N,mirror_near_thumb*%
X304475000Y-167750000D02*
X309225000Y-172500000D01*
X320550000Y-169150000D02*
X320550000Y-171310000D01*
X317500000Y-172500000D02*
X318690000Y-171310000D01*
X309225000Y-172500000D02*
X317500000Y-172500000D01*
X318690000Y-171310000D02*
X320550000Y-171310000D01*
%TO.N,P111*%
X298275501Y-171500000D02*
X299000000Y-171500000D01*
X296742943Y-173032558D02*
X298275501Y-171500000D01*
%TO.N,mirror_home_thumb*%
X301460200Y-172762899D02*
X298195425Y-176027674D01*
X300721436Y-172024135D02*
X301460200Y-172762899D01*
X286249156Y-176027674D02*
X285137049Y-174915567D01*
X298195425Y-176027674D02*
X286249156Y-176027674D01*
X300721436Y-170733163D02*
X300721436Y-172024135D01*
%TO.N,P009*%
X301725000Y-104775000D02*
X319725000Y-104775000D01*
X279584525Y-182767651D02*
X277000000Y-180183126D01*
X319725000Y-104775000D02*
X320000000Y-104500000D01*
X300000000Y-106500000D02*
X301725000Y-104775000D01*
X277000000Y-180183126D02*
X277000000Y-179500000D01*
%TO.N,mirror_far_thumb*%
X282177696Y-178869617D02*
X283623018Y-180314939D01*
X282017825Y-178869617D02*
X282177696Y-178869617D01*
X283623018Y-180314939D02*
X283623018Y-181661977D01*
X275406109Y-189878886D02*
X270221148Y-189878886D01*
X283623018Y-181661977D02*
X275406109Y-189878886D01*
%TO.N,P113*%
X339050000Y-139850000D02*
X339050000Y-137690000D01*
X321600000Y-139875000D02*
X321225000Y-139500000D01*
X320300000Y-145850000D02*
X320300000Y-143690000D01*
X357800000Y-144850000D02*
X357800000Y-142690000D01*
X339050000Y-139850000D02*
X336900000Y-142000000D01*
X357800000Y-142690000D02*
X354960000Y-139850000D01*
X320060500Y-146089500D02*
X308491150Y-146089500D01*
X369550000Y-142690000D02*
X357800000Y-142690000D01*
X320300000Y-145850000D02*
X320060500Y-146089500D01*
X383491150Y-152089500D02*
X382627550Y-151225900D01*
X302365000Y-145875000D02*
X301550000Y-146690000D01*
X378085900Y-151225900D02*
X376550000Y-149690000D01*
X329151650Y-142000000D02*
X327026650Y-139875000D01*
X382627550Y-151225900D02*
X378085900Y-151225900D01*
X308276650Y-145875000D02*
X302365000Y-145875000D01*
X320300000Y-141175000D02*
X320300000Y-143690000D01*
X321225000Y-139500000D02*
X308000000Y-139500000D01*
X395060500Y-152089500D02*
X383491150Y-152089500D01*
X321600000Y-139875000D02*
X320300000Y-141175000D01*
X336900000Y-142000000D02*
X329151650Y-142000000D01*
X308491150Y-146089500D02*
X308276650Y-145875000D01*
X327026650Y-139875000D02*
X321600000Y-139875000D01*
X376550000Y-151850000D02*
X376550000Y-149690000D01*
X395300000Y-149690000D02*
X395300000Y-151850000D01*
X301550000Y-148850000D02*
X301550000Y-146690000D01*
X354960000Y-139850000D02*
X339050000Y-139850000D01*
X376550000Y-149690000D02*
X369550000Y-142690000D01*
X395300000Y-151850000D02*
X395060500Y-152089500D01*
%TO.N,P115*%
X346339500Y-127339500D02*
X345475900Y-126475900D01*
X303000000Y-128375000D02*
X302115000Y-128375000D01*
X309940000Y-120440000D02*
X309500000Y-120000000D01*
X376550000Y-128600000D02*
X376550000Y-126440000D01*
X339050000Y-122100000D02*
X338810500Y-122339500D01*
X310935000Y-120440000D02*
X303000000Y-128375000D01*
X301550000Y-131100000D02*
X301550000Y-128940000D01*
X357800000Y-127100000D02*
X357560500Y-127339500D01*
X395300000Y-131940000D02*
X391960000Y-128600000D01*
X338810500Y-122339500D02*
X327839500Y-122339500D01*
X302115000Y-128375000D02*
X301550000Y-128940000D01*
X343425900Y-126475900D02*
X339050000Y-122100000D01*
X327839500Y-122339500D02*
X326975900Y-121475900D01*
X326975900Y-121475900D02*
X321335900Y-121475900D01*
X357800000Y-127100000D02*
X357800000Y-124940000D01*
X321335900Y-121475900D02*
X320300000Y-120440000D01*
X359300000Y-128600000D02*
X357800000Y-127100000D01*
X395300000Y-131940000D02*
X395300000Y-134100000D01*
X391960000Y-128600000D02*
X376550000Y-128600000D01*
X320300000Y-120440000D02*
X309940000Y-120440000D01*
X320300000Y-122600000D02*
X320300000Y-120440000D01*
X339050000Y-122100000D02*
X339050000Y-119940000D01*
X357560500Y-127339500D02*
X346339500Y-127339500D01*
X345475900Y-126475900D02*
X343425900Y-126475900D01*
X376550000Y-128600000D02*
X359300000Y-128600000D01*
X320300000Y-120440000D02*
X310935000Y-120440000D01*
%TO.N,P002*%
X339050000Y-104350000D02*
X338810500Y-104589500D01*
X308375000Y-110375000D02*
X301865000Y-110375000D01*
X376550000Y-114190000D02*
X376550000Y-113051000D01*
X376550000Y-116350000D02*
X376550000Y-114190000D01*
X320300000Y-110350000D02*
X320300000Y-108190000D01*
X354960000Y-104350000D02*
X339050000Y-104350000D01*
X321975000Y-104000000D02*
X320300000Y-105675000D01*
X393520500Y-112410500D02*
X378329500Y-112410500D01*
X329795001Y-104000000D02*
X321975000Y-104000000D01*
X370689000Y-107190000D02*
X357800000Y-107190000D01*
X301550000Y-108050000D02*
X301500000Y-108000000D01*
X378329500Y-112410500D02*
X376550000Y-114190000D01*
X301865000Y-110375000D02*
X301550000Y-110690000D01*
X357800000Y-109350000D02*
X357800000Y-107190000D01*
X376550000Y-113051000D02*
X370689000Y-107190000D01*
X301550000Y-112850000D02*
X301550000Y-110690000D01*
X339050000Y-104350000D02*
X339050000Y-102190000D01*
X395300000Y-114190000D02*
X393520500Y-112410500D01*
X330384501Y-104589500D02*
X329795001Y-104000000D01*
X301550000Y-110690000D02*
X301550000Y-108050000D01*
X308589500Y-110589500D02*
X308375000Y-110375000D01*
X320300000Y-105675000D02*
X320300000Y-108190000D01*
X395300000Y-114190000D02*
X395300000Y-116350000D01*
X357800000Y-107190000D02*
X354960000Y-104350000D01*
X320300000Y-110350000D02*
X320060500Y-110589500D01*
X338810500Y-104589500D02*
X330384501Y-104589500D01*
X320060500Y-110589500D02*
X308589500Y-110589500D01*
%TO.N,P029*%
X376550000Y-90940000D02*
X358460000Y-90940000D01*
X357800000Y-89440000D02*
X354960000Y-86600000D01*
X327241150Y-86839500D02*
X327026650Y-86625000D01*
X358460000Y-90940000D02*
X357800000Y-91600000D01*
X395300000Y-96440000D02*
X395300000Y-98600000D01*
X327026650Y-86625000D02*
X320775000Y-86625000D01*
X338810500Y-86839500D02*
X327241150Y-86839500D01*
X320300000Y-87100000D02*
X320300000Y-84940000D01*
X320775000Y-86625000D02*
X320300000Y-87100000D01*
X391960000Y-93100000D02*
X376550000Y-93100000D01*
X339050000Y-86600000D02*
X339050000Y-84440000D01*
X339050000Y-86600000D02*
X338810500Y-86839500D01*
X357800000Y-91600000D02*
X357800000Y-89440000D01*
X354960000Y-86600000D02*
X339050000Y-86600000D01*
X301560000Y-84940000D02*
X301500000Y-85000000D01*
X320300000Y-84940000D02*
X301560000Y-84940000D01*
X395300000Y-96440000D02*
X391960000Y-93100000D01*
X301550000Y-93600000D02*
X301550000Y-91440000D01*
X376550000Y-93100000D02*
X376550000Y-90940000D01*
%TO.N,P031*%
X298867823Y-167632177D02*
X299592770Y-167632177D01*
X301349947Y-165875000D02*
X311375000Y-165875000D01*
X320310500Y-166089500D02*
X320550000Y-165850000D01*
X311375000Y-165875000D02*
X311589500Y-166089500D01*
X298854006Y-166893413D02*
X299592770Y-167632177D01*
X294579549Y-171920451D02*
X298867823Y-167632177D01*
X311589500Y-166089500D02*
X320310500Y-166089500D01*
X277960254Y-175216163D02*
X278120125Y-175216163D01*
X298251565Y-165000000D02*
X289500000Y-165000000D01*
X284306481Y-171920451D02*
X294579549Y-171920451D01*
X298854006Y-165602441D02*
X298854006Y-166893413D01*
X299592770Y-167632177D02*
X301349947Y-165875000D01*
X298854006Y-165602441D02*
X298251565Y-165000000D01*
X278120125Y-175216163D02*
X279565447Y-176661485D01*
X320550000Y-163690000D02*
X320550000Y-165850000D01*
X279565447Y-176661485D02*
X284306481Y-171920451D01*
%TO.N,RAW*%
X284987347Y-163012653D02*
X284987347Y-161487347D01*
X274100435Y-173899565D02*
X284987347Y-163012653D01*
X272724399Y-173457556D02*
X273166408Y-173899565D01*
X273166408Y-173899565D02*
X274100435Y-173899565D01*
%TO.N,GND*%
X262547034Y-179917871D02*
X261722374Y-179917871D01*
X277949389Y-167500000D02*
X284949389Y-160500000D01*
X275000000Y-167500000D02*
X277949389Y-167500000D01*
X328000000Y-82000000D02*
X303428700Y-82000000D01*
X303428700Y-82000000D02*
X299000000Y-86428700D01*
X265498908Y-176965997D02*
X262547034Y-179917871D01*
X265498908Y-176270915D02*
X267024760Y-176270915D01*
X292521300Y-86428700D02*
X291320000Y-87630000D01*
X268253845Y-177500000D02*
X275000000Y-177500000D01*
X299000000Y-86428700D02*
X292521300Y-86428700D01*
X284949389Y-160500000D02*
X293000000Y-160500000D01*
X265498908Y-176270915D02*
X265498908Y-176965997D01*
X296400000Y-102870000D02*
X293860000Y-102870000D01*
X267024760Y-176270915D02*
X268253845Y-177500000D01*
%TO.N,RST*%
X264771091Y-181140749D02*
X262903294Y-181140749D01*
X266679828Y-177493793D02*
X266679828Y-179232012D01*
X266679828Y-179232012D02*
X264771091Y-181140749D01*
X267686035Y-178500000D02*
X271000000Y-178500000D01*
X266679828Y-177493793D02*
X267686035Y-178500000D01*
%TO.N,pos*%
X292000000Y-158500000D02*
X289000000Y-158500000D01*
X276500000Y-173500000D02*
X274000000Y-176000000D01*
X273041531Y-175541531D02*
X270566380Y-175541531D01*
X274000000Y-176000000D02*
X273500000Y-176000000D01*
X324312000Y-114000000D02*
X319037000Y-119275000D01*
X277000000Y-173500000D02*
X276500000Y-173500000D01*
X277500000Y-173000000D02*
X277000000Y-173500000D01*
X324312000Y-114000000D02*
X333000000Y-114000000D01*
X273500000Y-176000000D02*
X273041531Y-175541531D01*
X300666658Y-121000000D02*
X297000000Y-121000000D01*
X281500000Y-173000000D02*
X277500000Y-173000000D01*
X302391658Y-119275000D02*
X300666658Y-121000000D01*
X319037000Y-119275000D02*
X302391658Y-119275000D01*
%TD*%
M02*
