%TF.GenerationSoftware,KiCad,Pcbnew,8.0.7*%
%TF.CreationDate,2024-12-27T12:50:11-06:00*%
%TF.ProjectId,right,72696768-742e-46b6-9963-61645f706362,v1.0.0*%
%TF.SameCoordinates,Original*%
%TF.FileFunction,Paste,Top*%
%TF.FilePolarity,Positive*%
%FSLAX46Y46*%
G04 Gerber Fmt 4.6, Leading zero omitted, Abs format (unit mm)*
G04 Created by KiCad (PCBNEW 8.0.7) date 2024-12-27 12:50:11*
%MOMM*%
%LPD*%
G01*
G04 APERTURE LIST*
G04 Aperture macros list*
%AMRotRect*
0 Rectangle, with rotation*
0 The origin of the aperture is its center*
0 $1 length*
0 $2 width*
0 $3 Rotation angle, in degrees counterclockwise*
0 Add horizontal line*
21,1,$1,$2,0,0,$3*%
G04 Aperture macros list end*
%ADD10R,1.200000X0.900000*%
%ADD11RotRect,0.900000X1.200000X290.000000*%
%ADD12RotRect,0.900000X1.200000X318.000000*%
G04 APERTURE END LIST*
D10*
%TO.C,D6*%
X376550000Y-116350000D03*
X376550000Y-119650000D03*
%TD*%
%TO.C,D21*%
X376550000Y-128600000D03*
X376550000Y-131900000D03*
%TD*%
%TO.C,D1*%
X395300000Y-151850000D03*
X395300000Y-155150000D03*
%TD*%
%TO.C,D17*%
X301550000Y-131100000D03*
X301550000Y-134400000D03*
%TD*%
%TO.C,D14*%
X320300000Y-145850000D03*
X320300000Y-149150000D03*
%TD*%
%TO.C,D13*%
X339050000Y-86600000D03*
X339050000Y-89900000D03*
%TD*%
%TO.C,D4*%
X395300000Y-98600000D03*
X395300000Y-101900000D03*
%TD*%
%TO.C,D7*%
X357800000Y-144850000D03*
X357800000Y-148150000D03*
%TD*%
%TO.C,D15*%
X320300000Y-110350000D03*
X320300000Y-113650000D03*
%TD*%
%TO.C,D5*%
X376550000Y-151850000D03*
X376550000Y-155150000D03*
%TD*%
%TO.C,D10*%
X357800000Y-91600000D03*
X357800000Y-94900000D03*
%TD*%
%TO.C,D24*%
X320300000Y-87100000D03*
X320300000Y-90400000D03*
%TD*%
%TO.C,D9*%
X357800000Y-109350000D03*
X357800000Y-112650000D03*
%TD*%
%TO.C,D22*%
X376550000Y-93100000D03*
X376550000Y-96400000D03*
%TD*%
%TO.C,D16*%
X301550000Y-148850000D03*
X301550000Y-152150000D03*
%TD*%
%TO.C,D8*%
X357800000Y-127100000D03*
X357800000Y-130400000D03*
%TD*%
D11*
%TO.C,D19*%
X299592770Y-167632177D03*
X300721436Y-170733163D03*
%TD*%
D10*
%TO.C,D2*%
X395300000Y-134100000D03*
X395300000Y-137400000D03*
%TD*%
D12*
%TO.C,D20*%
X279565447Y-176661485D03*
X282017825Y-178869617D03*
%TD*%
D10*
%TO.C,D11*%
X339050000Y-139850000D03*
X339050000Y-143150000D03*
%TD*%
%TO.C,D23*%
X320300000Y-122600000D03*
X320300000Y-125900000D03*
%TD*%
%TO.C,D27*%
X339050000Y-104350000D03*
X339050000Y-107650000D03*
%TD*%
%TO.C,D12*%
X339050000Y-122100000D03*
X339050000Y-125400000D03*
%TD*%
%TO.C,D26*%
X301550000Y-112850000D03*
X301550000Y-116150000D03*
%TD*%
%TO.C,D25*%
X301550000Y-93600000D03*
X301550000Y-96900000D03*
%TD*%
%TO.C,D3*%
X395300000Y-116350000D03*
X395300000Y-119650000D03*
%TD*%
%TO.C,D18*%
X320550000Y-165850000D03*
X320550000Y-169150000D03*
%TD*%
M02*
