%TF.GenerationSoftware,KiCad,Pcbnew,8.0.7*%
%TF.CreationDate,2024-12-27T12:50:11-06:00*%
%TF.ProjectId,right,72696768-742e-46b6-9963-61645f706362,v1.0.0*%
%TF.SameCoordinates,Original*%
%TF.FileFunction,Profile,NP*%
%FSLAX46Y46*%
G04 Gerber Fmt 4.6, Leading zero omitted, Abs format (unit mm)*
G04 Created by KiCad (PCBNEW 8.0.7) date 2024-12-27 12:50:11*
%MOMM*%
%LPD*%
G01*
G04 APERTURE LIST*
%TA.AperFunction,Profile*%
%ADD10C,0.150000*%
%TD*%
G04 APERTURE END LIST*
D10*
X326211908Y-148500000D02*
X336527625Y-148500000D01*
X301121233Y-81764868D02*
X300749900Y-83250000D01*
X274594184Y-195906633D02*
G75*
G02*
X272457357Y-195559288I-798584J1833633D01*
G01*
X342744502Y-77546681D02*
X342505498Y-75953319D01*
X359202839Y-79250000D02*
X344722375Y-79250000D01*
X359202839Y-79250000D02*
G75*
G02*
X361191419Y-81036938I-39J-2000000D01*
G01*
X282750000Y-85250000D02*
G75*
G02*
X284750000Y-83250000I2000000J0D01*
G01*
X323774671Y-173217101D02*
G75*
G02*
X322573569Y-175012299I-1999671J38501D01*
G01*
X300749900Y-83250000D02*
X284750000Y-83250000D01*
X259376483Y-183781155D02*
G75*
G02*
X259302645Y-180878610I1338217J1486255D01*
G01*
X320031009Y-76001931D02*
X319718991Y-78498069D01*
X340722375Y-153500000D02*
X355202839Y-153500000D01*
X340527625Y-74250000D02*
X322015564Y-74250000D01*
X359547161Y-160500000D02*
X396500000Y-160500000D01*
X301121232Y-81764868D02*
G75*
G02*
X303061502Y-80250002I1940268J-485132D01*
G01*
X259376483Y-183781155D02*
X272457387Y-195559254D01*
X282750000Y-156669851D02*
G75*
G02*
X282162109Y-158086115I-2000000J51D01*
G01*
X398500000Y-158500000D02*
X398500000Y-88250000D01*
X340527625Y-74250000D02*
G75*
G02*
X342505473Y-75953323I-25J-2000000D01*
G01*
X398500000Y-158500000D02*
G75*
G02*
X396500000Y-160500000I-2000000J0D01*
G01*
X359547161Y-160500000D02*
G75*
G02*
X357558581Y-158713062I39J2000000D01*
G01*
X282750000Y-85250000D02*
X282750000Y-156669851D01*
X396500000Y-86250000D02*
X363547161Y-86250000D01*
X320031008Y-76001931D02*
G75*
G02*
X322015564Y-74249964I1984592J-248069D01*
G01*
X282162134Y-158086141D02*
X259302610Y-180878575D01*
X363547161Y-86250000D02*
G75*
G02*
X361558581Y-84463062I39J2000000D01*
G01*
X355202839Y-153500000D02*
G75*
G02*
X357191419Y-155286938I-39J-2000000D01*
G01*
X396500000Y-86250000D02*
G75*
G02*
X398500000Y-88250000I0J-2000000D01*
G01*
X336527625Y-148500000D02*
G75*
G02*
X338505473Y-150203323I-25J-2000000D01*
G01*
X361558543Y-84463066D02*
X361191457Y-81036934D01*
X319718992Y-78498069D02*
G75*
G02*
X317734436Y-80250036I-1984592J248069D01*
G01*
X274594184Y-195906633D02*
X322573576Y-175012315D01*
X317734436Y-80250000D02*
X303061502Y-80250000D01*
X340722375Y-153500000D02*
G75*
G02*
X338744527Y-151796677I25J2000000D01*
G01*
X338505498Y-150203319D02*
X338744502Y-151796681D01*
X357191457Y-155286934D02*
X357558543Y-158713066D01*
X324212278Y-150461546D02*
G75*
G02*
X326211908Y-148500008I1999622J-38454D01*
G01*
X344722375Y-79250000D02*
G75*
G02*
X342744527Y-77546677I25J2000000D01*
G01*
X323774671Y-173217101D02*
X324212278Y-150461546D01*
M02*
