%TF.GenerationSoftware,KiCad,Pcbnew,8.0.7*%
%TF.CreationDate,2024-12-27T12:51:28-06:00*%
%TF.ProjectId,right,72696768-742e-46b6-9963-61645f706362,v1.0.0*%
%TF.SameCoordinates,Original*%
%TF.FileFunction,Drillmap*%
%TF.FilePolarity,Positive*%
%FSLAX45Y45*%
G04 Gerber Fmt 4.5, Leading zero omitted, Abs format (unit mm)*
G04 Created by KiCad (PCBNEW 8.0.7) date 2024-12-27 12:51:28*
%MOMM*%
%LPD*%
G01*
G04 APERTURE LIST*
%ADD10C,0.150000*%
%ADD11C,0.200000*%
%ADD12C,0.100000*%
%ADD13C,0.109220*%
G04 APERTURE END LIST*
D10*
X32621191Y-14850000D02*
X33652763Y-14850000D01*
X30112123Y-8176487D02*
X30074990Y-8325000D01*
X27459418Y-19590663D02*
G75*
G02*
X27245736Y-19555929I-79858J183363D01*
G01*
X34274450Y-7754668D02*
X34250550Y-7595332D01*
X35920284Y-7925000D02*
X34472238Y-7925000D01*
X35920284Y-7925000D02*
G75*
G02*
X36119142Y-8103694I-4J-200000D01*
G01*
X28275000Y-8525000D02*
G75*
G02*
X28475000Y-8325000I200000J0D01*
G01*
X32377467Y-17321710D02*
G75*
G02*
X32257357Y-17501230I-199967J3850D01*
G01*
X30074990Y-8325000D02*
X28475000Y-8325000D01*
X25937648Y-18378116D02*
G75*
G02*
X25930264Y-18087861I133822J148626D01*
G01*
X32003101Y-7600193D02*
X31971899Y-7849807D01*
X34072238Y-15350000D02*
X35520284Y-15350000D01*
X34052763Y-7425000D02*
X32201556Y-7425000D01*
X35954716Y-16050000D02*
X39650000Y-16050000D01*
X30112123Y-8176487D02*
G75*
G02*
X30306150Y-8025000I194027J-48513D01*
G01*
X25937648Y-18378116D02*
X27245739Y-19555925D01*
X28275000Y-15666985D02*
G75*
G02*
X28216211Y-15808611I-200000J5D01*
G01*
X39850000Y-15850000D02*
X39850000Y-8825000D01*
X34052763Y-7425000D02*
G75*
G02*
X34250547Y-7595332I-3J-200000D01*
G01*
X39850000Y-15850000D02*
G75*
G02*
X39650000Y-16050000I-200000J0D01*
G01*
X35954716Y-16050000D02*
G75*
G02*
X35755858Y-15871306I4J200000D01*
G01*
X28275000Y-8525000D02*
X28275000Y-15666985D01*
X39650000Y-8625000D02*
X36354716Y-8625000D01*
X32003101Y-7600193D02*
G75*
G02*
X32201556Y-7424996I198459J-24807D01*
G01*
X28216213Y-15808614D02*
X25930261Y-18087858D01*
X36354716Y-8625000D02*
G75*
G02*
X36155858Y-8446306I4J200000D01*
G01*
X35520284Y-15350000D02*
G75*
G02*
X35719142Y-15528694I-4J-200000D01*
G01*
X39650000Y-8625000D02*
G75*
G02*
X39850000Y-8825000I0J-200000D01*
G01*
X33652763Y-14850000D02*
G75*
G02*
X33850547Y-15020332I-3J-200000D01*
G01*
X36155854Y-8446307D02*
X36119146Y-8103693D01*
X31971899Y-7849807D02*
G75*
G02*
X31773444Y-8025004I-198459J24807D01*
G01*
X27459418Y-19590663D02*
X32257358Y-17501232D01*
X31773444Y-8025000D02*
X30306150Y-8025000D01*
X34072238Y-15350000D02*
G75*
G02*
X33874453Y-15179668I3J200000D01*
G01*
X33850550Y-15020332D02*
X33874450Y-15179668D01*
X35719146Y-15528693D02*
X35755854Y-15871307D01*
X32421228Y-15046155D02*
G75*
G02*
X32621191Y-14850001I199962J-3845D01*
G01*
X34472238Y-7925000D02*
G75*
G02*
X34274453Y-7754668I3J200000D01*
G01*
X32377467Y-17321710D02*
X32421228Y-15046155D01*
D11*
D12*
X27080000Y-17830000D02*
X27120000Y-17870000D01*
X27120000Y-17830000D02*
X27080000Y-17870000D01*
X27480000Y-16730000D02*
X27520000Y-16770000D01*
X27520000Y-16730000D02*
X27480000Y-16770000D01*
X27480000Y-17730000D02*
X27520000Y-17770000D01*
X27520000Y-17730000D02*
X27480000Y-17770000D01*
X27680000Y-17930000D02*
X27720000Y-17970000D01*
X27720000Y-17930000D02*
X27680000Y-17970000D01*
X28130000Y-17280000D02*
X28170000Y-17320000D01*
X28170000Y-17280000D02*
X28130000Y-17320000D01*
X28478735Y-16128735D02*
X28518735Y-16168735D01*
X28518735Y-16128735D02*
X28478735Y-16168735D01*
X28880000Y-15830000D02*
X28920000Y-15870000D01*
X28920000Y-15830000D02*
X28880000Y-15870000D01*
X28930000Y-16480000D02*
X28970000Y-16520000D01*
X28970000Y-16480000D02*
X28930000Y-16520000D01*
X29180000Y-15830000D02*
X29220000Y-15870000D01*
X29220000Y-15830000D02*
X29180000Y-15870000D01*
X29280000Y-16030000D02*
X29320000Y-16070000D01*
X29320000Y-16030000D02*
X29280000Y-16070000D01*
X29430000Y-14430000D02*
X29470000Y-14470000D01*
X29470000Y-14430000D02*
X29430000Y-14470000D01*
X29563950Y-11430000D02*
X29603950Y-11470000D01*
X29603950Y-11430000D02*
X29563950Y-11470000D01*
X29563950Y-13130000D02*
X29603950Y-13170000D01*
X29603950Y-13130000D02*
X29563950Y-13170000D01*
X29680000Y-12080000D02*
X29720000Y-12120000D01*
X29720000Y-12080000D02*
X29680000Y-12120000D01*
X29880000Y-17130000D02*
X29920000Y-17170000D01*
X29920000Y-17130000D02*
X29880000Y-17170000D01*
X29980000Y-10630000D02*
X30020000Y-10670000D01*
X30020000Y-10630000D02*
X29980000Y-10670000D01*
X30130000Y-8480000D02*
X30170000Y-8520000D01*
X30170000Y-8480000D02*
X30130000Y-8520000D01*
X30130000Y-10780000D02*
X30170000Y-10820000D01*
X30170000Y-10780000D02*
X30130000Y-10820000D01*
X30395834Y-9908362D02*
X30435834Y-9948362D01*
X30435834Y-9908362D02*
X30395834Y-9948362D01*
X30680000Y-9930000D02*
X30720000Y-9970000D01*
X30720000Y-9930000D02*
X30680000Y-9970000D01*
X30780000Y-13930000D02*
X30820000Y-13970000D01*
X30820000Y-13930000D02*
X30780000Y-13970000D01*
X30930000Y-11980000D02*
X30970000Y-12020000D01*
X30970000Y-11980000D02*
X30930000Y-12020000D01*
X31130000Y-10530000D02*
X31170000Y-10570000D01*
X31170000Y-10530000D02*
X31130000Y-10570000D01*
X31580000Y-16680000D02*
X31620000Y-16720000D01*
X31620000Y-16680000D02*
X31580000Y-16720000D01*
X31730000Y-10530000D02*
X31770000Y-10570000D01*
X31770000Y-10530000D02*
X31730000Y-10570000D01*
X31780000Y-11430000D02*
X31820000Y-11470000D01*
X31820000Y-11430000D02*
X31780000Y-11470000D01*
X31780000Y-13180000D02*
X31820000Y-13220000D01*
X31820000Y-13180000D02*
X31780000Y-13220000D01*
X31780000Y-14930000D02*
X31820000Y-14970000D01*
X31820000Y-14930000D02*
X31780000Y-14970000D01*
X31880000Y-9630000D02*
X31920000Y-9670000D01*
X31920000Y-9630000D02*
X31880000Y-9670000D01*
X31980000Y-10430000D02*
X32020000Y-10470000D01*
X32020000Y-10430000D02*
X31980000Y-10470000D01*
X32780000Y-8180000D02*
X32820000Y-8220000D01*
X32820000Y-8180000D02*
X32780000Y-8220000D01*
X32830000Y-10130000D02*
X32870000Y-10170000D01*
X32870000Y-10130000D02*
X32830000Y-10170000D01*
X32830000Y-11580000D02*
X32870000Y-11620000D01*
X32870000Y-11580000D02*
X32830000Y-11620000D01*
X32880000Y-8880000D02*
X32920000Y-8920000D01*
X32920000Y-8880000D02*
X32880000Y-8920000D01*
X33630000Y-12580000D02*
X33670000Y-12620000D01*
X33670000Y-12580000D02*
X33630000Y-12620000D01*
X33680000Y-9030000D02*
X33720000Y-9070000D01*
X33720000Y-9030000D02*
X33680000Y-9070000D01*
X33680000Y-10830000D02*
X33720000Y-10870000D01*
X33720000Y-10830000D02*
X33680000Y-10870000D01*
X33680000Y-14380000D02*
X33720000Y-14420000D01*
X33720000Y-14380000D02*
X33680000Y-14420000D01*
X34380000Y-9830000D02*
X34420000Y-9870000D01*
X34420000Y-9830000D02*
X34380000Y-9870000D01*
X34380000Y-10330000D02*
X34420000Y-10370000D01*
X34420000Y-10330000D02*
X34380000Y-10370000D01*
X35530000Y-11330000D02*
X35570000Y-11370000D01*
X35570000Y-11330000D02*
X35530000Y-11370000D01*
X35530000Y-13130000D02*
X35570000Y-13170000D01*
X35570000Y-13130000D02*
X35530000Y-13170000D01*
X35580000Y-9530000D02*
X35620000Y-9570000D01*
X35620000Y-9530000D02*
X35580000Y-9570000D01*
X35580000Y-14880000D02*
X35620000Y-14920000D01*
X35620000Y-14880000D02*
X35580000Y-14920000D01*
X37430000Y-10230000D02*
X37470000Y-10270000D01*
X37470000Y-10230000D02*
X37430000Y-10270000D01*
X37430000Y-12030000D02*
X37470000Y-12070000D01*
X37470000Y-12030000D02*
X37430000Y-12070000D01*
X37430000Y-13780000D02*
X37470000Y-13820000D01*
X37470000Y-13780000D02*
X37430000Y-13820000D01*
X37430000Y-15530000D02*
X37470000Y-15570000D01*
X37470000Y-15530000D02*
X37430000Y-15570000D01*
X39280000Y-10230000D02*
X39320000Y-10270000D01*
X39320000Y-10230000D02*
X39280000Y-10270000D01*
X39330000Y-11980000D02*
X39370000Y-12020000D01*
X39370000Y-11980000D02*
X39330000Y-12020000D01*
X39330000Y-13780000D02*
X39370000Y-13820000D01*
X39370000Y-13780000D02*
X39330000Y-13820000D01*
X39330000Y-15580000D02*
X39370000Y-15620000D01*
X39370000Y-15580000D02*
X39330000Y-15620000D01*
X33337500Y-11400000D02*
G75*
G02*
X33262500Y-11400000I-37500J0D01*
G01*
X33262500Y-11400000D02*
G75*
G02*
X33337500Y-11400000I37500J0D01*
G01*
X33337500Y-11600000D02*
G75*
G02*
X33262500Y-11600000I-37500J0D01*
G01*
X33262500Y-11600000D02*
G75*
G02*
X33337500Y-11600000I37500J0D01*
G01*
X27796025Y-17472086D02*
X27796025Y-17571146D01*
X27746495Y-17521616D02*
X27845555Y-17521616D01*
X28362302Y-17981964D02*
X28362302Y-18081024D01*
X28312772Y-18031494D02*
X28411832Y-18031494D01*
X29885401Y-16510714D02*
X29885401Y-16609774D01*
X29835871Y-16560244D02*
X29934931Y-16560244D01*
X30146020Y-17226760D02*
X30146020Y-17325820D01*
X30096490Y-17276290D02*
X30195550Y-17276290D01*
X30155000Y-9094470D02*
X30155000Y-9193530D01*
X30105470Y-9144000D02*
X30204530Y-9144000D01*
X30155000Y-9856470D02*
X30155000Y-9955530D01*
X30105470Y-9906000D02*
X30204530Y-9906000D01*
X30155000Y-11019470D02*
X30155000Y-11118530D01*
X30105470Y-11069000D02*
X30204530Y-11069000D01*
X30155000Y-11781470D02*
X30155000Y-11880530D01*
X30105470Y-11831000D02*
X30204530Y-11831000D01*
X30155000Y-12844470D02*
X30155000Y-12943530D01*
X30105470Y-12894000D02*
X30204530Y-12894000D01*
X30155000Y-13606470D02*
X30155000Y-13705530D01*
X30105470Y-13656000D02*
X30204530Y-13656000D01*
X30155000Y-14619470D02*
X30155000Y-14718530D01*
X30105470Y-14669000D02*
X30204530Y-14669000D01*
X30155000Y-15381470D02*
X30155000Y-15480530D01*
X30105470Y-15431000D02*
X30204530Y-15431000D01*
X32030000Y-8444470D02*
X32030000Y-8543530D01*
X31980470Y-8494000D02*
X32079530Y-8494000D01*
X32030000Y-9206470D02*
X32030000Y-9305530D01*
X31980470Y-9256000D02*
X32079530Y-9256000D01*
X32030000Y-10769470D02*
X32030000Y-10868530D01*
X31980470Y-10819000D02*
X32079530Y-10819000D01*
X32030000Y-11531470D02*
X32030000Y-11630530D01*
X31980470Y-11581000D02*
X32079530Y-11581000D01*
X32030000Y-11994470D02*
X32030000Y-12093530D01*
X31980470Y-12044000D02*
X32079530Y-12044000D01*
X32030000Y-12756470D02*
X32030000Y-12855530D01*
X31980470Y-12806000D02*
X32079530Y-12806000D01*
X32030000Y-14319470D02*
X32030000Y-14418530D01*
X31980470Y-14369000D02*
X32079530Y-14369000D01*
X32030000Y-15081470D02*
X32030000Y-15180530D01*
X31980470Y-15131000D02*
X32079530Y-15131000D01*
X32055000Y-16319470D02*
X32055000Y-16418530D01*
X32005470Y-16369000D02*
X32104530Y-16369000D01*
X32055000Y-17081470D02*
X32055000Y-17180530D01*
X32005470Y-17131000D02*
X32104530Y-17131000D01*
X33905000Y-8394470D02*
X33905000Y-8493530D01*
X33855470Y-8444000D02*
X33954530Y-8444000D01*
X33905000Y-9156470D02*
X33905000Y-9255530D01*
X33855470Y-9206000D02*
X33954530Y-9206000D01*
X33905000Y-10169470D02*
X33905000Y-10268530D01*
X33855470Y-10219000D02*
X33954530Y-10219000D01*
X33905000Y-10931470D02*
X33905000Y-11030530D01*
X33855470Y-10981000D02*
X33954530Y-10981000D01*
X33905000Y-11944470D02*
X33905000Y-12043530D01*
X33855470Y-11994000D02*
X33954530Y-11994000D01*
X33905000Y-12706470D02*
X33905000Y-12805530D01*
X33855470Y-12756000D02*
X33954530Y-12756000D01*
X33905000Y-13719470D02*
X33905000Y-13818530D01*
X33855470Y-13769000D02*
X33954530Y-13769000D01*
X33905000Y-14481470D02*
X33905000Y-14580530D01*
X33855470Y-14531000D02*
X33954530Y-14531000D01*
X35780000Y-8894470D02*
X35780000Y-8993530D01*
X35730470Y-8944000D02*
X35829530Y-8944000D01*
X35780000Y-9656470D02*
X35780000Y-9755530D01*
X35730470Y-9706000D02*
X35829530Y-9706000D01*
X35780000Y-10669470D02*
X35780000Y-10768530D01*
X35730470Y-10719000D02*
X35829530Y-10719000D01*
X35780000Y-11431470D02*
X35780000Y-11530530D01*
X35730470Y-11481000D02*
X35829530Y-11481000D01*
X35780000Y-12444470D02*
X35780000Y-12543530D01*
X35730470Y-12494000D02*
X35829530Y-12494000D01*
X35780000Y-13206470D02*
X35780000Y-13305530D01*
X35730470Y-13256000D02*
X35829530Y-13256000D01*
X35780000Y-14219470D02*
X35780000Y-14318530D01*
X35730470Y-14269000D02*
X35829530Y-14269000D01*
X35780000Y-14981470D02*
X35780000Y-15080530D01*
X35730470Y-15031000D02*
X35829530Y-15031000D01*
X37655000Y-9044470D02*
X37655000Y-9143530D01*
X37605470Y-9094000D02*
X37704530Y-9094000D01*
X37655000Y-9806470D02*
X37655000Y-9905530D01*
X37605470Y-9856000D02*
X37704530Y-9856000D01*
X37655000Y-11369470D02*
X37655000Y-11468530D01*
X37605470Y-11419000D02*
X37704530Y-11419000D01*
X37655000Y-12131470D02*
X37655000Y-12230530D01*
X37605470Y-12181000D02*
X37704530Y-12181000D01*
X37655000Y-12594470D02*
X37655000Y-12693530D01*
X37605470Y-12644000D02*
X37704530Y-12644000D01*
X37655000Y-13356470D02*
X37655000Y-13455530D01*
X37605470Y-13406000D02*
X37704530Y-13406000D01*
X37655000Y-14919470D02*
X37655000Y-15018530D01*
X37605470Y-14969000D02*
X37704530Y-14969000D01*
X37655000Y-15681470D02*
X37655000Y-15780530D01*
X37605470Y-15731000D02*
X37704530Y-15731000D01*
X39530000Y-9594470D02*
X39530000Y-9693530D01*
X39480470Y-9644000D02*
X39579530Y-9644000D01*
X39530000Y-10356470D02*
X39530000Y-10455530D01*
X39480470Y-10406000D02*
X39579530Y-10406000D01*
X39530000Y-11369470D02*
X39530000Y-11468530D01*
X39480470Y-11419000D02*
X39579530Y-11419000D01*
X39530000Y-12131470D02*
X39530000Y-12230530D01*
X39480470Y-12181000D02*
X39579530Y-12181000D01*
X39530000Y-13144470D02*
X39530000Y-13243530D01*
X39480470Y-13194000D02*
X39579530Y-13194000D01*
X39530000Y-13906470D02*
X39530000Y-14005530D01*
X39480470Y-13956000D02*
X39579530Y-13956000D01*
X39530000Y-14919470D02*
X39530000Y-15018530D01*
X39480470Y-14969000D02*
X39579530Y-14969000D01*
X39530000Y-15681470D02*
X39530000Y-15780530D01*
X39480470Y-15731000D02*
X39579530Y-15731000D01*
D13*
X28916615Y-8801616D02*
X28916615Y-8724385D01*
X28839384Y-8724385D01*
X28839384Y-8801616D01*
X28916615Y-8801616D01*
X28916615Y-10325616D02*
X28916615Y-10248385D01*
X28839384Y-10248385D01*
X28839384Y-10325616D01*
X28916615Y-10325616D01*
X29170615Y-8801616D02*
X29170615Y-8724385D01*
X29093384Y-8724385D01*
X29093384Y-8801616D01*
X29170615Y-8801616D01*
X29170615Y-10325616D02*
X29170615Y-10248385D01*
X29093384Y-10248385D01*
X29093384Y-10325616D01*
X29170615Y-10325616D01*
X29424615Y-8801616D02*
X29424615Y-8724385D01*
X29347384Y-8724385D01*
X29347384Y-8801616D01*
X29424615Y-8801616D01*
X29424615Y-10325616D02*
X29424615Y-10248385D01*
X29347384Y-10248385D01*
X29347384Y-10325616D01*
X29424615Y-10325616D01*
X29678615Y-8801616D02*
X29678615Y-8724385D01*
X29601384Y-8724385D01*
X29601384Y-8801616D01*
X29678615Y-8801616D01*
X29678615Y-10325616D02*
X29678615Y-10248385D01*
X29601384Y-10248385D01*
X29601384Y-10325616D01*
X29678615Y-10325616D01*
X29932615Y-8801616D02*
X29932615Y-8724385D01*
X29855384Y-8724385D01*
X29855384Y-8801616D01*
X29932615Y-8801616D01*
X29932615Y-10325616D02*
X29932615Y-10248385D01*
X29855384Y-10248385D01*
X29855384Y-10325616D01*
X29932615Y-10325616D01*
X30186615Y-8801616D02*
X30186615Y-8724385D01*
X30109384Y-8724385D01*
X30109384Y-8801616D01*
X30186615Y-8801616D01*
X30186615Y-10325616D02*
X30186615Y-10248385D01*
X30109384Y-10248385D01*
X30109384Y-10325616D01*
X30186615Y-10325616D01*
X30440615Y-8801616D02*
X30440615Y-8724385D01*
X30363384Y-8724385D01*
X30363384Y-8801616D01*
X30440615Y-8801616D01*
X30440615Y-10325616D02*
X30440615Y-10248385D01*
X30363384Y-10248385D01*
X30363384Y-10325616D01*
X30440615Y-10325616D01*
X30694615Y-8801616D02*
X30694615Y-8724385D01*
X30617384Y-8724385D01*
X30617384Y-8801616D01*
X30694615Y-8801616D01*
X30694615Y-10325616D02*
X30694615Y-10248385D01*
X30617384Y-10248385D01*
X30617384Y-10325616D01*
X30694615Y-10325616D01*
X30948615Y-8801616D02*
X30948615Y-8724385D01*
X30871384Y-8724385D01*
X30871384Y-8801616D01*
X30948615Y-8801616D01*
X30948615Y-10325616D02*
X30948615Y-10248385D01*
X30871384Y-10248385D01*
X30871384Y-10325616D01*
X30948615Y-10325616D01*
X31202615Y-8801616D02*
X31202615Y-8724385D01*
X31125384Y-8724385D01*
X31125384Y-8801616D01*
X31202615Y-8801616D01*
X31202615Y-10325616D02*
X31202615Y-10248385D01*
X31125384Y-10248385D01*
X31125384Y-10325616D01*
X31202615Y-10325616D01*
X31456615Y-8801616D02*
X31456615Y-8724385D01*
X31379384Y-8724385D01*
X31379384Y-8801616D01*
X31456615Y-8801616D01*
X31456615Y-10325616D02*
X31456615Y-10248385D01*
X31379384Y-10248385D01*
X31379384Y-10325616D01*
X31456615Y-10325616D01*
X31710615Y-8801616D02*
X31710615Y-8724385D01*
X31633384Y-8724385D01*
X31633384Y-8801616D01*
X31710615Y-8801616D01*
X31710615Y-10325616D02*
X31710615Y-10248385D01*
X31633384Y-10248385D01*
X31633384Y-10325616D01*
X31710615Y-10325616D01*
D11*
X26124752Y-19926283D02*
X26124752Y-19726283D01*
X26124752Y-19726283D02*
X26172371Y-19726283D01*
X26172371Y-19726283D02*
X26200943Y-19735806D01*
X26200943Y-19735806D02*
X26219990Y-19754854D01*
X26219990Y-19754854D02*
X26229514Y-19773902D01*
X26229514Y-19773902D02*
X26239038Y-19811997D01*
X26239038Y-19811997D02*
X26239038Y-19840568D01*
X26239038Y-19840568D02*
X26229514Y-19878663D01*
X26229514Y-19878663D02*
X26219990Y-19897711D01*
X26219990Y-19897711D02*
X26200943Y-19916759D01*
X26200943Y-19916759D02*
X26172371Y-19926283D01*
X26172371Y-19926283D02*
X26124752Y-19926283D01*
X26324752Y-19926283D02*
X26324752Y-19792949D01*
X26324752Y-19831044D02*
X26334276Y-19811997D01*
X26334276Y-19811997D02*
X26343800Y-19802473D01*
X26343800Y-19802473D02*
X26362847Y-19792949D01*
X26362847Y-19792949D02*
X26381895Y-19792949D01*
X26448562Y-19926283D02*
X26448562Y-19792949D01*
X26448562Y-19726283D02*
X26439038Y-19735806D01*
X26439038Y-19735806D02*
X26448562Y-19745330D01*
X26448562Y-19745330D02*
X26458086Y-19735806D01*
X26458086Y-19735806D02*
X26448562Y-19726283D01*
X26448562Y-19726283D02*
X26448562Y-19745330D01*
X26572371Y-19926283D02*
X26553324Y-19916759D01*
X26553324Y-19916759D02*
X26543800Y-19897711D01*
X26543800Y-19897711D02*
X26543800Y-19726283D01*
X26677133Y-19926283D02*
X26658086Y-19916759D01*
X26658086Y-19916759D02*
X26648562Y-19897711D01*
X26648562Y-19897711D02*
X26648562Y-19726283D01*
X26905705Y-19926283D02*
X26905705Y-19726283D01*
X26905705Y-19726283D02*
X26972371Y-19869140D01*
X26972371Y-19869140D02*
X27039038Y-19726283D01*
X27039038Y-19726283D02*
X27039038Y-19926283D01*
X27219990Y-19926283D02*
X27219990Y-19821521D01*
X27219990Y-19821521D02*
X27210467Y-19802473D01*
X27210467Y-19802473D02*
X27191419Y-19792949D01*
X27191419Y-19792949D02*
X27153324Y-19792949D01*
X27153324Y-19792949D02*
X27134276Y-19802473D01*
X27219990Y-19916759D02*
X27200943Y-19926283D01*
X27200943Y-19926283D02*
X27153324Y-19926283D01*
X27153324Y-19926283D02*
X27134276Y-19916759D01*
X27134276Y-19916759D02*
X27124752Y-19897711D01*
X27124752Y-19897711D02*
X27124752Y-19878663D01*
X27124752Y-19878663D02*
X27134276Y-19859616D01*
X27134276Y-19859616D02*
X27153324Y-19850092D01*
X27153324Y-19850092D02*
X27200943Y-19850092D01*
X27200943Y-19850092D02*
X27219990Y-19840568D01*
X27315228Y-19792949D02*
X27315228Y-19992949D01*
X27315228Y-19802473D02*
X27334276Y-19792949D01*
X27334276Y-19792949D02*
X27372371Y-19792949D01*
X27372371Y-19792949D02*
X27391419Y-19802473D01*
X27391419Y-19802473D02*
X27400943Y-19811997D01*
X27400943Y-19811997D02*
X27410467Y-19831044D01*
X27410467Y-19831044D02*
X27410467Y-19888187D01*
X27410467Y-19888187D02*
X27400943Y-19907235D01*
X27400943Y-19907235D02*
X27391419Y-19916759D01*
X27391419Y-19916759D02*
X27372371Y-19926283D01*
X27372371Y-19926283D02*
X27334276Y-19926283D01*
X27334276Y-19926283D02*
X27315228Y-19916759D01*
X27496181Y-19907235D02*
X27505705Y-19916759D01*
X27505705Y-19916759D02*
X27496181Y-19926283D01*
X27496181Y-19926283D02*
X27486657Y-19916759D01*
X27486657Y-19916759D02*
X27496181Y-19907235D01*
X27496181Y-19907235D02*
X27496181Y-19926283D01*
X27496181Y-19802473D02*
X27505705Y-19811997D01*
X27505705Y-19811997D02*
X27496181Y-19821521D01*
X27496181Y-19821521D02*
X27486657Y-19811997D01*
X27486657Y-19811997D02*
X27496181Y-19802473D01*
X27496181Y-19802473D02*
X27496181Y-19821521D01*
D12*
X25823975Y-20234799D02*
X25863975Y-20274799D01*
X25863975Y-20234799D02*
X25823975Y-20274799D01*
D11*
X26162847Y-20146283D02*
X26181895Y-20146283D01*
X26181895Y-20146283D02*
X26200943Y-20155806D01*
X26200943Y-20155806D02*
X26210467Y-20165330D01*
X26210467Y-20165330D02*
X26219990Y-20184378D01*
X26219990Y-20184378D02*
X26229514Y-20222473D01*
X26229514Y-20222473D02*
X26229514Y-20270092D01*
X26229514Y-20270092D02*
X26219990Y-20308187D01*
X26219990Y-20308187D02*
X26210467Y-20327235D01*
X26210467Y-20327235D02*
X26200943Y-20336759D01*
X26200943Y-20336759D02*
X26181895Y-20346283D01*
X26181895Y-20346283D02*
X26162847Y-20346283D01*
X26162847Y-20346283D02*
X26143800Y-20336759D01*
X26143800Y-20336759D02*
X26134276Y-20327235D01*
X26134276Y-20327235D02*
X26124752Y-20308187D01*
X26124752Y-20308187D02*
X26115228Y-20270092D01*
X26115228Y-20270092D02*
X26115228Y-20222473D01*
X26115228Y-20222473D02*
X26124752Y-20184378D01*
X26124752Y-20184378D02*
X26134276Y-20165330D01*
X26134276Y-20165330D02*
X26143800Y-20155806D01*
X26143800Y-20155806D02*
X26162847Y-20146283D01*
X26315228Y-20327235D02*
X26324752Y-20336759D01*
X26324752Y-20336759D02*
X26315228Y-20346283D01*
X26315228Y-20346283D02*
X26305705Y-20336759D01*
X26305705Y-20336759D02*
X26315228Y-20327235D01*
X26315228Y-20327235D02*
X26315228Y-20346283D01*
X26496181Y-20212949D02*
X26496181Y-20346283D01*
X26448562Y-20136759D02*
X26400943Y-20279616D01*
X26400943Y-20279616D02*
X26524752Y-20279616D01*
X26639038Y-20146283D02*
X26658086Y-20146283D01*
X26658086Y-20146283D02*
X26677133Y-20155806D01*
X26677133Y-20155806D02*
X26686657Y-20165330D01*
X26686657Y-20165330D02*
X26696181Y-20184378D01*
X26696181Y-20184378D02*
X26705705Y-20222473D01*
X26705705Y-20222473D02*
X26705705Y-20270092D01*
X26705705Y-20270092D02*
X26696181Y-20308187D01*
X26696181Y-20308187D02*
X26686657Y-20327235D01*
X26686657Y-20327235D02*
X26677133Y-20336759D01*
X26677133Y-20336759D02*
X26658086Y-20346283D01*
X26658086Y-20346283D02*
X26639038Y-20346283D01*
X26639038Y-20346283D02*
X26619990Y-20336759D01*
X26619990Y-20336759D02*
X26610467Y-20327235D01*
X26610467Y-20327235D02*
X26600943Y-20308187D01*
X26600943Y-20308187D02*
X26591419Y-20270092D01*
X26591419Y-20270092D02*
X26591419Y-20222473D01*
X26591419Y-20222473D02*
X26600943Y-20184378D01*
X26600943Y-20184378D02*
X26610467Y-20165330D01*
X26610467Y-20165330D02*
X26619990Y-20155806D01*
X26619990Y-20155806D02*
X26639038Y-20146283D01*
X26829514Y-20146283D02*
X26848562Y-20146283D01*
X26848562Y-20146283D02*
X26867609Y-20155806D01*
X26867609Y-20155806D02*
X26877133Y-20165330D01*
X26877133Y-20165330D02*
X26886657Y-20184378D01*
X26886657Y-20184378D02*
X26896181Y-20222473D01*
X26896181Y-20222473D02*
X26896181Y-20270092D01*
X26896181Y-20270092D02*
X26886657Y-20308187D01*
X26886657Y-20308187D02*
X26877133Y-20327235D01*
X26877133Y-20327235D02*
X26867609Y-20336759D01*
X26867609Y-20336759D02*
X26848562Y-20346283D01*
X26848562Y-20346283D02*
X26829514Y-20346283D01*
X26829514Y-20346283D02*
X26810467Y-20336759D01*
X26810467Y-20336759D02*
X26800943Y-20327235D01*
X26800943Y-20327235D02*
X26791419Y-20308187D01*
X26791419Y-20308187D02*
X26781895Y-20270092D01*
X26781895Y-20270092D02*
X26781895Y-20222473D01*
X26781895Y-20222473D02*
X26791419Y-20184378D01*
X26791419Y-20184378D02*
X26800943Y-20165330D01*
X26800943Y-20165330D02*
X26810467Y-20155806D01*
X26810467Y-20155806D02*
X26829514Y-20146283D01*
X26981895Y-20346283D02*
X26981895Y-20212949D01*
X26981895Y-20231997D02*
X26991419Y-20222473D01*
X26991419Y-20222473D02*
X27010467Y-20212949D01*
X27010467Y-20212949D02*
X27039038Y-20212949D01*
X27039038Y-20212949D02*
X27058086Y-20222473D01*
X27058086Y-20222473D02*
X27067609Y-20241521D01*
X27067609Y-20241521D02*
X27067609Y-20346283D01*
X27067609Y-20241521D02*
X27077133Y-20222473D01*
X27077133Y-20222473D02*
X27096181Y-20212949D01*
X27096181Y-20212949D02*
X27124752Y-20212949D01*
X27124752Y-20212949D02*
X27143800Y-20222473D01*
X27143800Y-20222473D02*
X27153324Y-20241521D01*
X27153324Y-20241521D02*
X27153324Y-20346283D01*
X27248562Y-20346283D02*
X27248562Y-20212949D01*
X27248562Y-20231997D02*
X27258086Y-20222473D01*
X27258086Y-20222473D02*
X27277133Y-20212949D01*
X27277133Y-20212949D02*
X27305705Y-20212949D01*
X27305705Y-20212949D02*
X27324752Y-20222473D01*
X27324752Y-20222473D02*
X27334276Y-20241521D01*
X27334276Y-20241521D02*
X27334276Y-20346283D01*
X27334276Y-20241521D02*
X27343800Y-20222473D01*
X27343800Y-20222473D02*
X27362848Y-20212949D01*
X27362848Y-20212949D02*
X27391419Y-20212949D01*
X27391419Y-20212949D02*
X27410467Y-20222473D01*
X27410467Y-20222473D02*
X27419990Y-20241521D01*
X27419990Y-20241521D02*
X27419990Y-20346283D01*
X27810467Y-20136759D02*
X27639038Y-20393902D01*
X28067610Y-20146283D02*
X28086657Y-20146283D01*
X28086657Y-20146283D02*
X28105705Y-20155806D01*
X28105705Y-20155806D02*
X28115229Y-20165330D01*
X28115229Y-20165330D02*
X28124752Y-20184378D01*
X28124752Y-20184378D02*
X28134276Y-20222473D01*
X28134276Y-20222473D02*
X28134276Y-20270092D01*
X28134276Y-20270092D02*
X28124752Y-20308187D01*
X28124752Y-20308187D02*
X28115229Y-20327235D01*
X28115229Y-20327235D02*
X28105705Y-20336759D01*
X28105705Y-20336759D02*
X28086657Y-20346283D01*
X28086657Y-20346283D02*
X28067610Y-20346283D01*
X28067610Y-20346283D02*
X28048562Y-20336759D01*
X28048562Y-20336759D02*
X28039038Y-20327235D01*
X28039038Y-20327235D02*
X28029514Y-20308187D01*
X28029514Y-20308187D02*
X28019991Y-20270092D01*
X28019991Y-20270092D02*
X28019991Y-20222473D01*
X28019991Y-20222473D02*
X28029514Y-20184378D01*
X28029514Y-20184378D02*
X28039038Y-20165330D01*
X28039038Y-20165330D02*
X28048562Y-20155806D01*
X28048562Y-20155806D02*
X28067610Y-20146283D01*
X28219991Y-20327235D02*
X28229514Y-20336759D01*
X28229514Y-20336759D02*
X28219991Y-20346283D01*
X28219991Y-20346283D02*
X28210467Y-20336759D01*
X28210467Y-20336759D02*
X28219991Y-20327235D01*
X28219991Y-20327235D02*
X28219991Y-20346283D01*
X28353324Y-20146283D02*
X28372372Y-20146283D01*
X28372372Y-20146283D02*
X28391419Y-20155806D01*
X28391419Y-20155806D02*
X28400943Y-20165330D01*
X28400943Y-20165330D02*
X28410467Y-20184378D01*
X28410467Y-20184378D02*
X28419991Y-20222473D01*
X28419991Y-20222473D02*
X28419991Y-20270092D01*
X28419991Y-20270092D02*
X28410467Y-20308187D01*
X28410467Y-20308187D02*
X28400943Y-20327235D01*
X28400943Y-20327235D02*
X28391419Y-20336759D01*
X28391419Y-20336759D02*
X28372372Y-20346283D01*
X28372372Y-20346283D02*
X28353324Y-20346283D01*
X28353324Y-20346283D02*
X28334276Y-20336759D01*
X28334276Y-20336759D02*
X28324752Y-20327235D01*
X28324752Y-20327235D02*
X28315229Y-20308187D01*
X28315229Y-20308187D02*
X28305705Y-20270092D01*
X28305705Y-20270092D02*
X28305705Y-20222473D01*
X28305705Y-20222473D02*
X28315229Y-20184378D01*
X28315229Y-20184378D02*
X28324752Y-20165330D01*
X28324752Y-20165330D02*
X28334276Y-20155806D01*
X28334276Y-20155806D02*
X28353324Y-20146283D01*
X28610467Y-20346283D02*
X28496181Y-20346283D01*
X28553324Y-20346283D02*
X28553324Y-20146283D01*
X28553324Y-20146283D02*
X28534276Y-20174854D01*
X28534276Y-20174854D02*
X28515229Y-20193902D01*
X28515229Y-20193902D02*
X28496181Y-20203425D01*
X28791419Y-20146283D02*
X28696181Y-20146283D01*
X28696181Y-20146283D02*
X28686657Y-20241521D01*
X28686657Y-20241521D02*
X28696181Y-20231997D01*
X28696181Y-20231997D02*
X28715229Y-20222473D01*
X28715229Y-20222473D02*
X28762848Y-20222473D01*
X28762848Y-20222473D02*
X28781895Y-20231997D01*
X28781895Y-20231997D02*
X28791419Y-20241521D01*
X28791419Y-20241521D02*
X28800943Y-20260568D01*
X28800943Y-20260568D02*
X28800943Y-20308187D01*
X28800943Y-20308187D02*
X28791419Y-20327235D01*
X28791419Y-20327235D02*
X28781895Y-20336759D01*
X28781895Y-20336759D02*
X28762848Y-20346283D01*
X28762848Y-20346283D02*
X28715229Y-20346283D01*
X28715229Y-20346283D02*
X28696181Y-20336759D01*
X28696181Y-20336759D02*
X28686657Y-20327235D01*
X28867610Y-20146283D02*
X29000943Y-20146283D01*
X29000943Y-20146283D02*
X28915229Y-20346283D01*
X29067610Y-20146283D02*
X29067610Y-20184378D01*
X29143800Y-20146283D02*
X29143800Y-20184378D01*
X29439038Y-20422473D02*
X29429514Y-20412949D01*
X29429514Y-20412949D02*
X29410467Y-20384378D01*
X29410467Y-20384378D02*
X29400943Y-20365330D01*
X29400943Y-20365330D02*
X29391419Y-20336759D01*
X29391419Y-20336759D02*
X29381895Y-20289140D01*
X29381895Y-20289140D02*
X29381895Y-20251044D01*
X29381895Y-20251044D02*
X29391419Y-20203425D01*
X29391419Y-20203425D02*
X29400943Y-20174854D01*
X29400943Y-20174854D02*
X29410467Y-20155806D01*
X29410467Y-20155806D02*
X29429514Y-20127235D01*
X29429514Y-20127235D02*
X29439038Y-20117711D01*
X29610467Y-20146283D02*
X29515229Y-20146283D01*
X29515229Y-20146283D02*
X29505705Y-20241521D01*
X29505705Y-20241521D02*
X29515229Y-20231997D01*
X29515229Y-20231997D02*
X29534276Y-20222473D01*
X29534276Y-20222473D02*
X29581895Y-20222473D01*
X29581895Y-20222473D02*
X29600943Y-20231997D01*
X29600943Y-20231997D02*
X29610467Y-20241521D01*
X29610467Y-20241521D02*
X29619991Y-20260568D01*
X29619991Y-20260568D02*
X29619991Y-20308187D01*
X29619991Y-20308187D02*
X29610467Y-20327235D01*
X29610467Y-20327235D02*
X29600943Y-20336759D01*
X29600943Y-20336759D02*
X29581895Y-20346283D01*
X29581895Y-20346283D02*
X29534276Y-20346283D01*
X29534276Y-20346283D02*
X29515229Y-20336759D01*
X29515229Y-20336759D02*
X29505705Y-20327235D01*
X29696181Y-20165330D02*
X29705705Y-20155806D01*
X29705705Y-20155806D02*
X29724753Y-20146283D01*
X29724753Y-20146283D02*
X29772372Y-20146283D01*
X29772372Y-20146283D02*
X29791419Y-20155806D01*
X29791419Y-20155806D02*
X29800943Y-20165330D01*
X29800943Y-20165330D02*
X29810467Y-20184378D01*
X29810467Y-20184378D02*
X29810467Y-20203425D01*
X29810467Y-20203425D02*
X29800943Y-20231997D01*
X29800943Y-20231997D02*
X29686657Y-20346283D01*
X29686657Y-20346283D02*
X29810467Y-20346283D01*
X30048562Y-20346283D02*
X30048562Y-20146283D01*
X30134276Y-20346283D02*
X30134276Y-20241521D01*
X30134276Y-20241521D02*
X30124753Y-20222473D01*
X30124753Y-20222473D02*
X30105705Y-20212949D01*
X30105705Y-20212949D02*
X30077134Y-20212949D01*
X30077134Y-20212949D02*
X30058086Y-20222473D01*
X30058086Y-20222473D02*
X30048562Y-20231997D01*
X30258086Y-20346283D02*
X30239038Y-20336759D01*
X30239038Y-20336759D02*
X30229515Y-20327235D01*
X30229515Y-20327235D02*
X30219991Y-20308187D01*
X30219991Y-20308187D02*
X30219991Y-20251044D01*
X30219991Y-20251044D02*
X30229515Y-20231997D01*
X30229515Y-20231997D02*
X30239038Y-20222473D01*
X30239038Y-20222473D02*
X30258086Y-20212949D01*
X30258086Y-20212949D02*
X30286657Y-20212949D01*
X30286657Y-20212949D02*
X30305705Y-20222473D01*
X30305705Y-20222473D02*
X30315229Y-20231997D01*
X30315229Y-20231997D02*
X30324753Y-20251044D01*
X30324753Y-20251044D02*
X30324753Y-20308187D01*
X30324753Y-20308187D02*
X30315229Y-20327235D01*
X30315229Y-20327235D02*
X30305705Y-20336759D01*
X30305705Y-20336759D02*
X30286657Y-20346283D01*
X30286657Y-20346283D02*
X30258086Y-20346283D01*
X30439038Y-20346283D02*
X30419991Y-20336759D01*
X30419991Y-20336759D02*
X30410467Y-20317711D01*
X30410467Y-20317711D02*
X30410467Y-20146283D01*
X30591419Y-20336759D02*
X30572372Y-20346283D01*
X30572372Y-20346283D02*
X30534276Y-20346283D01*
X30534276Y-20346283D02*
X30515229Y-20336759D01*
X30515229Y-20336759D02*
X30505705Y-20317711D01*
X30505705Y-20317711D02*
X30505705Y-20241521D01*
X30505705Y-20241521D02*
X30515229Y-20222473D01*
X30515229Y-20222473D02*
X30534276Y-20212949D01*
X30534276Y-20212949D02*
X30572372Y-20212949D01*
X30572372Y-20212949D02*
X30591419Y-20222473D01*
X30591419Y-20222473D02*
X30600943Y-20241521D01*
X30600943Y-20241521D02*
X30600943Y-20260568D01*
X30600943Y-20260568D02*
X30505705Y-20279616D01*
X30677134Y-20336759D02*
X30696181Y-20346283D01*
X30696181Y-20346283D02*
X30734276Y-20346283D01*
X30734276Y-20346283D02*
X30753324Y-20336759D01*
X30753324Y-20336759D02*
X30762848Y-20317711D01*
X30762848Y-20317711D02*
X30762848Y-20308187D01*
X30762848Y-20308187D02*
X30753324Y-20289140D01*
X30753324Y-20289140D02*
X30734276Y-20279616D01*
X30734276Y-20279616D02*
X30705705Y-20279616D01*
X30705705Y-20279616D02*
X30686657Y-20270092D01*
X30686657Y-20270092D02*
X30677134Y-20251044D01*
X30677134Y-20251044D02*
X30677134Y-20241521D01*
X30677134Y-20241521D02*
X30686657Y-20222473D01*
X30686657Y-20222473D02*
X30705705Y-20212949D01*
X30705705Y-20212949D02*
X30734276Y-20212949D01*
X30734276Y-20212949D02*
X30753324Y-20222473D01*
X30829515Y-20422473D02*
X30839038Y-20412949D01*
X30839038Y-20412949D02*
X30858086Y-20384378D01*
X30858086Y-20384378D02*
X30867610Y-20365330D01*
X30867610Y-20365330D02*
X30877134Y-20336759D01*
X30877134Y-20336759D02*
X30886657Y-20289140D01*
X30886657Y-20289140D02*
X30886657Y-20251044D01*
X30886657Y-20251044D02*
X30877134Y-20203425D01*
X30877134Y-20203425D02*
X30867610Y-20174854D01*
X30867610Y-20174854D02*
X30858086Y-20155806D01*
X30858086Y-20155806D02*
X30839038Y-20127235D01*
X30839038Y-20127235D02*
X30829515Y-20117711D01*
D12*
X25863975Y-20518799D02*
G75*
G02*
X25788975Y-20518799I-37500J0D01*
G01*
X25788975Y-20518799D02*
G75*
G02*
X25863975Y-20518799I37500J0D01*
G01*
D11*
X26162847Y-20410283D02*
X26181895Y-20410283D01*
X26181895Y-20410283D02*
X26200943Y-20419806D01*
X26200943Y-20419806D02*
X26210467Y-20429330D01*
X26210467Y-20429330D02*
X26219990Y-20448378D01*
X26219990Y-20448378D02*
X26229514Y-20486473D01*
X26229514Y-20486473D02*
X26229514Y-20534092D01*
X26229514Y-20534092D02*
X26219990Y-20572187D01*
X26219990Y-20572187D02*
X26210467Y-20591235D01*
X26210467Y-20591235D02*
X26200943Y-20600759D01*
X26200943Y-20600759D02*
X26181895Y-20610283D01*
X26181895Y-20610283D02*
X26162847Y-20610283D01*
X26162847Y-20610283D02*
X26143800Y-20600759D01*
X26143800Y-20600759D02*
X26134276Y-20591235D01*
X26134276Y-20591235D02*
X26124752Y-20572187D01*
X26124752Y-20572187D02*
X26115228Y-20534092D01*
X26115228Y-20534092D02*
X26115228Y-20486473D01*
X26115228Y-20486473D02*
X26124752Y-20448378D01*
X26124752Y-20448378D02*
X26134276Y-20429330D01*
X26134276Y-20429330D02*
X26143800Y-20419806D01*
X26143800Y-20419806D02*
X26162847Y-20410283D01*
X26315228Y-20591235D02*
X26324752Y-20600759D01*
X26324752Y-20600759D02*
X26315228Y-20610283D01*
X26315228Y-20610283D02*
X26305705Y-20600759D01*
X26305705Y-20600759D02*
X26315228Y-20591235D01*
X26315228Y-20591235D02*
X26315228Y-20610283D01*
X26391419Y-20410283D02*
X26524752Y-20410283D01*
X26524752Y-20410283D02*
X26439038Y-20610283D01*
X26696181Y-20410283D02*
X26600943Y-20410283D01*
X26600943Y-20410283D02*
X26591419Y-20505521D01*
X26591419Y-20505521D02*
X26600943Y-20495997D01*
X26600943Y-20495997D02*
X26619990Y-20486473D01*
X26619990Y-20486473D02*
X26667609Y-20486473D01*
X26667609Y-20486473D02*
X26686657Y-20495997D01*
X26686657Y-20495997D02*
X26696181Y-20505521D01*
X26696181Y-20505521D02*
X26705705Y-20524568D01*
X26705705Y-20524568D02*
X26705705Y-20572187D01*
X26705705Y-20572187D02*
X26696181Y-20591235D01*
X26696181Y-20591235D02*
X26686657Y-20600759D01*
X26686657Y-20600759D02*
X26667609Y-20610283D01*
X26667609Y-20610283D02*
X26619990Y-20610283D01*
X26619990Y-20610283D02*
X26600943Y-20600759D01*
X26600943Y-20600759D02*
X26591419Y-20591235D01*
X26829514Y-20410283D02*
X26848562Y-20410283D01*
X26848562Y-20410283D02*
X26867609Y-20419806D01*
X26867609Y-20419806D02*
X26877133Y-20429330D01*
X26877133Y-20429330D02*
X26886657Y-20448378D01*
X26886657Y-20448378D02*
X26896181Y-20486473D01*
X26896181Y-20486473D02*
X26896181Y-20534092D01*
X26896181Y-20534092D02*
X26886657Y-20572187D01*
X26886657Y-20572187D02*
X26877133Y-20591235D01*
X26877133Y-20591235D02*
X26867609Y-20600759D01*
X26867609Y-20600759D02*
X26848562Y-20610283D01*
X26848562Y-20610283D02*
X26829514Y-20610283D01*
X26829514Y-20610283D02*
X26810467Y-20600759D01*
X26810467Y-20600759D02*
X26800943Y-20591235D01*
X26800943Y-20591235D02*
X26791419Y-20572187D01*
X26791419Y-20572187D02*
X26781895Y-20534092D01*
X26781895Y-20534092D02*
X26781895Y-20486473D01*
X26781895Y-20486473D02*
X26791419Y-20448378D01*
X26791419Y-20448378D02*
X26800943Y-20429330D01*
X26800943Y-20429330D02*
X26810467Y-20419806D01*
X26810467Y-20419806D02*
X26829514Y-20410283D01*
X26981895Y-20610283D02*
X26981895Y-20476949D01*
X26981895Y-20495997D02*
X26991419Y-20486473D01*
X26991419Y-20486473D02*
X27010467Y-20476949D01*
X27010467Y-20476949D02*
X27039038Y-20476949D01*
X27039038Y-20476949D02*
X27058086Y-20486473D01*
X27058086Y-20486473D02*
X27067609Y-20505521D01*
X27067609Y-20505521D02*
X27067609Y-20610283D01*
X27067609Y-20505521D02*
X27077133Y-20486473D01*
X27077133Y-20486473D02*
X27096181Y-20476949D01*
X27096181Y-20476949D02*
X27124752Y-20476949D01*
X27124752Y-20476949D02*
X27143800Y-20486473D01*
X27143800Y-20486473D02*
X27153324Y-20505521D01*
X27153324Y-20505521D02*
X27153324Y-20610283D01*
X27248562Y-20610283D02*
X27248562Y-20476949D01*
X27248562Y-20495997D02*
X27258086Y-20486473D01*
X27258086Y-20486473D02*
X27277133Y-20476949D01*
X27277133Y-20476949D02*
X27305705Y-20476949D01*
X27305705Y-20476949D02*
X27324752Y-20486473D01*
X27324752Y-20486473D02*
X27334276Y-20505521D01*
X27334276Y-20505521D02*
X27334276Y-20610283D01*
X27334276Y-20505521D02*
X27343800Y-20486473D01*
X27343800Y-20486473D02*
X27362848Y-20476949D01*
X27362848Y-20476949D02*
X27391419Y-20476949D01*
X27391419Y-20476949D02*
X27410467Y-20486473D01*
X27410467Y-20486473D02*
X27419990Y-20505521D01*
X27419990Y-20505521D02*
X27419990Y-20610283D01*
X27810467Y-20400759D02*
X27639038Y-20657902D01*
X28067610Y-20410283D02*
X28086657Y-20410283D01*
X28086657Y-20410283D02*
X28105705Y-20419806D01*
X28105705Y-20419806D02*
X28115229Y-20429330D01*
X28115229Y-20429330D02*
X28124752Y-20448378D01*
X28124752Y-20448378D02*
X28134276Y-20486473D01*
X28134276Y-20486473D02*
X28134276Y-20534092D01*
X28134276Y-20534092D02*
X28124752Y-20572187D01*
X28124752Y-20572187D02*
X28115229Y-20591235D01*
X28115229Y-20591235D02*
X28105705Y-20600759D01*
X28105705Y-20600759D02*
X28086657Y-20610283D01*
X28086657Y-20610283D02*
X28067610Y-20610283D01*
X28067610Y-20610283D02*
X28048562Y-20600759D01*
X28048562Y-20600759D02*
X28039038Y-20591235D01*
X28039038Y-20591235D02*
X28029514Y-20572187D01*
X28029514Y-20572187D02*
X28019991Y-20534092D01*
X28019991Y-20534092D02*
X28019991Y-20486473D01*
X28019991Y-20486473D02*
X28029514Y-20448378D01*
X28029514Y-20448378D02*
X28039038Y-20429330D01*
X28039038Y-20429330D02*
X28048562Y-20419806D01*
X28048562Y-20419806D02*
X28067610Y-20410283D01*
X28219991Y-20591235D02*
X28229514Y-20600759D01*
X28229514Y-20600759D02*
X28219991Y-20610283D01*
X28219991Y-20610283D02*
X28210467Y-20600759D01*
X28210467Y-20600759D02*
X28219991Y-20591235D01*
X28219991Y-20591235D02*
X28219991Y-20610283D01*
X28353324Y-20410283D02*
X28372372Y-20410283D01*
X28372372Y-20410283D02*
X28391419Y-20419806D01*
X28391419Y-20419806D02*
X28400943Y-20429330D01*
X28400943Y-20429330D02*
X28410467Y-20448378D01*
X28410467Y-20448378D02*
X28419991Y-20486473D01*
X28419991Y-20486473D02*
X28419991Y-20534092D01*
X28419991Y-20534092D02*
X28410467Y-20572187D01*
X28410467Y-20572187D02*
X28400943Y-20591235D01*
X28400943Y-20591235D02*
X28391419Y-20600759D01*
X28391419Y-20600759D02*
X28372372Y-20610283D01*
X28372372Y-20610283D02*
X28353324Y-20610283D01*
X28353324Y-20610283D02*
X28334276Y-20600759D01*
X28334276Y-20600759D02*
X28324752Y-20591235D01*
X28324752Y-20591235D02*
X28315229Y-20572187D01*
X28315229Y-20572187D02*
X28305705Y-20534092D01*
X28305705Y-20534092D02*
X28305705Y-20486473D01*
X28305705Y-20486473D02*
X28315229Y-20448378D01*
X28315229Y-20448378D02*
X28324752Y-20429330D01*
X28324752Y-20429330D02*
X28334276Y-20419806D01*
X28334276Y-20419806D02*
X28353324Y-20410283D01*
X28496181Y-20429330D02*
X28505705Y-20419806D01*
X28505705Y-20419806D02*
X28524752Y-20410283D01*
X28524752Y-20410283D02*
X28572372Y-20410283D01*
X28572372Y-20410283D02*
X28591419Y-20419806D01*
X28591419Y-20419806D02*
X28600943Y-20429330D01*
X28600943Y-20429330D02*
X28610467Y-20448378D01*
X28610467Y-20448378D02*
X28610467Y-20467425D01*
X28610467Y-20467425D02*
X28600943Y-20495997D01*
X28600943Y-20495997D02*
X28486657Y-20610283D01*
X28486657Y-20610283D02*
X28610467Y-20610283D01*
X28705705Y-20610283D02*
X28743800Y-20610283D01*
X28743800Y-20610283D02*
X28762848Y-20600759D01*
X28762848Y-20600759D02*
X28772372Y-20591235D01*
X28772372Y-20591235D02*
X28791419Y-20562663D01*
X28791419Y-20562663D02*
X28800943Y-20524568D01*
X28800943Y-20524568D02*
X28800943Y-20448378D01*
X28800943Y-20448378D02*
X28791419Y-20429330D01*
X28791419Y-20429330D02*
X28781895Y-20419806D01*
X28781895Y-20419806D02*
X28762848Y-20410283D01*
X28762848Y-20410283D02*
X28724752Y-20410283D01*
X28724752Y-20410283D02*
X28705705Y-20419806D01*
X28705705Y-20419806D02*
X28696181Y-20429330D01*
X28696181Y-20429330D02*
X28686657Y-20448378D01*
X28686657Y-20448378D02*
X28686657Y-20495997D01*
X28686657Y-20495997D02*
X28696181Y-20515044D01*
X28696181Y-20515044D02*
X28705705Y-20524568D01*
X28705705Y-20524568D02*
X28724752Y-20534092D01*
X28724752Y-20534092D02*
X28762848Y-20534092D01*
X28762848Y-20534092D02*
X28781895Y-20524568D01*
X28781895Y-20524568D02*
X28791419Y-20515044D01*
X28791419Y-20515044D02*
X28800943Y-20495997D01*
X28981895Y-20410283D02*
X28886657Y-20410283D01*
X28886657Y-20410283D02*
X28877133Y-20505521D01*
X28877133Y-20505521D02*
X28886657Y-20495997D01*
X28886657Y-20495997D02*
X28905705Y-20486473D01*
X28905705Y-20486473D02*
X28953324Y-20486473D01*
X28953324Y-20486473D02*
X28972372Y-20495997D01*
X28972372Y-20495997D02*
X28981895Y-20505521D01*
X28981895Y-20505521D02*
X28991419Y-20524568D01*
X28991419Y-20524568D02*
X28991419Y-20572187D01*
X28991419Y-20572187D02*
X28981895Y-20591235D01*
X28981895Y-20591235D02*
X28972372Y-20600759D01*
X28972372Y-20600759D02*
X28953324Y-20610283D01*
X28953324Y-20610283D02*
X28905705Y-20610283D01*
X28905705Y-20610283D02*
X28886657Y-20600759D01*
X28886657Y-20600759D02*
X28877133Y-20591235D01*
X29067610Y-20410283D02*
X29067610Y-20448378D01*
X29143800Y-20410283D02*
X29143800Y-20448378D01*
X29439038Y-20686473D02*
X29429514Y-20676949D01*
X29429514Y-20676949D02*
X29410467Y-20648378D01*
X29410467Y-20648378D02*
X29400943Y-20629330D01*
X29400943Y-20629330D02*
X29391419Y-20600759D01*
X29391419Y-20600759D02*
X29381895Y-20553140D01*
X29381895Y-20553140D02*
X29381895Y-20515044D01*
X29381895Y-20515044D02*
X29391419Y-20467425D01*
X29391419Y-20467425D02*
X29400943Y-20438854D01*
X29400943Y-20438854D02*
X29410467Y-20419806D01*
X29410467Y-20419806D02*
X29429514Y-20391235D01*
X29429514Y-20391235D02*
X29439038Y-20381711D01*
X29505705Y-20429330D02*
X29515229Y-20419806D01*
X29515229Y-20419806D02*
X29534276Y-20410283D01*
X29534276Y-20410283D02*
X29581895Y-20410283D01*
X29581895Y-20410283D02*
X29600943Y-20419806D01*
X29600943Y-20419806D02*
X29610467Y-20429330D01*
X29610467Y-20429330D02*
X29619991Y-20448378D01*
X29619991Y-20448378D02*
X29619991Y-20467425D01*
X29619991Y-20467425D02*
X29610467Y-20495997D01*
X29610467Y-20495997D02*
X29496181Y-20610283D01*
X29496181Y-20610283D02*
X29619991Y-20610283D01*
X29858086Y-20610283D02*
X29858086Y-20410283D01*
X29943800Y-20610283D02*
X29943800Y-20505521D01*
X29943800Y-20505521D02*
X29934276Y-20486473D01*
X29934276Y-20486473D02*
X29915229Y-20476949D01*
X29915229Y-20476949D02*
X29886657Y-20476949D01*
X29886657Y-20476949D02*
X29867610Y-20486473D01*
X29867610Y-20486473D02*
X29858086Y-20495997D01*
X30067610Y-20610283D02*
X30048562Y-20600759D01*
X30048562Y-20600759D02*
X30039038Y-20591235D01*
X30039038Y-20591235D02*
X30029515Y-20572187D01*
X30029515Y-20572187D02*
X30029515Y-20515044D01*
X30029515Y-20515044D02*
X30039038Y-20495997D01*
X30039038Y-20495997D02*
X30048562Y-20486473D01*
X30048562Y-20486473D02*
X30067610Y-20476949D01*
X30067610Y-20476949D02*
X30096181Y-20476949D01*
X30096181Y-20476949D02*
X30115229Y-20486473D01*
X30115229Y-20486473D02*
X30124753Y-20495997D01*
X30124753Y-20495997D02*
X30134276Y-20515044D01*
X30134276Y-20515044D02*
X30134276Y-20572187D01*
X30134276Y-20572187D02*
X30124753Y-20591235D01*
X30124753Y-20591235D02*
X30115229Y-20600759D01*
X30115229Y-20600759D02*
X30096181Y-20610283D01*
X30096181Y-20610283D02*
X30067610Y-20610283D01*
X30248562Y-20610283D02*
X30229515Y-20600759D01*
X30229515Y-20600759D02*
X30219991Y-20581711D01*
X30219991Y-20581711D02*
X30219991Y-20410283D01*
X30400943Y-20600759D02*
X30381896Y-20610283D01*
X30381896Y-20610283D02*
X30343800Y-20610283D01*
X30343800Y-20610283D02*
X30324753Y-20600759D01*
X30324753Y-20600759D02*
X30315229Y-20581711D01*
X30315229Y-20581711D02*
X30315229Y-20505521D01*
X30315229Y-20505521D02*
X30324753Y-20486473D01*
X30324753Y-20486473D02*
X30343800Y-20476949D01*
X30343800Y-20476949D02*
X30381896Y-20476949D01*
X30381896Y-20476949D02*
X30400943Y-20486473D01*
X30400943Y-20486473D02*
X30410467Y-20505521D01*
X30410467Y-20505521D02*
X30410467Y-20524568D01*
X30410467Y-20524568D02*
X30315229Y-20543616D01*
X30486657Y-20600759D02*
X30505705Y-20610283D01*
X30505705Y-20610283D02*
X30543800Y-20610283D01*
X30543800Y-20610283D02*
X30562848Y-20600759D01*
X30562848Y-20600759D02*
X30572372Y-20581711D01*
X30572372Y-20581711D02*
X30572372Y-20572187D01*
X30572372Y-20572187D02*
X30562848Y-20553140D01*
X30562848Y-20553140D02*
X30543800Y-20543616D01*
X30543800Y-20543616D02*
X30515229Y-20543616D01*
X30515229Y-20543616D02*
X30496181Y-20534092D01*
X30496181Y-20534092D02*
X30486657Y-20515044D01*
X30486657Y-20515044D02*
X30486657Y-20505521D01*
X30486657Y-20505521D02*
X30496181Y-20486473D01*
X30496181Y-20486473D02*
X30515229Y-20476949D01*
X30515229Y-20476949D02*
X30543800Y-20476949D01*
X30543800Y-20476949D02*
X30562848Y-20486473D01*
X30639038Y-20686473D02*
X30648562Y-20676949D01*
X30648562Y-20676949D02*
X30667610Y-20648378D01*
X30667610Y-20648378D02*
X30677134Y-20629330D01*
X30677134Y-20629330D02*
X30686657Y-20600759D01*
X30686657Y-20600759D02*
X30696181Y-20553140D01*
X30696181Y-20553140D02*
X30696181Y-20515044D01*
X30696181Y-20515044D02*
X30686657Y-20467425D01*
X30686657Y-20467425D02*
X30677134Y-20438854D01*
X30677134Y-20438854D02*
X30667610Y-20419806D01*
X30667610Y-20419806D02*
X30648562Y-20391235D01*
X30648562Y-20391235D02*
X30639038Y-20381711D01*
D12*
X25814445Y-20733269D02*
X25814445Y-20832329D01*
X25764915Y-20782799D02*
X25863975Y-20782799D01*
D11*
X26162847Y-20674283D02*
X26181895Y-20674283D01*
X26181895Y-20674283D02*
X26200943Y-20683806D01*
X26200943Y-20683806D02*
X26210467Y-20693330D01*
X26210467Y-20693330D02*
X26219990Y-20712378D01*
X26219990Y-20712378D02*
X26229514Y-20750473D01*
X26229514Y-20750473D02*
X26229514Y-20798092D01*
X26229514Y-20798092D02*
X26219990Y-20836187D01*
X26219990Y-20836187D02*
X26210467Y-20855235D01*
X26210467Y-20855235D02*
X26200943Y-20864759D01*
X26200943Y-20864759D02*
X26181895Y-20874283D01*
X26181895Y-20874283D02*
X26162847Y-20874283D01*
X26162847Y-20874283D02*
X26143800Y-20864759D01*
X26143800Y-20864759D02*
X26134276Y-20855235D01*
X26134276Y-20855235D02*
X26124752Y-20836187D01*
X26124752Y-20836187D02*
X26115228Y-20798092D01*
X26115228Y-20798092D02*
X26115228Y-20750473D01*
X26115228Y-20750473D02*
X26124752Y-20712378D01*
X26124752Y-20712378D02*
X26134276Y-20693330D01*
X26134276Y-20693330D02*
X26143800Y-20683806D01*
X26143800Y-20683806D02*
X26162847Y-20674283D01*
X26315228Y-20855235D02*
X26324752Y-20864759D01*
X26324752Y-20864759D02*
X26315228Y-20874283D01*
X26315228Y-20874283D02*
X26305705Y-20864759D01*
X26305705Y-20864759D02*
X26315228Y-20855235D01*
X26315228Y-20855235D02*
X26315228Y-20874283D01*
X26419990Y-20874283D02*
X26458086Y-20874283D01*
X26458086Y-20874283D02*
X26477133Y-20864759D01*
X26477133Y-20864759D02*
X26486657Y-20855235D01*
X26486657Y-20855235D02*
X26505705Y-20826663D01*
X26505705Y-20826663D02*
X26515228Y-20788568D01*
X26515228Y-20788568D02*
X26515228Y-20712378D01*
X26515228Y-20712378D02*
X26505705Y-20693330D01*
X26505705Y-20693330D02*
X26496181Y-20683806D01*
X26496181Y-20683806D02*
X26477133Y-20674283D01*
X26477133Y-20674283D02*
X26439038Y-20674283D01*
X26439038Y-20674283D02*
X26419990Y-20683806D01*
X26419990Y-20683806D02*
X26410467Y-20693330D01*
X26410467Y-20693330D02*
X26400943Y-20712378D01*
X26400943Y-20712378D02*
X26400943Y-20759997D01*
X26400943Y-20759997D02*
X26410467Y-20779044D01*
X26410467Y-20779044D02*
X26419990Y-20788568D01*
X26419990Y-20788568D02*
X26439038Y-20798092D01*
X26439038Y-20798092D02*
X26477133Y-20798092D01*
X26477133Y-20798092D02*
X26496181Y-20788568D01*
X26496181Y-20788568D02*
X26505705Y-20779044D01*
X26505705Y-20779044D02*
X26515228Y-20759997D01*
X26610467Y-20874283D02*
X26648562Y-20874283D01*
X26648562Y-20874283D02*
X26667609Y-20864759D01*
X26667609Y-20864759D02*
X26677133Y-20855235D01*
X26677133Y-20855235D02*
X26696181Y-20826663D01*
X26696181Y-20826663D02*
X26705705Y-20788568D01*
X26705705Y-20788568D02*
X26705705Y-20712378D01*
X26705705Y-20712378D02*
X26696181Y-20693330D01*
X26696181Y-20693330D02*
X26686657Y-20683806D01*
X26686657Y-20683806D02*
X26667609Y-20674283D01*
X26667609Y-20674283D02*
X26629514Y-20674283D01*
X26629514Y-20674283D02*
X26610467Y-20683806D01*
X26610467Y-20683806D02*
X26600943Y-20693330D01*
X26600943Y-20693330D02*
X26591419Y-20712378D01*
X26591419Y-20712378D02*
X26591419Y-20759997D01*
X26591419Y-20759997D02*
X26600943Y-20779044D01*
X26600943Y-20779044D02*
X26610467Y-20788568D01*
X26610467Y-20788568D02*
X26629514Y-20798092D01*
X26629514Y-20798092D02*
X26667609Y-20798092D01*
X26667609Y-20798092D02*
X26686657Y-20788568D01*
X26686657Y-20788568D02*
X26696181Y-20779044D01*
X26696181Y-20779044D02*
X26705705Y-20759997D01*
X26896181Y-20874283D02*
X26781895Y-20874283D01*
X26839038Y-20874283D02*
X26839038Y-20674283D01*
X26839038Y-20674283D02*
X26819990Y-20702854D01*
X26819990Y-20702854D02*
X26800943Y-20721902D01*
X26800943Y-20721902D02*
X26781895Y-20731425D01*
X26981895Y-20874283D02*
X26981895Y-20740949D01*
X26981895Y-20759997D02*
X26991419Y-20750473D01*
X26991419Y-20750473D02*
X27010467Y-20740949D01*
X27010467Y-20740949D02*
X27039038Y-20740949D01*
X27039038Y-20740949D02*
X27058086Y-20750473D01*
X27058086Y-20750473D02*
X27067609Y-20769521D01*
X27067609Y-20769521D02*
X27067609Y-20874283D01*
X27067609Y-20769521D02*
X27077133Y-20750473D01*
X27077133Y-20750473D02*
X27096181Y-20740949D01*
X27096181Y-20740949D02*
X27124752Y-20740949D01*
X27124752Y-20740949D02*
X27143800Y-20750473D01*
X27143800Y-20750473D02*
X27153324Y-20769521D01*
X27153324Y-20769521D02*
X27153324Y-20874283D01*
X27248562Y-20874283D02*
X27248562Y-20740949D01*
X27248562Y-20759997D02*
X27258086Y-20750473D01*
X27258086Y-20750473D02*
X27277133Y-20740949D01*
X27277133Y-20740949D02*
X27305705Y-20740949D01*
X27305705Y-20740949D02*
X27324752Y-20750473D01*
X27324752Y-20750473D02*
X27334276Y-20769521D01*
X27334276Y-20769521D02*
X27334276Y-20874283D01*
X27334276Y-20769521D02*
X27343800Y-20750473D01*
X27343800Y-20750473D02*
X27362848Y-20740949D01*
X27362848Y-20740949D02*
X27391419Y-20740949D01*
X27391419Y-20740949D02*
X27410467Y-20750473D01*
X27410467Y-20750473D02*
X27419990Y-20769521D01*
X27419990Y-20769521D02*
X27419990Y-20874283D01*
X27810467Y-20664759D02*
X27639038Y-20921902D01*
X28067610Y-20674283D02*
X28086657Y-20674283D01*
X28086657Y-20674283D02*
X28105705Y-20683806D01*
X28105705Y-20683806D02*
X28115229Y-20693330D01*
X28115229Y-20693330D02*
X28124752Y-20712378D01*
X28124752Y-20712378D02*
X28134276Y-20750473D01*
X28134276Y-20750473D02*
X28134276Y-20798092D01*
X28134276Y-20798092D02*
X28124752Y-20836187D01*
X28124752Y-20836187D02*
X28115229Y-20855235D01*
X28115229Y-20855235D02*
X28105705Y-20864759D01*
X28105705Y-20864759D02*
X28086657Y-20874283D01*
X28086657Y-20874283D02*
X28067610Y-20874283D01*
X28067610Y-20874283D02*
X28048562Y-20864759D01*
X28048562Y-20864759D02*
X28039038Y-20855235D01*
X28039038Y-20855235D02*
X28029514Y-20836187D01*
X28029514Y-20836187D02*
X28019991Y-20798092D01*
X28019991Y-20798092D02*
X28019991Y-20750473D01*
X28019991Y-20750473D02*
X28029514Y-20712378D01*
X28029514Y-20712378D02*
X28039038Y-20693330D01*
X28039038Y-20693330D02*
X28048562Y-20683806D01*
X28048562Y-20683806D02*
X28067610Y-20674283D01*
X28219991Y-20855235D02*
X28229514Y-20864759D01*
X28229514Y-20864759D02*
X28219991Y-20874283D01*
X28219991Y-20874283D02*
X28210467Y-20864759D01*
X28210467Y-20864759D02*
X28219991Y-20855235D01*
X28219991Y-20855235D02*
X28219991Y-20874283D01*
X28353324Y-20674283D02*
X28372372Y-20674283D01*
X28372372Y-20674283D02*
X28391419Y-20683806D01*
X28391419Y-20683806D02*
X28400943Y-20693330D01*
X28400943Y-20693330D02*
X28410467Y-20712378D01*
X28410467Y-20712378D02*
X28419991Y-20750473D01*
X28419991Y-20750473D02*
X28419991Y-20798092D01*
X28419991Y-20798092D02*
X28410467Y-20836187D01*
X28410467Y-20836187D02*
X28400943Y-20855235D01*
X28400943Y-20855235D02*
X28391419Y-20864759D01*
X28391419Y-20864759D02*
X28372372Y-20874283D01*
X28372372Y-20874283D02*
X28353324Y-20874283D01*
X28353324Y-20874283D02*
X28334276Y-20864759D01*
X28334276Y-20864759D02*
X28324752Y-20855235D01*
X28324752Y-20855235D02*
X28315229Y-20836187D01*
X28315229Y-20836187D02*
X28305705Y-20798092D01*
X28305705Y-20798092D02*
X28305705Y-20750473D01*
X28305705Y-20750473D02*
X28315229Y-20712378D01*
X28315229Y-20712378D02*
X28324752Y-20693330D01*
X28324752Y-20693330D02*
X28334276Y-20683806D01*
X28334276Y-20683806D02*
X28353324Y-20674283D01*
X28486657Y-20674283D02*
X28610467Y-20674283D01*
X28610467Y-20674283D02*
X28543800Y-20750473D01*
X28543800Y-20750473D02*
X28572372Y-20750473D01*
X28572372Y-20750473D02*
X28591419Y-20759997D01*
X28591419Y-20759997D02*
X28600943Y-20769521D01*
X28600943Y-20769521D02*
X28610467Y-20788568D01*
X28610467Y-20788568D02*
X28610467Y-20836187D01*
X28610467Y-20836187D02*
X28600943Y-20855235D01*
X28600943Y-20855235D02*
X28591419Y-20864759D01*
X28591419Y-20864759D02*
X28572372Y-20874283D01*
X28572372Y-20874283D02*
X28515229Y-20874283D01*
X28515229Y-20874283D02*
X28496181Y-20864759D01*
X28496181Y-20864759D02*
X28486657Y-20855235D01*
X28705705Y-20874283D02*
X28743800Y-20874283D01*
X28743800Y-20874283D02*
X28762848Y-20864759D01*
X28762848Y-20864759D02*
X28772372Y-20855235D01*
X28772372Y-20855235D02*
X28791419Y-20826663D01*
X28791419Y-20826663D02*
X28800943Y-20788568D01*
X28800943Y-20788568D02*
X28800943Y-20712378D01*
X28800943Y-20712378D02*
X28791419Y-20693330D01*
X28791419Y-20693330D02*
X28781895Y-20683806D01*
X28781895Y-20683806D02*
X28762848Y-20674283D01*
X28762848Y-20674283D02*
X28724752Y-20674283D01*
X28724752Y-20674283D02*
X28705705Y-20683806D01*
X28705705Y-20683806D02*
X28696181Y-20693330D01*
X28696181Y-20693330D02*
X28686657Y-20712378D01*
X28686657Y-20712378D02*
X28686657Y-20759997D01*
X28686657Y-20759997D02*
X28696181Y-20779044D01*
X28696181Y-20779044D02*
X28705705Y-20788568D01*
X28705705Y-20788568D02*
X28724752Y-20798092D01*
X28724752Y-20798092D02*
X28762848Y-20798092D01*
X28762848Y-20798092D02*
X28781895Y-20788568D01*
X28781895Y-20788568D02*
X28791419Y-20779044D01*
X28791419Y-20779044D02*
X28800943Y-20759997D01*
X28924752Y-20674283D02*
X28943800Y-20674283D01*
X28943800Y-20674283D02*
X28962848Y-20683806D01*
X28962848Y-20683806D02*
X28972372Y-20693330D01*
X28972372Y-20693330D02*
X28981895Y-20712378D01*
X28981895Y-20712378D02*
X28991419Y-20750473D01*
X28991419Y-20750473D02*
X28991419Y-20798092D01*
X28991419Y-20798092D02*
X28981895Y-20836187D01*
X28981895Y-20836187D02*
X28972372Y-20855235D01*
X28972372Y-20855235D02*
X28962848Y-20864759D01*
X28962848Y-20864759D02*
X28943800Y-20874283D01*
X28943800Y-20874283D02*
X28924752Y-20874283D01*
X28924752Y-20874283D02*
X28905705Y-20864759D01*
X28905705Y-20864759D02*
X28896181Y-20855235D01*
X28896181Y-20855235D02*
X28886657Y-20836187D01*
X28886657Y-20836187D02*
X28877133Y-20798092D01*
X28877133Y-20798092D02*
X28877133Y-20750473D01*
X28877133Y-20750473D02*
X28886657Y-20712378D01*
X28886657Y-20712378D02*
X28896181Y-20693330D01*
X28896181Y-20693330D02*
X28905705Y-20683806D01*
X28905705Y-20683806D02*
X28924752Y-20674283D01*
X29067610Y-20674283D02*
X29067610Y-20712378D01*
X29143800Y-20674283D02*
X29143800Y-20712378D01*
X29439038Y-20950473D02*
X29429514Y-20940949D01*
X29429514Y-20940949D02*
X29410467Y-20912378D01*
X29410467Y-20912378D02*
X29400943Y-20893330D01*
X29400943Y-20893330D02*
X29391419Y-20864759D01*
X29391419Y-20864759D02*
X29381895Y-20817140D01*
X29381895Y-20817140D02*
X29381895Y-20779044D01*
X29381895Y-20779044D02*
X29391419Y-20731425D01*
X29391419Y-20731425D02*
X29400943Y-20702854D01*
X29400943Y-20702854D02*
X29410467Y-20683806D01*
X29410467Y-20683806D02*
X29429514Y-20655235D01*
X29429514Y-20655235D02*
X29439038Y-20645711D01*
X29610467Y-20674283D02*
X29515229Y-20674283D01*
X29515229Y-20674283D02*
X29505705Y-20769521D01*
X29505705Y-20769521D02*
X29515229Y-20759997D01*
X29515229Y-20759997D02*
X29534276Y-20750473D01*
X29534276Y-20750473D02*
X29581895Y-20750473D01*
X29581895Y-20750473D02*
X29600943Y-20759997D01*
X29600943Y-20759997D02*
X29610467Y-20769521D01*
X29610467Y-20769521D02*
X29619991Y-20788568D01*
X29619991Y-20788568D02*
X29619991Y-20836187D01*
X29619991Y-20836187D02*
X29610467Y-20855235D01*
X29610467Y-20855235D02*
X29600943Y-20864759D01*
X29600943Y-20864759D02*
X29581895Y-20874283D01*
X29581895Y-20874283D02*
X29534276Y-20874283D01*
X29534276Y-20874283D02*
X29515229Y-20864759D01*
X29515229Y-20864759D02*
X29505705Y-20855235D01*
X29791419Y-20740949D02*
X29791419Y-20874283D01*
X29743800Y-20664759D02*
X29696181Y-20807616D01*
X29696181Y-20807616D02*
X29819991Y-20807616D01*
X30048562Y-20874283D02*
X30048562Y-20674283D01*
X30134276Y-20874283D02*
X30134276Y-20769521D01*
X30134276Y-20769521D02*
X30124753Y-20750473D01*
X30124753Y-20750473D02*
X30105705Y-20740949D01*
X30105705Y-20740949D02*
X30077134Y-20740949D01*
X30077134Y-20740949D02*
X30058086Y-20750473D01*
X30058086Y-20750473D02*
X30048562Y-20759997D01*
X30258086Y-20874283D02*
X30239038Y-20864759D01*
X30239038Y-20864759D02*
X30229515Y-20855235D01*
X30229515Y-20855235D02*
X30219991Y-20836187D01*
X30219991Y-20836187D02*
X30219991Y-20779044D01*
X30219991Y-20779044D02*
X30229515Y-20759997D01*
X30229515Y-20759997D02*
X30239038Y-20750473D01*
X30239038Y-20750473D02*
X30258086Y-20740949D01*
X30258086Y-20740949D02*
X30286657Y-20740949D01*
X30286657Y-20740949D02*
X30305705Y-20750473D01*
X30305705Y-20750473D02*
X30315229Y-20759997D01*
X30315229Y-20759997D02*
X30324753Y-20779044D01*
X30324753Y-20779044D02*
X30324753Y-20836187D01*
X30324753Y-20836187D02*
X30315229Y-20855235D01*
X30315229Y-20855235D02*
X30305705Y-20864759D01*
X30305705Y-20864759D02*
X30286657Y-20874283D01*
X30286657Y-20874283D02*
X30258086Y-20874283D01*
X30439038Y-20874283D02*
X30419991Y-20864759D01*
X30419991Y-20864759D02*
X30410467Y-20845711D01*
X30410467Y-20845711D02*
X30410467Y-20674283D01*
X30591419Y-20864759D02*
X30572372Y-20874283D01*
X30572372Y-20874283D02*
X30534276Y-20874283D01*
X30534276Y-20874283D02*
X30515229Y-20864759D01*
X30515229Y-20864759D02*
X30505705Y-20845711D01*
X30505705Y-20845711D02*
X30505705Y-20769521D01*
X30505705Y-20769521D02*
X30515229Y-20750473D01*
X30515229Y-20750473D02*
X30534276Y-20740949D01*
X30534276Y-20740949D02*
X30572372Y-20740949D01*
X30572372Y-20740949D02*
X30591419Y-20750473D01*
X30591419Y-20750473D02*
X30600943Y-20769521D01*
X30600943Y-20769521D02*
X30600943Y-20788568D01*
X30600943Y-20788568D02*
X30505705Y-20807616D01*
X30677134Y-20864759D02*
X30696181Y-20874283D01*
X30696181Y-20874283D02*
X30734276Y-20874283D01*
X30734276Y-20874283D02*
X30753324Y-20864759D01*
X30753324Y-20864759D02*
X30762848Y-20845711D01*
X30762848Y-20845711D02*
X30762848Y-20836187D01*
X30762848Y-20836187D02*
X30753324Y-20817140D01*
X30753324Y-20817140D02*
X30734276Y-20807616D01*
X30734276Y-20807616D02*
X30705705Y-20807616D01*
X30705705Y-20807616D02*
X30686657Y-20798092D01*
X30686657Y-20798092D02*
X30677134Y-20779044D01*
X30677134Y-20779044D02*
X30677134Y-20769521D01*
X30677134Y-20769521D02*
X30686657Y-20750473D01*
X30686657Y-20750473D02*
X30705705Y-20740949D01*
X30705705Y-20740949D02*
X30734276Y-20740949D01*
X30734276Y-20740949D02*
X30753324Y-20750473D01*
X30829515Y-20950473D02*
X30839038Y-20940949D01*
X30839038Y-20940949D02*
X30858086Y-20912378D01*
X30858086Y-20912378D02*
X30867610Y-20893330D01*
X30867610Y-20893330D02*
X30877134Y-20864759D01*
X30877134Y-20864759D02*
X30886657Y-20817140D01*
X30886657Y-20817140D02*
X30886657Y-20779044D01*
X30886657Y-20779044D02*
X30877134Y-20731425D01*
X30877134Y-20731425D02*
X30867610Y-20702854D01*
X30867610Y-20702854D02*
X30858086Y-20683806D01*
X30858086Y-20683806D02*
X30839038Y-20655235D01*
X30839038Y-20655235D02*
X30829515Y-20645711D01*
D13*
X25847981Y-21085414D02*
X25847981Y-21008183D01*
X25770750Y-21008183D01*
X25770750Y-21085414D01*
X25847981Y-21085414D01*
D11*
X26229514Y-21138283D02*
X26115228Y-21138283D01*
X26172371Y-21138283D02*
X26172371Y-20938283D01*
X26172371Y-20938283D02*
X26153324Y-20966854D01*
X26153324Y-20966854D02*
X26134276Y-20985902D01*
X26134276Y-20985902D02*
X26115228Y-20995425D01*
X26315228Y-21119235D02*
X26324752Y-21128759D01*
X26324752Y-21128759D02*
X26315228Y-21138283D01*
X26315228Y-21138283D02*
X26305705Y-21128759D01*
X26305705Y-21128759D02*
X26315228Y-21119235D01*
X26315228Y-21119235D02*
X26315228Y-21138283D01*
X26448562Y-20938283D02*
X26467609Y-20938283D01*
X26467609Y-20938283D02*
X26486657Y-20947806D01*
X26486657Y-20947806D02*
X26496181Y-20957330D01*
X26496181Y-20957330D02*
X26505705Y-20976378D01*
X26505705Y-20976378D02*
X26515228Y-21014473D01*
X26515228Y-21014473D02*
X26515228Y-21062092D01*
X26515228Y-21062092D02*
X26505705Y-21100187D01*
X26505705Y-21100187D02*
X26496181Y-21119235D01*
X26496181Y-21119235D02*
X26486657Y-21128759D01*
X26486657Y-21128759D02*
X26467609Y-21138283D01*
X26467609Y-21138283D02*
X26448562Y-21138283D01*
X26448562Y-21138283D02*
X26429514Y-21128759D01*
X26429514Y-21128759D02*
X26419990Y-21119235D01*
X26419990Y-21119235D02*
X26410467Y-21100187D01*
X26410467Y-21100187D02*
X26400943Y-21062092D01*
X26400943Y-21062092D02*
X26400943Y-21014473D01*
X26400943Y-21014473D02*
X26410467Y-20976378D01*
X26410467Y-20976378D02*
X26419990Y-20957330D01*
X26419990Y-20957330D02*
X26429514Y-20947806D01*
X26429514Y-20947806D02*
X26448562Y-20938283D01*
X26610467Y-21138283D02*
X26648562Y-21138283D01*
X26648562Y-21138283D02*
X26667609Y-21128759D01*
X26667609Y-21128759D02*
X26677133Y-21119235D01*
X26677133Y-21119235D02*
X26696181Y-21090663D01*
X26696181Y-21090663D02*
X26705705Y-21052568D01*
X26705705Y-21052568D02*
X26705705Y-20976378D01*
X26705705Y-20976378D02*
X26696181Y-20957330D01*
X26696181Y-20957330D02*
X26686657Y-20947806D01*
X26686657Y-20947806D02*
X26667609Y-20938283D01*
X26667609Y-20938283D02*
X26629514Y-20938283D01*
X26629514Y-20938283D02*
X26610467Y-20947806D01*
X26610467Y-20947806D02*
X26600943Y-20957330D01*
X26600943Y-20957330D02*
X26591419Y-20976378D01*
X26591419Y-20976378D02*
X26591419Y-21023997D01*
X26591419Y-21023997D02*
X26600943Y-21043044D01*
X26600943Y-21043044D02*
X26610467Y-21052568D01*
X26610467Y-21052568D02*
X26629514Y-21062092D01*
X26629514Y-21062092D02*
X26667609Y-21062092D01*
X26667609Y-21062092D02*
X26686657Y-21052568D01*
X26686657Y-21052568D02*
X26696181Y-21043044D01*
X26696181Y-21043044D02*
X26705705Y-21023997D01*
X26781895Y-20957330D02*
X26791419Y-20947806D01*
X26791419Y-20947806D02*
X26810467Y-20938283D01*
X26810467Y-20938283D02*
X26858086Y-20938283D01*
X26858086Y-20938283D02*
X26877133Y-20947806D01*
X26877133Y-20947806D02*
X26886657Y-20957330D01*
X26886657Y-20957330D02*
X26896181Y-20976378D01*
X26896181Y-20976378D02*
X26896181Y-20995425D01*
X26896181Y-20995425D02*
X26886657Y-21023997D01*
X26886657Y-21023997D02*
X26772371Y-21138283D01*
X26772371Y-21138283D02*
X26896181Y-21138283D01*
X26981895Y-21138283D02*
X26981895Y-21004949D01*
X26981895Y-21023997D02*
X26991419Y-21014473D01*
X26991419Y-21014473D02*
X27010467Y-21004949D01*
X27010467Y-21004949D02*
X27039038Y-21004949D01*
X27039038Y-21004949D02*
X27058086Y-21014473D01*
X27058086Y-21014473D02*
X27067609Y-21033521D01*
X27067609Y-21033521D02*
X27067609Y-21138283D01*
X27067609Y-21033521D02*
X27077133Y-21014473D01*
X27077133Y-21014473D02*
X27096181Y-21004949D01*
X27096181Y-21004949D02*
X27124752Y-21004949D01*
X27124752Y-21004949D02*
X27143800Y-21014473D01*
X27143800Y-21014473D02*
X27153324Y-21033521D01*
X27153324Y-21033521D02*
X27153324Y-21138283D01*
X27248562Y-21138283D02*
X27248562Y-21004949D01*
X27248562Y-21023997D02*
X27258086Y-21014473D01*
X27258086Y-21014473D02*
X27277133Y-21004949D01*
X27277133Y-21004949D02*
X27305705Y-21004949D01*
X27305705Y-21004949D02*
X27324752Y-21014473D01*
X27324752Y-21014473D02*
X27334276Y-21033521D01*
X27334276Y-21033521D02*
X27334276Y-21138283D01*
X27334276Y-21033521D02*
X27343800Y-21014473D01*
X27343800Y-21014473D02*
X27362848Y-21004949D01*
X27362848Y-21004949D02*
X27391419Y-21004949D01*
X27391419Y-21004949D02*
X27410467Y-21014473D01*
X27410467Y-21014473D02*
X27419990Y-21033521D01*
X27419990Y-21033521D02*
X27419990Y-21138283D01*
X27810467Y-20928759D02*
X27639038Y-21185902D01*
X28067610Y-20938283D02*
X28086657Y-20938283D01*
X28086657Y-20938283D02*
X28105705Y-20947806D01*
X28105705Y-20947806D02*
X28115229Y-20957330D01*
X28115229Y-20957330D02*
X28124752Y-20976378D01*
X28124752Y-20976378D02*
X28134276Y-21014473D01*
X28134276Y-21014473D02*
X28134276Y-21062092D01*
X28134276Y-21062092D02*
X28124752Y-21100187D01*
X28124752Y-21100187D02*
X28115229Y-21119235D01*
X28115229Y-21119235D02*
X28105705Y-21128759D01*
X28105705Y-21128759D02*
X28086657Y-21138283D01*
X28086657Y-21138283D02*
X28067610Y-21138283D01*
X28067610Y-21138283D02*
X28048562Y-21128759D01*
X28048562Y-21128759D02*
X28039038Y-21119235D01*
X28039038Y-21119235D02*
X28029514Y-21100187D01*
X28029514Y-21100187D02*
X28019991Y-21062092D01*
X28019991Y-21062092D02*
X28019991Y-21014473D01*
X28019991Y-21014473D02*
X28029514Y-20976378D01*
X28029514Y-20976378D02*
X28039038Y-20957330D01*
X28039038Y-20957330D02*
X28048562Y-20947806D01*
X28048562Y-20947806D02*
X28067610Y-20938283D01*
X28219991Y-21119235D02*
X28229514Y-21128759D01*
X28229514Y-21128759D02*
X28219991Y-21138283D01*
X28219991Y-21138283D02*
X28210467Y-21128759D01*
X28210467Y-21128759D02*
X28219991Y-21119235D01*
X28219991Y-21119235D02*
X28219991Y-21138283D01*
X28353324Y-20938283D02*
X28372372Y-20938283D01*
X28372372Y-20938283D02*
X28391419Y-20947806D01*
X28391419Y-20947806D02*
X28400943Y-20957330D01*
X28400943Y-20957330D02*
X28410467Y-20976378D01*
X28410467Y-20976378D02*
X28419991Y-21014473D01*
X28419991Y-21014473D02*
X28419991Y-21062092D01*
X28419991Y-21062092D02*
X28410467Y-21100187D01*
X28410467Y-21100187D02*
X28400943Y-21119235D01*
X28400943Y-21119235D02*
X28391419Y-21128759D01*
X28391419Y-21128759D02*
X28372372Y-21138283D01*
X28372372Y-21138283D02*
X28353324Y-21138283D01*
X28353324Y-21138283D02*
X28334276Y-21128759D01*
X28334276Y-21128759D02*
X28324752Y-21119235D01*
X28324752Y-21119235D02*
X28315229Y-21100187D01*
X28315229Y-21100187D02*
X28305705Y-21062092D01*
X28305705Y-21062092D02*
X28305705Y-21014473D01*
X28305705Y-21014473D02*
X28315229Y-20976378D01*
X28315229Y-20976378D02*
X28324752Y-20957330D01*
X28324752Y-20957330D02*
X28334276Y-20947806D01*
X28334276Y-20947806D02*
X28353324Y-20938283D01*
X28591419Y-21004949D02*
X28591419Y-21138283D01*
X28543800Y-20928759D02*
X28496181Y-21071616D01*
X28496181Y-21071616D02*
X28619991Y-21071616D01*
X28677133Y-20938283D02*
X28800943Y-20938283D01*
X28800943Y-20938283D02*
X28734276Y-21014473D01*
X28734276Y-21014473D02*
X28762848Y-21014473D01*
X28762848Y-21014473D02*
X28781895Y-21023997D01*
X28781895Y-21023997D02*
X28791419Y-21033521D01*
X28791419Y-21033521D02*
X28800943Y-21052568D01*
X28800943Y-21052568D02*
X28800943Y-21100187D01*
X28800943Y-21100187D02*
X28791419Y-21119235D01*
X28791419Y-21119235D02*
X28781895Y-21128759D01*
X28781895Y-21128759D02*
X28762848Y-21138283D01*
X28762848Y-21138283D02*
X28705705Y-21138283D01*
X28705705Y-21138283D02*
X28686657Y-21128759D01*
X28686657Y-21128759D02*
X28677133Y-21119235D01*
X28924752Y-20938283D02*
X28943800Y-20938283D01*
X28943800Y-20938283D02*
X28962848Y-20947806D01*
X28962848Y-20947806D02*
X28972372Y-20957330D01*
X28972372Y-20957330D02*
X28981895Y-20976378D01*
X28981895Y-20976378D02*
X28991419Y-21014473D01*
X28991419Y-21014473D02*
X28991419Y-21062092D01*
X28991419Y-21062092D02*
X28981895Y-21100187D01*
X28981895Y-21100187D02*
X28972372Y-21119235D01*
X28972372Y-21119235D02*
X28962848Y-21128759D01*
X28962848Y-21128759D02*
X28943800Y-21138283D01*
X28943800Y-21138283D02*
X28924752Y-21138283D01*
X28924752Y-21138283D02*
X28905705Y-21128759D01*
X28905705Y-21128759D02*
X28896181Y-21119235D01*
X28896181Y-21119235D02*
X28886657Y-21100187D01*
X28886657Y-21100187D02*
X28877133Y-21062092D01*
X28877133Y-21062092D02*
X28877133Y-21014473D01*
X28877133Y-21014473D02*
X28886657Y-20976378D01*
X28886657Y-20976378D02*
X28896181Y-20957330D01*
X28896181Y-20957330D02*
X28905705Y-20947806D01*
X28905705Y-20947806D02*
X28924752Y-20938283D01*
X29067610Y-20938283D02*
X29067610Y-20976378D01*
X29143800Y-20938283D02*
X29143800Y-20976378D01*
X29439038Y-21214473D02*
X29429514Y-21204949D01*
X29429514Y-21204949D02*
X29410467Y-21176378D01*
X29410467Y-21176378D02*
X29400943Y-21157330D01*
X29400943Y-21157330D02*
X29391419Y-21128759D01*
X29391419Y-21128759D02*
X29381895Y-21081140D01*
X29381895Y-21081140D02*
X29381895Y-21043044D01*
X29381895Y-21043044D02*
X29391419Y-20995425D01*
X29391419Y-20995425D02*
X29400943Y-20966854D01*
X29400943Y-20966854D02*
X29410467Y-20947806D01*
X29410467Y-20947806D02*
X29429514Y-20919235D01*
X29429514Y-20919235D02*
X29439038Y-20909711D01*
X29505705Y-20957330D02*
X29515229Y-20947806D01*
X29515229Y-20947806D02*
X29534276Y-20938283D01*
X29534276Y-20938283D02*
X29581895Y-20938283D01*
X29581895Y-20938283D02*
X29600943Y-20947806D01*
X29600943Y-20947806D02*
X29610467Y-20957330D01*
X29610467Y-20957330D02*
X29619991Y-20976378D01*
X29619991Y-20976378D02*
X29619991Y-20995425D01*
X29619991Y-20995425D02*
X29610467Y-21023997D01*
X29610467Y-21023997D02*
X29496181Y-21138283D01*
X29496181Y-21138283D02*
X29619991Y-21138283D01*
X29791419Y-21004949D02*
X29791419Y-21138283D01*
X29743800Y-20928759D02*
X29696181Y-21071616D01*
X29696181Y-21071616D02*
X29819991Y-21071616D01*
X30048562Y-21138283D02*
X30048562Y-20938283D01*
X30134276Y-21138283D02*
X30134276Y-21033521D01*
X30134276Y-21033521D02*
X30124753Y-21014473D01*
X30124753Y-21014473D02*
X30105705Y-21004949D01*
X30105705Y-21004949D02*
X30077134Y-21004949D01*
X30077134Y-21004949D02*
X30058086Y-21014473D01*
X30058086Y-21014473D02*
X30048562Y-21023997D01*
X30258086Y-21138283D02*
X30239038Y-21128759D01*
X30239038Y-21128759D02*
X30229515Y-21119235D01*
X30229515Y-21119235D02*
X30219991Y-21100187D01*
X30219991Y-21100187D02*
X30219991Y-21043044D01*
X30219991Y-21043044D02*
X30229515Y-21023997D01*
X30229515Y-21023997D02*
X30239038Y-21014473D01*
X30239038Y-21014473D02*
X30258086Y-21004949D01*
X30258086Y-21004949D02*
X30286657Y-21004949D01*
X30286657Y-21004949D02*
X30305705Y-21014473D01*
X30305705Y-21014473D02*
X30315229Y-21023997D01*
X30315229Y-21023997D02*
X30324753Y-21043044D01*
X30324753Y-21043044D02*
X30324753Y-21100187D01*
X30324753Y-21100187D02*
X30315229Y-21119235D01*
X30315229Y-21119235D02*
X30305705Y-21128759D01*
X30305705Y-21128759D02*
X30286657Y-21138283D01*
X30286657Y-21138283D02*
X30258086Y-21138283D01*
X30439038Y-21138283D02*
X30419991Y-21128759D01*
X30419991Y-21128759D02*
X30410467Y-21109711D01*
X30410467Y-21109711D02*
X30410467Y-20938283D01*
X30591419Y-21128759D02*
X30572372Y-21138283D01*
X30572372Y-21138283D02*
X30534276Y-21138283D01*
X30534276Y-21138283D02*
X30515229Y-21128759D01*
X30515229Y-21128759D02*
X30505705Y-21109711D01*
X30505705Y-21109711D02*
X30505705Y-21033521D01*
X30505705Y-21033521D02*
X30515229Y-21014473D01*
X30515229Y-21014473D02*
X30534276Y-21004949D01*
X30534276Y-21004949D02*
X30572372Y-21004949D01*
X30572372Y-21004949D02*
X30591419Y-21014473D01*
X30591419Y-21014473D02*
X30600943Y-21033521D01*
X30600943Y-21033521D02*
X30600943Y-21052568D01*
X30600943Y-21052568D02*
X30505705Y-21071616D01*
X30677134Y-21128759D02*
X30696181Y-21138283D01*
X30696181Y-21138283D02*
X30734276Y-21138283D01*
X30734276Y-21138283D02*
X30753324Y-21128759D01*
X30753324Y-21128759D02*
X30762848Y-21109711D01*
X30762848Y-21109711D02*
X30762848Y-21100187D01*
X30762848Y-21100187D02*
X30753324Y-21081140D01*
X30753324Y-21081140D02*
X30734276Y-21071616D01*
X30734276Y-21071616D02*
X30705705Y-21071616D01*
X30705705Y-21071616D02*
X30686657Y-21062092D01*
X30686657Y-21062092D02*
X30677134Y-21043044D01*
X30677134Y-21043044D02*
X30677134Y-21033521D01*
X30677134Y-21033521D02*
X30686657Y-21014473D01*
X30686657Y-21014473D02*
X30705705Y-21004949D01*
X30705705Y-21004949D02*
X30734276Y-21004949D01*
X30734276Y-21004949D02*
X30753324Y-21014473D01*
X30829515Y-21214473D02*
X30839038Y-21204949D01*
X30839038Y-21204949D02*
X30858086Y-21176378D01*
X30858086Y-21176378D02*
X30867610Y-21157330D01*
X30867610Y-21157330D02*
X30877134Y-21128759D01*
X30877134Y-21128759D02*
X30886657Y-21081140D01*
X30886657Y-21081140D02*
X30886657Y-21043044D01*
X30886657Y-21043044D02*
X30877134Y-20995425D01*
X30877134Y-20995425D02*
X30867610Y-20966854D01*
X30867610Y-20966854D02*
X30858086Y-20947806D01*
X30858086Y-20947806D02*
X30839038Y-20919235D01*
X30839038Y-20919235D02*
X30829515Y-20909711D01*
M02*
