M48
; DRILL file {KiCad 8.0.7} date 2024-12-27T12:51:27-0600
; FORMAT={-:-/ absolute / inch / decimal}
; #@! TF.CreationDate,2024-12-27T12:51:27-06:00
; #@! TF.GenerationSoftware,Kicad,Pcbnew,8.0.7
; #@! TF.FileFunction,Plated,1,2,PTH
FMAT,2
INCH
; #@! TA.AperFunction,Plated,PTH,ViaDrill
T1C0.0157
; #@! TA.AperFunction,Plated,PTH,ComponentDrill
T2C0.0295
; #@! TA.AperFunction,Plated,PTH,ComponentDrill
T3C0.0390
; #@! TA.AperFunction,Plated,PTH,ComponentDrill
T4C0.0430
%
G90
G05
T1
X10.6693Y-7.0276
X10.8268Y-6.5945
X10.8268Y-6.9882
X10.9055Y-7.0669
X11.0827Y-6.811
X11.22Y-6.3578
X11.378Y-6.2402
X11.3976Y-6.4961
X11.4961Y-6.2402
X11.5354Y-6.3189
X11.5945Y-5.689
X11.6472Y-4.5079
X11.6472Y-5.1772
X11.6929Y-4.7638
X11.7717Y-6.752
X11.811Y-4.1929
X11.8701Y-3.3465
X11.8701Y-4.252
X11.9747Y-3.9088
X12.0866Y-3.9173
X12.126Y-5.4921
X12.185Y-4.7244
X12.2638Y-4.1535
X12.4409Y-6.5748
X12.5Y-4.1535
X12.5197Y-4.5079
X12.5197Y-5.1969
X12.5197Y-5.8858
X12.5591Y-3.7992
X12.5984Y-4.1142
X12.9134Y-3.2283
X12.9331Y-3.9961
X12.9331Y-4.5669
X12.9528Y-3.5039
X13.248Y-4.9606
X13.2677Y-3.563
X13.2677Y-4.2717
X13.2677Y-5.6693
X13.5433Y-3.878
X13.5433Y-4.0748
X13.9961Y-4.4685
X13.9961Y-5.1772
X14.0157Y-3.7598
X14.0157Y-5.8661
X14.7441Y-4.0354
X14.7441Y-4.7441
X14.7441Y-5.4331
X14.7441Y-6.122
X15.4724Y-4.0354
X15.4921Y-4.7244
X15.4921Y-5.4331
X15.4921Y-6.1417
T2
X13.1102Y-4.4882
X13.1102Y-4.5669
T3
X10.9433Y-6.8983
X11.1663Y-7.099
X11.7659Y-6.5198
X11.8685Y-6.8017
X11.872Y-3.6
X11.872Y-3.9
X11.872Y-4.3579
X11.872Y-4.6579
X11.872Y-5.0764
X11.872Y-5.3764
X11.872Y-5.7752
X11.872Y-6.0752
X12.6102Y-3.3441
X12.6102Y-3.6441
X12.6102Y-4.2594
X12.6102Y-4.5594
X12.6102Y-4.7417
X12.6102Y-5.0417
X12.6102Y-5.6571
X12.6102Y-5.9571
X12.6201Y-6.4445
X12.6201Y-6.7445
X13.3484Y-3.3244
X13.3484Y-3.6244
X13.3484Y-4.0232
X13.3484Y-4.3232
X13.3484Y-4.722
X13.3484Y-5.022
X13.3484Y-5.4209
X13.3484Y-5.7209
X14.0866Y-3.5213
X14.0866Y-3.8213
X14.0866Y-4.2201
X14.0866Y-4.5201
X14.0866Y-4.9189
X14.0866Y-5.2189
X14.0866Y-5.6177
X14.0866Y-5.9177
X14.8248Y-3.5803
X14.8248Y-3.8803
X14.8248Y-4.4957
X14.8248Y-4.7957
X14.8248Y-4.978
X14.8248Y-5.278
X14.8248Y-5.8933
X14.8248Y-6.1933
X15.563Y-3.7969
X15.563Y-4.0969
X15.563Y-4.4957
X15.563Y-4.7957
X15.563Y-5.1945
X15.563Y-5.4945
X15.563Y-5.8933
X15.563Y-6.1933
T4
X11.3693Y-3.45
X11.3693Y-4.05
X11.4693Y-3.45
X11.4693Y-4.05
X11.5693Y-3.45
X11.5693Y-4.05
X11.6693Y-3.45
X11.6693Y-4.05
X11.7693Y-3.45
X11.7693Y-4.05
X11.8693Y-3.45
X11.8693Y-4.05
X11.9693Y-3.45
X11.9693Y-4.05
X12.0693Y-3.45
X12.0693Y-4.05
X12.1693Y-3.45
X12.1693Y-4.05
X12.2693Y-3.45
X12.2693Y-4.05
X12.3693Y-3.45
X12.3693Y-4.05
X12.4693Y-3.45
X12.4693Y-4.05
M30
