M48
; DRILL file {KiCad 8.0.7} date 2024-12-27T12:51:27-0600
; FORMAT={-:-/ absolute / inch / decimal}
; #@! TF.CreationDate,2024-12-27T12:51:27-06:00
; #@! TF.GenerationSoftware,Kicad,Pcbnew,8.0.7
; #@! TF.FileFunction,NonPlated,1,2,NPTH
FMAT,2
INCH
; #@! TA.AperFunction,NonPlated,NPTH,ComponentDrill
T1C0.0295
; #@! TA.AperFunction,NonPlated,NPTH,ComponentDrill
T2C0.0354
; #@! TA.AperFunction,NonPlated,NPTH,ComponentDrill
T3C0.0670
; #@! TA.AperFunction,NonPlated,NPTH,ComponentDrill
T4C0.1181
; #@! TA.AperFunction,NonPlated,NPTH,ComponentDrill
T5C0.1350
; #@! TA.AperFunction,NonPlated,NPTH,ComponentDrill
T6C0.1575
%
G90
G05
T1
X10.364Y-6.9967
X10.4392Y-7.0746
T2
X10.6167Y-6.8318
X10.7017Y-6.7498
T3
X10.602Y-7.2956
X10.8918Y-6.9737
X11.278Y-6.7103
X11.3484Y-3.6909
X11.3484Y-4.3898
X11.3484Y-5.0886
X11.3484Y-5.7874
X11.685Y-6.5622
X11.7815Y-3.6909
X11.7815Y-4.3898
X11.7815Y-5.0886
X11.7815Y-5.7874
X12.0866Y-3.5728
X12.0866Y-4.2717
X12.0866Y-4.9705
X12.0866Y-5.6693
X12.0965Y-6.4567
X12.5197Y-3.5728
X12.5197Y-4.2717
X12.5197Y-4.9705
X12.5197Y-5.6693
X12.5295Y-6.4567
X12.8248Y-3.3366
X12.8248Y-4.0354
X12.8248Y-4.7343
X12.8248Y-5.4331
X13.2579Y-3.3366
X13.2579Y-4.0354
X13.2579Y-4.7343
X13.2579Y-5.4331
X13.563Y-3.5335
X13.563Y-4.2323
X13.563Y-4.9311
X13.563Y-5.6299
X13.9961Y-3.5335
X13.9961Y-4.2323
X13.9961Y-4.9311
X13.9961Y-5.6299
X14.3012Y-3.8091
X14.3012Y-4.5079
X14.3012Y-5.2067
X14.3012Y-5.9055
X14.7343Y-3.8091
X14.7343Y-4.5079
X14.7343Y-5.2067
X14.7343Y-5.9055
X15.0394Y-3.8091
X15.0394Y-4.5079
X15.0394Y-5.2067
X15.0394Y-5.9055
X15.4724Y-3.8091
X15.4724Y-4.5079
X15.4724Y-5.2067
X15.4724Y-5.9055
T4
X10.7249Y-7.3797
X10.921Y-7.2914
X11.347Y-6.8423
X11.3681Y-3.8386
X11.3681Y-4.5374
X11.3681Y-5.2362
X11.3681Y-5.935
X11.5616Y-6.8564
X11.565Y-3.9252
X11.565Y-4.624
X11.565Y-5.3228
X11.565Y-6.0217
X12.1063Y-3.7205
X12.1063Y-4.4193
X12.1063Y-5.1181
X12.1063Y-5.8169
X12.1161Y-6.6043
X12.3031Y-3.8071
X12.3031Y-4.5059
X12.3031Y-5.2047
X12.3031Y-5.9035
X12.313Y-6.6909
X12.8445Y-3.4843
X12.8445Y-4.1831
X12.8445Y-4.8819
X12.8445Y-5.5807
X13.0413Y-3.5709
X13.0413Y-4.2697
X13.0413Y-4.9685
X13.0413Y-5.6673
X13.5827Y-3.6811
X13.5827Y-4.3799
X13.5827Y-5.0787
X13.5827Y-5.7776
X13.7795Y-3.7677
X13.7795Y-4.4665
X13.7795Y-5.1654
X13.7795Y-5.8642
X14.3209Y-3.9567
X14.3209Y-4.6555
X14.3209Y-5.3543
X14.3209Y-6.0531
X14.5177Y-4.0433
X14.5177Y-4.7421
X14.5177Y-5.4409
X14.5177Y-6.1398
X15.0591Y-3.9567
X15.0591Y-4.6555
X15.0591Y-5.3543
X15.0591Y-6.0531
X15.2559Y-4.0433
X15.2559Y-4.7421
X15.2559Y-5.4409
X15.2559Y-6.1398
T5
X10.7469Y-7.1347
X11.4815Y-6.6363
X11.565Y-3.6909
X11.565Y-4.3898
X11.565Y-5.0886
X11.565Y-5.7874
X12.3031Y-3.5728
X12.3031Y-4.2717
X12.3031Y-4.9705
X12.3031Y-5.6693
X12.313Y-6.4567
X13.0413Y-3.3366
X13.0413Y-4.0354
X13.0413Y-4.7343
X13.0413Y-5.4331
X13.7795Y-3.5335
X13.7795Y-4.2323
X13.7795Y-4.9311
X13.7795Y-5.6299
X14.5177Y-3.8091
X14.5177Y-4.5079
X14.5177Y-5.2067
X14.5177Y-5.9055
X15.2559Y-3.8091
X15.2559Y-4.5079
X15.2559Y-5.2067
X15.2559Y-5.9055
T6
X11.8379Y-6.2342
X12.6575Y-5.3346
X13.4252Y-4.5965
X14.872Y-4.1437
X14.9016Y-5.5413
M30
