%TF.GenerationSoftware,KiCad,Pcbnew,8.0.7*%
%TF.CreationDate,2024-12-27T12:50:11-06:00*%
%TF.ProjectId,right,72696768-742e-46b6-9963-61645f706362,v1.0.0*%
%TF.SameCoordinates,Original*%
%TF.FileFunction,Soldermask,Top*%
%TF.FilePolarity,Negative*%
%FSLAX46Y46*%
G04 Gerber Fmt 4.6, Leading zero omitted, Abs format (unit mm)*
G04 Created by KiCad (PCBNEW 8.0.7) date 2024-12-27 12:50:11*
%MOMM*%
%LPD*%
G01*
G04 APERTURE LIST*
G04 Aperture macros list*
%AMRotRect*
0 Rectangle, with rotation*
0 The origin of the aperture is its center*
0 $1 length*
0 $2 width*
0 $3 Rotation angle, in degrees counterclockwise*
0 Add horizontal line*
21,1,$1,$2,0,0,$3*%
G04 Aperture macros list end*
%ADD10C,1.000000*%
%ADD11C,4.000000*%
%ADD12C,1.701800*%
%ADD13C,3.000000*%
%ADD14C,3.429000*%
%ADD15R,1.778000X1.778000*%
%ADD16R,1.200000X0.900000*%
%ADD17C,1.905000*%
%ADD18R,1.700000X1.200000*%
%ADD19O,1.700000X1.200000*%
%ADD20C,1.752600*%
%ADD21C,0.750000*%
%ADD22RotRect,1.778000X1.778000X290.000000*%
%ADD23RotRect,0.900000X1.200000X290.000000*%
%ADD24RotRect,1.778000X1.778000X318.000000*%
%ADD25RotRect,0.900000X1.200000X318.000000*%
G04 APERTURE END LIST*
D10*
%TO.C,T1*%
X269664468Y-173527908D03*
X271822488Y-171443932D03*
%TD*%
D11*
%TO.C,*%
X378500000Y-140750000D03*
%TD*%
D12*
%TO.C,S18*%
X318000000Y-126250000D03*
D13*
X312500000Y-132200000D03*
D14*
X312500000Y-126250000D03*
D13*
X307500000Y-130000000D03*
D12*
X307000000Y-126250000D03*
%TD*%
D11*
%TO.C,*%
X341000000Y-116750000D03*
%TD*%
D15*
%TO.C,D6*%
X376550000Y-114190000D03*
D16*
X376550000Y-116350000D03*
X376550000Y-119650000D03*
D17*
X376550000Y-121810000D03*
%TD*%
D15*
%TO.C,D21*%
X376550000Y-126440000D03*
D16*
X376550000Y-128600000D03*
X376550000Y-131900000D03*
D17*
X376550000Y-134060000D03*
%TD*%
D12*
%TO.C,S5*%
X374250000Y-150000000D03*
D13*
X368750000Y-155950000D03*
D14*
X368750000Y-150000000D03*
D13*
X363750000Y-153750000D03*
D12*
X363250000Y-150000000D03*
%TD*%
%TO.C,S23*%
X299250000Y-111500000D03*
D13*
X293750000Y-117450000D03*
D14*
X293750000Y-111500000D03*
D13*
X288750000Y-115250000D03*
D12*
X288250000Y-111500000D03*
%TD*%
D15*
%TO.C,D1*%
X395300000Y-149690000D03*
D16*
X395300000Y-151850000D03*
X395300000Y-155150000D03*
D17*
X395300000Y-157310000D03*
%TD*%
D15*
%TO.C,D17*%
X301550000Y-128940000D03*
D16*
X301550000Y-131100000D03*
X301550000Y-134400000D03*
D17*
X301550000Y-136560000D03*
%TD*%
D15*
%TO.C,D14*%
X320300000Y-143690000D03*
D16*
X320300000Y-145850000D03*
X320300000Y-149150000D03*
D17*
X320300000Y-151310000D03*
%TD*%
D12*
%TO.C,S15*%
X336750000Y-102500000D03*
D13*
X331250000Y-108450000D03*
D14*
X331250000Y-102500000D03*
D13*
X326250000Y-106250000D03*
D12*
X325750000Y-102500000D03*
%TD*%
%TO.C,S4*%
X393000000Y-96750000D03*
D13*
X387500000Y-102700000D03*
D14*
X387500000Y-96750000D03*
D13*
X382500000Y-100500000D03*
D12*
X382000000Y-96750000D03*
%TD*%
%TO.C,S27*%
X276651629Y-177132826D03*
D13*
X277393123Y-185201450D03*
D14*
X272971411Y-181220123D03*
D13*
X272412551Y-187445087D03*
D12*
X269291193Y-185307420D03*
%TD*%
%TO.C,S17*%
X318000000Y-144000000D03*
D13*
X312500000Y-149950000D03*
D14*
X312500000Y-144000000D03*
D13*
X307500000Y-147750000D03*
D12*
X307000000Y-144000000D03*
%TD*%
%TO.C,S2*%
X393000000Y-132250000D03*
D13*
X387500000Y-138200000D03*
D14*
X387500000Y-132250000D03*
D13*
X382500000Y-136000000D03*
D12*
X382000000Y-132250000D03*
%TD*%
D15*
%TO.C,D13*%
X339050000Y-84440000D03*
D16*
X339050000Y-86600000D03*
X339050000Y-89900000D03*
D17*
X339050000Y-92060000D03*
%TD*%
D18*
%TO.C,JST1*%
X333000000Y-114000000D03*
D19*
X333000000Y-116000000D03*
%TD*%
D11*
%TO.C,*%
X300683611Y-158349259D03*
%TD*%
D15*
%TO.C,D4*%
X395300000Y-96440000D03*
D16*
X395300000Y-98600000D03*
X395300000Y-101900000D03*
D17*
X395300000Y-104060000D03*
%TD*%
D15*
%TO.C,D7*%
X357800000Y-142690000D03*
D16*
X357800000Y-144850000D03*
X357800000Y-148150000D03*
D17*
X357800000Y-150310000D03*
%TD*%
D20*
%TO.C,MCU1*%
X288780000Y-102870000D03*
X291320000Y-102870000D03*
X293860000Y-102870000D03*
X296400000Y-102870000D03*
X298940000Y-102870000D03*
X301480000Y-102870000D03*
X304020000Y-102870000D03*
X306560000Y-102870000D03*
X309100000Y-102870000D03*
X311640000Y-102870000D03*
X314180000Y-102870000D03*
X316720000Y-102870000D03*
X316720000Y-87630000D03*
X314180000Y-87630000D03*
X311640000Y-87630000D03*
X309100000Y-87630000D03*
X306560000Y-87630000D03*
X304020000Y-87630000D03*
X301480000Y-87630000D03*
X298940000Y-87630000D03*
X296400000Y-87630000D03*
X293860000Y-87630000D03*
X291320000Y-87630000D03*
X288780000Y-87630000D03*
%TD*%
D12*
%TO.C,S21*%
X299250000Y-147000000D03*
D13*
X293750000Y-152950000D03*
D14*
X293750000Y-147000000D03*
D13*
X288750000Y-150750000D03*
D12*
X288250000Y-147000000D03*
%TD*%
D15*
%TO.C,D15*%
X320300000Y-108190000D03*
D16*
X320300000Y-110350000D03*
X320300000Y-113650000D03*
D17*
X320300000Y-115810000D03*
%TD*%
D12*
%TO.C,S9*%
X355500000Y-143000000D03*
D13*
X350000000Y-148950000D03*
D14*
X350000000Y-143000000D03*
D13*
X345000000Y-146750000D03*
D12*
X344500000Y-143000000D03*
%TD*%
%TO.C,S10*%
X355500000Y-125250000D03*
D13*
X350000000Y-131200000D03*
D14*
X350000000Y-125250000D03*
D13*
X345000000Y-129000000D03*
D12*
X344500000Y-125250000D03*
%TD*%
%TO.C,S26*%
X296798739Y-166680392D03*
D13*
X293665450Y-174152674D03*
D14*
X291630430Y-168561503D03*
D13*
X288214542Y-173795451D03*
D12*
X286462121Y-170442614D03*
%TD*%
D15*
%TO.C,D5*%
X376550000Y-149690000D03*
D16*
X376550000Y-151850000D03*
X376550000Y-155150000D03*
D17*
X376550000Y-157310000D03*
%TD*%
D15*
%TO.C,D10*%
X357800000Y-89440000D03*
D16*
X357800000Y-91600000D03*
X357800000Y-94900000D03*
D17*
X357800000Y-97060000D03*
%TD*%
D15*
%TO.C,D24*%
X320300000Y-84940000D03*
D16*
X320300000Y-87100000D03*
X320300000Y-90400000D03*
D17*
X320300000Y-92560000D03*
%TD*%
D12*
%TO.C,S24*%
X299250000Y-93750000D03*
D13*
X293750000Y-99700000D03*
D14*
X293750000Y-93750000D03*
D13*
X288750000Y-97500000D03*
D12*
X288250000Y-93750000D03*
%TD*%
%TO.C,S8*%
X374250000Y-96750000D03*
D13*
X368750000Y-102700000D03*
D14*
X368750000Y-96750000D03*
D13*
X363750000Y-100500000D03*
D12*
X363250000Y-96750000D03*
%TD*%
D15*
%TO.C,D9*%
X357800000Y-107190000D03*
D16*
X357800000Y-109350000D03*
X357800000Y-112650000D03*
D17*
X357800000Y-114810000D03*
%TD*%
D12*
%TO.C,S25*%
X318250000Y-164000000D03*
D13*
X312750000Y-169950000D03*
D14*
X312750000Y-164000000D03*
D13*
X307750000Y-167750000D03*
D12*
X307250000Y-164000000D03*
%TD*%
%TO.C,S13*%
X336750000Y-138000000D03*
D13*
X331250000Y-143950000D03*
D14*
X331250000Y-138000000D03*
D13*
X326250000Y-141750000D03*
D12*
X325750000Y-138000000D03*
%TD*%
D21*
%TO.C,B1*%
X263245946Y-177716740D03*
X265156256Y-179694924D03*
%TD*%
D12*
%TO.C,S14*%
X336750000Y-120250000D03*
D13*
X331250000Y-126200000D03*
D14*
X331250000Y-120250000D03*
D13*
X326250000Y-124000000D03*
D12*
X325750000Y-120250000D03*
%TD*%
%TO.C,S11*%
X355500000Y-107500000D03*
D13*
X350000000Y-113450000D03*
D14*
X350000000Y-107500000D03*
D13*
X345000000Y-111250000D03*
D12*
X344500000Y-107500000D03*
%TD*%
%TO.C,S22*%
X299250000Y-129250000D03*
D13*
X293750000Y-135200000D03*
D14*
X293750000Y-129250000D03*
D13*
X288750000Y-133000000D03*
D12*
X288250000Y-129250000D03*
%TD*%
D15*
%TO.C,D22*%
X376550000Y-90940000D03*
D16*
X376550000Y-93100000D03*
X376550000Y-96400000D03*
D17*
X376550000Y-98560000D03*
%TD*%
D15*
%TO.C,D16*%
X301550000Y-146690000D03*
D16*
X301550000Y-148850000D03*
X301550000Y-152150000D03*
D17*
X301550000Y-154310000D03*
%TD*%
D15*
%TO.C,D8*%
X357800000Y-124940000D03*
D16*
X357800000Y-127100000D03*
X357800000Y-130400000D03*
D17*
X357800000Y-132560000D03*
%TD*%
D22*
%TO.C,D19*%
X298854006Y-165602441D03*
D23*
X299592770Y-167632177D03*
X300721436Y-170733163D03*
D17*
X301460200Y-172762899D03*
%TD*%
D15*
%TO.C,D2*%
X395300000Y-131940000D03*
D16*
X395300000Y-134100000D03*
X395300000Y-137400000D03*
D17*
X395300000Y-139560000D03*
%TD*%
D12*
%TO.C,S12*%
X355500000Y-89750000D03*
D13*
X350000000Y-95700000D03*
D14*
X350000000Y-89750000D03*
D13*
X345000000Y-93500000D03*
D12*
X344500000Y-89750000D03*
%TD*%
D24*
%TO.C,D20*%
X277960254Y-175216163D03*
D25*
X279565447Y-176661485D03*
X282017825Y-178869617D03*
D17*
X283623018Y-180314939D03*
%TD*%
D11*
%TO.C,*%
X321500000Y-135500000D03*
%TD*%
D12*
%TO.C,S7*%
X374250000Y-114500000D03*
D13*
X368750000Y-120450000D03*
D14*
X368750000Y-114500000D03*
D13*
X363750000Y-118250000D03*
D12*
X363250000Y-114500000D03*
%TD*%
%TO.C,S16*%
X336750000Y-84750000D03*
D13*
X331250000Y-90700000D03*
D14*
X331250000Y-84750000D03*
D13*
X326250000Y-88500000D03*
D12*
X325750000Y-84750000D03*
%TD*%
D15*
%TO.C,D11*%
X339050000Y-137690000D03*
D16*
X339050000Y-139850000D03*
X339050000Y-143150000D03*
D17*
X339050000Y-145310000D03*
%TD*%
D15*
%TO.C,D23*%
X320300000Y-120440000D03*
D16*
X320300000Y-122600000D03*
X320300000Y-125900000D03*
D17*
X320300000Y-128060000D03*
%TD*%
D12*
%TO.C,S20*%
X318000000Y-90750000D03*
D13*
X312500000Y-96700000D03*
D14*
X312500000Y-90750000D03*
D13*
X307500000Y-94500000D03*
D12*
X307000000Y-90750000D03*
%TD*%
D15*
%TO.C,D27*%
X339050000Y-102190000D03*
D16*
X339050000Y-104350000D03*
X339050000Y-107650000D03*
D17*
X339050000Y-109810000D03*
%TD*%
D15*
%TO.C,D12*%
X339050000Y-119940000D03*
D16*
X339050000Y-122100000D03*
X339050000Y-125400000D03*
D17*
X339050000Y-127560000D03*
%TD*%
D12*
%TO.C,S1*%
X393000000Y-150000000D03*
D13*
X387500000Y-155950000D03*
D14*
X387500000Y-150000000D03*
D13*
X382500000Y-153750000D03*
D12*
X382000000Y-150000000D03*
%TD*%
%TO.C,S3*%
X393000000Y-114500000D03*
D13*
X387500000Y-120450000D03*
D14*
X387500000Y-114500000D03*
D13*
X382500000Y-118250000D03*
D12*
X382000000Y-114500000D03*
%TD*%
D15*
%TO.C,D26*%
X301550000Y-110690000D03*
D16*
X301550000Y-112850000D03*
X301550000Y-116150000D03*
D17*
X301550000Y-118310000D03*
%TD*%
D12*
%TO.C,S6*%
X374250000Y-132250000D03*
D13*
X368750000Y-138200000D03*
D14*
X368750000Y-132250000D03*
D13*
X363750000Y-136000000D03*
D12*
X363250000Y-132250000D03*
%TD*%
%TO.C,S19*%
X318000000Y-108500000D03*
D13*
X312500000Y-114450000D03*
D14*
X312500000Y-108500000D03*
D13*
X307500000Y-112250000D03*
D12*
X307000000Y-108500000D03*
%TD*%
D15*
%TO.C,D25*%
X301550000Y-91440000D03*
D16*
X301550000Y-93600000D03*
X301550000Y-96900000D03*
D17*
X301550000Y-99060000D03*
%TD*%
D15*
%TO.C,D3*%
X395300000Y-114190000D03*
D16*
X395300000Y-116350000D03*
X395300000Y-119650000D03*
D17*
X395300000Y-121810000D03*
%TD*%
D15*
%TO.C,D18*%
X320550000Y-163690000D03*
D16*
X320550000Y-165850000D03*
X320550000Y-169150000D03*
D17*
X320550000Y-171310000D03*
%TD*%
D11*
%TO.C,*%
X377750000Y-105250000D03*
%TD*%
M02*
