0
SECTION
2
HEADER
9
$INSUNITS
70
4
0
ENDSEC
0
SECTION
2
TABLES
0
TABLE
2
LTYPE
0
LTYPE
72
65
70
64
2
CONTINUOUS
3
______
73
0
40
0
0
ENDTAB
0
TABLE
2
LAYER
0
ENDTAB
0
ENDSEC
0
SECTION
2
ENTITIES
0
LINE
8
0
10
89
20
-158.5
11
89
21
-88.25
0
LINE
8
0
10
91
20
-86.25
11
123.9528389
21
-86.25
0
LINE
8
0
10
125.9414572
20
-84.4630662
11
126.3085428
21
-81.0369338
0
LINE
8
0
10
128.2971611
20
-79.25
11
142.7776252
21
-79.25
0
LINE
8
0
10
144.7554979
20
-77.546681
11
144.9945021
21
-75.953319
0
LINE
8
0
10
146.9723748
20
-74.25
11
165.4844355
21
-74.25
0
LINE
8
0
10
167.4689913
20
-76.0019306
11
167.7810087
21
-78.4980694
0
LINE
8
0
10
169.7655645
20
-80.25
11
184.4384977
21
-80.25
0
LINE
8
0
10
186.3787674
20
-81.7648678
11
186.7501
21
-83.25
0
LINE
8
0
10
186.7501
20
-83.25
11
202.75
21
-83.25
0
LINE
8
0
10
204.75
20
-85.25
11
204.75
21
-156.6698507
0
LINE
8
0
10
205.3378663
20
-158.086141
11
228.1973899
21
-180.8785751
0
LINE
8
0
10
228.1235174
20
-183.781155
11
215.0426134
21
-195.5592539
0
LINE
8
0
10
212.9058165
20
-195.906633
11
164.9264235
21
-175.0123151
0
LINE
8
0
10
163.7253289
20
-173.2171008
11
163.287722
21
-150.4615456
0
LINE
8
0
10
161.2880917
20
-148.5
11
150.9723748
21
-148.5
0
LINE
8
0
10
148.9945021
20
-150.203319
11
148.7554979
21
-151.796681
0
LINE
8
0
10
146.7776252
20
-153.5
11
132.2971611
21
-153.5
0
LINE
8
0
10
130.3085428
20
-155.2869338
11
129.9414572
21
-158.7130662
0
LINE
8
0
10
91
20
-160.5
11
127.9528389
21
-160.5
0
ARC
8
0
10
91
20
-88.25
40
2
50
90
51
180
0
ARC
8
0
10
123.9528389
20
-84.25
40
2
50
270
51
353.8844981
0
ARC
8
0
10
128.2971611
20
-81.25
40
2
50
90
51
173.8844981
0
ARC
8
0
10
142.7776252
20
-77.25
40
2
50
270
51
351.4692321
0
ARC
8
0
10
146.9723748
20
-76.25
40
2
50
90
51
171.4692321
0
ARC
8
0
10
165.4844355
20
-76.25
40
2
50
7.1250142
51
90
0
ARC
8
0
10
169.7655645
20
-78.25
40
2
50
187.1250142
51
270
0
ARC
8
0
10
184.4384977
20
-82.25
40
2
50
14.038043
51
90
0
ARC
8
0
10
202.75
20
-85.25
40
2
50
0
51
90
0
ARC
8
0
10
206.75
20
-156.6698507
40
2
50
180
51
225.0842008
0
ARC
8
0
10
226.7852562
20
-182.2948654
40
2
50
312.0000007
51
45.0842008
0
ARC
8
0
10
213.7043521
20
-194.0729643
40
2
50
246.4675858
51
312.0000007
0
ARC
8
0
10
165.7249592
20
-173.1786464
40
2
50
181.1017053
51
246.4675858
0
ARC
8
0
10
161.2880917
20
-150.5
40
2
50
1.1017053
51
90
0
ARC
8
0
10
150.9723748
20
-150.5
40
2
50
90
51
171.4692321
0
ARC
8
0
10
146.7776252
20
-151.5
40
2
50
270
51
351.4692321
0
ARC
8
0
10
132.2971611
20
-155.5
40
2
50
90
51
173.8844981
0
ARC
8
0
10
127.9528389
20
-158.5
40
2
50
270
51
353.8844981
0
ARC
8
0
10
91
20
-158.5
40
2
50
180
51
270
0
ENDSEC
0
EOF