0
SECTION
2
HEADER
9
$INSUNITS
70
4
0
ENDSEC
0
SECTION
2
TABLES
0
TABLE
2
LTYPE
0
LTYPE
72
65
70
64
2
CONTINUOUS
3
______
73
0
40
0
0
ENDTAB
0
TABLE
2
LAYER
0
ENDTAB
0
ENDSEC
0
SECTION
2
ENTITIES
0
LINE
8
0
10
398.5
20
-158.5
11
398.5
21
-88.25
0
LINE
8
0
10
396.5
20
-86.25
11
363.5471611
21
-86.25
0
LINE
8
0
10
361.5585428
20
-84.4630662
11
361.1914572
21
-81.0369338
0
LINE
8
0
10
359.2028389
20
-79.25
11
344.7223748
21
-79.25
0
LINE
8
0
10
342.7445021
20
-77.546681
11
342.5054979
21
-75.953319
0
LINE
8
0
10
340.5276252
20
-74.25
11
322.0155645
21
-74.25
0
LINE
8
0
10
320.0310087
20
-76.0019306
11
319.7189913
21
-78.4980694
0
LINE
8
0
10
317.7344355
20
-80.25
11
303.0615023
21
-80.25
0
LINE
8
0
10
301.1212326
20
-81.7648678
11
300.7499
21
-83.25
0
LINE
8
0
10
300.7499
20
-83.25
11
284.75
21
-83.25
0
LINE
8
0
10
282.75
20
-85.25
11
282.75
21
-156.6698507
0
LINE
8
0
10
282.1621337
20
-158.086141
11
259.3026101
21
-180.8785751
0
LINE
8
0
10
259.3764826
20
-183.781155
11
272.4573866
21
-195.5592539
0
LINE
8
0
10
274.5941835
20
-195.906633
11
322.5735765
21
-175.0123151
0
LINE
8
0
10
323.7746711
20
-173.2171008
11
324.212278
21
-150.4615456
0
LINE
8
0
10
326.2119083
20
-148.5
11
336.5276252
21
-148.5
0
LINE
8
0
10
338.5054979
20
-150.203319
11
338.7445021
21
-151.796681
0
LINE
8
0
10
340.7223748
20
-153.5
11
355.2028389
21
-153.5
0
LINE
8
0
10
357.1914572
20
-155.2869338
11
357.5585428
21
-158.7130662
0
LINE
8
0
10
359.5471611
20
-160.5
11
396.5
21
-160.5
0
ARC
8
0
10
396.5
20
-88.25
40
2
50
0
51
90
0
ARC
8
0
10
363.5471611
20
-84.25
40
2
50
186.1155019
51
270
0
ARC
8
0
10
359.2028389
20
-81.25
40
2
50
6.1155019
51
90
0
ARC
8
0
10
344.7223748
20
-77.25
40
2
50
188.5307679
51
270
0
ARC
8
0
10
340.5276252
20
-76.25
40
2
50
8.5307679
51
90
0
ARC
8
0
10
322.0155645
20
-76.25
40
2
50
90
51
172.8749858
0
ARC
8
0
10
317.7344355
20
-78.25
40
2
50
270
51
352.8749858
0
ARC
8
0
10
303.0615023
20
-82.25
40
2
50
90
51
165.961957
0
ARC
8
0
10
284.75
20
-85.25
40
2
50
90
51
180
0
ARC
8
0
10
280.75
20
-156.6698507
40
2
50
314.9157992
51
0
0
ARC
8
0
10
260.7147438
20
-182.2948654
40
2
50
134.9157992
51
227.9999993
0
ARC
8
0
10
273.7956479
20
-194.0729643
40
2
50
227.9999993
51
293.5324142
0
ARC
8
0
10
321.7750408
20
-173.1786464
40
2
50
293.5324142
51
358.8982947
0
ARC
8
0
10
326.2119083
20
-150.5
40
2
50
90
51
178.8982947
0
ARC
8
0
10
336.5276252
20
-150.5
40
2
50
8.5307679
51
90
0
ARC
8
0
10
340.7223748
20
-151.5
40
2
50
188.5307679
51
270
0
ARC
8
0
10
355.2028389
20
-155.5
40
2
50
6.1155019
51
90
0
ARC
8
0
10
359.5471611
20
-158.5
40
2
50
186.1155019
51
270
0
ARC
8
0
10
396.5
20
-158.5
40
2
50
270
51
0
0
ENDSEC
0
EOF